<svg width="22" height="26" viewBox="0 2 22 26" fill="none" xmlns="http://www.w3.org/2000/svg">
<path d="M21.4071 12.8612L19.7746 23.6981C19.7272 24.0131 19.5324 24.2867 19.2503 24.4347L18.0548 25.0618C17.446 25.3811 16.7039 25.005 16.6015 24.3251L15.0238 13.8515C14.9457 13.3328 15.2816 12.842 15.7933 12.7269L20.1989 11.7365C20.885 11.5823 21.5118 12.1657 21.4071 12.8612Z" fill="black"/>
<g filter="url(#filter0_ii_1017:6143)">
<path d="M6.40491 6.36488L7.35128 3.71503C7.68722 2.77442 9.04274 2.85324 9.2674 3.82644L9.95298 6.79633C9.98399 6.93066 10.0424 7.05712 10.1247 7.16778L12.8885 10.8878C13.1459 11.2342 13.3111 11.6404 13.3686 12.0682L14.2065 18.3004C14.6262 21.4227 12.198 24.1992 9.04759 24.1992H4.82503C3.64622 24.1992 2.57667 23.5089 2.09122 22.4347L1.61497 21.3808C0.576952 19.0838 0.444666 16.4795 1.24459 14.0892L1.87484 12.2059C2.02798 11.7483 2.4861 11.4653 2.96387 11.5332L8.13489 12.2682L6.49216 8.60006C6.17601 7.89411 6.14475 7.09333 6.40491 6.36488Z" fill="#F8B200"/>
<path d="M6.40491 6.36488L7.35128 3.71503C7.68722 2.77442 9.04274 2.85324 9.2674 3.82644L9.95298 6.79633C9.98399 6.93066 10.0424 7.05712 10.1247 7.16778L12.8885 10.8878C13.1459 11.2342 13.3111 11.6404 13.3686 12.0682L14.2065 18.3004C14.6262 21.4227 12.198 24.1992 9.04759 24.1992H4.82503C3.64622 24.1992 2.57667 23.5089 2.09122 22.4347L1.61497 21.3808C0.576952 19.0838 0.444666 16.4795 1.24459 14.0892L1.87484 12.2059C2.02798 11.7483 2.4861 11.4653 2.96387 11.5332L8.13489 12.2682L6.49216 8.60006C6.17601 7.89411 6.14475 7.09333 6.40491 6.36488Z" fill="url(#paint0_radial_1017:6143)" fill-opacity="0.5"/>
</g>
<defs>
<filter id="filter0_ii_1017:6143" x="-2.27222" y="0.0512695" width="17.5259" height="26.1479" filterUnits="userSpaceOnUse" color-interpolation-filters="sRGB">
<feFlood flood-opacity="0" result="BackgroundImageFix"/>
<feBlend mode="normal" in="SourceGraphic" in2="BackgroundImageFix" result="shape"/>
<feColorMatrix in="SourceAlpha" type="matrix" values="0 0 0 0 0 0 0 0 0 0 0 0 0 0 0 0 0 0 127 0" result="hardAlpha"/>
<feOffset dx="1" dy="2"/>
<feGaussianBlur stdDeviation="2"/>
<feComposite in2="hardAlpha" operator="arithmetic" k2="-1" k3="1"/>
<feColorMatrix type="matrix" values="0 0 0 0 1 0 0 0 0 1 0 0 0 0 1 0 0 0 0.6 0"/>
<feBlend mode="normal" in2="shape" result="effect1_innerShadow_1017:6143"/>
<feColorMatrix in="SourceAlpha" type="matrix" values="0 0 0 0 0 0 0 0 0 0 0 0 0 0 0 0 0 0 127 0" result="hardAlpha"/>
<feOffset dx="-3" dy="-3"/>
<feGaussianBlur stdDeviation="3.5"/>
<feComposite in2="hardAlpha" operator="arithmetic" k2="-1" k3="1"/>
<feColorMatrix type="matrix" values="0 0 0 0 1 0 0 0 0 0 0 0 0 0 0 0 0 0 0.15 0"/>
<feBlend mode="normal" in2="effect1_innerShadow_1017:6143" result="effect2_innerShadow_1017:6143"/>
</filter>
<radialGradient id="paint0_radial_1017:6143" cx="0" cy="0" r="1" gradientUnits="userSpaceOnUse" gradientTransform="translate(3.49951 7) rotate(67.9321) scale(19.9625 18.8574)">
<stop stop-color="white"/>
<stop offset="1" stop-color="white" stop-opacity="0"/>
</radialGradient>
</defs>
</svg>
