<svg width="22" height="22" viewBox="0 0 22 22" fill="none" xmlns="http://www.w3.org/2000/svg">
<g filter="url(#filter0_ii_1017:6153)">
<circle cx="10.9998" cy="11" r="11" fill="#E84A05"/>
<circle cx="10.9998" cy="11" r="11" fill="url(#paint0_radial_1017:6153)" fill-opacity="0.5"/>
</g>
<path d="M13.103 8.74968C13.4979 8.0656 14.066 7.49753 14.7501 7.10257C15.4342 6.70761 16.2102 6.49968 17.0001 6.49968" stroke="black"/>
<path d="M8.77253 16.0771C9.45662 15.6822 10.2326 15.4743 11.0225 15.4743C11.8124 15.4743 12.5884 15.6822 13.2725 16.0771" stroke="black"/>
<path d="M8.89656 8.74968C8.5016 8.0656 7.93353 7.49753 7.24944 7.10257C6.56535 6.70761 5.78936 6.49968 4.99944 6.49968" stroke="black"/>
<rect x="11.9998" y="8.04004" width="3" height="4" rx="1.5" transform="rotate(-20.2785 11.9998 8.04004)" fill="black"/>
<rect x="7.03491" y="7" width="3" height="4" rx="1.5" transform="rotate(15 7.03491 7)" fill="black"/>
<defs>
<filter id="filter0_ii_1017:6153" x="-3.00024" y="-3" width="26" height="27" filterUnits="userSpaceOnUse" color-interpolation-filters="sRGB">
<feFlood flood-opacity="0" result="BackgroundImageFix"/>
<feBlend mode="normal" in="SourceGraphic" in2="BackgroundImageFix" result="shape"/>
<feColorMatrix in="SourceAlpha" type="matrix" values="0 0 0 0 0 0 0 0 0 0 0 0 0 0 0 0 0 0 127 0" result="hardAlpha"/>
<feOffset dx="1" dy="2"/>
<feGaussianBlur stdDeviation="2"/>
<feComposite in2="hardAlpha" operator="arithmetic" k2="-1" k3="1"/>
<feColorMatrix type="matrix" values="0 0 0 0 1 0 0 0 0 1 0 0 0 0 1 0 0 0 0.6 0"/>
<feBlend mode="normal" in2="shape" result="effect1_innerShadow_1017:6153"/>
<feColorMatrix in="SourceAlpha" type="matrix" values="0 0 0 0 0 0 0 0 0 0 0 0 0 0 0 0 0 0 127 0" result="hardAlpha"/>
<feOffset dx="-3" dy="-3"/>
<feGaussianBlur stdDeviation="3.5"/>
<feComposite in2="hardAlpha" operator="arithmetic" k2="-1" k3="1"/>
<feColorMatrix type="matrix" values="0 0 0 0 1 0 0 0 0 0 0 0 0 0 0 0 0 0 0.15 0"/>
<feBlend mode="normal" in2="effect1_innerShadow_1017:6153" result="effect2_innerShadow_1017:6153"/>
</filter>
<radialGradient id="paint0_radial_1017:6153" cx="0" cy="0" r="1" gradientUnits="userSpaceOnUse" gradientTransform="translate(5.99976 5) rotate(55.8855) scale(18.7216)">
<stop stop-color="white"/>
<stop offset="1" stop-color="white" stop-opacity="0"/>
</radialGradient>
</defs>
</svg>
