<svg width="23" height="22" viewBox="0 0 23 22" fill="none" xmlns="http://www.w3.org/2000/svg">
<ellipse cx="11.0006" cy="11" rx="11.0006" ry="11" fill="#F8B200"/>
<ellipse cx="11.0006" cy="11" rx="11.0006" ry="11" fill="url(#paint0_radial_3:19)" fill-opacity="0.5"/>
<path d="M12.836 6.65334C13.599 6.44889 14.4024 6.44889 15.1655 6.65334C15.9285 6.85778 16.6243 7.25947 17.1829 7.81803" stroke="black"/>
<path d="M9.16517 6.65334C8.40212 6.44889 7.5987 6.44889 6.83565 6.65334C6.07261 6.85778 5.37682 7.25947 4.81824 7.81803" stroke="black"/>
<path d="M17.6054 10.6438C18.2587 10.7832 18.5854 10.8529 18.8111 11.1898C19.0367 11.5266 18.9816 11.829 18.8714 12.4338C18.77 12.9905 18.6096 13.5362 18.392 14.0615C17.9899 15.0321 17.4006 15.914 16.6577 16.6569C15.9148 17.3997 15.0328 17.989 14.0622 18.391C13.0915 18.7931 12.0512 19 11.0006 19C9.94994 19 8.9096 18.7931 7.93894 18.391C6.96829 17.989 6.08633 17.3997 5.34342 16.6569C4.60051 15.914 4.01121 15.0321 3.60915 14.0615C3.39155 13.5362 3.23111 12.9905 3.12969 12.4338C3.01952 11.829 2.96443 11.5266 3.19008 11.1898C3.41572 10.8529 3.74239 10.7832 4.39572 10.6438C5.74228 10.3565 8.01487 10 11.0006 10C13.9863 10 16.2589 10.3565 17.6054 10.6438Z" fill="#A76500"/>
<path d="M17.6054 10.6438C18.2587 10.7832 18.5854 10.8529 18.8111 11.1898C19.0367 11.5266 18.9816 11.829 18.8714 12.4338C18.77 12.9905 18.6096 13.5362 18.392 14.0615C17.9899 15.0321 17.4006 15.914 16.6577 16.6569C15.9148 17.3997 15.0328 17.989 14.0622 18.391C13.0915 18.7931 12.0512 19 11.0006 19C9.94994 19 8.9096 18.7931 7.93894 18.391C6.96829 17.989 6.08633 17.3997 5.34342 16.6569C4.60051 15.914 4.01121 15.0321 3.60915 14.0615C3.39155 13.5362 3.23111 12.9905 3.12969 12.4338C3.01952 11.829 2.96443 11.5266 3.19008 11.1898C3.41572 10.8529 3.74239 10.7832 4.39572 10.6438C5.74228 10.3565 8.01487 10 11.0006 10C13.9863 10 16.2589 10.3565 17.6054 10.6438Z" fill="url(#paint1_radial_3:19)" fill-opacity="0.8" style="mix-blend-mode:multiply"/>
<path d="M15.4949 15.447C15.7884 15.9799 15.9351 16.2463 15.8403 16.6269C15.7454 17.0075 15.3901 17.2398 14.6795 17.7044C14.002 18.1473 13.226 18.5 11.0006 18.5C8.77519 18.5 7.99913 18.1473 7.3216 17.7044C6.611 17.2398 6.2557 17.0075 6.16087 16.6269C6.06604 16.2463 6.21277 15.9799 6.50624 15.447C8.30319 12.1843 13.698 12.1843 15.4949 15.447Z" fill="#FF3A2D"/>
<g filter="url(#filter0_i_3:19)">
<path d="M21.6298 11.5683C22.1988 12.5537 21.8611 13.8137 20.8757 14.3826C19.8902 14.9515 18.6301 14.6139 18.0612 13.6285C17.7307 13.0562 17.691 11.5975 17.7158 10.4751C17.7312 9.77575 18.458 9.35615 19.0714 9.69244C20.0559 10.2322 21.2994 10.996 21.6298 11.5683Z" fill="#008FDE"/>
<path d="M21.6298 11.5683C22.1988 12.5537 21.8611 13.8137 20.8757 14.3826C19.8902 14.9515 18.6301 14.6139 18.0612 13.6285C17.7307 13.0562 17.691 11.5975 17.7158 10.4751C17.7312 9.77575 18.458 9.35615 19.0714 9.69244C20.0559 10.2322 21.2994 10.996 21.6298 11.5683Z" fill="url(#paint2_radial_3:19)"/>
</g>
<path d="M21.4999 11.6433C22.0274 12.5569 21.7144 13.7252 20.8007 14.2527C19.887 14.7802 18.7186 14.4672 18.1911 13.5535C18.12 13.4304 18.0595 13.2496 18.0111 13.0211C17.963 12.7945 17.9285 12.5301 17.9048 12.2456C17.8573 11.6766 17.8534 11.0372 17.8658 10.4784C17.8787 9.89158 18.4846 9.54178 18.9993 9.82396C19.4894 10.0927 20.0413 10.4157 20.5103 10.7414C20.7449 10.9042 20.9566 11.0662 21.1288 11.2211C21.3025 11.3774 21.4288 11.5201 21.4999 11.6433Z" stroke="black" stroke-opacity="0.21" stroke-width="0.3"/>
<defs>
<filter id="filter0_i_3:19" x="16.7098" y="8.57434" width="5.19644" height="6.08464" filterUnits="userSpaceOnUse" color-interpolation-filters="sRGB">
<feFlood flood-opacity="0" result="BackgroundImageFix"/>
<feBlend mode="normal" in="SourceGraphic" in2="BackgroundImageFix" result="shape"/>
<feColorMatrix in="SourceAlpha" type="matrix" values="0 0 0 0 0 0 0 0 0 0 0 0 0 0 0 0 0 0 127 0" result="hardAlpha"/>
<feOffset dx="-1" dy="-1"/>
<feGaussianBlur stdDeviation="0.5"/>
<feComposite in2="hardAlpha" operator="arithmetic" k2="-1" k3="1"/>
<feColorMatrix type="matrix" values="0 0 0 0 1 0 0 0 0 1 0 0 0 0 1 0 0 0 0.5 0"/>
<feBlend mode="overlay" in2="shape" result="effect1_innerShadow_3:19"/>
</filter>
<radialGradient id="paint0_radial_3:19" cx="0" cy="0" r="1" gradientUnits="userSpaceOnUse" gradientTransform="translate(6.00031 5) rotate(55.8842) scale(18.7219 18.7223)">
<stop stop-color="white"/>
<stop offset="1" stop-color="white" stop-opacity="0"/>
</radialGradient>
<radialGradient id="paint1_radial_3:19" cx="0" cy="0" r="1" gradientUnits="userSpaceOnUse" gradientTransform="translate(11.0006 10.5) rotate(90) scale(8.5 15.1119)">
<stop stop-color="#824803"/>
<stop offset="1" stop-opacity="0"/>
</radialGradient>
<radialGradient id="paint2_radial_3:19" cx="0" cy="0" r="1" gradientUnits="userSpaceOnUse" gradientTransform="translate(18.5578 10.3681) rotate(59.9987) scale(4.37809 2.95248)">
<stop stop-color="white"/>
<stop offset="1" stop-color="white" stop-opacity="0"/>
</radialGradient>
</defs>
</svg>
