<svg width="24" height="24" viewBox="0 0 24 24" stroke="black"  xmlns="http://www.w3.org/2000/svg">
    <circle cx="12" cy="12" r="11"  stroke-width="2" fill="none"/>
    <path d="M10.9647 12.8637C10.2436 12.6705 9.5909 12.2793 9.08054 11.7344C8.57018 11.1895 8.22251 10.5126 8.07686 9.78036C7.93121 9.04812 7.99339 8.28973 8.25638 7.591C8.51936 6.89227 8.97265 6.28108 9.56495 5.82659C10.1573 5.37209 10.8649 5.09244 11.6079 5.01926C12.3509 4.94608 13.0996 5.0823 13.7692 5.41251C14.4387 5.74272 15.0026 6.25373 15.3968 6.88773C15.7911 7.52173 16 8.25342 16 9"  fill="none" stroke-width="2" stroke-linecap="round" stroke-linejoin="round"/>
    <path d="M13.0353 11.1363C13.7564 11.3295 14.4091 11.7207 14.9195 12.2656C15.4298 12.8105 15.7775 13.4874 15.9231 14.2196C16.0688 14.9519 16.0066 15.7103 15.7436 16.409C15.4806 17.1077 15.0274 17.7189 14.435 18.1734C13.8427 18.6279 13.1351 18.9076 12.3921 18.9807C11.6491 19.0539 10.9004 18.9177 10.2308 18.5875C9.56125 18.2573 8.99744 17.7463 8.60319 17.1123C8.20894 16.4783 8 15.7466 8 15" fill="none" stroke-width="2" stroke-linecap="round" stroke-linejoin="round"/>
</svg>
