<svg width="25" height="24" viewBox="0 0 25 24" fill="#12151F" xmlns="http://www.w3.org/2000/svg">
<path fill-rule="evenodd" clip-rule="evenodd" stroke="none" d="M7.38662 3.15002C5.78152 3.15002 4.5536 4.42034 3.77759 5.96082C2.97688 7.55031 2.50639 9.68674 2.50639 12C2.50639 14.3134 2.97705 16.4498 3.77783 18.0393C4.55388 19.5797 5.78179 20.85 7.38662 20.85C7.85607 20.85 8.23662 20.4695 8.23662 20C8.23662 19.5306 7.85607 19.15 7.38662 19.15C6.76593 19.15 5.97873 18.6295 5.29604 17.2744C4.63809 15.9684 4.20639 14.1048 4.20639 12C4.20639 9.89518 4.63795 8.0316 5.29583 6.72563C5.9784 5.37064 6.76559 4.85002 7.38662 4.85002C7.85607 4.85002 8.23662 4.46947 8.23662 4.00002C8.23662 3.53058 7.85607 3.15002 7.38662 3.15002ZM20.8 12C20.8 15.4674 17.9644 18.3 14.4395 18.3C10.9147 18.3 8.07907 15.4674 8.07907 12C8.07907 8.53268 10.9147 5.70002 14.4395 5.70002C17.9644 5.70002 20.8 8.53268 20.8 12ZM22.5 12C22.5 16.4183 18.8912 20 14.4395 20C9.98786 20 6.37907 16.4183 6.37907 12C6.37907 7.58175 9.98786 4.00002 14.4395 4.00002C18.8912 4.00002 22.5 7.58175 22.5 12Z"/>
</svg>
