<svg width="25" height="24" viewBox="0 0 25 24" fill="#9EA9B2" stroke="#9EA9B2" xmlns="http://www.w3.org/2000/svg">
<path stroke="none" d="M20.65 8C20.65 8.46944 21.0306 8.85 21.5 8.85C21.9695 8.85 22.35 8.46944 22.35 8H20.65ZM2.65002 8C2.65002 8.46944 3.03057 8.85 3.50002 8.85C3.96946 8.85 4.35002 8.46944 4.35002 8H2.65002ZM7.50002 4.85H17.5V3.15H7.50002V4.85ZM17.5 4.85C19.2397 4.85 20.65 6.2603 20.65 8H22.35C22.35 5.32142 20.1786 3.15 17.5 3.15V4.85ZM7.50002 3.15C4.82143 3.15 2.65002 5.32142 2.65002 8H4.35002C4.35002 6.2603 5.76032 4.85 7.50002 4.85V3.15Z"/>
<rect x="3.35002" y="9.85" width="18.3" height="10.3" rx="5.15" fill="none" stroke-width="1.7"/>
</svg>
