<svg width="25" height="24" viewBox="0 0 25 24" fill="#12151F" xmlns="http://www.w3.org/2000/svg">
<path fill-rule="evenodd" clip-rule="evenodd" stroke="none" d="M12 9.3C13.5464 9.3 14.8 8.0464 14.8 6.5C14.8 4.9536 13.5464 3.7 12 3.7C10.4536 3.7 9.19999 4.9536 9.19999 6.5C9.19999 8.0464 10.4536 9.3 12 9.3ZM12 11C14.4853 11 16.5 8.98528 16.5 6.5C16.5 4.01472 14.4853 2 12 2C9.51471 2 7.49999 4.01472 7.49999 6.5C7.49999 8.98528 9.51471 11 12 11ZM22.1155 16.4138C22.4393 16.7537 22.4261 17.2918 22.0862 17.6155L17.8862 21.6155L17.2644 22.2077L16.6786 21.58L13.8786 18.58C13.5583 18.2368 13.5768 17.6989 13.92 17.3786C14.2632 17.0583 14.8011 17.0768 15.1214 17.42L17.3355 19.7923L20.9138 16.3845C21.2537 16.0607 21.7918 16.0739 22.1155 16.4138ZM4.34999 21C4.34999 18.7643 5.24762 17.0017 6.68521 15.7848C8.1363 14.5565 10.1818 13.85 12.5 13.85C13.9859 13.85 15.3765 14.2469 16.5744 14.9398C16.9807 15.1749 17.5007 15.036 17.7358 14.6297C17.9708 14.2233 17.832 13.7033 17.4256 13.4683C15.9759 12.6297 14.2927 12.15 12.5 12.15C9.84762 12.15 7.39313 12.9583 5.58685 14.4873C3.76709 16.0277 2.64999 18.2651 2.64999 21C2.64999 21.4694 3.03055 21.85 3.49999 21.85C3.96944 21.85 4.34999 21.4694 4.34999 21Z"/>
</svg>
