<svg width="20" height="24" viewBox="0 0 20 24" fill="black" xmlns="http://www.w3.org/2000/svg">
    <path fill-rule="evenodd" clip-rule="evenodd" d="M9 21.875C9 20.7828 8.16082 19.8922 7.11485 19.5775C2.99855 18.3392 0 14.5198 0 10C0 4.47715 4.47715 0 10 0C15.5228 0 20 4.47715 20 10C20 14.5198 17.0014 18.3392 12.8852 19.5775C11.8392 19.8922 11 20.7828 11 21.875V23C11 23.5523 10.5523 24 10 24C9.44771 24 9 23.5523 9 23V21.875ZM10 18C14.4183 18 18 14.4183 18 10C18 5.58172 14.4183 2 10 2C5.58172 2 2 5.58172 2 10C2 14.4183 5.58172 18 10 18Z" />
</svg>
