<svg width="24" height="24" viewBox="0 0 24 24" fill="#12151F" xmlns="http://www.w3.org/2000/svg">
<path fill-rule="evenodd" clip-rule="evenodd" stroke="none" d="M11.814 12.8366C11.8755 12.8909 11.9312 12.9402 11.9998 13C12.0521 12.9544 12.0989 12.913 12.1534 12.8648L12.1534 12.8648C12.332 12.7069 12.5929 12.4762 13.398 11.7849L13.4583 11.7331C15.5821 9.90804 16.9998 8.68972 16.9998 6.9085C16.9998 5.25031 15.8467 4.00005 14.3435 4.00005C13.9054 4.00005 13.5251 4.11524 13.1998 4.29869C12.6457 4.61111 12.2507 5.1215 11.9998 5.59797C11.7489 5.1215 11.3539 4.61111 10.7998 4.29869C10.4745 4.11524 10.0942 4.00005 9.65605 4.00005C8.15286 4.00005 6.9998 5.25029 6.9998 6.9085C6.9998 8.68972 8.41754 9.90804 10.5413 11.7331L10.6016 11.7849C11.3931 12.4645 11.6296 12.6736 11.8138 12.8364L11.8138 12.8364L11.814 12.8366ZM14.3435 2.30005C13.3835 2.30005 12.6087 2.61304 11.9998 3.04819C11.3909 2.61304 10.616 2.30005 9.65605 2.30005C7.07664 2.30005 5.2998 4.45491 5.2998 6.9085C5.2998 8.33059 5.89429 9.45721 6.68181 10.4093C7.39531 11.2719 8.37267 12.1114 9.36603 12.9646L9.36604 12.9646L9.49358 13.0742L9.49415 13.0747C10.2756 13.7457 10.5035 13.9471 10.6873 14.1096L10.6874 14.1096C10.7505 14.1654 10.8084 14.2166 10.8818 14.2807L11.9998 15.2568L13.1178 14.2807C13.1742 14.2314 13.2232 14.1881 13.2794 14.1384L13.2797 14.1382C13.4589 13.9798 13.7109 13.757 14.5055 13.0747L14.506 13.0742L14.6335 12.9646L14.6336 12.9646C15.6269 12.1114 16.6043 11.2719 17.3178 10.4093C18.1053 9.45721 18.6998 8.33059 18.6998 6.9085C18.6998 4.45494 16.923 2.30005 14.3435 2.30005ZM5.43884 14.7443C5.45856 14.6819 5.51644 14.6395 5.58187 14.6395H5.81375H6.77829C7.24773 14.6395 7.62829 14.259 7.62829 13.7895C7.62829 13.3201 7.24773 12.9395 6.77829 12.9395H5.81375H5.58187C4.77496 12.9395 4.06113 13.4625 3.81791 14.2319L2.23726 19.2319C1.86028 20.4244 2.75057 21.6395 4.00121 21.6395H19.9759C21.2336 21.6395 22.1247 20.4115 21.7346 19.2158L20.1035 14.2158C19.8552 13.4546 19.1454 12.9395 18.3447 12.9395H17.6236C17.1541 12.9395 16.7736 13.3201 16.7736 13.7895C16.7736 14.259 17.1541 14.6395 17.6236 14.6395H18.3447C18.4097 14.6395 18.4672 14.6813 18.4874 14.743L20.1185 19.743C20.1501 19.84 20.0779 19.9395 19.9759 19.9395H4.00121C3.89981 19.9395 3.82763 19.841 3.85819 19.7443L5.43884 14.7443Z"/>
</svg>
