<svg width="24" height="24" viewBox="0 0 24 24" fill="black" stroke="black" xmlns="http://www.w3.org/2000/svg">
    <path d="M21.8545 6.03375C21.4639 6.42427 20.8308 6.42427 20.4402 6.03375C20.0497 5.64322 20.0497 5.01006 20.4402 4.61953L21.8545 6.03375ZM19.3796 2.85177L15.3726 6.8587L13.9584 5.44449L17.9654 1.43755L19.3796 2.85177ZM20.4402 4.61953L20.7938 4.26598L22.208 5.68019L21.8545 6.03375L20.4402 4.61953ZM20.7938 2.85177C20.4033 2.46124 19.7701 2.46124 19.3796 2.85177L17.9654 1.43755C19.1369 0.26598 21.0364 0.26598 22.208 1.43755L20.7938 2.85177ZM22.208 1.43755C23.3796 2.60913 23.3796 4.50862 22.208 5.68019L20.7938 4.26598C21.1843 3.87546 21.1843 3.24229 20.7938 2.85177L22.208 1.43755ZM13.9584 10.1585C12.6567 8.85679 12.6567 6.74624 13.9584 5.44449L15.3726 6.8587C14.8519 7.3794 14.8519 8.22362 15.3726 8.74432L13.9584 10.1585Z" stroke="none"/>
    <path d="M4.63458 10.5258C3.55851 11.6019 3.19139 11.9855 2.99616 12.3603C2.54375 13.2289 2.54375 14.2636 2.99616 15.1321C3.19139 15.5069 3.55851 15.8905 4.63459 16.9666L6.77685 19.1089C7.85293 20.1849 8.23652 20.552 8.61132 20.7473C9.47987 21.1997 10.5146 21.1997 11.3831 20.7473L11.8451 21.6342L11.3831 20.7473C11.7579 20.552 12.1415 20.1849 13.2176 19.1088L18.0377 14.2888C20.4078 11.9186 20.4078 8.07589 18.0377 5.70575C15.6676 3.33562 11.8248 3.33562 9.45467 5.70575L4.63458 10.5258Z" fill="none" stroke-width="2"/>
    <circle cx="13.7227" cy="9.92291" r="2" transform="rotate(45 13.7227 9.92291)" stroke="none"/>
</svg>
