<svg width="19" height="18" viewBox="0 0 19 18" fill="none" xmlns="http://www.w3.org/2000/svg">
<path fill-rule="evenodd" clip-rule="evenodd" d="M8.814 0.191281L1.14733 4.81954C0.950222 4.93925 0.787104 5.10806 0.673716 5.30968C0.560328 5.51129 0.500499 5.73891 0.5 5.97056V15.9877C0.500529 16.5212 0.711413 17.0328 1.08637 17.41C1.46133 17.7873 1.96973 17.9995 2.5 18H5.83333C6.18696 18 6.52609 17.8587 6.77614 17.6071C7.02619 17.3555 7.16667 17.0143 7.16667 16.6585V12.9693C7.16667 12.7914 7.23691 12.6208 7.36193 12.495C7.48695 12.3692 7.65652 12.2985 7.83333 12.2985H11.1667C11.3435 12.2985 11.513 12.3692 11.6381 12.495C11.7631 12.6208 11.8333 12.7914 11.8333 12.9693V16.6585C11.8333 17.0143 11.9738 17.3555 12.2239 17.6071C12.4739 17.8587 12.813 18 13.1667 18H16.5C17.0303 17.9995 17.5387 17.7873 17.9136 17.41C18.2886 17.0328 18.4995 16.5212 18.5 15.9877V5.97056C18.4995 5.73894 18.4398 5.51135 18.3264 5.30973C18.2131 5.10812 18.05 4.93929 17.853 4.81954L10.1863 0.191281C9.97907 0.0661179 9.74189 0 9.50017 0C9.25844 0 9.02126 0.0661179 8.814 0.191281ZM16.8 6.16961L9.50017 1.76281L2.2 6.16981V15.9865C2.20021 16.0729 2.23451 16.1537 2.29213 16.2116C2.3495 16.2694 2.42508 16.2999 2.50171 16.3H5.46667V12.9693C5.46667 12.3439 5.7135 11.742 6.15617 11.2966C6.5992 10.8508 7.20229 10.5985 7.83333 10.5985H11.1667C11.7977 10.5985 12.4008 10.8508 12.8438 11.2966C13.2865 11.742 13.5333 12.3439 13.5333 12.9693V16.3H16.4983C16.5749 16.2999 16.6505 16.2694 16.7079 16.2116C16.7656 16.1536 16.7999 16.0726 16.8 15.986V6.16961ZM9.69258 1.64665C9.69263 1.64662 9.69254 1.64667 9.69258 1.64665V1.64665ZM9.30788 1.64672C9.30792 1.64675 9.30784 1.6467 9.30788 1.64672V1.64672Z" fill="#12151F"/>
</svg>
