<svg viewBox="0 0 42 42" fill="none" xmlns="http://www.w3.org/2000/svg">
    <path d="M42 21C42 9.40202 32.598 3.8147e-06 21 3.8147e-06C9.40201 3.8147e-06 0 9.40202 0 21C0 31.4817 7.6794 40.1695 17.7188 41.7449V27.0703H12.3867V21H17.7188V16.3734C17.7188 11.1103 20.8539 8.20313 25.6508 8.20313C27.9483 8.20313 30.3516 8.61329 30.3516 8.61329V13.7813H27.7035C25.0948 13.7813 24.2812 15.4 24.2812 17.0607V21H30.1055L29.1744 27.0703H24.2812V41.7449C34.3206 40.1695 42 31.4817 42 21Z" fill="#1877F2"/>
    <path d="M29.1744 27.0703L30.1054 21H24.2812V17.0607C24.2812 15.4 25.0948 13.7813 27.7035 13.7813H30.3515V8.61328C30.3515 8.61328 27.9483 8.20312 25.6507 8.20312C20.8539 8.20312 17.7187 11.1103 17.7187 16.3734V21H12.3867V27.0703H17.7187V41.7449C18.7879 41.9126 19.8837 42 21 42C22.1162 42 23.2121 41.9126 24.2812 41.7449V27.0703H29.1744Z" fill="white"/>
</svg>
