<svg width="42" height="42" viewBox="0 0 42 42" fill="none" xmlns="http://www.w3.org/2000/svg">
    <path d="M0 21C0 20.0715 0 19.6073 0.0154192 19.2148C0.425179 8.78572 8.78572 0.425179 19.2148 0.0154192C19.6073 0 20.0715 0 21 0C21.9285 0 22.3927 0 22.7852 0.0154192C33.2143 0.425179 41.5748 8.78572 41.9846 19.2148C42 19.6073 42 20.0715 42 21C42 21.9285 42 22.3927 41.9846 22.7852C41.5748 33.2143 33.2143 41.5748 22.7852 41.9846C22.3927 42 21.9285 42 21 42C20.0715 42 19.6073 42 19.2148 41.9846C8.78572 41.5748 0.425179 33.2143 0.0154192 22.7852C0 22.3927 0 21.9285 0 21Z" fill="#1D9BF0"/>
    <path d="M30.9627 15.9494C30.9776 16.1651 30.9776 16.3808 30.9776 16.5985C30.9776 23.2316 25.928 30.8815 16.6946 30.8815V30.8775C13.9671 30.8815 11.2962 30.1002 9 28.6271C9.39661 28.6748 9.79521 28.6986 10.1948 28.6996C12.4552 28.7016 14.651 27.9432 16.4292 26.5466C14.2812 26.5058 12.3975 25.1053 11.7395 23.0606C12.492 23.2057 13.2673 23.1759 14.0058 22.9741C11.6639 22.501 9.9791 20.4434 9.9791 18.0538C9.9791 18.0319 9.9791 18.011 9.9791 17.9901C10.6769 18.3788 11.4582 18.5945 12.2574 18.6184C10.0517 17.1442 9.37176 14.2099 10.7037 11.9157C13.2524 15.0518 17.0127 16.9584 21.0494 17.1601C20.6448 15.4167 21.1975 13.5897 22.5016 12.364C24.5235 10.4635 27.7033 10.5609 29.6039 12.5817C30.7281 12.3601 31.8056 11.9476 32.7916 11.3631C32.4169 12.5251 31.6326 13.5121 30.5849 14.1393C31.5799 14.0221 32.5521 13.7557 33.4676 13.3491C32.7936 14.359 31.9447 15.2387 30.9627 15.9494Z" fill="white"/>
</svg>
