<svg width="24" height="24" viewBox="0 0 24 24" fill="none" xmlns="http://www.w3.org/2000/svg">
<path fill-rule="evenodd" clip-rule="evenodd" d="M13.5293 3.47546C12.7889 1.62908 10.2324 1.48044 9.28304 3.22858C9.22344 3.33832 9.17052 3.47381 9.12432 3.59674C9.07393 3.73087 9.01052 3.90842 8.93087 4.13145L8.84058 4.38424C8.80301 4.48939 8.77209 4.57589 8.74685 4.6639C8.57874 5.25015 8.60313 5.87487 8.81643 6.44624C8.84845 6.53201 8.88601 6.61583 8.93165 6.71771L9.23578 7.3968C9.51628 8.02316 9.68999 8.41537 9.77646 8.70489C9.80551 8.80217 9.81721 8.86468 9.82174 8.90155C9.78541 8.9093 9.7225 8.91865 9.62107 8.92294C9.31919 8.93572 8.89175 8.89956 8.20814 8.83888L8.1472 8.83347C6.99571 8.73123 6.04741 8.64703 5.30738 8.678C4.54551 8.70988 3.81804 8.86729 3.26355 9.41867C3.09803 9.58327 2.95336 9.76758 2.83278 9.96746C2.42887 10.637 2.44875 11.3811 2.59874 12.1287C2.74442 12.8549 3.05145 13.7561 3.42426 14.8504L4.7263 18.6724C4.93653 19.2896 5.11689 19.8191 5.31438 20.2369C5.52578 20.6842 5.79073 21.081 6.2121 21.3826C6.63346 21.6842 7.09447 21.807 7.586 21.8629C8.04517 21.9151 8.60453 21.9151 9.25657 21.915H17.7378C17.7576 21.915 17.7773 21.915 17.7969 21.915H18.6753L18.674 21.9057C18.8092 21.9012 18.9362 21.8944 19.0549 21.8843C19.4378 21.8518 19.8045 21.7808 20.1573 21.5993C20.5551 21.3947 20.8991 21.0993 21.1615 20.737C21.3943 20.4157 21.5199 20.0639 21.6099 19.6903C21.6951 19.3367 21.7615 18.9025 21.8394 18.393L22.5346 13.8468C22.6902 12.8296 22.8206 11.9774 22.8283 11.2949C22.8364 10.5746 22.7129 9.89044 22.2222 9.31901C21.7315 8.74758 21.0739 8.52208 20.3606 8.42121C19.6848 8.32563 18.8227 8.32566 17.7937 8.3257L16.5323 8.3257L14.015 4.93749C13.9828 4.89415 13.9752 4.88378 13.9684 4.87411C13.888 4.7602 13.8291 4.63265 13.7944 4.49766C13.7914 4.4862 13.7885 4.47366 13.7763 4.42105L13.7745 4.41302C13.7212 4.18229 13.6788 3.99859 13.6443 3.85954C13.6127 3.73208 13.5758 3.59138 13.5293 3.47546ZM17.0769 10.0257H17.7309C18.8393 10.0257 19.5799 10.0277 20.1226 10.1045C20.6416 10.1779 20.8246 10.3009 20.9324 10.4265C21.0403 10.5521 21.1343 10.7516 21.1284 11.2757C21.1222 11.8238 21.0122 12.5562 20.8447 13.6519L20.1641 18.102C20.0796 18.6548 20.0235 19.017 19.9572 19.2921C19.8938 19.5552 19.8361 19.6688 19.7848 19.7397C19.6789 19.8859 19.5401 20.0051 19.3796 20.0876C19.3018 20.1277 19.1807 20.1675 18.9111 20.1904C18.7786 20.2017 18.6273 20.2078 18.4462 20.2111L17.0769 10.0257ZM16.7314 20.215H9.30244C8.59177 20.215 8.12983 20.2138 7.77804 20.1738C7.44787 20.1362 7.30225 20.0723 7.20156 20.0002C7.10086 19.9281 6.99334 19.8109 6.85134 19.5105C6.70004 19.1904 6.54987 18.7535 6.32071 18.0808L5.05317 14.3601C4.65571 13.1934 4.38666 12.3982 4.26553 11.7943C4.14613 11.1992 4.2116 10.9729 4.28844 10.8456C4.3371 10.7649 4.39547 10.6905 4.46226 10.6241C4.56775 10.5192 4.77195 10.4019 5.37845 10.3765C5.99377 10.3508 6.83011 10.4232 8.05783 10.5322L8.11303 10.5371C8.72443 10.5914 9.26551 10.6395 9.69297 10.6214C10.1359 10.6027 10.668 10.5087 11.0662 10.0793C11.174 9.96297 11.2664 9.83326 11.3412 9.69337C11.6172 9.17685 11.5322 8.64323 11.4054 8.21842C11.2829 7.80846 11.0609 7.3127 10.8099 6.75251L10.4917 6.04192C10.4334 5.9117 10.4197 5.88015 10.4091 5.85169C10.323 5.62114 10.3132 5.36906 10.381 5.1325C10.3894 5.1033 10.4006 5.07077 10.4485 4.9364L10.5291 4.71094C10.6121 4.47841 10.6708 4.31412 10.7157 4.19468C10.7532 4.09476 10.7714 4.05305 10.7762 4.04198C10.7778 4.0384 10.778 4.03802 10.7769 4.0399C11.0395 3.55638 11.7467 3.59749 11.9514 4.10819C11.9507 4.1062 11.9508 4.1066 11.9519 4.11034C11.9554 4.12192 11.9686 4.16546 11.9943 4.26902C12.0251 4.39286 12.0643 4.56284 12.1199 4.80343L12.1216 4.81102C12.1312 4.85238 12.1391 4.88651 12.1479 4.92093C12.2339 5.25546 12.38 5.57158 12.5791 5.85386C12.5996 5.88291 12.6205 5.91103 12.6458 5.94511L15.2918 9.50646L16.7314 20.215Z" fill="#12151F"/>
</svg>
