<svg width="24" height="24" viewBox="0 0 24 24" fill="#12151F" xmlns="http://www.w3.org/2000/svg">
<mask id="path-1-inside-1_739_14041" fill="white">
<path fill-rule="evenodd" clip-rule="evenodd" d="M12 3C7.02944 3 3 7.02944 3 12C3 16.9706 7.02944 21 12 21C13.4253 21 14.7733 20.6687 15.971 20.0788L19.665 20.9738C19.7368 20.9912 19.8104 21 19.8843 21C20.4654 21 20.9046 20.4737 20.8007 19.902L20.084 15.9604C20.6706 14.7654 21 13.4211 21 12C21 7.02944 16.9706 3 12 3Z"/>
</mask>
<path d="M15.971 20.0788L16.3713 18.4266L15.7726 18.2815L15.22 18.5537L15.971 20.0788ZM19.665 20.9738L19.2647 22.626L19.2647 22.626L19.665 20.9738ZM20.8007 19.902L22.4733 19.5978V19.5978L20.8007 19.902ZM20.084 15.9604L18.5579 15.2114L18.3113 15.7139L18.4114 16.2646L20.084 15.9604ZM4.7 12C4.7 7.96832 7.96832 4.7 12 4.7V1.3C6.09055 1.3 1.3 6.09055 1.3 12H4.7ZM12 19.3C7.96832 19.3 4.7 16.0317 4.7 12H1.3C1.3 17.9094 6.09055 22.7 12 22.7V19.3ZM15.22 18.5537C14.2507 19.0311 13.1592 19.3 12 19.3V22.7C13.6915 22.7 15.2959 22.3063 16.7221 21.6039L15.22 18.5537ZM20.0653 19.3216L16.3713 18.4266L15.5707 21.731L19.2647 22.626L20.0653 19.3216ZM19.8843 19.3C19.9453 19.3 20.006 19.3073 20.0653 19.3216L19.2647 22.626C19.4675 22.6752 19.6755 22.7 19.8843 22.7V19.3ZM19.1281 20.2061C19.0423 19.7343 19.4048 19.3 19.8843 19.3V22.7C21.5261 22.7 22.767 21.2131 22.4733 19.5978L19.1281 20.2061ZM18.4114 16.2646L19.1281 20.2061L22.4733 19.5978L21.7566 15.6563L18.4114 16.2646ZM19.3 12C19.3 13.1558 19.0326 14.2443 18.5579 15.2114L21.6101 16.7095C22.3086 15.2864 22.7 13.6865 22.7 12H19.3ZM12 4.7C16.0317 4.7 19.3 7.96832 19.3 12H22.7C22.7 6.09055 17.9094 1.3 12 1.3V4.7Z" mask="url(#path-1-inside-1_739_14041)"/>
<circle cx="12" cy="12" r="1"/>
<circle cx="16" cy="12" r="1"/>
<circle cx="8" cy="12" r="1"/>
</svg>
