<svg width="24" height="24" viewBox="0 0 24 24" fill="#12151F" xmlns="http://www.w3.org/2000/svg">
<path fill-rule="evenodd" fill="#12151F" stroke="none" clip-rule="evenodd" d="M10.707 17.1828C10.707 17.1827 10.707 17.1828 10.707 17.1828C10.707 17.5891 10.8439 17.9839 11.0957 18.3037C11.0971 18.3055 11.0985 18.3072 11.0998 18.3089C11.7213 19.0925 12.8616 19.2301 13.6531 18.617C13.6549 18.6157 13.6566 18.6143 13.6584 18.613L20.3006 13.4302C20.4145 13.3413 20.5174 13.2392 20.6071 13.1261C20.6085 13.1244 20.6099 13.1227 20.6112 13.1209C21.2331 12.3311 21.094 11.1888 20.3006 10.5697L13.6584 5.38696C13.6566 5.3856 13.6549 5.38424 13.6531 5.38289C13.3328 5.13477 12.9384 5 12.5324 5L12.3827 5.00602C11.4446 5.08183 10.7071 5.8637 10.707 6.81707C10.707 6.81704 10.707 6.8171 10.707 6.81707L10.7067 8.60695L10.6045 8.62849C10.5813 8.63353 10.5581 8.63866 10.535 8.64388C7.23627 9.38886 4.70643 12.0528 4.12598 15.3546C4.12359 15.3682 4.12123 15.3818 4.11891 15.3954C4.11734 15.4046 4.11579 15.4138 4.11425 15.423C4.03907 15.8726 4 16.3339 4 16.8035C4 17.0941 4.01491 17.384 4.04437 17.6718C4.10407 18.2551 4.74738 18.5207 5.19695 18.25C5.2652 18.2089 5.32898 18.1555 5.38558 18.0889C5.3945 18.0784 5.40324 18.0676 5.41179 18.0564L5.59012 17.8326C5.90126 17.4564 6.24512 17.1128 6.61654 16.8051C6.62205 16.8005 6.62756 16.7959 6.63309 16.7914C6.64042 16.7853 6.64776 16.7793 6.65512 16.7733C7.35429 16.2015 8.14948 15.7557 9.00675 15.4576C9.4979 15.2868 10.0094 15.1644 10.535 15.0946C10.592 15.087 10.6493 15.08 10.7067 15.0737L10.707 17.1828ZM11.2345 13.5128L11.4539 13.5079C11.8823 13.4985 12.2348 13.8417 12.2349 14.2683L12.2352 17.1826C12.2352 17.1826 12.2352 17.1826 12.2352 17.1826C12.2352 17.2465 12.256 17.3089 12.2944 17.36C12.2958 17.3617 12.2971 17.3635 12.2985 17.3652C12.3997 17.4938 12.5865 17.5164 12.7157 17.4156L19.3579 12.2328C19.3596 12.2314 19.3614 12.23 19.3631 12.2286C19.3799 12.2149 19.3951 12.1995 19.4085 12.1824C19.4098 12.1807 19.4112 12.1789 19.4125 12.1772C19.5077 12.0506 19.4859 11.8715 19.3631 11.7713C19.3614 11.7699 19.3596 11.7685 19.3579 11.7671L13.0143 6.81736L12.7157 6.58434C12.6797 6.55629 12.638 6.53704 12.5938 6.52775C12.5737 6.52352 12.5531 6.52135 12.5324 6.52135C12.5232 6.52135 12.5142 6.52176 12.5052 6.52257C12.4841 6.52447 12.4637 6.52855 12.4442 6.5346C12.3231 6.572 12.2353 6.68433 12.2352 6.81717C12.2352 6.8172 12.2352 6.81714 12.2352 6.81717L12.2349 9.25313C12.2349 9.6376 11.9466 9.9616 11.5633 10.0081C11.3799 10.0304 11.1989 10.0598 11.0206 10.096C10.9893 10.1023 10.9582 10.1089 10.9271 10.1156C10.9242 10.1163 10.9213 10.1169 10.9184 10.1175C9.1883 10.4963 7.71285 11.5201 6.74534 12.9144C6.23734 13.6465 5.86937 14.4807 5.6781 15.3773C5.66367 15.445 5.65025 15.513 5.63785 15.5813C5.63778 15.5816 5.63772 15.582 5.63766 15.5823C5.63544 15.5945 5.63326 15.6068 5.63111 15.619L5.62701 15.6467L5.66499 15.6143C5.7204 15.5687 5.77631 15.5238 5.83272 15.4796C6.46769 14.9817 7.16554 14.5686 7.90915 14.2513C8.73717 13.8981 9.62193 13.6636 10.5398 13.5629C10.6672 13.549 10.7952 13.5376 10.9237 13.5288L11.2345 13.5128Z"/>
</svg>
