<?xml version="1.0" standalone="no"?>
<!DOCTYPE svg PUBLIC "-//W3C//DTD SVG 20010904//EN"
 "http://www.w3.org/TR/2001/REC-SVG-20010904/DTD/svg10.dtd">
<svg version="1.0" xmlns="http://www.w3.org/2000/svg"
 width="700.000000pt" height="700.000000pt" viewBox="0 0 700.000000 700.000000"
 preserveAspectRatio="xMidYMid meet">
<metadata>
Created by potrace 1.14, written by Peter Selinger 2001-2017
</metadata>
<g transform="translate(0.000000,700.000000) scale(0.100000,-0.100000)"
fill="#000000" stroke="none">
<path d="M3335 6994 c-781 -48 -1465 -311 -2054 -791 -136 -111 -373 -348
-484 -484 -379 -465 -633 -1012 -736 -1585 -41 -227 -54 -380 -54 -634 0 -323
30 -571 103 -860 248 -979 911 -1804 1815 -2260 392 -198 767 -308 1235 -361
157 -18 557 -15 725 5 459 56 845 174 1235 378 888 463 1536 1289 1775 2263
70 286 98 522 98 835 0 548 -108 1027 -344 1518 -172 359 -387 661 -678 953
-571 570 -1276 910 -2081 1003 -128 15 -448 26 -555 20z m-1042 -1659 c161
-34 285 -131 433 -342 9 -13 26 -5 111 51 407 266 900 361 1378 265 257 -52
529 -176 738 -336 l57 -44 0 -1429 0 -1429 -57 -44 c-96 -74 -198 -136 -316
-193 -578 -277 -1261 -231 -1798 121 -55 36 -101 65 -103 65 -2 0 -20 -26 -41
-57 -58 -88 -180 -203 -263 -246 -220 -116 -434 -69 -632 140 -240 252 -408
699 -472 1258 -17 144 -17 626 0 770 92 804 406 1377 797 1455 61 12 94 11
168 -5z"/>
</g>
</svg>
