<svg width="224" height="55" viewBox="0 0 224 55" fill="none" xmlns="http://www.w3.org/2000/svg">
<path d="M88.2783 11.9604C85.944 11.9604 83.8142 12.5543 81.889 13.7405C80.2344 14.76 78.8849 16.2629 77.8341 18.2425V12.4851H71.8242V39.4444H77.8341V29.1156C77.8341 26.5866 78.1937 24.4668 78.913 22.7544C79.6322 21.0437 80.6352 19.7602 81.9187 18.904C83.2022 18.0495 84.6803 17.6206 86.3531 17.6206C88.5307 17.6206 90.1837 18.2441 91.3137 19.488C92.4421 20.7335 93.0063 22.4839 93.0063 24.739V39.4444H99.0161V23.1635C99.0161 19.5078 98.0247 16.7248 96.0401 14.8194C94.0538 12.914 91.4655 11.9604 88.2783 11.9604Z" fill="white"/>
<path d="M111.645 0.466866C111.003 0.156724 110.37 0 109.748 0C109.126 0 108.494 0.156724 107.852 0.466866C107.211 0.778659 106.674 1.24552 106.247 1.86746C105.818 2.49104 105.605 3.24825 105.605 4.14239C105.605 4.99858 105.818 5.74754 106.247 6.38927C106.674 7.031 107.211 7.51766 107.852 7.8476C108.494 8.17919 109.126 8.34416 109.748 8.34416C110.409 8.34416 111.051 8.17919 111.673 7.8476C112.295 7.51766 112.82 7.031 113.249 6.38927C113.676 5.74754 113.89 4.99858 113.89 4.14239C113.89 3.24825 113.676 2.48939 113.249 1.86746C112.821 1.24552 112.287 0.778659 111.645 0.466866Z" fill="white"/>
<path d="M112.785 12.4888H106.775V39.4481H112.785V12.4888Z" fill="white"/>
<path d="M129.733 18.6691C131.036 17.968 132.505 17.6183 134.139 17.6183C135.733 17.6183 137.076 17.8806 138.165 18.4052C139.254 18.9298 140.11 19.593 140.732 20.3898C141.354 21.1866 141.782 22.0147 142.015 22.8693H148.142C147.947 20.7692 147.246 18.9018 146.042 17.2669C144.836 15.6337 143.211 14.3403 141.17 13.3868C139.128 12.435 136.784 11.9565 134.139 11.9565C131.533 11.9565 129.111 12.5009 126.874 13.5914C124.637 14.6802 122.837 16.2655 121.476 18.3475C120.114 20.4294 119.434 22.9666 119.434 25.9624C119.434 28.8016 120.114 31.2728 121.476 33.3729C122.837 35.4746 124.636 37.0979 126.874 38.2444C129.111 39.3926 131.533 39.9667 134.139 39.9667C136.784 39.9667 139.128 39.4701 141.17 38.4787C143.213 37.4872 144.836 36.1642 146.042 34.5112C147.248 32.8582 147.947 31.0386 148.142 29.0556H142.015C141.781 29.8722 141.354 30.6888 140.732 31.5071C140.108 32.3237 139.252 32.9951 138.165 33.5197C137.076 34.0443 135.733 34.3066 134.139 34.3066C132.505 34.3066 131.036 33.9569 129.733 33.2557C128.43 32.5546 127.429 31.5731 126.729 30.3094C126.028 29.0457 125.678 27.5956 125.678 25.9624C125.678 24.2897 126.028 22.8313 126.729 21.5858C127.429 20.3436 128.43 19.3703 129.733 18.6691Z" fill="white"/>
<path d="M160.806 12.4888H154.796V39.4481H160.806V12.4888Z" fill="white"/>
<path d="M159.668 0.466866C159.026 0.156724 158.393 0 157.771 0C157.147 0 156.517 0.156724 155.874 0.466866C155.232 0.778659 154.696 1.24552 154.269 1.86746C153.84 2.49104 153.627 3.24825 153.627 4.14239C153.627 4.99858 153.84 5.74754 154.269 6.38927C154.696 7.031 155.232 7.51766 155.874 7.8476C156.516 8.17919 157.147 8.34416 157.771 8.34416C158.433 8.34416 159.074 8.17919 159.696 7.8476C160.318 7.51766 160.843 7.031 161.272 6.38927C161.701 5.74754 161.913 4.99858 161.913 4.14239C161.913 3.24825 161.699 2.48939 161.272 1.86746C160.844 1.24552 160.31 0.778659 159.668 0.466866Z" fill="white"/>
<path d="M186.83 29.4663C186.83 30.829 186.441 31.9755 185.664 32.9092C184.885 33.843 183.816 34.3098 182.453 34.3098C180.898 34.3098 179.712 33.8232 178.893 32.8515C178.077 31.8798 177.668 30.3819 177.668 28.3577V17.7387H190.156V12.486H177.668V1.69043L171.658 6.171V12.4844H165.823V17.737H171.658V28.6481C171.658 32.2279 172.611 35.0077 174.517 36.9922C176.422 38.9768 179.068 39.9683 182.452 39.9683C184.591 39.9683 186.429 39.5014 187.967 38.5677C189.502 37.634 190.689 36.3703 191.527 34.7751C192.363 33.1798 192.78 31.4113 192.78 29.4647H186.83V29.4663Z" fill="white"/>
<path d="M217.641 12.4888L210.049 36.1932L201.419 12.4888H194.591L205.037 39.4481H208.945L207.954 42.2493C207.332 44.1547 206.583 45.7598 205.707 47.0631C204.833 48.3663 203.615 49.018 202.059 49.018C200.619 49.018 199.6 48.6187 198.996 47.8219C198.392 47.0235 198.092 45.9842 198.092 44.6991H192.199C192.199 46.8387 192.628 48.6468 193.483 50.1266C194.339 51.6047 195.515 52.7232 197.013 53.482C198.509 54.2409 200.194 54.6203 202.059 54.6203C204.237 54.6203 206.057 54.1436 207.515 53.19C208.973 52.2365 210.189 50.8854 211.162 49.1351C212.134 47.3848 213.01 45.3424 213.789 43.0081L224 12.4904H217.641V12.4888Z" fill="white"/>
<path d="M10.949 47.7732C16.996 47.7732 21.898 37.6412 21.898 25.1427C21.898 12.6442 16.996 2.51221 10.949 2.51221C4.90204 2.51221 0 12.6442 0 25.1427C0 37.6412 4.90204 47.7732 10.949 47.7732Z" fill="url(#paint0_linear_401_908)"/>
<path d="M31.0958 47.7732C43.5943 47.7732 53.7263 37.6412 53.7263 25.1427C53.7263 12.6442 43.5943 2.51221 31.0958 2.51221C18.5974 2.51221 8.46533 12.6442 8.46533 25.1427C8.46533 37.6412 18.5974 47.7732 31.0958 47.7732Z" fill="url(#paint1_linear_401_908)"/>
<defs>
<linearGradient id="paint0_linear_401_908" x1="-0.00100631" y1="25.1427" x2="21.8986" y2="25.1427" gradientUnits="userSpaceOnUse">
<stop stop-color="white"/>
<stop offset="1" stop-color="white" stop-opacity="0"/>
</linearGradient>
<linearGradient id="paint1_linear_401_908" x1="8.46381" y1="25.1427" x2="53.7263" y2="25.1427" gradientUnits="userSpaceOnUse">
<stop stop-color="white"/>
<stop offset="1" stop-color="white" stop-opacity="0"/>
</linearGradient>
</defs>
</svg>
