<svg width="130" height="40" viewBox="0 0 130 40" fill="none" xmlns="http://www.w3.org/2000/svg">
<g clip-path="url(#clip0_2901_69161)">
<path d="M51.2323 11.9421C49.8776 11.9421 48.6416 12.2868 47.5243 12.9752C46.564 13.5669 45.7808 14.4391 45.1709 15.588V12.2466H41.6831V27.8927H45.1709V21.8983C45.1709 20.4306 45.3797 19.2003 45.7971 18.2065C46.2145 17.2137 46.7966 16.4688 47.5415 15.9719C48.2864 15.476 49.1442 15.227 50.115 15.227C51.3788 15.227 52.3382 15.5889 52.994 16.3108C53.6489 17.0337 53.9763 18.0495 53.9763 19.3583V27.8927H57.4642V18.444C57.4642 16.3223 56.8888 14.7072 55.737 13.6013C54.5843 12.4955 53.0821 11.9421 51.2323 11.9421Z" fill="#12151F"/>
<path d="M64.7942 5.27095C64.4217 5.09096 64.0541 5 63.6931 5C63.3322 5 62.9655 5.09096 62.5931 5.27095C62.2206 5.4519 61.9095 5.72285 61.6615 6.0838C61.4126 6.4457 61.2891 6.88516 61.2891 7.40408C61.2891 7.90097 61.4126 8.33564 61.6615 8.70808C61.9095 9.08051 62.2206 9.36295 62.5931 9.55443C62.9655 9.74687 63.3322 9.84262 63.6931 9.84262C64.0771 9.84262 64.4495 9.74687 64.8104 9.55443C65.1714 9.36295 65.4759 9.08051 65.7248 8.70808C65.9728 8.33564 66.0972 7.90097 66.0972 7.40408C66.0972 6.88516 65.9728 6.44474 65.7248 6.0838C65.4768 5.72285 65.1666 5.4519 64.7942 5.27095Z" fill="#12151F"/>
<path d="M65.4548 12.2466H61.9669V27.8927H65.4548V12.2466Z" fill="#12151F"/>
<path d="M75.2923 15.8362C76.0486 15.4293 76.9007 15.2263 77.8495 15.2263C78.7744 15.2263 79.5537 15.3785 80.1856 15.683C80.8175 15.9874 81.3144 16.3723 81.6754 16.8347C82.0363 17.2972 82.2852 17.7778 82.4202 18.2737H85.9761C85.8631 17.055 85.4562 15.9712 84.7573 15.0224C84.0574 14.0745 83.1143 13.3239 81.93 12.7705C80.7447 12.2181 79.3843 11.9404 77.8495 11.9404C76.3368 11.9404 74.9313 12.2564 73.6331 12.8892C72.3348 13.5211 71.2903 14.4412 70.5004 15.6495C69.7096 16.8577 69.3151 18.3302 69.3151 20.0689C69.3151 21.7166 69.7096 23.1508 70.5004 24.3696C71.2903 25.5894 72.3339 26.5315 73.6331 27.1969C74.9313 27.8632 76.3368 28.1964 77.8495 28.1964C79.3843 28.1964 80.7447 27.9082 81.93 27.3328C83.1153 26.7574 84.0574 25.9896 84.7573 25.0302C85.4571 24.0709 85.8631 23.0149 85.9761 21.8641H82.4202C82.2843 22.338 82.0363 22.8119 81.6754 23.2868C81.3135 23.7607 80.8166 24.1504 80.1856 24.4548C79.5537 24.7593 78.7744 24.9115 77.8495 24.9115C76.9007 24.9115 76.0486 24.7085 75.2923 24.3016C74.5359 23.8947 73.9548 23.3251 73.5488 22.5917C73.1419 21.8583 72.939 21.0167 72.939 20.0689C72.939 19.0981 73.1419 18.2517 73.5488 17.5289C73.9548 16.8079 74.5359 16.2431 75.2923 15.8362Z" fill="#12151F"/>
<path d="M93.3253 12.2466H89.8374V27.8927H93.3253V12.2466Z" fill="#12151F"/>
<path d="M92.6646 5.27095C92.2922 5.09096 91.9245 5 91.5636 5C91.2017 5 90.8359 5.09096 90.4626 5.27095C90.0901 5.4519 89.779 5.72285 89.531 6.0838C89.2821 6.4457 89.1586 6.88516 89.1586 7.40408C89.1586 7.90097 89.2821 8.33564 89.531 8.70808C89.779 9.08051 90.0901 9.36295 90.4626 9.55443C90.835 9.74687 91.2017 9.84262 91.5636 9.84262C91.9475 9.84262 92.3199 9.74687 92.6809 9.55443C93.0418 9.36295 93.3463 9.08051 93.5952 8.70808C93.8441 8.33564 93.9676 7.90097 93.9676 7.40408C93.9676 6.88516 93.8432 6.44474 93.5952 6.0838C93.3472 5.72285 93.037 5.4519 92.6646 5.27095Z" fill="#12151F"/>
<path d="M108.428 22.1015C108.428 22.8923 108.202 23.5577 107.751 24.0996C107.3 24.6415 106.679 24.9125 105.888 24.9125C104.986 24.9125 104.297 24.63 103.822 24.0661C103.348 23.5022 103.111 22.6329 103.111 21.4581V15.2952H110.359V12.2468H103.111V5.98145L99.623 8.58179V12.2458H96.2366V15.2942H99.623V21.6266C99.623 23.7042 100.176 25.3175 101.282 26.4692C102.388 27.621 103.924 28.1964 105.887 28.1964C107.129 28.1964 108.196 27.9255 109.088 27.3836C109.979 26.8417 110.668 26.1083 111.154 25.1825C111.64 24.2566 111.882 23.2303 111.882 22.1005H108.428V22.1015Z" fill="#12151F"/>
<path d="M126.309 12.2466L121.903 26.0037L116.895 12.2466H112.932L118.995 27.8927H121.263L120.687 29.5184C120.326 30.6242 119.892 31.5558 119.383 32.3121C118.876 33.0685 118.169 33.4467 117.266 33.4467C116.431 33.4467 115.839 33.215 115.488 32.7525C115.138 32.2892 114.964 31.686 114.964 30.9401H111.544C111.544 32.1819 111.793 33.2313 112.289 34.0901C112.786 34.9479 113.468 35.597 114.338 36.0374C115.206 36.4778 116.184 36.6981 117.266 36.6981C118.53 36.6981 119.586 36.4214 120.433 35.868C121.279 35.3146 121.985 34.5305 122.549 33.5146C123.113 32.4988 123.622 31.3135 124.074 29.9588L130 12.2475H126.309V12.2466Z" fill="#12151F"/>
<path d="M6.35438 32.7259C9.8638 32.7259 12.7088 26.8457 12.7088 19.5921C12.7088 12.3385 9.8638 6.45825 6.35438 6.45825C2.84495 6.45825 0 12.3385 0 19.5921C0 26.8457 2.84495 32.7259 6.35438 32.7259Z" fill="url(#paint0_linear_2901_69161)"/>
<path d="M18.0473 32.7259C25.3009 32.7259 31.1812 26.8457 31.1812 19.5921C31.1812 12.3385 25.3009 6.45825 18.0473 6.45825C10.7937 6.45825 4.91347 12.3385 4.91347 19.5921C4.91347 26.8457 10.7937 32.7259 18.0473 32.7259Z" fill="url(#paint1_linear_2901_69161)"/>
</g>
<defs>
<linearGradient id="paint0_linear_2901_69161" x1="-0.000584024" y1="19.5921" x2="12.7091" y2="19.5921" gradientUnits="userSpaceOnUse">
<stop stop-color="#3F37C9"/>
<stop offset="1" stop-color="#3F37C9" stop-opacity="0"/>
</linearGradient>
<linearGradient id="paint1_linear_2901_69161" x1="4.91259" y1="19.5921" x2="31.1811" y2="19.5921" gradientUnits="userSpaceOnUse">
<stop stop-color="#3F37C9"/>
<stop offset="1" stop-color="#3F37C9" stop-opacity="0"/>
</linearGradient>
<clipPath id="clip0_2901_69161">
<rect width="130" height="40" fill="white"/>
</clipPath>
</defs>
</svg>
