<svg width="36" height="31" viewBox="0 0 36 31" fill="none" xmlns="http://www.w3.org/2000/svg">
<path d="M7.2705 30.5156C11.2859 30.5156 14.541 23.7609 14.541 15.4286C14.541 7.09623 11.2859 0.341553 7.2705 0.341553C3.25511 0.341553 0 7.09623 0 15.4286C0 23.7609 3.25511 30.5156 7.2705 30.5156Z" fill="url(#paint0_linear_301_642)"/>
<path d="M20.6485 30.5156C28.9479 30.5156 35.6758 23.7609 35.6758 15.4286C35.6758 7.09623 28.9479 0.341553 20.6485 0.341553C12.3491 0.341553 5.62109 7.09623 5.62109 15.4286C5.62109 23.7609 12.3491 30.5156 20.6485 30.5156Z" fill="url(#paint1_linear_301_642)"/>
<defs>
<linearGradient id="paint0_linear_301_642" x1="-0.000668224" y1="15.4285" x2="14.5414" y2="15.4285" gradientUnits="userSpaceOnUse">
<stop stop-color="white"/>
<stop offset="1" stop-color="white" stop-opacity="0"/>
</linearGradient>
<linearGradient id="paint1_linear_301_642" x1="5.62009" y1="15.4285" x2="35.6758" y2="15.4285" gradientUnits="userSpaceOnUse">
<stop stop-color="white"/>
<stop offset="1" stop-color="white" stop-opacity="0"/>
</linearGradient>
</defs>
</svg>
