<svg width="102" height="38" viewBox="0 0 102 38" fill="none" xmlns="http://www.w3.org/2000/svg">
<path d="M11.6194 8.64038C10.0693 8.64038 8.65508 9.03631 7.37669 9.82706C6.27795 10.5067 5.38188 11.5086 4.68408 12.8284V8.99012H0.693359V26.963H4.68408V20.0772C4.68408 18.3912 4.92289 16.9779 5.4005 15.8363C5.87812 14.6959 6.54415 13.8402 7.39641 13.2694C8.24867 12.6997 9.23019 12.4138 10.341 12.4138C11.787 12.4138 12.8846 12.8295 13.635 13.6588C14.3843 14.4891 14.7589 15.656 14.7589 17.1594V26.963H18.7496V16.1091C18.7496 13.672 18.0913 11.8166 16.7735 10.5463C15.4545 9.27606 13.7358 8.64038 11.6194 8.64038Z" fill="white"/>
<path d="M27.1359 0.977992C26.7098 0.771231 26.2891 0.666748 25.8762 0.666748C25.4632 0.666748 25.0436 0.771231 24.6175 0.977992C24.1914 1.18585 23.8353 1.4971 23.5516 1.91172C23.2668 2.32744 23.1255 2.83225 23.1255 3.42834C23.1255 3.99913 23.2668 4.49844 23.5516 4.92626C23.8353 5.35408 24.1914 5.67852 24.6175 5.89848C25.0436 6.11954 25.4632 6.22952 25.8762 6.22952C26.3154 6.22952 26.7416 6.11954 27.1546 5.89848C27.5675 5.67852 27.9159 5.35408 28.2007 4.92626C28.4844 4.49844 28.6268 3.99913 28.6268 3.42834C28.6268 2.83225 28.4844 2.32634 28.2007 1.91172C27.917 1.4971 27.5621 1.18585 27.1359 0.977992Z" fill="white"/>
<path d="M27.8931 8.99243H23.9023V26.9653H27.8931V8.99243Z" fill="white"/>
<path d="M39.147 13.1128C40.0124 12.6454 40.9873 12.4122 42.0729 12.4122C43.1311 12.4122 44.0228 12.5871 44.7458 12.9368C45.4688 13.2865 46.0374 13.7287 46.4504 14.2599C46.8633 14.7911 47.1482 15.3432 47.3026 15.9128H51.3711C51.2418 14.5128 50.7763 13.2678 49.9766 12.1779C49.1758 11.0891 48.0968 10.2269 46.7417 9.59122C45.3856 8.95663 43.8289 8.6377 42.0729 8.6377C40.3421 8.6377 38.734 9.00063 37.2486 9.72759C35.7632 10.4535 34.568 11.5104 33.6643 12.8983C32.7594 14.2862 32.3081 15.9777 32.3081 17.975C32.3081 19.8677 32.7594 21.5152 33.6643 22.9152C34.568 24.3164 35.7621 25.3986 37.2486 26.1629C38.734 26.9284 40.3421 27.3111 42.0729 27.3111C43.8289 27.3111 45.3856 26.9801 46.7417 26.3191C48.0979 25.6581 49.1758 24.7761 49.9766 23.6741C50.7774 22.5721 51.2418 21.359 51.3711 20.0371H47.3026C47.1471 20.5815 46.8633 21.1259 46.4504 21.6714C46.0363 22.2158 45.4677 22.6634 44.7458 23.0131C44.0228 23.3629 43.1311 23.5377 42.0729 23.5377C40.9873 23.5377 40.0124 23.3046 39.147 22.8372C38.2816 22.3698 37.6167 21.7154 37.1522 20.8729C36.6866 20.0305 36.4544 19.0638 36.4544 17.975C36.4544 16.8598 36.6866 15.8876 37.1522 15.0572C37.6167 14.2291 38.2816 13.5802 39.147 13.1128Z" fill="white"/>
<path d="M59.7798 8.99243H55.7891V26.9653H59.7798V8.99243Z" fill="white"/>
<path d="M59.0242 0.977992C58.5981 0.771231 58.1775 0.666748 57.7645 0.666748C57.3504 0.666748 56.9319 0.771231 56.5047 0.977992C56.0786 1.18585 55.7225 1.4971 55.4388 1.91172C55.154 2.32744 55.0127 2.83225 55.0127 3.42834C55.0127 3.99913 55.154 4.49844 55.4388 4.92626C55.7225 5.35408 56.0786 5.67852 56.5047 5.89848C56.9308 6.11954 57.3504 6.22952 57.7645 6.22952C58.2037 6.22952 58.6299 6.11954 59.0429 5.89848C59.4558 5.67852 59.8042 5.35408 60.089 4.92626C60.3738 4.49844 60.5151 3.99913 60.5151 3.42834C60.5151 2.83225 60.3727 2.32634 60.089 1.91172C59.8053 1.4971 59.4504 1.18585 59.0242 0.977992Z" fill="white"/>
<path d="M77.0608 20.311C77.0608 21.2194 76.8023 21.9838 76.2863 22.6062C75.7692 23.2287 75.0594 23.54 74.1545 23.54C73.1215 23.54 72.3339 23.2155 71.7906 22.5678C71.2483 21.92 70.9766 20.9214 70.9766 19.5719V12.4925H79.2692V8.99077H70.9766V1.7937L66.9859 4.78075V8.98967H63.1113V12.4914H66.9859V19.7655C66.9859 22.152 67.6191 24.0052 68.8843 25.3282C70.1496 26.6513 71.9067 27.3123 74.1534 27.3123C75.5742 27.3123 76.7946 27.001 77.8155 26.3786C78.8354 25.7561 79.623 24.9136 80.1795 23.8501C80.7349 22.7866 81.0121 21.6076 81.0121 20.3099H77.0608V20.311Z" fill="white"/>
<path d="M97.52 8.99243L92.4787 24.7954L86.7484 8.99243H82.2144L89.1508 26.9653H91.7459L91.0875 28.8328C90.6745 30.103 90.1772 31.1731 89.5955 32.042C89.0149 32.9108 88.2065 33.3452 87.1735 33.3452C86.2171 33.3452 85.5402 33.0791 85.1392 32.5479C84.7383 32.0156 84.5389 31.3227 84.5389 30.466H80.626C80.626 31.8924 80.9108 33.0978 81.4782 34.0843C82.0468 35.0697 82.8278 35.8154 83.8225 36.3213C84.8161 36.8272 85.9345 37.0801 87.1735 37.0801C88.6195 37.0801 89.8277 36.7623 90.7961 36.1266C91.7645 35.4909 92.5718 34.5902 93.2182 33.4233C93.8634 32.2564 94.4451 30.8949 94.9621 29.3387L101.743 8.99353H97.52V8.99243Z" fill="white"/>
</svg>
