<svg height="32" viewBox="0 0 88 32" fill="none" xmlns="http://www.w3.org/2000/svg">
<path d="M9.78046 6.87244C8.43935 6.87244 7.21575 7.21364 6.10969 7.8951C5.15906 8.48083 4.38377 9.34426 3.78004 10.4816V7.17383H0.327255V22.6625H3.78004V16.7285C3.78004 15.2755 3.98665 14.0576 4.39989 13.0738C4.81312 12.0909 5.38938 11.3536 6.12675 10.8617C6.86413 10.3707 7.71334 10.1243 8.67439 10.1243C9.92547 10.1243 10.8752 10.4826 11.5244 11.1972C12.1727 11.9128 12.4968 12.9184 12.4968 14.214V22.6625H15.9496V13.3088C15.9496 11.2086 15.38 9.60964 14.2398 8.51495C13.0987 7.42026 11.6116 6.87244 9.78046 6.87244Z" fill="#2B2B2B"/>
<path d="M23.2059 0.268225C22.8372 0.0900413 22.4732 0 22.1159 0C21.7586 0 21.3956 0.0900413 21.0269 0.268225C20.6582 0.447357 20.3502 0.715579 20.1047 1.07289C19.8583 1.43116 19.736 1.86619 19.736 2.37989C19.736 2.87179 19.8583 3.30209 20.1047 3.67078C20.3502 4.03947 20.6582 4.31906 21.0269 4.50862C21.3956 4.69913 21.7586 4.7939 22.1159 4.7939C22.496 4.7939 22.8647 4.69913 23.222 4.50862C23.5793 4.31906 23.8807 4.03947 24.1271 3.67078C24.3726 3.30209 24.4958 2.87179 24.4958 2.37989C24.4958 1.86619 24.3726 1.43021 24.1271 1.07289C23.8817 0.715579 23.5746 0.447357 23.2059 0.268225Z" fill="#2B2B2B"/>
<path d="M23.8598 7.17377H20.4071V22.6625H23.8598V7.17377Z" fill="#2B2B2B"/>
<path d="M33.5983 10.7271C34.347 10.3243 35.1905 10.1234 36.1298 10.1234C37.0454 10.1234 37.8169 10.2741 38.4424 10.5755C39.0679 10.8769 39.5598 11.2579 39.9172 11.7157C40.2745 12.1734 40.5209 12.6492 40.6545 13.1402H44.1746C44.0628 11.9337 43.66 10.8608 42.9681 9.9215C42.2753 8.98319 41.3417 8.24012 40.1693 7.6923C38.9959 7.14543 37.6491 6.87057 36.1298 6.87057C34.6323 6.87057 33.2409 7.18334 31.9557 7.80983C30.6705 8.43537 29.6365 9.34619 28.8546 10.5423C28.0717 11.7384 27.6812 13.1961 27.6812 14.9173C27.6812 16.5484 28.0717 17.9682 28.8546 19.1747C29.6365 20.3822 30.6696 21.3148 31.9557 21.9736C33.2409 22.6332 34.6323 22.963 36.1298 22.963C37.6491 22.963 38.9959 22.6778 40.1693 22.1081C41.3426 21.5385 42.2753 20.7784 42.9681 19.8287C43.6609 18.879 44.0628 17.8336 44.1746 16.6944H40.6545C40.5199 17.1635 40.2745 17.6327 39.9172 18.1028C39.5589 18.5719 39.067 18.9577 38.4424 19.2591C37.8169 19.5605 37.0454 19.7112 36.1298 19.7112C35.1905 19.7112 34.347 19.5103 33.5983 19.1074C32.8495 18.7046 32.2742 18.1407 31.8723 17.4147C31.4695 16.6887 31.2686 15.8556 31.2686 14.9173C31.2686 13.9562 31.4695 13.1184 31.8723 12.4028C32.2742 11.6891 32.8495 11.1299 33.5983 10.7271Z" fill="#2B2B2B"/>
<path d="M51.4498 7.17377H47.997V22.6625H51.4498V7.17377Z" fill="#2B2B2B"/>
<path d="M50.7958 0.268225C50.4271 0.0900413 50.0632 0 49.7059 0C49.3476 0 48.9856 0.0900413 48.6159 0.268225C48.2473 0.447357 47.9392 0.715579 47.6938 1.07289C47.4473 1.43116 47.3251 1.86619 47.3251 2.37989C47.3251 2.87179 47.4473 3.30209 47.6938 3.67078C47.9392 4.03947 48.2473 4.31906 48.6159 4.50862C48.9846 4.69913 49.3476 4.7939 49.7059 4.7939C50.0859 4.7939 50.4546 4.69913 50.8119 4.50862C51.1693 4.31906 51.4707 4.03947 51.7171 3.67078C51.9635 3.30209 52.0857 2.87179 52.0857 2.37989C52.0857 1.86619 51.9625 1.43021 51.7171 1.07289C51.4716 0.715579 51.1645 0.447357 50.7958 0.268225Z" fill="#2B2B2B"/>
<path d="M66.4012 16.9293C66.4012 17.7122 66.1775 18.3709 65.7311 18.9073C65.2837 19.4438 64.6696 19.712 63.8867 19.712C62.9929 19.712 62.3115 19.4324 61.8414 18.8742C61.3722 18.3159 61.1372 17.4553 61.1372 16.2924V10.1915H68.3119V7.17375H61.1372V0.971436L57.6844 3.54562V7.1728H54.3321V10.1906H57.6844V16.4592C57.6844 18.5159 58.2322 20.1129 59.3269 21.2531C60.4216 22.3933 61.9418 22.9629 63.8857 22.9629C65.115 22.9629 66.1709 22.6947 67.0542 22.1582C67.9366 21.6218 68.6181 20.8958 69.0995 19.9793C69.5801 19.0628 69.8199 18.0467 69.8199 16.9284H66.4012V16.9293Z" fill="#2B2B2B"/>
<path d="M84.102 7.17377L79.7403 20.7925L74.7824 7.17377H70.8595L76.8609 22.6625H79.1062L78.5366 24.2718C78.1793 25.3665 77.749 26.2887 77.2457 27.0375C76.7434 27.7862 76.0439 28.1606 75.1502 28.1606C74.3227 28.1606 73.737 27.9312 73.3901 27.4734C73.0432 27.0147 72.8707 26.4176 72.8707 25.6793H69.4852C69.4852 26.9086 69.7317 27.9473 70.2226 28.7975C70.7145 29.6467 71.3903 30.2893 72.2509 30.7253C73.1105 31.1613 74.0782 31.3793 75.1502 31.3793C76.4012 31.3793 77.4466 31.1054 78.2845 30.5575C79.1223 30.0097 79.8208 29.2335 80.38 28.2279C80.9383 27.2223 81.4416 26.0489 81.8889 24.7078L87.7557 7.17472H84.102V7.17377Z" fill="#2B2B2B"/>
</svg>
