<svg width="24" height="24" viewBox="0 0 24 24" fill="none" xmlns="http://www.w3.org/2000/svg">
<rect x="1" y="1" width="22" height="22" rx="11" fill="url(#paint0_linear_1383_790)"/>
<path fill-rule="evenodd" clip-rule="evenodd" d="M6 12C6 8.68629 8.68629 6 12 6C15.3137 6 18 8.68629 18 12C18 12.9474 17.7804 13.8436 17.3893 14.6403L17.8671 17.268C17.9364 17.6491 17.6436 18 17.2562 18C17.2069 18 17.1579 17.9941 17.11 17.9825L14.6474 17.3859C13.8489 17.7791 12.9502 18 12 18C8.68629 18 6 15.3137 6 12Z" fill="white"/>
<rect x="1" y="1" width="22" height="22" rx="11" stroke="white" stroke-width="2"/>
<defs>
<linearGradient id="paint0_linear_1383_790" x1="1.32414" y1="3.525" x2="25.5947" y2="5.20336" gradientUnits="userSpaceOnUse">
<stop stop-color="#5D54E6"/>
<stop offset="0.9375" stop-color="#D0CDFA"/>
</linearGradient>
</defs>
</svg>
