<svg width="462" height="366" viewBox="0 0 462 366" fill="none" xmlns="http://www.w3.org/2000/svg">
<path d="M424.721 235.4C411.654 263.664 391.342 286.092 366.89 301.882C356.278 311.394 307.274 349.642 201.058 349.259C89.5947 348.935 22 281.144 22 281.144C22 281.144 87.4221 271.368 103.471 211.919C116.171 165.091 125.443 131.593 137.973 105.567C138.351 104.748 138.635 104.134 139.014 103.315C175.468 24.4637 268.91 -9.89453 347.76 26.5592C426.611 63.0129 461.174 156.549 424.721 235.4Z" fill="url(#paint0_linear_1498_100853)"/>
<path d="M63.9821 204.428C59.0367 191.73 54.0913 192.265 50.7498 194.671C47.6757 196.943 47.0074 204.829 50.7498 212.314C54.4923 219.799 58.2348 219.264 61.9772 217.259C65.7197 215.254 66.2543 210.309 63.9821 204.428Z" fill="url(#paint1_linear_1498_100853)"/>
<path d="M388.233 327.06C367.65 338.02 369.521 346.44 374.332 351.519C378.877 356.331 392.376 355.797 404.272 348.044C416.168 340.292 414.698 334.01 410.554 327.995C406.411 321.981 397.723 321.847 388.233 327.06Z" fill="url(#paint2_linear_1498_100853)"/>
<path d="M344.331 151.017C344.331 156.096 341.926 161.175 337.381 164.249C327.49 171.2 311.719 181.491 294.343 190.58C283.249 196.461 273.626 201.005 265.874 204.347C259.458 207.154 252.374 206.619 246.627 203.411C242.751 201.273 239.543 197.931 237.538 193.654C236.201 190.714 235.399 187.506 235.399 184.298C235.399 181.625 235.934 178.952 236.87 176.279L237.404 174.808L260.394 116.533L229.652 133.107C221.098 137.651 210.539 134.711 205.593 126.29C205.46 126.023 205.326 125.755 205.192 125.488C203.856 122.815 203.188 120.008 203.188 117.201C203.188 111.32 206.128 105.439 211.474 102.098C221.231 95.8158 235.399 87.2616 252.24 78.3064C284.586 61.0644 300.625 63.203 305.169 71.8908C309.714 80.7123 283.65 154.492 283.65 154.492C283.65 154.492 318.535 136.983 322.278 135.646C330.297 132.572 339.252 136.314 342.861 144.067C343.663 145.804 344.064 147.676 344.198 149.547C344.331 150.215 344.331 150.616 344.331 151.017Z" fill="url(#paint3_linear_1498_100853)"/>
<path d="M270.15 106.91C262.398 126.023 244.087 169.997 237.671 174.942L260.66 116.667L229.919 133.24C221.365 137.919 210.538 134.844 205.727 126.29C205.994 126.023 205.727 126.29 205.994 126.023C209.068 127.493 214.548 128.83 222.701 124.82C237.938 117.602 255.314 108.113 265.339 102.633C268.145 101.162 271.353 103.969 270.15 106.91Z" fill="url(#paint4_linear_1498_100853)"/>
<path d="M344.331 151.017C344.331 156.096 341.925 161.175 337.38 164.249C327.49 171.2 311.718 181.491 294.342 190.58C283.249 196.461 273.625 201.006 265.873 204.347C259.457 207.154 252.373 206.619 246.626 203.411C247.829 203.144 249.032 202.877 250.101 202.476C256.116 200.471 283.249 186.169 309.847 171.868C327.222 162.512 338.984 155.027 344.197 149.948C344.331 150.215 344.331 150.616 344.331 151.017Z" fill="url(#paint5_linear_1498_100853)"/>
<path opacity="0.49" d="M276.966 70.554C264.936 74.5638 258.788 82.0487 273.223 81.2468C287.659 80.4448 295.277 73.0935 292.738 70.6877C290.198 68.4155 282.446 68.6828 276.966 70.554Z" fill="white"/>
<path opacity="0.49" d="M323.08 138.72C315.461 141.26 311.451 146.072 320.674 145.537C329.896 145.002 334.708 140.324 333.104 138.854C331.366 137.384 326.555 137.517 323.08 138.72Z" fill="white"/>
<path d="M238.331 266.652C238.331 268.924 237.255 271.196 235.222 272.572C230.797 275.681 223.741 280.285 215.968 284.351C211.005 286.982 206.7 289.015 203.232 290.51C200.361 291.766 197.192 291.527 194.621 290.092C192.887 289.135 191.452 287.64 190.555 285.727C189.957 284.411 189.598 282.976 189.598 281.541C189.598 280.345 189.837 279.149 190.256 277.953L190.495 277.295L200.78 251.225L187.027 258.639C183.2 260.672 178.476 259.357 176.264 255.59C176.204 255.47 176.144 255.35 176.084 255.231C175.486 254.035 175.188 252.779 175.188 251.524C175.188 248.893 176.503 246.262 178.895 244.767C183.26 241.956 189.598 238.129 197.132 234.123C211.603 226.409 218.778 227.366 220.811 231.253C222.844 235.199 211.184 268.206 211.184 268.206C211.184 268.206 226.791 260.373 228.465 259.775C232.053 258.4 236.059 260.074 237.674 263.542C238.032 264.32 238.212 265.157 238.272 265.994C238.331 266.293 238.331 266.472 238.331 266.652Z" fill="url(#paint6_linear_1498_100853)"/>
<path d="M205.145 246.919C201.677 255.47 193.485 275.143 190.614 277.355L200.899 251.284L187.146 258.699C183.319 260.792 178.476 259.417 176.323 255.59C176.443 255.47 176.323 255.59 176.443 255.47C177.818 256.128 180.27 256.726 183.917 254.932C190.734 251.703 198.507 247.457 202.992 245.006C204.248 244.348 205.683 245.604 205.145 246.919Z" fill="url(#paint7_linear_1498_100853)"/>
<path d="M238.332 266.652C238.332 268.924 237.255 271.196 235.222 272.571C230.797 275.681 223.741 280.285 215.968 284.351C211.005 286.982 206.7 289.015 203.232 290.51C200.361 291.766 197.192 291.527 194.621 290.092C195.159 289.972 195.697 289.852 196.176 289.673C198.867 288.776 211.005 282.378 222.904 275.98C230.678 271.794 235.94 268.446 238.272 266.173C238.332 266.293 238.332 266.472 238.332 266.652Z" fill="url(#paint8_linear_1498_100853)"/>
<path opacity="0.49" d="M208.194 230.655C202.812 232.449 200.061 235.797 206.519 235.439C212.977 235.08 216.386 231.791 215.249 230.715C214.113 229.698 210.645 229.818 208.194 230.655Z" fill="white"/>
<path opacity="0.49" d="M228.824 261.151C225.416 262.287 223.622 264.439 227.748 264.2C231.873 263.961 234.026 261.868 233.309 261.21C232.531 260.553 230.379 260.612 228.824 261.151Z" fill="white"/>
<path d="M151.331 265.471C151.331 266.843 150.681 268.216 149.453 269.047C146.78 270.925 142.518 273.706 137.822 276.163C134.824 277.752 132.223 278.98 130.128 279.883C128.395 280.642 126.48 280.497 124.927 279.63C123.879 279.052 123.012 278.149 122.471 276.993C122.109 276.199 121.893 275.332 121.893 274.465C121.893 273.742 122.037 273.02 122.29 272.298L122.435 271.9L128.647 256.151L120.339 260.63C118.028 261.859 115.174 261.064 113.838 258.788C113.802 258.716 113.765 258.644 113.729 258.571C113.368 257.849 113.188 257.091 113.188 256.332C113.188 254.743 113.982 253.153 115.427 252.25C118.064 250.553 121.893 248.241 126.444 245.821C135.185 241.161 139.52 241.739 140.748 244.087C141.976 246.471 134.932 266.41 134.932 266.41C134.932 266.41 144.36 261.678 145.371 261.317C147.539 260.486 149.959 261.497 150.934 263.592C151.151 264.062 151.259 264.568 151.295 265.073C151.331 265.254 151.331 265.362 151.331 265.471Z" fill="url(#paint9_linear_1498_100853)"/>
<path d="M131.284 253.551C129.189 258.716 124.241 270.6 122.507 271.936L128.72 256.188L120.412 260.667C118.1 261.931 115.174 261.1 113.874 258.788C113.946 258.716 113.874 258.788 113.946 258.716C114.777 259.113 116.258 259.475 118.461 258.391C122.579 256.44 127.275 253.876 129.984 252.395C130.743 251.998 131.61 252.756 131.284 253.551Z" fill="url(#paint10_linear_1498_100853)"/>
<path d="M151.331 265.471C151.331 266.843 150.681 268.216 149.453 269.047C146.78 270.925 142.518 273.706 137.822 276.162C134.824 277.752 132.223 278.98 130.128 279.883C128.394 280.642 126.48 280.497 124.927 279.63C125.252 279.558 125.577 279.486 125.866 279.377C127.491 278.835 134.824 274.97 142.012 271.106C146.708 268.577 149.886 266.554 151.295 265.182C151.331 265.254 151.331 265.362 151.331 265.471Z" fill="url(#paint11_linear_1498_100853)"/>
<path opacity="0.49" d="M133.125 243.726C129.874 244.809 128.213 246.832 132.114 246.615C136.015 246.399 138.074 244.412 137.387 243.762C136.701 243.148 134.606 243.22 133.125 243.726Z" fill="white"/>
<path opacity="0.49" d="M145.588 262.148C143.529 262.834 142.445 264.134 144.938 263.99C147.43 263.845 148.73 262.581 148.297 262.184C147.827 261.786 146.527 261.823 145.588 262.148Z" fill="white"/>
<defs>
<linearGradient id="paint0_linear_1498_100853" x1="-168.364" y1="370.333" x2="417.547" y2="63.1286" gradientUnits="userSpaceOnUse">
<stop stop-color="white" stop-opacity="0"/>
<stop offset="1" stop-color="#75FBDC"/>
</linearGradient>
<linearGradient id="paint1_linear_1498_100853" x1="55.0319" y1="216.003" x2="61.1381" y2="194.196" gradientUnits="userSpaceOnUse">
<stop offset="0.0138835" stop-color="#A4FCE8" stop-opacity="0.04"/>
<stop offset="1" stop-color="#75FBDC"/>
</linearGradient>
<linearGradient id="paint2_linear_1498_100853" x1="388.103" y1="351.456" x2="392.122" y2="322.854" gradientUnits="userSpaceOnUse">
<stop stop-color="#99FCE5" stop-opacity="0.44"/>
<stop offset="1" stop-color="#75FBDC"/>
</linearGradient>
<linearGradient id="paint3_linear_1498_100853" x1="168.774" y1="134.1" x2="344.118" y2="114.425" gradientUnits="userSpaceOnUse">
<stop stop-color="#5D54E6" stop-opacity="0"/>
<stop offset="1" stop-color="#5D54E6"/>
</linearGradient>
<linearGradient id="paint4_linear_1498_100853" x1="189.955" y1="137.74" x2="270.524" y2="129.714" gradientUnits="userSpaceOnUse">
<stop stop-color="#5D54E6" stop-opacity="0"/>
<stop offset="1" stop-color="#5D54E6"/>
</linearGradient>
<linearGradient id="paint5_linear_1498_100853" x1="222.804" y1="177.404" x2="341.226" y2="154.358" gradientUnits="userSpaceOnUse">
<stop stop-color="#5D54E6"/>
<stop offset="1" stop-color="#5D54E6" stop-opacity="0"/>
</linearGradient>
<linearGradient id="paint6_linear_1498_100853" x1="159.792" y1="259.084" x2="238.236" y2="250.282" gradientUnits="userSpaceOnUse">
<stop stop-color="#5D54E6" stop-opacity="0"/>
<stop offset="1" stop-color="#5D54E6"/>
</linearGradient>
<linearGradient id="paint7_linear_1498_100853" x1="169.268" y1="260.712" x2="205.312" y2="257.121" gradientUnits="userSpaceOnUse">
<stop stop-color="#5D54E6" stop-opacity="0"/>
<stop offset="1" stop-color="#5D54E6"/>
</linearGradient>
<linearGradient id="paint8_linear_1498_100853" x1="183.964" y1="278.457" x2="236.942" y2="268.146" gradientUnits="userSpaceOnUse">
<stop stop-color="#5D54E6"/>
<stop offset="1" stop-color="#5D54E6" stop-opacity="0"/>
</linearGradient>
<linearGradient id="paint9_linear_1498_100853" x1="103.887" y1="260.899" x2="151.274" y2="255.582" gradientUnits="userSpaceOnUse">
<stop stop-color="#5D54E6" stop-opacity="0"/>
<stop offset="1" stop-color="#5D54E6"/>
</linearGradient>
<linearGradient id="paint10_linear_1498_100853" x1="109.612" y1="261.883" x2="131.386" y2="259.714" gradientUnits="userSpaceOnUse">
<stop stop-color="#5D54E6" stop-opacity="0"/>
<stop offset="1" stop-color="#5D54E6"/>
</linearGradient>
<linearGradient id="paint11_linear_1498_100853" x1="118.489" y1="272.602" x2="150.492" y2="266.374" gradientUnits="userSpaceOnUse">
<stop stop-color="#5D54E6"/>
<stop offset="1" stop-color="#5D54E6" stop-opacity="0"/>
</linearGradient>
</defs>
</svg>
