<svg width="42" height="42" viewBox="0 0 42 42" fill="none" xmlns="http://www.w3.org/2000/svg">
<mask id="mask0_2071:17694" style="mask-type:alpha" maskUnits="userSpaceOnUse" x="0" y="0" width="42" height="42">
<circle cx="21" cy="21" r="21" fill="black"/>
</mask>
<g mask="url(#mask0_2071:17694)">
<circle cx="21" cy="21" r="20" stroke="#E7E9EE" stroke-width="2"/>
<mask id="path-3-inside-1_2071:17694" fill="white">
<path d="M41.25 42C44.0279 42 45.4168 42 46.2702 40.4393C47.1236 38.8787 46.5826 38.0346 45.5006 36.3466C45.4204 36.2214 45.3375 36.0968 45.2518 35.9727C43.9327 34.0619 41.9991 32.3256 39.5616 30.8631C37.124 29.4005 34.2302 28.2404 31.0454 27.4489C27.8606 26.6574 24.4472 26.25 21 26.25C17.5528 26.25 14.1394 26.6574 10.9546 27.4489C7.76976 28.2404 4.87598 29.4005 2.43845 30.8631C0.000907898 32.3256 -1.93265 34.0619 -3.25184 35.9727C-3.33747 36.0968 -3.42041 36.2214 -3.50064 36.3466C-4.58262 38.0346 -5.12361 38.8787 -4.2702 40.4393C-3.4168 42 -2.02786 42 0.749999 42L21 42H41.25Z"/>
</mask>
<path d="M41.25 42C44.0279 42 45.4168 42 46.2702 40.4393C47.1236 38.8787 46.5826 38.0346 45.5006 36.3466C45.4204 36.2214 45.3375 36.0968 45.2518 35.9727C43.9327 34.0619 41.9991 32.3256 39.5616 30.8631C37.124 29.4005 34.2302 28.2404 31.0454 27.4489C27.8606 26.6574 24.4472 26.25 21 26.25C17.5528 26.25 14.1394 26.6574 10.9546 27.4489C7.76976 28.2404 4.87598 29.4005 2.43845 30.8631C0.000907898 32.3256 -1.93265 34.0619 -3.25184 35.9727C-3.33747 36.0968 -3.42041 36.2214 -3.50064 36.3466C-4.58262 38.0346 -5.12361 38.8787 -4.2702 40.4393C-3.4168 42 -2.02786 42 0.749999 42L21 42H41.25Z" stroke="#E7E9EE" stroke-width="4" mask="url(#path-3-inside-1_2071:17694)"/>
<circle cx="21" cy="15.75" r="5.25" stroke="#E7E9EE" stroke-width="2" stroke-linejoin="bevel"/>
</g>
</svg>
