<svg width="18" height="18" viewBox="0 0 18 18" fill="none" xmlns="http://www.w3.org/2000/svg">
<path fill-rule="evenodd" clip-rule="evenodd" d="M8.85 18C8.38056 18 8 17.6194 8 17.15V0.85C8 0.380558 8.38056 0 8.85 0C9.31944 0 9.7 0.380558 9.7 0.850001V17.15C9.7 17.6194 9.31944 18 8.85 18Z" fill="white"/>
<path fill-rule="evenodd" clip-rule="evenodd" d="M18 9.15C18 9.61944 17.6194 10 17.15 10L0.85 10C0.380558 10 2.052e-08 9.61944 0 9.15C-2.052e-08 8.68056 0.380558 8.3 0.850001 8.3L17.15 8.3C17.6194 8.3 18 8.68056 18 9.15Z" fill="white"/>
</svg>
