<svg width="149" height="148" viewBox="0 0 149 148" fill="none" xmlns="http://www.w3.org/2000/svg">
<path d="M84.8731 24.8351C80.2459 16.8792 68.7541 16.8792 64.1269 24.8351L10.9883 116.199C6.33545 124.199 12.1068 134.232 21.3614 134.232H127.639C136.893 134.232 142.665 124.199 138.012 116.199L84.8731 24.8351Z" fill="url(#paint0_radial_6347_613697)"/>
<path d="M74.8986 99.5474C72.0698 99.5474 69.7513 97.3029 69.6596 94.4756L68.6748 64.1105C68.5608 60.5942 71.3804 57.6816 74.8986 57.6816C78.4168 57.6816 81.2364 60.5942 81.1223 64.1105L80.1375 94.4756C80.0458 97.3029 77.7273 99.5474 74.8986 99.5474ZM79.9058 115.459C78.5168 116.829 76.8365 117.514 74.865 117.514C72.8934 117.514 71.1907 116.829 69.7569 115.459C68.3679 114.045 67.6733 112.365 67.6733 110.42C67.6733 108.476 68.3679 106.818 69.7569 105.448C71.1907 104.034 72.8934 103.326 74.865 103.326C76.8365 103.326 78.5168 104.034 79.9058 105.448C81.3396 106.818 82.0566 108.476 82.0566 110.42C82.0566 112.365 81.3396 114.045 79.9058 115.459Z" fill="url(#paint1_linear_6347_613697)"/>
<ellipse cx="123.381" cy="116.636" rx="24.4404" ry="24.3636" fill="url(#paint2_linear_6347_613697)"/>
<path d="M114.836 116.821C114.199 116.291 113.253 116.377 112.723 117.014C112.193 117.651 112.28 118.597 112.916 119.127L114.836 116.821ZM134.077 111.456C134.58 110.798 134.454 109.857 133.796 109.354C133.138 108.851 132.196 108.976 131.693 109.635L134.077 111.456ZM122.656 123.929L121.464 123.018L122.656 123.929ZM112.916 119.127L120.262 125.243L122.181 122.938L114.836 116.821L112.916 119.127ZM123.848 124.84L134.077 111.456L131.693 109.635L121.464 123.018L123.848 124.84ZM120.262 125.243C121.354 126.153 122.984 125.97 123.848 124.84L121.464 123.018C121.637 122.792 121.963 122.756 122.181 122.938L120.262 125.243Z" fill="white"/>
<defs>
<radialGradient id="paint0_radial_6347_613697" cx="0" cy="0" r="1" gradientUnits="userSpaceOnUse" gradientTransform="translate(98.2615 157.919) rotate(-113.218) scale(111.934 129.889)">
<stop offset="0.0075608" stop-color="#F0F1F7" stop-opacity="0"/>
<stop offset="0.440308" stop-color="#F0F1F7" stop-opacity="0"/>
<stop offset="1" stop-color="#75FBDC"/>
</radialGradient>
<linearGradient id="paint1_linear_6347_613697" x1="53.396" y1="92.7525" x2="91.8403" y2="90.0204" gradientUnits="userSpaceOnUse">
<stop stop-color="#5D54E6" stop-opacity="0"/>
<stop offset="1" stop-color="#5D54E6"/>
</linearGradient>
<linearGradient id="paint2_linear_6347_613697" x1="87.0223" y1="116.07" x2="147.745" y2="109.248" gradientUnits="userSpaceOnUse">
<stop stop-color="#5D54E6" stop-opacity="0"/>
<stop offset="1" stop-color="#5D54E6"/>
</linearGradient>
</defs>
</svg>
