<svg width="16" height="14" viewBox="0 0 16 14" fill="none" xmlns="http://www.w3.org/2000/svg">
<path fill-rule="evenodd" clip-rule="evenodd" d="M2.74999 4.35C2.79061 4.35 2.83056 4.34715 2.86965 4.34164C3.23347 5.58881 4.38532 6.5 5.74999 6.5C7.1116 6.5 8.26135 5.59288 8.62787 4.35H14.75C15.2194 4.35 15.6 3.96944 15.6 3.5C15.6 3.03056 15.2194 2.65 14.75 2.65H8.62787C8.26135 1.40712 7.1116 0.5 5.74999 0.5C4.38532 0.5 3.23347 1.41119 2.86965 2.65836C2.83056 2.65285 2.79061 2.65 2.74999 2.65H1.24999C0.780552 2.65 0.399994 3.03056 0.399994 3.5C0.399994 3.96944 0.780552 4.35 1.24999 4.35H2.74999ZM4.74999 3.5C4.74999 2.94772 5.1977 2.5 5.74999 2.5C6.30227 2.5 6.74999 2.94772 6.74999 3.5C6.74999 4.05228 6.30227 4.5 5.74999 4.5C5.1977 4.5 4.74999 4.05228 4.74999 3.5ZM13.1303 9.65836C12.7665 8.41119 11.6147 7.5 10.25 7.5C8.88837 7.5 7.73862 8.40712 7.3721 9.65H1.24999C0.780552 9.65 0.399994 10.0306 0.399994 10.5C0.399994 10.9694 0.780552 11.35 1.24999 11.35H7.3721C7.73862 12.5929 8.88837 13.5 10.25 13.5C11.6147 13.5 12.7665 12.5888 13.1303 11.3416C13.1694 11.3471 13.2094 11.35 13.25 11.35H14.75C15.2194 11.35 15.6 10.9694 15.6 10.5C15.6 10.0306 15.2194 9.65 14.75 9.65H13.25C13.2094 9.65 13.1694 9.65285 13.1303 9.65836ZM11.25 10.5C11.25 9.94772 10.8023 9.5 10.25 9.5C9.6977 9.5 9.24999 9.94772 9.24999 10.5C9.24999 11.0523 9.6977 11.5 10.25 11.5C10.8023 11.5 11.25 11.0523 11.25 10.5Z" fill="#12151F"/>
</svg>
