<svg width="24" height="24" viewBox="0 0 24 24" fill="none" xmlns="http://www.w3.org/2000/svg">
<path d="M3.99988 12.0246L3.40009 11.4223C3.23992 11.5818 3.14988 11.7986 3.14988 12.0246C3.14988 12.2507 3.23992 12.4674 3.4001 12.6269L3.99988 12.0246ZM18.9999 12.8746C19.4693 12.8746 19.8499 12.494 19.8499 12.0246C19.8499 11.5552 19.4693 11.1746 18.9999 11.1746V12.8746ZM9.4499 18.6513C9.78255 18.9826 10.3207 18.9814 10.652 18.6488C10.9832 18.3161 10.9821 17.7779 10.6495 17.4467L9.4499 18.6513ZM10.6495 6.60229C10.9821 6.27104 10.9832 5.73285 10.652 5.40021C10.3207 5.06758 9.78253 5.06645 9.44989 5.39771L10.6495 6.60229ZM3.99988 12.8746L18.9999 12.8746V11.1746L3.99988 11.1746L3.99988 12.8746ZM10.6495 17.4467L4.59965 11.4223L3.4001 12.6269L9.4499 18.6513L10.6495 17.4467ZM4.59966 12.6269L10.6495 6.60229L9.44989 5.39771L3.40009 11.4223L4.59966 12.6269Z" fill="#12151F"/>
</svg>
