<svg width="30" height="16" viewBox="0 0 30 16" fill="none" xmlns="http://www.w3.org/2000/svg">
<path d="M1 6.99997C0.447715 6.99997 -4.82823e-08 7.44768 0 7.99997C4.82823e-08 8.55225 0.447715 8.99997 1 8.99997L1 6.99997ZM29.7071 8.70707C30.0976 8.31655 30.0976 7.68338 29.7071 7.29286L23.3431 0.9289C22.9526 0.538375 22.3195 0.538375 21.9289 0.9289C21.5384 1.31942 21.5384 1.95259 21.9289 2.34311L27.5858 7.99997L21.9289 13.6568C21.5384 14.0473 21.5384 14.6805 21.9289 15.071C22.3195 15.4616 22.9526 15.4616 23.3431 15.071L29.7071 8.70707ZM1 8.99997L29 8.99997L29 6.99997L1 6.99997L1 8.99997Z" fill="white"/>
</svg>
