<svg width="24" height="24" viewBox="0 0 24 24" fill="#12151F" xmlns="http://www.w3.org/2000/svg">
<path fill-rule="evenodd" clip-rule="evenodd" d="M6.55046 8.35372C6.49625 8.97622 6.49571 9.61412 6.49571 10.286C6.49571 10.344 6.48977 10.4019 6.47797 10.4587C6.27238 11.4491 5.80567 12.367 5.12692 13.1213C4.87358 13.5198 4.72735 13.9736 4.70083 14.4406V14.6371L4.70063 14.6554C4.68669 15.3045 4.90476 15.9398 5.31976 16.4508C5.92565 17.07 6.74045 17.4588 7.61804 17.5422L7.62829 17.5432L7.62828 17.5433C10.7634 17.8796 13.9266 17.8796 17.0617 17.5433L17.0754 17.5418L17.0754 17.5419C17.9536 17.462 18.769 17.0722 19.3716 16.4496C19.7939 15.9398 20.0154 15.3012 19.9992 14.6487L19.9989 14.6276V14.4386C19.9749 13.9752 19.8289 13.525 19.574 13.1317C18.8969 12.3727 18.4304 11.4527 18.2221 10.4606C18.2143 10.4233 18.209 10.3856 18.2063 10.3477C18.1806 9.99546 18.182 9.64473 18.1832 9.3309C18.1833 9.31329 18.1833 9.2958 18.1834 9.27843C18.1846 8.94083 18.184 8.64313 18.1591 8.35495C17.899 5.69224 15.2013 3.7 12.3887 3.7H12.3111C9.49709 3.7 6.80152 5.69307 6.55046 8.35372ZM4.85764 8.1977C5.20964 4.44245 8.85839 2 12.3111 2H12.3887C15.8422 2 19.4885 4.44262 19.8516 8.19516L19.8523 8.20306L19.8523 8.20307C19.8852 8.58013 19.8846 8.95248 19.8834 9.28457L19.8833 9.31569C19.8821 9.62476 19.8811 9.89926 19.8979 10.1665C20.0535 10.8599 20.3894 11.5041 20.875 12.0359C20.9027 12.0662 20.9281 12.0985 20.9511 12.1324C21.403 12.7996 21.6618 13.5767 21.698 14.3799C21.6986 14.3926 21.6989 14.4054 21.6989 14.4181V14.6176C21.7229 15.6938 21.3509 16.7403 20.6544 17.5656C20.6433 17.5788 20.6318 17.5916 20.6199 17.6041C19.7301 18.5369 18.5262 19.1152 17.2366 19.2343C13.9846 19.5826 10.7038 19.5826 7.45185 19.2341C6.16511 19.1105 4.9643 18.5339 4.07252 17.6066C4.05821 17.5917 4.04444 17.5763 4.03125 17.5604C3.34649 16.7357 2.9802 15.6968 3.00083 14.6285V14.4181C3.00083 14.4041 3.00117 14.3901 3.00187 14.376C3.04164 13.574 3.29869 12.7981 3.74501 12.1283C3.76981 12.091 3.79751 12.0558 3.82785 12.023C4.30722 11.5038 4.63984 10.8736 4.79572 10.1944C4.7958 9.56015 4.79803 8.87996 4.85715 8.20307L4.85762 8.1977L4.85764 8.1977Z" stroke="none"/>
<path fill-rule="evenodd" clip-rule="evenodd" d="M9.32038 20.1852C9.68754 19.8927 10.2223 19.9532 10.5148 20.3204C10.8727 20.7695 11.4016 21.064 11.9867 21.1328C12.5719 21.2017 13.159 21.0384 13.6176 20.6828L13.6304 20.6732C13.7688 20.57 13.8929 20.4503 14 20.3172C14.2943 19.9515 14.8293 19.8935 15.1951 20.1878C15.5608 20.482 15.6188 21.0171 15.3246 21.3828C15.1288 21.6261 14.9031 21.8439 14.6528 22.0313C13.8402 22.6586 12.8098 22.9414 11.788 22.8212C10.7634 22.7006 9.82593 22.1839 9.18523 21.3797C8.89271 21.0125 8.95322 20.4777 9.32038 20.1852Z" stroke="none"/>
</svg>
