<svg width="18" height="19" viewBox="0 0 18 19" fill="none" xmlns="http://www.w3.org/2000/svg">
<path fill-rule="evenodd" clip-rule="evenodd" d="M8.85 18.5C8.38056 18.5 8 18.1194 8 17.65V1.35C8 0.880558 8.38056 0.5 8.85 0.5C9.31944 0.5 9.7 0.880558 9.7 1.35V17.65C9.7 18.1194 9.31944 18.5 8.85 18.5Z" fill="#12151F"/>
<path fill-rule="evenodd" clip-rule="evenodd" d="M18 9.65C18 10.1194 17.6194 10.5 17.15 10.5L0.85 10.5C0.380558 10.5 -1.66347e-08 10.1194 -3.71547e-08 9.65C-5.76746e-08 9.18056 0.380558 8.8 0.850001 8.8L17.15 8.8C17.6194 8.8 18 9.18056 18 9.65Z" fill="#12151F"/>
</svg>
