<svg width="24" height="24" viewBox="0 0 24 24" fill="#12151F" stroke="#12151F" xmlns="http://www.w3.org/2000/svg">
    <path d="M15.15 5C15.15 5.46944 15.5306 5.85 16 5.85C16.4694 5.85 16.85 5.46944 16.85 5H15.15ZM7.15 5C7.15 5.46944 7.53056 5.85 8 5.85C8.46944 5.85 8.85 5.46944 8.85 5H7.15ZM10 3.85H14V2.15H10V3.85ZM14 3.85C14.6351 3.85 15.15 4.36487 15.15 5H16.85C16.85 3.42599 15.574 2.15 14 2.15V3.85ZM10 2.15C8.42599 2.15 7.15 3.42599 7.15 5H8.85C8.85 4.36487 9.36487 3.85 10 3.85V2.15Z" stroke="none"/>
    <rect x="3.85" y="7.85" width="16.3" height="12.3" rx="3.15" fill="none" stroke-width="1.7"/>
    <path fill="none" d="M4 10L11.5528 13.7764C11.8343 13.9172 12.1657 13.9172 12.4472 13.7764L20 10" stroke-width="1.7"/>
</svg>
