<svg width="48" height="48" viewBox="0 0 48 48" fill="none" xmlns="http://www.w3.org/2000/svg">
<path fill-rule="evenodd" clip-rule="evenodd" d="M24.3377 44.6753C35.5698 44.6753 44.6753 35.5698 44.6753 24.3377C44.6753 13.1055 35.5698 4 24.3377 4C13.1055 4 4 13.1055 4 24.3377C4 35.5698 13.1055 44.6753 24.3377 44.6753ZM32.5074 21.3144C33.2333 20.4819 33.147 19.2186 32.3144 18.4926C31.4819 17.7667 30.2186 17.853 29.4926 18.6856L22.1108 27.1509L18.3412 23.7433C17.5218 23.0025 16.2571 23.0663 15.5164 23.8857C14.7756 24.7051 14.8394 25.9698 15.6588 26.7105L20.9388 31.4836L22.4492 32.8491L23.7874 31.3144L32.5074 21.3144Z" fill="url(#paint0_linear_1211_188692)"/>
<defs>
<linearGradient id="paint0_linear_1211_188692" x1="-5.91745" y1="23.8647" x2="44.6162" y2="18.2059" gradientUnits="userSpaceOnUse">
<stop stop-color="#8F89EE"/>
<stop offset="1" stop-color="#5D54E6"/>
</linearGradient>
</defs>
</svg>
