<svg width="24" height="24" viewBox="0 0 24 24" fill="none" xmlns="http://www.w3.org/2000/svg">
<path fill-rule="evenodd" clip-rule="evenodd" stroke="none" d="M5.74234 5.52997C6.07429 5.19802 6.61248 5.19802 6.94442 5.52997L18.4703 17.0558C18.8022 17.3878 18.8022 17.9259 18.4703 18.2579C18.1383 18.5898 17.6001 18.5898 17.2682 18.2579L5.74234 6.73205C5.41039 6.4001 5.41039 5.86191 5.74234 5.52997Z" fill="#12151F"/>
<path fill-rule="evenodd" clip-rule="evenodd" stroke="none" d="M5.53021 18.2579C5.19826 17.9259 5.19826 17.3878 5.53021 17.0558L17.056 5.52997C17.388 5.19802 17.9262 5.19802 18.2581 5.52997C18.5901 5.86191 18.5901 6.4001 18.2581 6.73205L6.73229 18.2579C6.40035 18.5898 5.86216 18.5898 5.53021 18.2579Z" fill="#12151F"/>
</svg>
