<svg width="18" height="18" viewBox="0 0 18 18" fill="none" xmlns="http://www.w3.org/2000/svg">
<mask id="path-1-inside-1_304_202" fill="white">
<path fill-rule="evenodd" clip-rule="evenodd" d="M9 0C4.02944 0 0 4.02944 0 9C0 13.9706 4.02944 18 9 18C10.4253 18 11.7733 17.6687 12.971 17.0788L16.665 17.9738C16.7368 17.9912 16.8104 18 16.8843 18C17.4654 18 17.9046 17.4737 17.8007 16.902L17.084 12.9604C17.6706 11.7654 18 10.4211 18 9C18 4.02944 13.9706 0 9 0Z"/>
</mask>
<path d="M12.971 17.0788L13.3713 15.4266L12.7726 15.2815L12.22 15.5537L12.971 17.0788ZM16.665 17.9738L16.2647 19.626L16.2647 19.626L16.665 17.9738ZM17.8007 16.902L19.4733 16.5978V16.5978L17.8007 16.902ZM17.084 12.9604L15.5579 12.2114L15.3113 12.7139L15.4114 13.2646L17.084 12.9604ZM1.7 9C1.7 4.96832 4.96832 1.7 9 1.7V-1.7C3.09055 -1.7 -1.7 3.09055 -1.7 9H1.7ZM9 16.3C4.96832 16.3 1.7 13.0317 1.7 9H-1.7C-1.7 14.9094 3.09055 19.7 9 19.7V16.3ZM12.22 15.5537C11.2507 16.0311 10.1592 16.3 9 16.3V19.7C10.6915 19.7 12.2959 19.3063 13.7221 18.6039L12.22 15.5537ZM17.0653 16.3216L13.3713 15.4266L12.5707 18.731L16.2647 19.626L17.0653 16.3216ZM16.8843 16.3C16.9453 16.3 17.006 16.3073 17.0653 16.3216L16.2647 19.626C16.4675 19.6752 16.6755 19.7 16.8843 19.7V16.3ZM16.1281 17.2061C16.0423 16.7343 16.4048 16.3 16.8843 16.3V19.7C18.5261 19.7 19.767 18.2131 19.4733 16.5978L16.1281 17.2061ZM15.4114 13.2646L16.1281 17.2061L19.4733 16.5978L18.7566 12.6563L15.4114 13.2646ZM16.3 9C16.3 10.1558 16.0326 11.2443 15.5579 12.2114L18.6101 13.7095C19.3086 12.2864 19.7 10.6865 19.7 9H16.3ZM9 1.7C13.0317 1.7 16.3 4.96832 16.3 9H19.7C19.7 3.09055 14.9094 -1.7 9 -1.7V1.7Z" fill="#9EA9B2" mask="url(#path-1-inside-1_304_202)"/>
</svg>
