<svg width="108" height="108" viewBox="0 0 108 108" fill="none" xmlns="http://www.w3.org/2000/svg">
<g clip-path="url(#clip0_1801_49768)">
<path d="M108.5 32C108.5 23.1634 101.337 16 92.5 16H15.5C6.66344 16 -0.500008 23.1634 -0.500008 32V73C-0.500008 75.2091 1.29086 77 3.49999 77H104.5C106.709 77 108.5 75.2091 108.5 73V32Z" fill="url(#paint0_radial_1801_49768)"/>
<path d="M29.9881 23.5568L31.1014 25.7939C31.1834 25.956 31.3399 26.0686 31.5205 26.0936L34.021 26.4578C34.167 26.4783 34.2996 26.5553 34.3891 26.6729C34.4776 26.7889 34.5156 26.936 34.4941 27.0806C34.4766 27.2007 34.4201 27.3117 34.3336 27.3968L32.5217 29.1532C32.3892 29.2757 32.3292 29.4573 32.3612 29.6349L32.8073 32.1041C32.8548 32.4023 32.6572 32.6834 32.3612 32.74C32.2391 32.7595 32.1141 32.739 32.0041 32.6829L29.7736 31.5209C29.6081 31.4373 29.4125 31.4373 29.247 31.5209L27.0165 32.6829C26.7425 32.8285 26.4029 32.7295 26.2503 32.4593C26.1938 32.3518 26.1738 32.2292 26.1923 32.1097L26.6384 29.6399C26.6704 29.4628 26.6099 29.2802 26.4779 29.1577L24.666 27.4023C24.4505 27.1942 24.444 26.8515 24.6515 26.6359C24.656 26.6314 24.661 26.6264 24.666 26.6214C24.752 26.5338 24.8651 26.4783 24.9871 26.4638L27.4876 26.0991C27.6677 26.0736 27.8242 25.962 27.9067 25.7989L28.9799 23.5568C29.0755 23.3647 29.2735 23.2451 29.4885 23.2502H29.5556C29.7421 23.2727 29.9046 23.3882 29.9881 23.5568Z" fill="url(#paint1_linear_1801_49768)"/>
<path d="M17.6968 38.4438L19.4465 41.9556C19.5754 42.21 19.8214 42.3867 20.1051 42.4259L24.0351 42.9976C24.2647 43.0298 24.473 43.1507 24.6136 43.3353C24.7528 43.5175 24.8125 43.7483 24.7787 43.9753C24.7512 44.1637 24.6624 44.3381 24.5264 44.4716L21.6787 47.2287C21.4704 47.4211 21.3761 47.7061 21.4264 47.9849L22.1275 51.861C22.2022 52.329 21.8917 52.7704 21.4264 52.8591C21.2346 52.8897 21.0381 52.8575 20.8652 52.7696L17.3596 50.9454C17.0995 50.8142 16.7921 50.8142 16.532 50.9454L13.0264 52.7696C12.5957 52.9981 12.062 52.8426 11.8223 52.4186C11.7334 52.2497 11.702 52.0573 11.7311 51.8697L12.4322 47.9927C12.4825 47.7148 12.3874 47.4281 12.1799 47.2357L9.3322 44.4802C8.99343 44.1535 8.98321 43.6156 9.3094 43.2772C9.31648 43.2701 9.32434 43.2622 9.3322 43.2544C9.46739 43.117 9.64503 43.0298 9.83681 43.007L13.7668 42.4346C14.0498 42.3945 14.2958 42.2194 14.4255 41.9634L16.1123 38.4438C16.2624 38.1423 16.5736 37.9546 16.9116 37.9624H17.0169C17.3101 37.9978 17.5656 38.1792 17.6968 38.4438Z" fill="url(#paint2_linear_1801_49768)"/>
<path d="M87.4763 29.1098L89.7028 33.5786C89.8668 33.9024 90.1799 34.1272 90.541 34.1772L95.542 34.9047C95.8341 34.9457 96.0991 35.0996 96.2782 35.3344C96.4552 35.5662 96.5312 35.86 96.4882 36.1488C96.4532 36.3886 96.3402 36.6105 96.1672 36.7804L92.5434 40.2889C92.2783 40.5337 92.1583 40.8964 92.2223 41.2512L93.1145 46.1837C93.2095 46.7793 92.8144 47.3409 92.2223 47.4538C91.9783 47.4928 91.7282 47.4518 91.5082 47.3399L87.0472 45.0185C86.7161 44.8516 86.3251 44.8516 85.994 45.0185L81.533 47.3399C80.9849 47.6306 80.3058 47.4328 80.0007 46.8932C79.8877 46.6783 79.8477 46.4335 79.8847 46.1947L80.7769 41.2612C80.8409 40.9074 80.7199 40.5427 80.4558 40.2979L76.832 36.7914C76.4009 36.3756 76.3879 35.6911 76.803 35.2604C76.812 35.2514 76.822 35.2415 76.832 35.2315C77.0041 35.0566 77.2301 34.9457 77.4742 34.9167L82.4752 34.1882C82.8353 34.1372 83.1484 33.9144 83.3134 33.5886L85.4599 29.1098C85.6509 28.7261 86.047 28.4873 86.4771 28.4973H86.6111C86.9842 28.5422 87.3093 28.7731 87.4763 29.1098Z" fill="url(#paint3_linear_1801_49768)"/>
<circle cx="54.5" cy="71" r="18" fill="url(#paint4_linear_1801_49768)"/>
<path d="M54.4977 73.381C51.263 73.381 48.5 73.891 48.5 75.931C48.5 77.9717 51.2457 78.4997 54.4977 78.4997C57.7325 78.4997 60.4955 77.9905 60.4955 75.9497C60.4955 73.909 57.7505 73.381 54.4977 73.381Z" fill="white"/>
<path d="M54.4973 71.4378C56.7008 71.4378 58.4663 69.6716 58.4663 67.4688C58.4663 65.2661 56.7008 63.4998 54.4973 63.4998C52.2946 63.4998 50.5283 65.2661 50.5283 67.4688C50.5283 69.6716 52.2946 71.4378 54.4973 71.4378Z" fill="white"/>
</g>
<defs>
<radialGradient id="paint0_radial_1801_49768" cx="0" cy="0" r="1" gradientUnits="userSpaceOnUse" gradientTransform="translate(54.5046 80.3182) rotate(-90) scale(72.3182 98.2505)">
<stop offset="0.251098" stop-color="#F0F1F7" stop-opacity="0"/>
<stop offset="1" stop-color="#75FBDC"/>
</radialGradient>
<linearGradient id="paint1_linear_1801_49768" x1="23.1224" y1="27.8919" x2="34.4689" y2="26.4385" gradientUnits="userSpaceOnUse">
<stop stop-color="#5D54E6" stop-opacity="0"/>
<stop offset="0.860128" stop-color="#473ED0"/>
</linearGradient>
<linearGradient id="paint2_linear_1801_49768" x1="6.9061" y1="45.2488" x2="24.7384" y2="42.9619" gradientUnits="userSpaceOnUse">
<stop stop-color="#5D54E6" stop-opacity="0"/>
<stop offset="0.860128" stop-color="#473ED0"/>
</linearGradient>
<linearGradient id="paint3_linear_1801_49768" x1="73.7447" y1="37.7695" x2="96.437" y2="34.8592" gradientUnits="userSpaceOnUse">
<stop stop-color="#5D54E6" stop-opacity="0"/>
<stop offset="0.860128" stop-color="#473ED0"/>
</linearGradient>
<linearGradient id="paint4_linear_1801_49768" x1="27.7225" y1="70.5814" x2="72.4477" y2="65.573" gradientUnits="userSpaceOnUse">
<stop stop-color="#5D54E6" stop-opacity="0"/>
<stop offset="1" stop-color="#5D54E6"/>
</linearGradient>
<clipPath id="clip0_1801_49768">
<rect width="108" height="108" fill="white"/>
</clipPath>
</defs>
</svg>
