<svg width="24" viewBox="0 0 24 24" fill="none" xmlns="http://www.w3.org/2000/svg">
    <path fill-rule="evenodd" clip-rule="evenodd" d="M12 20.3C16.584 20.3 20.3 16.584 20.3 12C20.3 7.41604 16.584 3.7 12 3.7C7.41604 3.7 3.7 7.41604 3.7 12C3.7 16.584 7.41604 20.3 12 20.3ZM12 22C17.5228 22 22 17.5228 22 12C22 6.47715 17.5228 2 12 2C6.47715 2 2 6.47715 2 12C2 17.5228 6.47715 22 12 22Z" fill="#12151F"/>
    <path d="M9 15L15 9M15 15L9 9" stroke="#12151F" stroke-width="1.7" stroke-linecap="round"/>
</svg>
