<svg width="24" height="24" viewBox="0 0 24 24" fill="#12151F" xmlns="http://www.w3.org/2000/svg">
<path stroke="none" fill-rule="evenodd" clip-rule="evenodd" d="M5.74208 5.52998C6.07403 5.19803 6.61222 5.19803 6.94416 5.52998L18.47 17.0558C18.8019 17.3878 18.8019 17.926 18.47 18.2579C18.1381 18.5898 17.5999 18.5898 17.2679 18.2579L5.74208 6.73206C5.41014 6.40012 5.41014 5.86192 5.74208 5.52998Z"/>
<path stroke="none" fill-rule="evenodd" clip-rule="evenodd" d="M5.52998 18.2579C5.19803 17.9259 5.19803 17.3878 5.52998 17.0558L17.0558 5.52997C17.3878 5.19802 17.926 5.19802 18.2579 5.52997C18.5898 5.86191 18.5898 6.4001 18.2579 6.73205L6.73206 18.2579C6.40012 18.5898 5.86193 18.5898 5.52998 18.2579Z"/>
</svg>
