<svg width="20" height="20" viewBox="0 0 20 20" fill="none" xmlns="http://www.w3.org/2000/svg">
<path fill-rule="evenodd" clip-rule="evenodd" d="M10 18.3C14.584 18.3 18.3 14.584 18.3 10C18.3 5.41604 14.584 1.7 10 1.7C5.41604 1.7 1.7 5.41604 1.7 10C1.7 14.584 5.41604 18.3 10 18.3ZM10 20C15.5228 20 20 15.5228 20 10C20 4.47715 15.5228 0 10 0C4.47715 0 0 4.47715 0 10C0 15.5228 4.47715 20 10 20Z" fill="#757484"/>
<path fill-rule="evenodd" clip-rule="evenodd" d="M6.39896 6.39896C6.7309 6.06701 7.26909 6.06701 7.60104 6.39896L10 8.79792L12.399 6.39896C12.7309 6.06701 13.2691 6.06701 13.601 6.39896C13.933 6.7309 13.933 7.26909 13.601 7.60104L11.2021 10L13.601 12.399C13.933 12.7309 13.933 13.2691 13.601 13.601C13.2691 13.933 12.7309 13.933 12.399 13.601L10 11.2021L7.60104 13.601C7.26909 13.933 6.7309 13.933 6.39896 13.601C6.06701 13.2691 6.06701 12.7309 6.39896 12.399L8.79792 10L6.39896 7.60104C6.06701 7.26909 6.06701 6.7309 6.39896 6.39896Z" fill="#757484"/>
</svg>
