<svg width="24" height="24" viewBox="0 0 24 24" fill="none" xmlns="http://www.w3.org/2000/svg">
<path fill-rule="evenodd" clip-rule="evenodd" d="M14.2454 5.5C14.0171 4.47017 13.0985 3.70001 12 3.70001C10.9014 3.70001 9.98275 4.47017 9.75445 5.5H14.2454ZM8.03095 5.5C8.277 3.52684 9.96019 2 12 2C14.0398 2 15.723 3.52684 15.9691 5.5H20.1C20.5971 5.5 21 5.90294 21 6.4C21 6.89706 20.5971 7.3 20.1 7.3H19.5V18C19.5 20.2091 17.7091 22 15.5 22H8.5C6.29086 22 4.5 20.2091 4.5 18V7.3H3.9C3.40294 7.3 3 6.89706 3 6.4C3 5.90294 3.40294 5.5 3.9 5.5H8.03095ZM17.8 18V7.3H6.2V18C6.2 19.2703 7.22975 20.3 8.5 20.3H15.5C16.7703 20.3 17.8 19.2703 17.8 18ZM9.2 9C8.8134 9 8.5 9.3134 8.5 9.7V17.3C8.5 17.6866 8.8134 18 9.2 18C9.5866 18 9.9 17.6866 9.9 17.3V9.7C9.9 9.3134 9.5866 9 9.2 9ZM11.3 9.7C11.3 9.3134 11.6134 9 12 9C12.3866 9 12.7 9.3134 12.7 9.7V17.3C12.7 17.6866 12.3866 18 12 18C11.6134 18 11.3 17.6866 11.3 17.3V9.7ZM14.8001 9C14.4135 9 14.1001 9.3134 14.1001 9.7V17.3C14.1001 17.6866 14.4135 18 14.8001 18C15.1867 18 15.5001 17.6866 15.5001 17.3V9.7C15.5001 9.3134 15.1867 9 14.8001 9Z" fill="#12151F"/>
</svg>
