<svg width="148" height="148" viewBox="0 0 148 148" fill="none" xmlns="http://www.w3.org/2000/svg">
<path d="M84.3731 24.8351C79.7459 16.8792 68.2541 16.8792 63.6269 24.8351L10.4883 116.199C5.83545 124.199 11.6068 134.232 20.8614 134.232H127.139C136.393 134.232 142.165 124.199 137.512 116.199L84.3731 24.8351Z" fill="url(#paint0_radial_4333_548930)"/>
<path d="M74.3986 99.5474C71.5698 99.5474 69.2513 97.3029 69.1596 94.4756L68.1748 64.1105C68.0608 60.5942 70.8804 57.6816 74.3986 57.6816C77.9168 57.6816 80.7364 60.5942 80.6223 64.1105L79.6375 94.4756C79.5458 97.3029 77.2273 99.5474 74.3986 99.5474ZM79.4058 115.459C78.0168 116.829 76.3365 117.514 74.365 117.514C72.3934 117.514 70.6907 116.829 69.2569 115.459C67.8679 114.045 67.1733 112.365 67.1733 110.42C67.1733 108.476 67.8679 106.818 69.2569 105.448C70.6907 104.034 72.3934 103.326 74.365 103.326C76.3365 103.326 78.0168 104.034 79.4058 105.448C80.8396 106.818 81.5566 108.476 81.5566 110.42C81.5566 112.365 80.8396 114.045 79.4058 115.459Z" fill="url(#paint1_linear_4333_548930)"/>
<ellipse cx="122.881" cy="116.636" rx="24.4404" ry="24.3636" fill="url(#paint2_linear_4333_548930)"/>
<path d="M114.336 116.821C113.699 116.291 112.753 116.377 112.223 117.014C111.693 117.651 111.78 118.597 112.416 119.127L114.336 116.821ZM133.577 111.456C134.08 110.798 133.954 109.857 133.296 109.354C132.638 108.851 131.696 108.976 131.193 109.635L133.577 111.456ZM122.156 123.929L120.964 123.018L122.156 123.929ZM112.416 119.127L119.762 125.243L121.681 122.938L114.336 116.821L112.416 119.127ZM123.348 124.84L133.577 111.456L131.193 109.635L120.964 123.018L123.348 124.84ZM119.762 125.243C120.854 126.153 122.484 125.97 123.348 124.84L120.964 123.018C121.137 122.792 121.463 122.756 121.681 122.938L119.762 125.243Z" fill="white"/>
<defs>
<radialGradient id="paint0_radial_4333_548930" cx="0" cy="0" r="1" gradientUnits="userSpaceOnUse" gradientTransform="translate(97.7615 157.919) rotate(-113.218) scale(111.934 129.889)">
<stop offset="0.0075608" stop-color="#F0F1F7" stop-opacity="0"/>
<stop offset="0.440308" stop-color="#F0F1F7" stop-opacity="0"/>
<stop offset="1" stop-color="#75FBDC"/>
</radialGradient>
<linearGradient id="paint1_linear_4333_548930" x1="52.896" y1="92.7525" x2="91.3403" y2="90.0204" gradientUnits="userSpaceOnUse">
<stop stop-color="#5D54E6" stop-opacity="0"/>
<stop offset="1" stop-color="#5D54E6"/>
</linearGradient>
<linearGradient id="paint2_linear_4333_548930" x1="86.5223" y1="116.07" x2="147.245" y2="109.248" gradientUnits="userSpaceOnUse">
<stop stop-color="#5D54E6" stop-opacity="0"/>
<stop offset="1" stop-color="#5D54E6"/>
</linearGradient>
</defs>
</svg>
