<svg width="18" height="20" viewBox="0 0 18 20" fill="none" xmlns="http://www.w3.org/2000/svg">
<path fill-rule="evenodd" clip-rule="evenodd" d="M11.2454 3.5C11.0171 2.47017 10.0985 1.70001 8.99995 1.70001C7.90141 1.70001 6.98275 2.47017 6.75445 3.5H11.2454ZM5.03095 3.5C5.277 1.52684 6.96019 0 9 0C11.0398 0 12.723 1.52684 12.9691 3.5H17.1C17.5971 3.5 18 3.90294 18 4.4C18 4.89706 17.5971 5.3 17.1 5.3H16.5V16C16.5 18.2091 14.7091 20 12.5 20H5.5C3.29086 20 1.5 18.2091 1.5 16V5.3H0.899999C0.402943 5.3 0 4.89706 0 4.4C0 3.90294 0.402944 3.5 0.9 3.5H5.03095ZM14.8 16V5.3H3.2V16C3.2 17.2703 4.22975 18.3 5.5 18.3H12.5C13.7703 18.3 14.8 17.2703 14.8 16ZM6.2 7C5.8134 7 5.5 7.3134 5.5 7.7V15.3C5.5 15.6866 5.8134 16 6.2 16C6.5866 16 6.9 15.6866 6.9 15.3V7.7C6.9 7.3134 6.5866 7 6.2 7ZM8.30005 7.7C8.30005 7.3134 8.61345 7 9.00005 7C9.38665 7 9.70005 7.3134 9.70005 7.7V15.3C9.70005 15.6866 9.38665 16 9.00005 16C8.61345 16 8.30005 15.6866 8.30005 15.3V7.7ZM11.8001 7C11.4135 7 11.1001 7.3134 11.1001 7.7V15.3C11.1001 15.6866 11.4135 16 11.8001 16C12.1867 16 12.5001 15.6866 12.5001 15.3V7.7C12.5001 7.3134 12.1867 7 11.8001 7Z" fill="#12151F"/>
</svg>
