<svg width="24" height="24" viewBox="0 0 24 24" fill="#12151F" xmlns="http://www.w3.org/2000/svg">
<path fill-rule="evenodd" clip-rule="evenodd" d="M16 5C16 7.20914 14.2091 9 12 9C9.79086 9 8 7.20914 8 5C8 2.79086 9.79086 1 12 1C14.2091 1 16 2.79086 16 5ZM14.3 5C14.3 6.27026 13.2703 7.3 12 7.3C10.7297 7.3 9.7 6.27026 9.7 5C9.7 3.72975 10.7297 2.7 12 2.7C13.2703 2.7 14.3 3.72975 14.3 5Z" stroke="none"/>
<path d="M1.8499 13.5C1.8499 12.0365 3.03635 10.85 4.4999 10.85C4.96934 10.85 5.3499 10.4695 5.3499 10C5.3499 9.53058 4.96934 9.15002 4.4999 9.15002C2.09746 9.15002 0.149902 11.0976 0.149902 13.5V18C0.149902 18.4695 0.53046 18.85 0.999902 18.85C1.46934 18.85 1.8499 18.4695 1.8499 18V13.5Z" stroke="none"/>
<path d="M6.8499 17C6.8499 14.1558 9.15564 11.85 11.9999 11.85C14.8442 11.85 17.1499 14.1558 17.1499 17V21C17.1499 21.4695 17.5305 21.85 17.9999 21.85C18.4693 21.85 18.8499 21.4695 18.8499 21V17C18.8499 13.2169 15.7831 10.15 11.9999 10.15C8.21675 10.15 5.1499 13.2169 5.1499 17V21C5.1499 21.4695 5.53046 21.85 5.9999 21.85C6.46934 21.85 6.8499 21.4695 6.8499 21V17Z" stroke="none"/>
<path d="M19.0001 10.85C20.4637 10.85 21.6501 12.0365 21.6501 13.5V18C21.6501 18.4695 22.0307 18.85 22.5001 18.85C22.9695 18.85 23.3501 18.4695 23.3501 18V13.5C23.3501 11.0976 21.4025 9.15002 19.0001 9.15002C18.5307 9.15002 18.1501 9.53058 18.1501 10C18.1501 10.4695 18.5307 10.85 19.0001 10.85Z" stroke="none"/>
<path fill-rule="evenodd" clip-rule="evenodd" d="M20 8C21.6569 8 23 6.65685 23 5C23 3.34315 21.6569 2 20 2C18.3431 2 17 3.34315 17 5C17 6.65685 18.3431 8 20 8ZM20 6.3C20.718 6.3 21.3 5.71797 21.3 5C21.3 4.28203 20.718 3.7 20 3.7C19.282 3.7 18.7 4.28203 18.7 5C18.7 5.71797 19.282 6.3 20 6.3Z" stroke="none"/>
<path fill-rule="evenodd" clip-rule="evenodd" d="M7 5C7 6.65685 5.65685 8 4 8C2.34315 8 1 6.65685 1 5C1 3.34315 2.34315 2 4 2C5.65685 2 7 3.34315 7 5ZM5.3 5C5.3 5.71797 4.71797 6.3 4 6.3C3.28203 6.3 2.7 5.71797 2.7 5C2.7 4.28203 3.28203 3.7 4 3.7C4.71797 3.7 5.3 4.28203 5.3 5Z" stroke="none"/>
</svg>
