<svg width="18" height="20" viewBox="0 0 18 20" fill="#12151F" xmlns="http://www.w3.org/2000/svg">
<path d="M3.65 5C3.65 4.53056 4.03056 4.15 4.5 4.15H13C13.4694 4.15 13.85 4.53056 13.85 5C13.85 5.46944 13.4694 5.85 13 5.85H4.5C4.03056 5.85 3.65 5.46944 3.65 5Z" stroke="none" />
<path d="M4.5 8.15C4.03056 8.15 3.65 8.53056 3.65 9C3.65 9.46944 4.03056 9.85 4.5 9.85H8.5C8.96944 9.85 9.35 9.46944 9.35 9C9.35 8.53056 8.96944 8.15 8.5 8.15H4.5Z" stroke="none" />
<path fill-rule="evenodd" clip-rule="evenodd" d="M4 0C1.79086 0 0 1.79086 0 4V16C0 18.2091 1.79086 20 4 20H14C16.2091 20 18 18.2091 18 16V4C18 1.79086 16.2091 0 14 0H4ZM14 1.7H4C2.72975 1.7 1.7 2.72975 1.7 4V16C1.7 17.2703 2.72975 18.3 4 18.3H14C15.2703 18.3 16.3 17.2703 16.3 16V4C16.3 2.72975 15.2703 1.7 14 1.7Z"  stroke="none" />
</svg>
