<svg width="16" height="16" viewBox="0 0 16 16" fill="none" xmlns="http://www.w3.org/2000/svg">
<path fill-rule="evenodd" clip-rule="evenodd" d="M2 8C2 4.68643 4.68643 2 8 2C11.3136 2 14 4.68643 14 8C14 11.3136 11.3136 14 8 14C4.68643 14 2 11.3136 2 8ZM8 2.85714C5.15982 2.85714 2.85714 5.15982 2.85714 8C2.85714 10.8402 5.15982 13.1429 8 13.1429C10.8402 13.1429 13.1429 10.8402 13.1429 8C13.1429 5.15982 10.8402 2.85714 8 2.85714Z" fill="#12151F"/>
<path d="M13.0778 5.75374C12.6476 5.75642 12.6899 6.55008 12.1539 6.17562C11.9549 6.03687 11.8325 5.83517 11.5826 5.77383C11.3643 5.72026 11.1406 5.77598 10.925 5.81321C10.6799 5.85553 10.3893 5.87455 10.2034 6.06017C10.0237 6.23883 9.92857 6.47857 9.73732 6.6583C9.36741 7.00651 9.21125 7.3866 9.45072 7.87892C9.68108 8.35223 10.1629 8.6091 10.6829 8.57535C11.1937 8.54133 11.7243 8.24508 11.7096 8.98732C11.7042 9.24982 11.7591 9.43196 11.8397 9.67598C11.9145 9.90098 11.9094 10.119 11.9265 10.3512C11.9581 10.7852 12.0379 11.2716 12.2533 11.6549L12.6551 11.0881C12.7046 11.0179 12.8083 10.9196 12.8329 10.8369C12.8766 10.6904 12.7906 10.4386 12.7807 10.2744C12.7708 10.1102 12.7756 9.94383 12.7504 9.77964C12.7151 9.54955 12.579 9.33392 12.5603 9.10651C12.5257 8.68303 12.6031 8.34499 12.2769 7.99089C11.9619 7.64937 11.5001 7.56741 11.0589 7.63678C10.8366 7.6716 9.9417 7.81464 10.3009 7.30651C10.3719 7.2066 10.4959 7.12464 10.5757 7.02955C10.6451 6.94678 10.7054 6.79464 10.7868 6.73008C10.8682 6.66553 11.2421 6.59133 11.3493 6.62428C11.4564 6.65723 11.5681 6.81178 11.6611 6.88035C11.8328 7.0097 12.0332 7.0957 12.2453 7.13107C12.6112 7.18464 13.3762 6.97196 13.3703 6.50267C13.3692 6.27767 13.1603 5.96428 13.0778 5.75374Z" fill="#12151F"/>
<path d="M8.8424 9.61518C8.69964 9.01411 7.88294 8.81321 7.44258 8.48723C7.18946 8.29973 6.96419 8.01018 6.63178 7.98661C6.47856 7.97562 6.35026 8.00884 6.19838 7.96946C6.0591 7.93357 5.94981 7.85857 5.80142 7.87812C5.52419 7.91455 5.34928 8.2108 5.05142 8.17062C4.76883 8.13259 4.47767 7.80205 4.41338 7.53286C4.33088 7.18678 4.60463 7.07455 4.89794 7.04375C5.02035 7.03089 5.15776 7.01696 5.27535 7.0617C5.43017 7.11928 5.50329 7.27089 5.64231 7.3475C5.90294 7.49027 5.9557 7.26205 5.91579 7.03062C5.85606 6.68402 5.78642 6.54259 6.09553 6.3042C6.30981 6.13973 6.49303 6.0208 6.45874 5.72536C6.43838 5.55179 7.11071 5.89812 7.19937 5.72536C7.2666 5.59384 6.68374 5.05036 6.80401 4.97188C7.11446 4.76938 8.13392 4.78438 7.7174 4.21759C7.59499 4.05125 7.36919 3.75393 7.1549 3.71321C6.88704 3.66259 6.76812 3.96152 6.58142 4.0933C6.38856 4.22964 6.01303 4.38446 5.8199 4.17366C5.56008 3.89 5.99213 3.79679 6.08776 3.59884C6.18338 3.40089 5.86624 3.0267 5.69642 2.93188L4.89794 3.82732C4.875 3.97728 4.88298 4.13035 4.9214 4.27711C4.95982 4.42388 5.02786 4.56123 5.12133 4.68071C5.28017 4.88509 5.53303 4.95071 5.54454 5.22982C5.55579 5.49768 5.51401 5.63482 5.33883 5.82312C5.26302 5.90348 5.20945 6.01759 5.13231 6.09286C5.03776 6.18473 5.07285 6.15661 4.92526 6.18179C4.64776 6.22866 4.41151 6.30098 4.14338 6.37491C3.69659 6.49839 3.65534 5.76848 3.45177 5.48214L2.78213 6.02295C2.7749 6.11161 2.89195 6.27473 2.92383 6.37116C3.10677 6.92214 3.47588 7.3483 3.71427 7.87545C3.96526 8.43366 4.63919 8.27884 4.93677 8.76795C5.20088 9.20187 4.91883 9.75125 5.11651 10.2055C5.26008 10.5353 5.59865 10.6073 5.83222 10.8484C6.07088 11.0919 6.06579 11.4251 6.10222 11.742C6.1433 12.1147 6.20998 12.4841 6.30178 12.8477C6.33419 12.9733 6.36392 13.1394 6.4499 13.243C6.50883 13.3143 6.71106 13.3756 6.62937 13.3992C6.74347 13.4179 6.94678 13.5246 7.04187 13.4463C7.16722 13.3435 7.13374 13.0269 7.15544 12.8838C7.22053 12.4579 7.43374 12.0414 7.72142 11.7227C8.00562 11.4082 8.39508 11.1953 8.63508 10.8387C8.86892 10.4911 8.93937 10.0221 8.8424 9.61518ZM7.94803 10.3202C7.78731 10.6071 7.42946 10.7991 7.19937 11.0271C7.13696 11.0889 7.0041 11.3032 6.92588 11.2569C6.8699 11.2237 6.85088 10.9456 6.83026 10.8819C6.72386 10.5609 6.52073 10.2806 6.24874 10.0796C6.1649 10.0162 5.95704 9.93366 5.9091 9.8466C5.85553 9.75205 5.90374 9.52893 5.90562 9.42607C5.90856 9.27607 5.84026 9.02669 5.87722 8.89036C5.92008 8.73312 5.83758 8.82794 5.9782 8.79687C6.0524 8.78027 6.35883 8.8341 6.45124 8.85339C6.59803 8.88393 6.67892 8.97527 6.79463 9.06768C7.09892 9.31169 7.43401 9.50053 7.77499 9.6875C8.0391 9.83375 8.11678 10.0188 7.94803 10.3202Z" fill="#12151F"/>
<path d="M10.5076 5.59571C10.7399 5.73473 11.0843 5.66937 11.2595 5.47089C11.3964 5.31553 11.477 5.0458 11.7232 5.04607C11.8315 5.04585 11.9356 5.08828 12.013 5.1642C12.1148 5.26946 12.0947 5.3683 12.1164 5.50009C12.1649 5.79607 12.4823 5.51696 12.565 5.40232C12.6186 5.32759 12.6912 5.2167 12.6668 5.11946C12.6443 5.02866 12.5382 4.93196 12.4911 4.84866C12.3534 4.60759 12.2401 4.32714 12.0339 4.13241C11.8354 3.94491 11.5914 3.96661 11.4031 4.16134C11.2488 4.32205 11.0696 4.44929 10.9641 4.64482C10.8896 4.78223 10.8057 4.84786 10.6549 4.88348C10.5719 4.90304 10.4771 4.91027 10.4074 4.96598C10.2135 5.11866 10.3239 5.48536 10.5076 5.59571Z" fill="#12151F"/>
</svg>
