<svg width="24" height="24" viewBox="0 0 24 24" fill="none" xmlns="http://www.w3.org/2000/svg">
<path fill-rule="evenodd" clip-rule="evenodd" d="M12 22C17.5228 22 22 17.5228 22 12C22 6.47715 17.5228 2 12 2C6.47715 2 2 6.47715 2 12C2 17.5228 6.47715 22 12 22ZM16.7311 7.6931C16.9875 7.43563 17.4033 7.43563 17.6597 7.6931L18.0577 8.09269C18.3141 8.35016 18.3141 8.76759 18.0577 9.02506L11.2394 15.8708C11.2287 15.8833 11.2175 15.8955 11.2057 15.9073L10.8077 16.3069C10.6753 16.4399 10.5003 16.5042 10.3268 16.4998C10.1635 16.4963 10.0012 16.432 9.87656 16.3068L9.47858 15.9073C9.46707 15.8957 9.45608 15.8838 9.4456 15.8717L5.94232 12.3542C5.68589 12.0968 5.68589 11.6793 5.94232 11.4219L6.3403 11.0223C6.59674 10.7648 7.01249 10.7648 7.26893 11.0223L10.3421 14.1079L16.7311 7.6931Z" fill="white"/>
</svg>
