<svg width="24" height="24" viewBox="0 0 24 24"  fill="#12151F" xmlns="http://www.w3.org/2000/svg">
<path fill-rule="evenodd" clip-rule="evenodd" d="M5.93296 13.2375L13.2825 5.9002C14.4861 4.69993 16.4366 4.69993 17.6402 5.9002L18.8373 7.09534C20.041 8.29702 20.041 10.246 18.8373 11.4464L11.4527 18.8188C10.914 19.3566 10.1834 19.6589 9.42155 19.6589H5.73758C5.32305 19.6589 4.98993 19.3179 5.00023 18.9042L5.09268 15.1927C5.11122 14.4577 5.41193 13.7577 5.93296 13.2375ZM17.7943 8.13672L16.5978 6.94214C15.9702 6.31625 14.9527 6.31625 14.3254 6.94186L13.7208 7.54549L17.1897 11.0087L17.7946 10.4047C18.4218 9.77925 18.4218 8.76317 17.7943 8.13672ZM16.1466 12.05L12.6777 8.58685L6.97616 14.2789C6.72275 14.5319 6.57649 14.8724 6.56748 15.2296L6.49316 18.1853L9.42165 18.1862C9.74587 18.1862 10.0585 18.0736 10.3072 17.8701L10.4097 17.7774L16.1466 12.05Z" stroke="none"/>
</svg>
