<svg width="48" height="48" viewBox="0 0 48 48" fill="none" xmlns="http://www.w3.org/2000/svg">
<path d="M10 8C8.89543 8 8 8.89543 8 10V38C8 39.1046 8.89543 40 10 40H38C39.1046 40 40 39.1046 40 38V19.2632H44V38C44 41.3137 41.3137 44 38 44H10C6.68629 44 4 41.3137 4 38V10C4 6.68629 6.68629 4 10 4H27.7895V8H10Z" fill="url(#paint0_linear_1269_262599)"/>
<path d="M31.3892 9.74707L37.7531 16.111L20.7486 33.1155C20.5875 33.2766 20.3763 33.3779 20.1498 33.4025L14.5951 34.0075C13.9598 34.0767 13.4235 33.5404 13.4927 32.9051L14.0976 27.3504C14.1223 27.1239 14.2236 26.9127 14.3847 26.7516L31.3892 9.74707Z" fill="url(#paint1_linear_1269_262599)"/>
<path d="M41.6419 5.85776C39.8846 4.1004 37.0353 4.1004 35.278 5.85776L32.8031 8.33264L39.1671 14.6966L41.6419 12.2217C43.3993 10.4644 43.3993 7.61512 41.6419 5.85776Z" fill="url(#paint2_linear_1269_262599)"/>
<defs>
<linearGradient id="paint0_linear_1269_262599" x1="44" y1="1.5" x2="-3" y2="50" gradientUnits="userSpaceOnUse">
<stop stop-color="#5D54E6"/>
<stop offset="1" stop-color="#8D86F8"/>
</linearGradient>
<linearGradient id="paint1_linear_1269_262599" x1="44" y1="1.5" x2="-3" y2="50" gradientUnits="userSpaceOnUse">
<stop stop-color="#5D54E6"/>
<stop offset="1" stop-color="#8D86F8"/>
</linearGradient>
<linearGradient id="paint2_linear_1269_262599" x1="44" y1="1.5" x2="-3" y2="50" gradientUnits="userSpaceOnUse">
<stop stop-color="#5D54E6"/>
<stop offset="1" stop-color="#8D86F8"/>
</linearGradient>
</defs>
</svg>
