<svg width="24" height="25" viewBox="0 0 24 25" fill="#12151F" xmlns="http://www.w3.org/2000/svg">
<path fill-rule="evenodd" clip-rule="evenodd" d="M8.19289 10.7375L15.5424 3.4002C16.746 2.19993 18.6966 2.19993 19.9001 3.4002L21.0972 4.59534C22.3009 5.79702 22.3009 7.746 21.0972 8.94638L13.7126 16.3188C13.1739 16.8566 12.4434 17.1589 11.6815 17.1589H7.99751C7.58297 17.1589 7.24985 16.8179 7.26015 16.4042L7.3526 12.6927C7.37114 11.9577 7.67186 11.2577 8.19289 10.7375ZM20.0542 5.63671L18.8576 4.44213C18.23 3.81624 17.2125 3.81624 16.5852 4.44185L15.9806 5.04543L19.4496 8.5086L20.0544 7.90474C20.6816 7.27924 20.6816 6.26316 20.0542 5.63671ZM18.4065 9.54996L14.9375 6.0868L9.23598 11.7789C8.98257 12.0319 8.83631 12.3724 8.8273 12.7296L8.75298 15.6853L11.6815 15.6862C12.0057 15.6862 12.3183 15.5736 12.567 15.3701L12.6695 15.2774L18.4065 9.54996ZM11.3348 2.5379C11.7422 2.5379 12.0724 2.86758 12.0724 3.27425C12.0724 3.64704 11.7949 3.95513 11.4349 4.00389L11.3348 4.01061H7.65773C5.17793 4.01061 3.5717 5.65289 3.47937 8.20324L3.47516 8.43758V16.6003C3.47516 19.2086 5.00328 20.9241 7.43426 21.0228L7.65773 21.0273H16.3356C18.8216 21.0273 20.4229 19.3885 20.515 16.835L20.5192 16.6003V12.6456C20.5192 12.2389 20.8494 11.9092 21.2567 11.9092C21.6301 11.9092 21.9387 12.1863 21.9876 12.5457L21.9943 12.6456V16.6003C21.9943 19.9994 19.8376 22.3894 16.5657 22.4963L16.3356 22.5H7.65773C4.33531 22.5 2.10323 20.1871 2.00349 16.8358L2 16.6003V8.43758C2 5.04179 4.16225 2.64866 7.4281 2.54164L7.65773 2.5379H11.3348Z"/>
</svg>
