<svg width="24" height="24" viewBox="0 0 24 24" fill="#12151F" xmlns="http://www.w3.org/2000/svg">
<path fill-rule="evenodd" clip-rule="evenodd" d="M10.8054 2.41999C9.61535 2.65671 8.62224 3.64982 6.63603 5.63603C4.64982 7.62223 3.65672 8.61534 3.42 9.80541C3.31752 10.3206 3.31752 10.8509 3.42 11.3661C3.65672 12.5562 4.64982 13.5493 6.63603 15.5355L9.46446 18.3639C11.4507 20.3502 12.4438 21.3433 13.6338 21.58C14.149 21.6825 14.6794 21.6825 15.1946 21.58C16.3846 21.3433 17.3777 20.3502 19.3639 18.364C21.3501 16.3778 22.3433 15.3846 22.58 14.1946C22.6825 13.6794 22.6825 13.149 22.58 12.6338C22.3433 11.4438 21.3502 10.4507 19.364 8.46445L16.5355 5.63603C14.5493 3.64982 13.5562 2.65671 12.3661 2.41999C11.8509 2.31751 11.3206 2.31751 10.8054 2.41999ZM18.1619 9.66653L15.3334 6.83811C14.3153 5.81998 13.6408 5.14833 13.078 4.68952C12.5374 4.24875 12.2451 4.12922 12.0345 4.08733C11.9613 4.07278 11.8877 4.06182 11.8137 4.05445L12.3757 12.4846C12.3807 12.5596 12.4404 12.6193 12.5154 12.6243L20.9455 13.1863C20.9382 13.1123 20.9272 13.0386 20.9127 12.9655C20.8708 12.7549 20.7512 12.4625 20.3105 11.9219C19.8517 11.3592 19.18 10.6847 18.1619 9.66653ZM20.3555 14.8507L12.4023 14.3205C11.4776 14.2589 10.7411 13.5224 10.6795 12.5977L10.1493 4.64451C10.131 4.65912 10.1124 4.67412 10.0935 4.68952C9.5308 5.14833 8.85624 5.81998 7.83811 6.83811C6.81999 7.85623 6.14833 8.53079 5.68952 9.09352C5.24876 9.63412 5.12923 9.92644 5.08733 10.1371C5.02841 10.4333 5.02841 10.7382 5.08733 11.0345C5.12923 11.2451 5.24876 11.5374 5.68952 12.078C6.14833 12.6408 6.81999 13.3153 7.83811 14.3334L10.6665 17.1619C11.6847 18.18 12.3592 18.8516 12.922 19.3105C13.4626 19.7512 13.7549 19.8707 13.9655 19.9126C14.2617 19.9716 14.5667 19.9716 14.8629 19.9126C15.0735 19.8708 15.3659 19.7512 15.9065 19.3105C16.4692 18.8516 17.1437 18.18 18.1619 17.1619C19.18 16.1437 19.8517 15.4692 20.3105 14.9064C20.3258 14.8876 20.3408 14.869 20.3555 14.8507Z" stroke="none"/>
<path d="M2.99999 16.15C2.53055 16.15 2.14999 16.5306 2.14999 17C2.14999 17.4694 2.53055 17.85 2.99999 17.85H3.09999C3.56944 17.85 3.94999 17.4694 3.94999 17C3.94999 16.5306 3.56944 16.15 3.09999 16.15H2.99999Z" stroke="none"/>
<path d="M2.99999 19.15C2.53055 19.15 2.14999 19.5306 2.14999 20C2.14999 20.4694 2.53055 20.85 2.99999 20.85H6.99999C7.46944 20.85 7.84999 20.4694 7.84999 20C7.84999 19.5306 7.46944 19.15 6.99999 19.15H2.99999Z" stroke="none"/>
</svg>
