<svg width="20" height="19" viewBox="0 0 20 19" fill="none" xmlns="http://www.w3.org/2000/svg">
<path fill-rule="evenodd" clip-rule="evenodd" d="M10.7551 4.62333C10.3564 5.08255 9.64357 5.08255 9.24488 4.62333L8.7163 4.01449C8.48414 3.74709 8.20904 3.50845 7.8991 3.3063C7.21042 2.85707 6.36833 2.59999 5.5 2.59999C3.32787 2.59999 1.7 4.24343 1.7 6.29509C1.7 7.09067 1.8881 7.87209 2.24309 8.65794C3.40394 11.2302 6.14713 13.5159 8.92034 15.7792L8.92702 15.7847C9.28901 16.0801 9.64997 16.3746 10 16.6652C10.3501 16.3746 10.711 16.08 11.0731 15.7846L11.0796 15.7792C13.8528 13.516 16.5957 11.2308 17.7566 8.65867C18.1117 7.87264 18.3 7.09067 18.3 6.29509C18.3 4.24343 16.6721 2.59999 14.5 2.59999C13.6317 2.59999 12.7896 2.85702 12.101 3.30623C11.7911 3.50838 11.5159 3.74709 11.2837 4.01449L10.7551 4.62333ZM12.1542 17.0965C11.6385 17.5174 11.1388 17.9252 10.6707 18.3207C10.2844 18.6472 9.7156 18.6472 9.32926 18.3207C8.86122 17.9252 8.36151 17.5174 7.84575 17.0965C5.16603 14.9095 2.05258 12.3686 0.69383 9.35779C0.25574 8.38799 0 7.3686 0 6.29509C0 3.27383 2.42 0.899994 5.5 0.899994C6.69792 0.899994 7.86267 1.25283 8.8278 1.88239C9.26444 2.16723 9.66051 2.50896 10 2.89999C10.3395 2.50896 10.7352 2.1675 11.1718 1.88266C12.1369 1.2531 13.3021 0.899994 14.5 0.899994C17.58 0.899994 20 3.27383 20 6.29509C20 7.36865 19.7442 8.38809 19.3061 9.35799C17.9474 12.3685 14.8338 14.9096 12.1542 17.0965Z" fill="#12151F"/>
</svg>
