<svg width="20" height="19" viewBox="0 0 20 19" fill="none" xmlns="http://www.w3.org/2000/svg">
<path fill-rule="evenodd" clip-rule="evenodd" d="M12.1542 16.6965C11.6385 17.1174 11.1388 17.5252 10.6707 17.9207C10.2844 18.2472 9.7156 18.2472 9.32926 17.9207C8.86122 17.5252 8.36151 17.1174 7.84575 16.6965C5.16603 14.5095 2.05258 11.9686 0.69383 8.9578C0.25574 7.988 0 6.96861 0 5.8951C0 2.87384 2.42 0.5 5.5 0.5C6.69792 0.5 7.86267 0.85284 8.8278 1.4824C9.26444 1.76724 9.66051 2.10896 10 2.5C10.3395 2.10896 10.7352 1.76751 11.1718 1.48267C12.1369 0.853109 13.3021 0.5 14.5 0.5C17.58 0.5 20 2.87384 20 5.8951C20 6.96866 19.7442 7.9881 19.3061 8.958C17.9474 11.9685 14.8338 14.5096 12.1542 16.6965Z" fill="#F24852"/>
</svg>
