<svg width="24" height="24" viewBox="0 0 24 24" fill="#12151F" xmlns="http://www.w3.org/2000/svg">
<path fill-rule="evenodd" clip-rule="evenodd" d="M21.9999 11.9999C21.9999 13.696 21.5777 15.2934 20.8326 16.6928C20.5647 17.196 20.2551 17.6737 19.9083 18.1211C19.2539 18.9653 18.4672 19.7019 17.5794 20.2999C15.999 21.3644 14.0982 21.9895 12.0519 21.9999H12.0268L11.9999 21.9999L11.9731 21.9999H11.9485C9.90201 21.9896 8.00089 21.3645 6.42037 20.2999C5.90995 19.9561 5.43304 19.5665 4.99539 19.1369C4.67185 18.8193 4.36981 18.4799 4.09165 18.1211C2.78047 16.4295 2 14.3059 2 12C2 6.47715 6.47715 2 12 2C14.7614 2 17.2614 3.11924 19.071 4.92884C19.615 5.47287 20.0967 6.0793 20.5043 6.73647C21.4525 8.26526 21.9999 10.0686 21.9999 11.9999ZM12.0139 20.2999C14.5518 20.2957 16.8226 19.1524 18.3424 17.354C17.7329 17.1079 17.074 16.8947 16.3735 16.7206C14.9977 16.3787 13.5103 16.1999 12 16.1999C10.4897 16.1999 9.00234 16.3787 7.62648 16.7206C6.92597 16.8947 6.267 17.1079 5.65751 17.354C7.17725 19.1525 9.44805 20.2957 11.986 20.2999H12.0139ZM16.7835 15.0708C17.6825 15.2942 18.5328 15.5793 19.318 15.9195C19.9445 14.7521 20.2999 13.4175 20.2999 11.9999C20.2999 7.41594 16.5839 3.6999 11.9999 3.6999C7.41596 3.6999 3.69992 7.41594 3.69992 11.9999C3.69992 13.4175 4.05534 14.7522 4.68192 15.9196C5.46714 15.5793 6.31745 15.2942 7.21646 15.0708C8.73303 14.6939 10.3585 14.4999 12 14.4999C13.6415 14.4999 15.267 14.6939 16.7835 15.0708Z"/>
<path fill-rule="evenodd" clip-rule="evenodd" d="M12 7.85C11.0887 7.85 10.35 8.58873 10.35 9.5C10.35 10.4113 11.0887 11.15 12 11.15C12.9113 11.15 13.65 10.4113 13.65 9.5C13.65 8.58873 12.9113 7.85 12 7.85ZM8.65 9.5C8.65 7.64985 10.1498 6.15 12 6.15C13.8502 6.15 15.35 7.64985 15.35 9.5C15.35 11.3502 13.8502 12.85 12 12.85C10.1498 12.85 8.65 11.3502 8.65 9.5Z"/>
<path d="M18.6667 12.4166C18.6667 13.107 18.1071 13.6666 17.4167 13.6666C16.7264 13.6666 16.1667 13.107 16.1667 12.4166C16.1667 11.7263 16.7264 11.1666 17.4167 11.1666C18.1071 11.1666 18.6667 11.7263 18.6667 12.4166Z"/>
<path d="M7.83335 12.4166C7.83335 13.107 7.27371 13.6666 6.58335 13.6666C5.893 13.6666 5.33335 13.107 5.33335 12.4166C5.33335 11.7263 5.893 11.1666 6.58335 11.1666C7.27371 11.1666 7.83335 11.7263 7.83335 12.4166Z"/>
</svg>
