<svg width="24" height="24" viewBox="0 0 24 24" fill="none" xmlns="http://www.w3.org/2000/svg">
<path stroke="none" fill-rule="evenodd" clip-rule="evenodd" d="M17.5479 4.81751C17.5283 4.81583 17.5018 4.81795 17.4642 4.83906L5.60712 11.5087C5.56649 11.5315 5.55137 11.5542 5.54338 11.5713C5.53328 11.5929 5.52721 11.6238 5.532 11.6594C5.53679 11.695 5.5508 11.7232 5.56626 11.7414C5.57848 11.7558 5.59905 11.7736 5.64428 11.7849L10.7921 13.0719C11.2813 13.1942 11.6994 13.5109 11.9496 13.9488L14.4546 18.3325C14.4782 18.3737 14.5012 18.3886 14.5182 18.3962C14.54 18.4061 14.5712 18.4118 14.6073 18.4064C14.6434 18.4009 14.6715 18.3862 14.6894 18.3703C14.7033 18.3579 14.7209 18.337 14.7312 18.2906L17.6842 5.00234C17.6935 4.96029 17.6879 4.93424 17.6806 4.91605C17.6718 4.89398 17.6543 4.86949 17.6272 4.84935C17.6 4.82922 17.5715 4.81956 17.5479 4.81751ZM16.6308 3.35738C18.0254 2.5729 19.6908 3.80908 19.3437 5.37112L16.3908 18.6594C16.0239 20.3101 13.8175 20.6441 12.9786 19.1759L10.4736 14.7922C10.4533 14.7567 10.4194 14.731 10.3797 14.7211L5.23197 13.4342C3.60863 13.0283 3.31528 10.8474 4.77368 10.027L16.6308 3.35738Z" fill="#12151F"/>
</svg>
