<svg width="20" height="20" viewBox="0 0 20 20" fill="none" xmlns="http://www.w3.org/2000/svg">
<path fill-rule="evenodd" clip-rule="evenodd" d="M19.9999 9.9999C19.9999 11.696 19.5777 13.2934 18.8326 14.6928C18.5647 15.196 18.2551 15.6737 17.9083 16.1211C17.2539 16.9653 16.4672 17.7019 15.5794 18.2999C13.999 19.3644 12.0982 19.9895 10.0519 19.9999H10.0268L9.99992 19.9999L9.9731 19.9999H9.94853C7.90201 19.9896 6.00089 19.3645 4.42037 18.2999C3.90995 17.9561 3.43304 17.5665 2.99539 17.1369C2.67185 16.8193 2.36981 16.4799 2.09165 16.1211C0.780467 14.4295 0 12.3059 0 10C0 4.47715 4.47715 0 10 0C12.7614 0 15.2614 1.11924 17.071 2.92884C17.615 3.47287 18.0967 4.0793 18.5043 4.73647C19.4525 6.26526 19.9999 8.06865 19.9999 9.9999ZM10.0139 18.2999C12.5518 18.2957 14.8226 17.1524 16.3424 15.354C15.7329 15.1079 15.074 14.8947 14.3735 14.7206C12.9977 14.3787 11.5103 14.1999 10 14.1999C8.48973 14.1999 7.00234 14.3787 5.62648 14.7206C4.92597 14.8947 4.267 15.1079 3.65751 15.354C5.17725 17.1525 7.44805 18.2957 9.98599 18.2999H10.0139ZM14.7835 13.0708C15.6825 13.2942 16.5328 13.5793 17.318 13.9195C17.9445 12.7521 18.2999 11.4175 18.2999 9.9999C18.2999 5.41594 14.5839 1.6999 9.99992 1.6999C5.41596 1.6999 1.69992 5.41594 1.69992 9.9999C1.69992 11.4175 2.05534 12.7522 2.68192 13.9196C3.46714 13.5793 4.31745 13.2942 5.21646 13.0708C6.73303 12.6939 8.35848 12.4999 10 12.4999C11.6415 12.4999 13.267 12.6939 14.7835 13.0708Z" fill="#12151F"/>
<path fill-rule="evenodd" clip-rule="evenodd" d="M10 5.85C9.08873 5.85 8.35 6.58873 8.35 7.5C8.35 8.41127 9.08873 9.15 10 9.15C10.9113 9.15 11.65 8.41127 11.65 7.5C11.65 6.58873 10.9113 5.85 10 5.85ZM6.65 7.5C6.65 5.64985 8.14985 4.15 10 4.15C11.8502 4.15 13.35 5.64985 13.35 7.5C13.35 9.35015 11.8502 10.85 10 10.85C8.14985 10.85 6.65 9.35015 6.65 7.5Z" fill="#12151F"/>
<path d="M16.6667 10.4166C16.6667 11.107 16.1071 11.6666 15.4167 11.6666C14.7264 11.6666 14.1667 11.107 14.1667 10.4166C14.1667 9.72627 14.7264 9.16663 15.4167 9.16663C16.1071 9.16663 16.6667 9.72627 16.6667 10.4166Z" fill="#12151F"/>
<path d="M5.83335 10.4166C5.83335 11.107 5.27371 11.6666 4.58335 11.6666C3.893 11.6666 3.33335 11.107 3.33335 10.4166C3.33335 9.72629 3.893 9.16665 4.58335 9.16665C5.27371 9.16665 5.83335 9.72629 5.83335 10.4166Z" fill="#12151F"/>
</svg>
