<svg width="24" height="24" viewBox="0 0 24 24" fill="#12151F" xmlns="http://www.w3.org/2000/svg">
<path d="M6.96801 4.35651C8.41126 3.40428 10.1396 2.84999 11.9999 2.84999C17.0533 2.84999 21.1499 6.94659 21.1499 12C21.1499 17.0534 17.0533 21.15 11.9999 21.15C6.9465 21.15 2.8499 17.0534 2.8499 12C2.8499 10.5668 3.1788 9.21283 3.76446 8.00729C3.96959 7.58504 3.79358 7.07644 3.37133 6.87131C2.94907 6.66618 2.44048 6.84219 2.23535 7.26445C1.53968 8.69643 1.1499 10.3039 1.1499 12C1.1499 17.9923 6.00761 22.85 11.9999 22.85C17.9922 22.85 22.8499 17.9923 22.8499 12C22.8499 6.0077 17.9922 1.14999 11.9999 1.14999C9.79661 1.14999 7.74433 1.80763 6.0318 2.93753C5.63996 3.19605 5.53188 3.72328 5.79041 4.11512C6.04894 4.50696 6.57617 4.61504 6.96801 4.35651Z" stroke="none"/>
<path fill-rule="evenodd" clip-rule="evenodd" d="M11.744 17.112V18.232H12.5V17.126C13.34 17.0793 14.0073 16.8227 14.502 16.356C14.9967 15.88 15.244 15.222 15.244 14.382C15.244 13.6447 15.048 13.038 14.656 12.562C14.264 12.0767 13.6853 11.6847 12.92 11.386L12.5 11.218V8.446C13.032 8.60467 13.3493 8.97334 13.452 9.552H14.992C14.992 8.86134 14.754 8.278 14.278 7.802C13.802 7.31667 13.2093 7.02734 12.5 6.934V5.828H11.744V6.906C10.932 6.962 10.274 7.228 9.77 7.704C9.27533 8.17067 9.028 8.796 9.028 9.58C9.028 10.924 9.77467 11.8807 11.268 12.45L11.744 12.632V15.6C11.0347 15.432 10.6333 14.9513 10.54 14.158H9C9.01867 15.0073 9.28467 15.6933 9.798 16.216C10.3113 16.7293 10.96 17.028 11.744 17.112ZM12.5 12.94C13.3027 13.2947 13.704 13.7893 13.704 14.424C13.704 14.7507 13.592 15.026 13.368 15.25C13.144 15.4647 12.8547 15.5953 12.5 15.642V12.94ZM11.744 10.924C10.96 10.5973 10.568 10.1447 10.568 9.566C10.568 9.258 10.6753 8.99667 10.89 8.782C11.1047 8.56734 11.3893 8.43667 11.744 8.39V10.924Z" stroke="none"/>
</svg>
