<svg width="24" height="24" viewBox="0 0 24 24" fill="#9EA3B2" xmlns="http://www.w3.org/2000/svg">
<path fill-rule="evenodd" clip-rule="evenodd" d="M20.3 12C20.3 16.584 16.584 20.3 12 20.3C7.41604 20.3 3.7 16.584 3.7 12C3.7 7.41604 7.41604 3.7 12 3.7C16.584 3.7 20.3 7.41604 20.3 12ZM22 12C22 17.5228 17.5228 22 12 22C6.47715 22 2 17.5228 2 12C2 6.47715 6.47715 2 12 2C17.5228 2 22 6.47715 22 12ZM12.8361 9.32776C13.1572 9.32776 13.4292 9.21628 13.6522 8.99331C13.8841 8.76143 14 8.48495 14 8.16388C14 7.84281 13.8841 7.57079 13.6522 7.34783C13.4292 7.11594 13.1572 7 12.8361 7C12.515 7 12.2386 7.11594 12.0067 7.34783C11.7748 7.57079 11.6589 7.84281 11.6589 8.16388C11.6589 8.48495 11.7748 8.76143 12.0067 8.99331C12.2386 9.21628 12.515 9.32776 12.8361 9.32776ZM11.4181 10.4247L10 17.1137H11.8328L13.2508 10.4247H11.4181Z" stroke="none"/>
</svg>
