<svg width="19" height="16" viewBox="0 0 19 16" fill="white"  xmlns="http://www.w3.org/2000/svg">
<path stroke="none" fill-rule="evenodd" clip-rule="evenodd" d="M2 0C0.895431 0 0 0.895431 0 2C0 3.10457 0.895431 4 2 4C3.10457 4 4 3.10457 4 2C4 0.895431 3.10457 0 2 0ZM7 1.15C6.53056 1.15 6.15 1.53056 6.15 2C6.15 2.46944 6.53056 2.85 7 2.85H18C18.4694 2.85 18.85 2.46944 18.85 2C18.85 1.53056 18.4694 1.15 18 1.15H7ZM0 8C0 6.89543 0.895431 6 2 6C3.10457 6 4 6.89543 4 8C4 9.10457 3.10457 10 2 10C0.895431 10 0 9.10457 0 8ZM7 7.15C6.53056 7.15 6.15 7.53056 6.15 8C6.15 8.46944 6.53056 8.85 7 8.85H18C18.4694 8.85 18.85 8.46944 18.85 8C18.85 7.53056 18.4694 7.15 18 7.15H7ZM0 14C0 12.8954 0.895431 12 2 12C3.10457 12 4 12.8954 4 14C4 15.1046 3.10457 16 2 16C0.895431 16 0 15.1046 0 14ZM7 13.15C6.53056 13.15 6.15 13.5306 6.15 14C6.15 14.4694 6.53056 14.85 7 14.85H18C18.4694 14.85 18.85 14.4694 18.85 14C18.85 13.5306 18.4694 13.15 18 13.15H7Z" />
</svg>
