<svg width="16" height="16" viewBox="0 0 16 16" fill="#12151F" xmlns="http://www.w3.org/2000/svg">
<path fill-rule="evenodd" clip-rule="evenodd" d="M2.33658 6.82758C2.43689 3.76758 4.94668 1.32294 8.01936 1.33338L8.18947 1.33647C11.2401 1.43712 13.6772 3.95462 13.6668 7.03511L13.6667 7.10333C13.632 8.94084 12.7126 10.7501 11.1871 12.3649C10.4368 13.1464 9.5992 13.8386 8.69085 14.4277L8.65737 14.4552C8.265 14.7371 7.73523 14.7371 7.34286 14.4552L7.30264 14.4236L7.02701 14.2381C5.88224 13.4489 4.8627 12.4914 4.00478 11.4006L3.79368 11.1251C2.89488 9.94714 2.38457 8.51739 2.3335 7.01751L2.33658 6.82758ZM8 9C9.10457 9 10 8.10457 10 7C10 5.89543 9.10457 5 8 5C6.89543 5 6 5.89543 6 7C6 8.10457 6.89543 9 8 9Z" stroke="none"/>
</svg>
