<svg fill="none" xmlns="http://www.w3.org/2000/svg" viewBox="0 0 452 366"><ellipse cx="383.974" cy="44.823" rx="9.03" ry="8.981" fill="#75FBDC"/><ellipse cx="116.53" cy="290.5" rx="5.53" ry="5.5" fill="#75FBDC"/><path d="M357.439 242.067c.657-1.873 3.321-1.873 3.979 0l3.116 8.882a2.105 2.105 0 0 0 1.944 1.405l9.457.203c1.994.042 2.818 2.562 1.229 3.763l-7.531 5.692a2.09 2.09 0 0 0-.743 2.273l2.729 9.007c.576 1.9-1.58 3.458-3.219 2.326l-7.77-5.364a2.116 2.116 0 0 0-2.403 0l-7.771 5.364c-1.639 1.132-3.794-.426-3.219-2.326l2.729-9.007a2.087 2.087 0 0 0-.743-2.273l-7.531-5.692c-1.588-1.201-.765-3.721 1.23-3.763l9.457-.203a2.107 2.107 0 0 0 1.944-1.405l3.116-8.882ZM253.615 40.635c.302-.847 1.525-.847 1.827 0l1.431 4.013a.966.966 0 0 0 .893.634l4.343.092c.916.02 1.294 1.158.564 1.7l-3.458 2.572a.934.934 0 0 0-.341 1.027l1.253 4.07c.264.858-.726 1.561-1.478 1.05l-3.569-2.424a.984.984 0 0 0-1.103 0l-3.569 2.424c-.752.511-1.742-.192-1.478-1.05l1.253-4.07a.934.934 0 0 0-.341-1.027l-3.458-2.572c-.73-.542-.352-1.68.565-1.7l4.342-.092a.966.966 0 0 0 .893-.634l1.431-4.013ZM63.08 106.77c.36-1.027 1.82-1.027 2.18 0l1.706 4.864c.159.452.583.759 1.065.769l5.178.111c1.093.023 1.544 1.403.674 2.061l-4.124 3.117a1.143 1.143 0 0 0-.407 1.244l1.494 4.933c.316 1.04-.865 1.893-1.763 1.274l-4.255-2.938a1.16 1.16 0 0 0-1.316 0l-4.255 2.938c-.898.619-2.078-.234-1.763-1.274l1.495-4.933a1.143 1.143 0 0 0-.407-1.244l-4.124-3.117c-.87-.658-.42-2.038.673-2.061l5.179-.111c.481-.01.906-.317 1.064-.769l1.707-4.864Z" fill="#75FBDC"/><path d="M132.5 200c0 45.631 56.092 80.172 85.534 92.4a3.758 3.758 0 0 0 2.932 0c29.442-12.228 85.534-46.769 85.534-92.4v-93.906c0-2.245-1.842-4.046-4.088-4.089-21.344-.406-60.082-7.437-79.01-32.958-1.869-2.52-5.935-2.52-7.804 0-18.928 25.521-57.666 32.552-79.01 32.958-2.246.043-4.088 1.844-4.088 4.089V200Z" fill="url(#a)"/><path fill-rule="evenodd" clip-rule="evenodd" d="M196 151c0-13.255 10.745-24 24-24s24 10.745 24 24v12a3 3 0 0 1-3 3h-2a3 3 0 0 1-3-3v-11c0-8.837-7.163-17-16-17s-16 8.163-16 17v11a3 3 0 0 1-3 3h-2a3 3 0 0 1-3-3v-12Zm-2 20a7 7 0 0 0-7 7v40.537c0 2.867.942 5.677 3.13 7.529 4.544 3.846 14.184 9.892 29.87 9.892 15.686 0 25.326-6.046 29.87-9.892 2.188-1.852 3.13-4.662 3.13-7.529V178a7 7 0 0 0-7-7h-52Zm28.745 30.336a6 6 0 1 0-5.49 0l-.928 9.368a3 3 0 0 0 2.985 3.296h1.376a3 3 0 0 0 2.985-3.296l-.928-9.368Z" fill="url(#b)"/><path d="M354.958 110.69c16.277 32.816-34.57 91.184-113.57 130.368S85.15 285.405 68.873 252.588c-11.098-22.376 9.012-56.633 47.977-88.587" stroke="#75FBDC" stroke-width="1.4" stroke-linecap="round"/><path d="M87.578 244.123c10.283 20.731 55.135 19.925 104.422-.403" stroke="#75FBDC" stroke-width="1.4" stroke-linecap="round"/><defs><radialGradient id="a" cx="0" cy="0" r="1" gradientUnits="userSpaceOnUse" gradientTransform="matrix(-134.99857 -155.50078 113.83178 -98.82347 291 256.5)"><stop offset=".014" stop-color="#fff" stop-opacity="0"/><stop offset="1" stop-color="#75FBDC"/></radialGradient><linearGradient id="b" x1="298" y1="230" x2="178" y2="133" gradientUnits="userSpaceOnUse"><stop stop-color="#3F37C9"/><stop offset="1" stop-color="#3F37C9" stop-opacity=".4"/></linearGradient></defs></svg>
