<svg width="148" viewBox="0 0 148 136" fill="none" xmlns="http://www.w3.org/2000/svg">
<g clip-path="url(#clip0_2931_628246)">
<path d="M40.3236 85.8797C38.6095 84.8361 37.016 83.6056 35.5724 82.2106C34.5532 81.2146 33.7749 79.9985 33.2969 78.6551C32.4427 76.0353 33.437 73.0412 36.213 72.1523C37.6782 71.6988 39.2718 72.3161 40.4971 73.2397C41.7229 72.3171 43.3159 71.6999 44.7812 72.1523C47.5572 73.0412 48.5582 76.0353 47.7041 78.6551C47.2299 79.9972 46.4562 81.2132 45.4419 82.2106C43.9969 83.604 42.4037 84.8344 40.6906 85.8797L40.5038 86L40.3236 85.8797Z" fill="#5D54E6"/>
<path d="M69.2295 63.811C66.6012 62.171 64.1579 60.2373 61.9443 58.0452C60.3816 56.4801 59.1882 54.569 58.4552 52.458C57.1455 48.3411 58.67 43.6361 62.9266 42.2393C65.1733 41.5266 67.6167 42.4967 69.4956 43.9482C71.3751 42.4983 73.8178 41.5284 76.0646 42.2393C80.3211 43.6361 81.8559 48.3411 80.5462 52.458C79.8192 54.567 78.6328 56.4779 77.0775 58.0452C74.862 60.2349 72.4189 62.1684 69.7923 63.811L69.5058 64L69.2295 63.811Z" fill="#5D54E6"/>
<path d="M0.973345 95.768C1.10682 96.9737 1.27055 98.1805 1.46601 99.387C1.66196 100.594 1.88833 101.801 2.147 103.008C2.6642 105.421 3.30875 107.831 4.08511 110.23C4.8614 112.63 5.7507 114.961 6.74536 117.221C7.24277 118.351 7.76608 119.464 8.3154 120.558C8.86384 121.651 9.4389 122.727 10.0372 123.784C10.6356 124.84 11.2593 125.878 11.9052 126.896C13.1986 128.933 14.5848 130.893 16.0577 132.771C16.7938 133.71 17.5522 134.629 18.3302 135.527C19.108 136.424 19.9075 137.302 20.7255 138.158C21.1345 138.586 21.5492 139.008 21.9681 139.426C22.8054 140.26 23.6622 141.073 24.5374 141.863C27.1624 144.236 29.9502 146.409 32.8746 148.372C34.337 149.352 35.8331 150.281 37.3605 151.154C38.379 151.737 39.4104 152.295 40.4556 152.827C41.5003 153.361 42.558 153.869 43.6274 154.352C48.4393 156.527 53.4906 158.189 58.6934 159.295C59.8494 159.54 61.0131 159.76 62.1832 159.949C64.5235 160.33 66.8893 160.598 69.274 160.751C70.466 160.828 71.6633 160.875 72.8635 160.893C80.6656 161.01 88.6198 159.881 96.4598 157.373C101.805 155.662 106.815 153.398 111.451 150.668C113.614 149.393 115.698 148.019 117.693 146.549C118.658 145.838 119.602 145.105 120.526 144.352C122.374 142.846 124.138 141.255 125.816 139.588C126.655 138.755 127.473 137.903 128.267 137.033C131.846 133.117 134.974 128.837 137.609 124.28C138.195 123.267 138.755 122.241 139.291 121.202C139.827 120.163 140.339 119.111 140.825 118.048C141.553 116.453 142.225 114.831 142.837 113.186C143.807 110.583 144.624 107.922 145.293 105.217C145.469 104.502 145.639 103.785 145.794 103.063C146.042 101.913 146.261 100.756 146.452 99.5924C146.548 99.0103 146.636 98.4272 146.718 97.8423C146.882 96.6725 147.015 95.4965 147.121 94.3156C147.227 93.1347 147.304 91.9486 147.351 90.7586C147.446 88.3787 147.423 85.9827 147.28 83.5783C147.208 82.3757 147.106 81.1713 146.973 79.9664C146.839 78.7605 146.675 77.5537 146.48 76.3469C146.284 75.14 146.057 73.9327 145.799 72.7259C145.282 70.3132 144.637 67.9035 143.861 65.5038C143.085 63.1044 142.195 60.7729 141.201 58.513C140.703 57.3826 140.18 56.2704 139.631 55.1763C139.082 54.0828 138.507 53.0067 137.909 51.9505C137.31 50.8944 136.687 49.856 136.041 48.8381C134.747 46.8017 133.361 44.8418 131.888 42.9636C131.52 42.4939 131.146 42.0295 130.768 41.5697C129.631 40.1919 128.447 38.8603 127.22 37.5764C126.811 37.1486 126.396 36.7261 125.977 36.3087C125.14 35.4743 124.283 34.6615 123.408 33.8711C120.782 31.4987 117.995 29.3251 115.071 27.3627C113.608 26.382 112.112 25.4538 110.584 24.5803C109.566 23.9981 108.535 23.4399 107.49 22.907C106.445 22.3732 105.387 21.8651 104.318 21.3821C102.247 20.4461 100.13 19.6074 97.9771 18.865C95.1284 17.8826 92.2147 17.07 89.2517 16.44C88.0957 16.1947 86.9318 15.9757 85.7622 15.7857C85.2299 15.6992 84.6961 15.6199 84.162 15.5455C83.5209 15.456 82.8776 15.3723 82.2331 15.2998C81.9632 15.2695 81.6928 15.2453 81.4232 15.2177C80.5085 15.1241 79.5926 15.0432 78.6716 14.9843C78.6591 14.9832 78.6459 14.9834 78.6328 14.982C77.6521 14.9202 76.6671 14.8818 75.6804 14.8587C75.4811 14.8544 75.2817 14.8453 75.0819 14.8427C72.7869 14.8085 70.4794 14.8847 68.1653 15.07C67.4421 15.1275 66.7184 15.1934 65.9943 15.2725C65.4726 15.3296 64.9508 15.3947 64.4287 15.4633C60.5377 15.975 56.6399 16.8072 52.7654 17.9715C52.3379 18.0997 51.9116 18.227 51.4847 18.3636C50.7604 18.5953 50.0439 18.841 49.3317 19.0927C42.3375 21.567 35.9417 24.9961 30.2512 29.1884C29.2868 29.8992 28.3421 30.632 27.4184 31.3852C27.1326 31.6184 26.8533 31.8563 26.5712 32.0935C25.9414 32.6232 25.319 33.1588 24.7093 33.7072C23.8274 34.5022 22.967 35.3156 22.1283 36.1491C21.2891 36.9819 20.472 37.8342 19.6769 38.7044C16.4783 42.2053 13.6394 45.9972 11.1904 50.0179C10.9002 50.4947 10.6145 50.9732 10.3353 51.4566C9.74968 52.4691 9.18861 53.4961 8.65291 54.5347C8.1172 55.5734 7.60521 56.6254 7.11963 57.689C6.39086 59.2841 5.71951 60.9058 5.10699 62.551C3.88139 65.8406 2.89151 69.2239 2.14999 72.6733C1.90249 73.823 1.68307 74.9802 1.49207 76.1437C1.39652 76.7257 1.30819 77.3092 1.22625 77.8941C0.981634 79.6492 0.801318 81.4172 0.685567 83.1957C0.647278 83.7889 0.615959 84.3828 0.592259 84.9777C0.496964 87.3577 0.52006 89.7536 0.66349 92.1582C0.737791 93.3577 0.840107 94.563 0.973345 95.768ZM41.1877 26.9265C41.3991 27.1133 41.5995 27.3427 41.9664 27.3369C42.5115 26.7906 43.2802 26.9411 43.9935 26.6882C44.6876 26.439 45.2112 25.9187 46.0238 25.7916C47.4597 25.5667 49.7995 26.2849 50.6434 25.219C50.8556 24.95 50.6896 24.6562 50.7812 24.1052C50.8539 23.6651 51.0229 23.1494 51.0592 22.6241C51.5991 22.4366 52.1414 22.2548 52.6885 22.0797C57.2082 20.6334 61.7708 19.6748 66.3178 19.172C66.2906 19.6975 65.6355 19.6766 65.2162 20.0609C64.8228 20.4222 64.7925 20.9176 64.3311 21.1669C63.0484 21.8596 61.7238 21.6256 60.5559 22.0468C60.665 22.573 61.4002 22.6642 61.7699 22.7263C63.0216 22.9418 63.8689 22.5863 65.3681 22.0695C66.1365 21.8049 67.1057 21.7671 67.6236 21.1001C67.9524 20.6791 67.726 20.0559 67.9652 19.593C68.0676 19.397 68.24 19.1777 68.4481 18.9718C69.2457 18.9085 70.043 18.8617 70.84 18.8256C70.879 19.3678 70.0218 19.5084 70.2291 20.1851C70.8524 20.3294 71.911 19.459 72.2085 18.7772C72.4071 18.7727 72.6072 18.7679 72.8054 18.7642C73.9714 18.7455 75.1343 18.7557 76.2937 18.7949C77.9467 18.8517 79.5911 18.9678 81.2255 19.1405C81.0028 19.3897 80.7768 19.6902 80.535 19.7659C79.9131 19.9607 79.3811 19.2213 78.7875 19.7477C78.9857 20.5652 80.0004 20.5973 80.6962 20.7816C81.4495 20.981 82.2335 21.169 82.6799 21.7923C82.4858 23.2752 81.0728 22.232 80.1037 22.5354C79.0356 22.8689 78.1345 25.3879 76.6953 24.0371C76.64 23.0948 77.561 22.651 77.5188 21.7168C77.323 21.8181 77.1443 21.949 76.9708 22.0925C76.6593 22.3471 76.3687 22.6492 76.0675 22.9606C75.6722 23.3693 75.2525 23.7841 74.7242 24.0925C74.2378 24.3747 73.7186 24.5103 73.2943 24.7953C72.4806 25.3445 72.0659 26.2042 71.2283 26.8569C70.9008 27.111 70.4432 27.2114 70.0984 27.4638C69.2893 28.0548 68.3772 28.9407 67.6049 29.7431C66.815 30.5625 65.9114 31.4473 65.4836 32.1494C65.252 32.5269 64.7339 33.7723 64.8632 34.0738C65.0449 34.5054 65.9343 34.3833 66.102 34.8299C66.1719 35.111 65.8953 35.8541 66.3623 36.1451C66.7872 36.4105 67.3077 35.919 67.9861 35.7896C69.1792 35.5638 70.2343 36.2647 71.2707 36.4661C72.0544 36.6182 73.1832 36.7369 73.9651 36.5909C75.0382 36.3894 76.0544 35.5926 76.4606 36.3682C76.8523 37.1133 75.8359 37.7493 75.9164 38.2699C76.7079 38.8206 75.8873 39.467 76.0964 40.1049C76.2661 40.6213 77.1555 41.1933 77.7303 41.0611C78.5077 40.8828 79.3555 39.7247 79.427 38.8735C79.5112 37.8597 78.9601 36.6981 79.4356 35.8272C82.9655 34.8036 85.3839 32.1829 84.005 28.6901C83.8686 28.345 83.5206 27.9559 83.4698 27.5448C83.393 26.9335 84.2342 26.1306 83.8658 25.4445C84.2059 25.2083 84.3335 24.8329 84.4159 24.4302C84.5391 23.8296 84.5755 23.1773 85.0482 22.8145C85.0813 22.7884 85.1046 22.7547 85.1432 22.7324C85.4269 22.5663 85.7669 22.5239 86.1353 22.5152C86.7919 22.4994 87.5403 22.5948 88.2399 22.3176C88.5959 22.1766 88.9635 21.7013 89.346 21.6355C90.1127 21.5025 90.8449 22.2593 91.5312 22.4992C92.1384 22.7131 92.6147 22.4304 92.8985 22.8836C93.022 23.7571 92.4529 23.9735 92.7454 24.7185C92.7491 24.7264 92.7493 24.732 92.7519 24.7403C93.0284 25.4056 93.9105 25.6952 94.2888 25.6487C94.8693 25.5752 95.5582 25.0325 96.0212 24.5997C96.5217 24.1337 96.8665 23.3622 97.2469 22.781C98.1648 23.1068 99.0751 23.4503 99.9778 23.8127C100.166 24.1183 100.32 24.399 100.411 24.5926C100.777 25.3648 100.762 26.0491 101.037 26.7796C101.54 28.0057 103.094 27.3674 104.092 27.7748C104.394 27.899 104.652 28.3792 104.932 28.5756C105.477 28.9584 105.937 28.8111 106.171 29.3302C106.728 30.5727 105.447 31.1025 106.035 32.5001C105.944 33.1437 105.248 33.3293 105.544 34.055C106.012 35.2037 107.423 33.7571 108.183 34.5271C108.593 34.9406 108.419 35.4011 108.463 36.1633C109.268 36.6659 109.62 37.7666 108.593 38.0969C107.968 38.2968 107.581 37.6858 106.899 37.7332C106.521 37.7585 106.048 37.9285 105.576 37.9928C105.171 38.0477 104.679 38.0804 104.303 38.1532C103.34 38.3405 102.423 38.9293 101.704 38.5739C102.216 37.1098 103.027 35.5687 103.848 34.1864C104.091 33.7737 104.757 33.3319 104.387 32.7802C103.567 32.4272 102.974 33.2701 102.48 33.8013C101.962 34.3578 101.371 35.1094 100.691 35.4435C99.5083 36.0238 97.6849 36.0068 96.8833 36.99C96.9251 37.5975 98.1498 36.9646 98.244 37.8714C97.7736 38.1112 97.3159 38.3014 96.8218 38.0788C96.3715 37.8784 96.4198 37.3453 96.1328 37.2297C95.6458 37.0359 94.1704 37.4129 93.5582 37.7254C92.8108 38.1055 92.2647 38.798 92.3903 39.4969C93.4804 39.6344 94.7539 38.24 95.4617 39.2556C95.2423 40.3496 94.1847 41.2515 94.7513 42.4428C94.9711 42.9024 95.7535 43.3601 96.1899 43.2992C96.6284 43.2374 96.7294 42.7539 97.1431 42.6637C97.5803 42.5672 97.64 43.0797 98.1149 42.8473C98.7386 42.3097 98.8126 41.1745 99.6559 40.9564C101.037 41.8361 99.3352 43.0246 98.4043 43.7417C97.3425 44.559 95.854 45.2889 95.0623 45.9644C94.6467 46.3172 93.3946 48.6417 92.7018 47.376C92.2038 46.4631 93.3773 46.3977 93.346 45.5252C92.1111 45.6727 91.2616 46.7402 90.3332 47.4785C89.0074 48.5279 86.5651 49.7056 86.7455 51.5052C86.7828 51.8648 87.2061 52.425 87.0569 52.7205C86.9351 52.9586 85.869 53.336 85.45 53.6456C84.8056 54.1242 84.3444 54.8535 83.9358 55.117C83.6279 55.3174 83.1209 55.4507 82.9341 55.6042C82.4117 56.0248 82.4509 56.8966 81.9389 57.6486C81.7289 57.956 81.1575 58.3136 81.0054 58.6052C80.7409 59.1139 81.0006 60.0924 80.3613 60.456C79.9375 60.6334 79.465 60.3835 79.1352 60.7655C79.3932 61.7322 80.1991 62.9016 80.0977 63.9948C79.4412 64.9989 78.6298 65.8204 77.6974 66.8193C77.1822 67.3731 76.6477 67.6434 76.0102 68.2648C75.5575 68.7043 75.2704 69.4982 74.7678 70.0601C73.6051 71.3565 72.1951 72.902 72.8925 75.0202C73.0436 75.4788 73.4422 75.8976 73.6747 76.4154C73.8131 76.7199 73.8386 77.0522 73.9883 77.3847C74.3295 78.1352 75.2192 78.9456 74.7355 79.6945C73.5918 79.6061 72.2609 79.8775 71.3227 79.3888C70.8909 78.7149 71.2795 77.9212 70.9731 77.2799C70.7269 76.7649 69.6543 76.0497 69.1881 76.1227C68.7082 76.1975 68.4427 76.8141 67.9588 76.9271C67.3832 77.0627 66.6133 76.4628 65.8658 76.61C64.7699 76.8253 64.1097 77.436 62.887 77.6469C61.9489 78.6097 61.9636 79.7849 60.5414 80.1233C60.0412 80.2443 59.4733 80.0163 58.8711 80.082C58.2183 80.1523 57.2197 80.2348 56.5963 80.4826C55.3454 80.9764 54.7141 82.1859 53.7993 83.1035C52.9926 83.9144 51.8226 84.9764 51.8708 86.1068C51.8938 86.7162 52.2817 87.461 52.248 88.0425C52.2253 88.4256 52.0332 88.8217 51.96 89.2019C51.6122 90.9981 51.567 93.2397 52.9165 95.2313C53.1169 95.5265 54.5477 97.0963 55.0125 97.3572C55.533 97.6456 56.8726 97.9003 57.5266 97.7036C58.0802 97.5385 58.6312 97.0437 59.1335 96.7784C59.7163 96.4716 60.4869 96.214 60.9904 95.8558C62.447 94.8206 61.421 92.7435 62.8085 91.4891C63.4149 90.9438 64.215 90.6173 65.4418 90.1542C65.9451 90.3583 66.319 90.8791 66.4266 91.4009C66.5079 91.7947 66.2553 92.2562 66.2359 92.8611C66.2192 93.3911 66.3637 93.9601 66.3191 94.3979C66.2581 94.9718 65.8784 95.4986 65.8524 96.0284C65.8345 96.3729 66.0225 96.7348 66.0159 97.0435C66.002 97.5898 65.4526 98.1478 65.9233 98.5543C67.7364 98.6746 69.4181 97.2365 70.9042 97.0441C71.5308 96.9613 72.9782 97.2726 73.2605 98.1825C73.4724 98.8624 73.0965 99.4727 73.2626 100.239C73.473 101.201 73.4507 102.47 73.6532 103.238C73.987 104.497 76.5715 106.025 77.8919 105.583C79.3134 105.108 79.696 103.45 81.6552 103.64C82.3056 103.702 83.2053 104.427 83.8209 104.18C84.3285 103.977 84.8209 102.822 84.9659 102.086C85.1424 101.188 84.9648 100.537 85.5877 99.9134C86.2595 99.2413 86.9657 99.2352 87.8734 98.5233C88.2791 98.2066 88.5853 97.7867 88.9079 97.3693C89.1917 97.0048 89.3648 96.2309 89.9648 96.5367C90.7568 96.9393 89.5319 97.7015 90.2458 98.1751C91.4645 98.3894 91.4906 96.6527 92.2372 96.3876C92.4751 96.3031 93.4605 96.5087 93.9794 96.652C94.6887 96.8465 95.0614 97.3194 95.7429 97.2386C96.1805 97.1881 96.7659 96.7388 97.3708 96.6348C98.1722 96.4982 98.8402 97.0056 99.4152 96.8026C100.116 96.5578 100.209 95.6847 100.778 95.3794C102.025 94.7143 102.644 94.9444 103.494 95.58C104.184 95.4832 103.928 94.6126 104.626 94.7256C104.508 95.4802 105.045 95.6381 105.483 96.096C105.766 96.3894 105.818 96.6454 106.026 96.7453C106.493 96.9697 107.185 96.7482 107.817 96.9108C108.484 97.0799 109.004 97.6237 109.874 98.1455C110.768 98.6779 112.117 99.094 113.008 98.8686C113.85 98.6572 114.43 98.1577 115.139 98.023C116.753 97.7152 117.968 98.1764 119.323 98.6589C120.08 98.9278 120.732 99.0746 121.107 99.5676C121.369 99.911 121.47 100.452 121.766 100.837C122.399 101.659 123.907 101.671 123.933 103.434C124.311 103.832 124.872 103.84 125.523 103.995C126.043 104.119 126.592 104.557 127.088 104.481C127.409 104.432 127.695 104.185 127.964 104.118C128.837 103.903 129.529 104.044 130.361 104.092C130.876 104.121 131.486 104 131.858 104.108C132.322 104.242 132.649 105.084 133.192 105.16C133.548 105.211 134.164 104.787 134.694 104.68C135.53 104.514 136.782 104.655 137.515 104.436C137.96 104.304 138.265 103.998 138.668 103.903C139.602 103.68 140.503 104.023 141.417 104.437C137.064 121.834 125.993 137.254 110.19 146.85C109.915 146.217 109.521 145.618 109.281 144.976C108.763 143.578 108.656 142.507 108.001 141.272C107.507 140.338 106.799 138.89 106.237 138.382C105.611 137.818 103.65 137.145 102.712 136.96C102.093 136.838 101.43 136.938 100.768 136.842C99.3519 136.637 96.575 136.138 95.6492 135.107C95.3816 134.81 95.2542 134.345 94.9622 134.012C94.3892 133.352 93.4866 132.91 92.7611 132.329C91.3788 131.22 90.0593 129.696 88.6377 128.549C87.9177 127.965 87.2301 127.262 86.5125 126.844C86.0909 126.596 84.9961 126.588 84.7005 126.107C84.3085 125.472 83.489 124.69 83.3998 124.137C83.278 123.39 84.4872 122.368 84.275 121.719C84.0941 121.169 83.2471 121.084 82.94 120.666C82.1924 119.648 82.5768 118.786 82.7227 117.692C82.7712 117.332 82.7554 116.784 82.8367 116.505C82.979 116.006 83.5008 115.712 83.7237 115.151C83.848 114.837 83.8096 114.278 83.963 113.84C84.29 112.905 85.1203 112.328 85.1352 111.573C85.1473 110.958 84.3637 108.154 83.8347 107.301C83.5304 106.806 82.8837 106.521 82.5276 106.075C81.8968 105.284 81.499 104.326 80.5721 104.644C80.0003 104.84 79.7985 105.602 79.5575 106.119C79.6404 106.679 79.8731 107.237 79.3665 107.578C78.5941 108.102 77.8971 107.064 76.8043 107.083C76.3692 107.09 75.7398 107.299 75.4561 107.268C74.6246 107.176 74.0485 106.195 73.1495 106.03C72.3988 105.895 71.8883 106.189 71.3307 105.79C71.0527 105.482 70.9699 104.792 70.7743 104.323C69.7968 104.108 68.5225 102.548 67.4281 102.434C66.7021 102.357 65.738 102.694 64.8569 102.681C64.4425 102.675 64.1021 102.604 63.6841 102.645C63.168 102.692 62.6705 102.845 62.2376 102.779C60.5141 102.522 58.944 100.405 57.1194 101.045C56.341 101.316 55.8204 102.287 55.1075 102.511C54.399 102.733 53.0336 102.556 52.0141 102.431C50.9549 102.301 49.8596 102.395 48.9746 102.253C48.259 102.137 47.6474 101.702 47.0342 101.637C46.5646 101.588 45.9527 101.749 45.5644 101.698C45.0116 101.626 44.3546 101.304 43.6243 101.083C42.9315 100.875 42.1261 100.476 41.9408 99.9788C41.7273 99.4032 42.1316 98.7256 42.0106 98.145C41.6298 96.308 39.8995 95.454 38.7311 94.6706C37.8647 94.0881 36.9304 93.6579 36.081 93.1338C35.9605 92.6439 35.9326 92.5577 35.7436 92.0909C35.1318 91.7904 34.5235 91.2492 33.8125 90.7336C33.1704 90.2689 32.0921 89.8987 31.7596 89.2534C31.3504 88.46 31.5712 87.5771 30.9874 86.8666C30.0165 85.6884 28.3264 86.9018 29.1464 88.6082C29.3736 89.0778 30.2855 89.5152 30.654 89.9353C31.0309 90.3635 31.1894 90.9961 31.5841 91.5303C31.9632 92.0422 32.7057 92.351 33.1161 92.9327C33.7648 93.8514 34.1107 94.954 34.6092 95.4985C35.0505 95.9824 36.1738 96.2143 35.863 97.0709C35.1996 97.4448 34.6978 96.8269 34.1231 96.558C33.8026 96.4088 32.7694 96.262 32.4618 95.7746C32.2064 95.3725 32.4089 94.6554 32.1046 94.1606C31.5064 93.1913 29.3587 93.849 29.0009 92.769C28.7771 92.0907 29.6496 91.7223 29.4451 91.0626C29.2184 90.3419 28.0275 90.0511 27.6165 89.5098C27.2405 89.0133 26.9203 88.1329 26.5934 87.3698C26.2842 86.654 26.0987 85.77 25.742 85.2557C25.4225 84.7929 24.4194 84.337 23.8333 84.221C23.0582 84.068 22.585 84.3859 22.0909 83.9567C21.6603 83.5816 21.1614 82.6692 20.9386 82.1875C20.5402 81.3258 20.3069 80.319 19.9466 79.3786C19.5873 78.4362 19.1913 77.5488 19.0062 76.4719C19.1445 75.632 19.7066 75.0599 19.8544 74.2245C19.9578 73.6434 19.7962 73.0174 19.9234 72.3934C20.1585 71.2437 21.0659 69.9607 21.5609 68.7431C22.0951 67.4312 22.5744 66.1849 22.7003 64.8403C22.7471 64.3627 22.935 63.2763 22.6983 62.7845C22.3678 62.0995 20.8155 61.944 20.6469 61.0562C20.544 60.5057 21.3049 60.2706 21.362 59.6765C21.3907 59.3702 21.2513 58.5854 21.1534 58.2618C20.9321 57.5394 20.3068 56.9124 20.2042 56.0979C20.1157 55.4034 21.012 54.8236 20.2746 54.2658C19.5434 53.7138 18.9995 55.0979 18.2972 54.8157C17.6518 54.5547 18.0969 53.8477 17.8918 53.0531C17.8101 52.7371 17.4943 52.4468 17.453 52.2064C17.3909 51.8588 17.8632 51.0883 17.6167 50.9203C17.2349 50.6659 16.7152 50.0719 16.1127 49.6577C22.3322 40.3152 30.8545 32.4193 41.1877 26.9265Z" fill="url(#paint0_linear_2931_628246)"/>
<path d="M9.46031 41.3207L9.46029 41.3208L9.46634 41.3267C13.1951 44.9839 17.3104 48.2114 21.7376 50.95L22.1681 51.2417L22.9945 51.8018L23.8302 51.2556L24.2884 50.9562C28.7161 48.2123 32.8341 44.9834 36.5687 41.3278L36.5739 41.3227L36.5791 41.3175C39.3102 38.5916 41.3917 35.2699 42.6669 31.6062L42.6729 31.5891L42.6784 31.5719C45.0173 24.2901 42.3494 15.5782 34.3095 12.9651L34.3019 12.9627L34.2944 12.9603C30.2974 11.7076 26.169 13.1799 22.9933 15.3388C19.8177 13.1773 15.6875 11.7046 11.69 12.9606L11.6829 12.9628L11.6759 12.9651C3.63309 15.5791 0.98608 24.2936 3.32389 31.5719L3.32995 31.5907L3.3365 31.6094C4.62216 35.2766 6.71616 38.5986 9.46031 41.3207Z" fill="#5D54E6" stroke="white" stroke-width="3"/>
</g>
<defs>
<linearGradient id="paint0_linear_2931_628246" x1="-18" y1="2.49951" x2="137.498" y2="158.998" gradientUnits="userSpaceOnUse">
<stop stop-color="#5D54E6"/>
<stop offset="1" stop-color="#5D54E6" stop-opacity="0"/>
</linearGradient>
<clipPath id="clip0_2931_628246">
<rect width="148" height="136" fill="white"/>
</clipPath>
</defs>
</svg>
