<svg width="24" height="24" viewBox="0 0 24 24" fill="#12151F" xmlns="http://www.w3.org/2000/svg">
<path fill-rule="evenodd" clip-rule="evenodd" stroke="none" d="M7.95483 2.21866C8.44109 1.95825 9.01818 1.9284 9.52871 2.13726L15.1555 4.43917C15.1934 4.45468 15.236 4.45401 15.2734 4.43731L19.3954 2.59768C20.6191 2.05157 21.9994 2.94707 21.9994 4.28707V17.9493C21.9994 18.6794 21.57 19.3412 20.9034 19.6387L15.9662 21.8421C15.5049 22.048 14.9794 22.0563 14.5118 21.865L8.84503 19.5467C8.80712 19.5312 8.76451 19.5318 8.7271 19.5485L4.60506 21.3882C3.3814 21.9343 2.0011 21.0388 2.0011 19.6988V6.51501C2.0011 5.83293 2.37641 5.20618 2.9777 4.88416L7.95483 2.21866ZM3.78028 6.38278L8.10052 4.06908V17.9681C8.0783 17.977 8.05621 17.9863 8.03427 17.9961L3.91223 19.8358C3.81301 19.88 3.7011 19.8074 3.7011 19.6988V6.51501C3.7011 6.45971 3.73153 6.40889 3.78028 6.38278ZM14.1999 19.9006L9.80052 18.1008V4.08521L14.1999 5.88502L14.1999 19.9006ZM15.8999 20.0101L20.2105 18.0863C20.2646 18.0622 20.2994 18.0085 20.2994 17.9493V4.28707C20.2994 4.17842 20.1875 4.10581 20.0883 4.15009L15.9662 5.98973C15.9443 5.99952 15.9222 6.00887 15.8999 6.01777V20.0101Z"/>
</svg>