<svg width="24" height="24" viewBox="0 0 24 24" fill="#12151F" xmlns="http://www.w3.org/2000/svg">
<path stroke="none" fill-rule="evenodd" clip-rule="evenodd" d="M11.314 3.19128L3.64733 7.81954C3.45022 7.93925 3.2871 8.10806 3.17372 8.30968C3.06033 8.51129 3.0005 8.73891 3 8.97056V18.9877C3.00053 19.5212 3.21141 20.0328 3.58637 20.41C3.96133 20.7873 4.46973 20.9995 5 21H8.33333C8.68696 21 9.02609 20.8587 9.27614 20.6071C9.52619 20.3555 9.66667 20.0143 9.66667 19.6585V15.9693C9.66667 15.7914 9.73691 15.6208 9.86193 15.495C9.98695 15.3692 10.1565 15.2985 10.3333 15.2985H13.6667C13.8435 15.2985 14.013 15.3692 14.1381 15.495C14.2631 15.6208 14.3333 15.7914 14.3333 15.9693V19.6585C14.3333 20.0143 14.4738 20.3555 14.7239 20.6071C14.9739 20.8587 15.313 21 15.6667 21H19C19.5303 20.9995 20.0387 20.7873 20.4136 20.41C20.7886 20.0328 20.9995 19.5212 21 18.9877V8.97056C20.9995 8.73894 20.9398 8.51135 20.8264 8.30973C20.7131 8.10812 20.55 7.93929 20.353 7.81954L12.6863 3.19128C12.4791 3.06612 12.2419 3 12.0002 3C11.7584 3 11.5213 3.06612 11.314 3.19128ZM19.3 9.16961L12.0002 4.76281L4.7 9.16981V18.9865C4.70021 19.0729 4.73451 19.1537 4.79213 19.2116C4.8495 19.2694 4.92508 19.2999 5.00171 19.3H7.96667V15.9693C7.96667 15.3439 8.2135 14.742 8.65617 14.2966C9.0992 13.8508 9.70229 13.5985 10.3333 13.5985H13.6667C14.2977 13.5985 14.9008 13.8508 15.3438 14.2966C15.7865 14.742 16.0333 15.3439 16.0333 15.9693V19.3H18.9983C19.0749 19.2999 19.1505 19.2694 19.2079 19.2116C19.2656 19.1536 19.2999 19.0726 19.3 18.986V9.16961ZM12.1926 4.64665C12.1926 4.64662 12.1925 4.64667 12.1926 4.64665V4.64665ZM11.8079 4.64672C11.8079 4.64675 11.8078 4.6467 11.8079 4.64672V4.64672Z"/>
</svg>
