<svg width="22" height="22" viewBox="0 0 22 22" fill="#12151F" xmlns="http://www.w3.org/2000/svg">
<path d="M5.96801 3.35651C7.41126 2.40428 9.13956 1.84999 10.9999 1.84999C16.0533 1.84999 20.1499 5.94659 20.1499 11C20.1499 16.0534 16.0533 20.15 10.9999 20.15C5.9465 20.15 1.8499 16.0534 1.8499 11C1.8499 9.5668 2.1788 8.21283 2.76446 7.00729C2.96959 6.58504 2.79358 6.07644 2.37133 5.87131C1.94907 5.66618 1.44048 5.84219 1.23535 6.26445C0.539684 7.69643 0.149902 9.3039 0.149902 11C0.149902 16.9923 5.00761 21.85 10.9999 21.85C16.9922 21.85 21.8499 16.9923 21.8499 11C21.8499 5.0077 16.9922 0.149994 10.9999 0.149994C8.79661 0.149994 6.74433 0.807633 5.0318 1.93753C4.63996 2.19605 4.53188 2.72328 4.79041 3.11512C5.04894 3.50696 5.57617 3.61504 5.96801 3.35651Z" stroke="none"/>
<path fill-rule="evenodd" clip-rule="evenodd" d="M10.5999 15.5033L15.0999 12.9052C16.5666 12.0585 16.5666 9.94152 15.0999 9.09474L10.5999 6.49666C9.13324 5.64988 7.2999 6.70835 7.2999 8.40192L7.2999 13.5981C7.2999 15.2916 9.13323 16.3501 10.5999 15.5033ZM14.2499 10.567C14.5832 10.7594 14.5832 11.2406 14.2499 11.433L9.7499 14.0311C9.41657 14.2235 8.9999 13.983 8.9999 13.5981V8.40192C8.9999 8.01702 9.41657 7.77645 9.7499 7.9689L14.2499 10.567Z" stroke="none"/>
</svg>
