<svg width="108" height="108" fill="none" xmlns="http://www.w3.org/2000/svg" viewBox="0 0 109 108"><path d="M34.859 29.176c-14.442 0-24.907 11.768-24.907 24.827 0 4.17 1.218 8.466 3.356 12.388.398.646.447 1.465.174 2.235l-1.666 5.56c-.372 1.341.771 2.335 2.039 1.937l5.02-1.49c1.368-.446 2.437.125 3.707.895 3.63 2.135 8.15 3.227 12.227 3.227 12.33 0 24.857-9.509 24.857-24.827 0-13.207-10.688-24.752-24.807-24.752Z" fill="url(#a)"/><path fill-rule="evenodd" clip-rule="evenodd" d="M34.76 57.206a3.207 3.207 0 0 1-3.18-3.203c0-1.738 1.44-3.178 3.18-3.153a3.17 3.17 0 0 1 3.183 3.178 3.186 3.186 0 0 1-3.182 3.178Zm-11.46 0c-1.74 0-3.18-1.44-3.18-3.177a3.17 3.17 0 0 1 3.18-3.178 3.17 3.17 0 0 1 3.183 3.178c0 1.738-1.417 3.153-3.182 3.178Zm19.738-3.178a3.186 3.186 0 0 0 3.181 3.178 3.186 3.186 0 0 0 3.182-3.178 3.17 3.17 0 0 0-3.182-3.178 3.17 3.17 0 0 0-3.181 3.178Z" fill="#fff"/><path d="M74.249 29.176c14.442 0 24.906 11.768 24.906 24.827 0 4.17-1.218 8.466-3.355 12.388-.398.646-.448 1.465-.174 2.235l1.665 5.56c.373 1.341-.77 2.335-2.038 1.937l-5.021-1.49c-1.367-.446-2.436.125-3.707.895-3.629 2.135-8.15 3.227-12.227 3.227-12.329 0-24.857-9.509-24.857-24.827 0-13.207 10.689-24.752 24.808-24.752Z" fill="url(#b)"/><path fill-rule="evenodd" clip-rule="evenodd" d="M74.347 57.206a3.207 3.207 0 0 0 3.181-3.203c0-1.738-1.441-3.178-3.181-3.153a3.17 3.17 0 0 0-3.182 3.178 3.186 3.186 0 0 0 3.182 3.178Zm11.46 0c1.74 0 3.181-1.44 3.181-3.177a3.17 3.17 0 0 0-3.181-3.178 3.17 3.17 0 0 0-3.182 3.178c0 1.738 1.417 3.153 3.182 3.178ZM66.07 54.029a3.186 3.186 0 0 1-3.182 3.178 3.186 3.186 0 0 1-3.182-3.178 3.17 3.17 0 0 1 3.182-3.178 3.17 3.17 0 0 1 3.182 3.178Z" fill="#fff"/><defs><linearGradient id="a" x1="9.952" y1="66.893" x2="66.889" y2="39.851" gradientUnits="userSpaceOnUse"><stop stop-color="#5D54E6"/><stop offset="1" stop-color="#5D54E6" stop-opacity="0"/></linearGradient><linearGradient id="b" x1="39.894" y1="38.446" x2="96.309" y2="57.23" gradientUnits="userSpaceOnUse"><stop stop-color="#fff" stop-opacity="0"/><stop offset=".772" stop-color="#75FBDC"/></linearGradient></defs></svg>
