<svg width="20" height="20" viewBox="0 0 20 20" fill="none" xmlns="http://www.w3.org/2000/svg">
<mask id="path-1-inside-1_932:5873" fill="white">
<path fill-rule="evenodd" clip-rule="evenodd" d="M10 0C4.47715 0 0 4.47715 0 10C0 15.5228 4.47715 20 10 20C11.66 20 13.2255 19.5955 14.6034 18.8797L18.4974 19.9614C18.5896 19.987 18.6848 20 18.7805 20C19.4241 20 19.9185 19.4299 19.8275 18.7928L19.149 14.043C19.6961 12.8068 20 11.4389 20 10C20 4.47715 15.5228 0 10 0Z"/>
</mask>
<path d="M14.6034 18.8797L15.4064 15.9892L14.2685 15.6731L13.2205 16.2175L14.6034 18.8797ZM18.4974 19.9614L17.6945 22.852L17.6945 22.852L18.4974 19.9614ZM19.8275 18.7928L16.8577 19.217V19.217L19.8275 18.7928ZM19.149 14.043L16.4056 12.8289L16.0575 13.6156L16.1791 14.4673L19.149 14.043ZM3 10C3 6.13401 6.13401 3 10 3V-3C2.8203 -3 -3 2.8203 -3 10H3ZM10 17C6.13401 17 3 13.866 3 10H-3C-3 17.1797 2.8203 23 10 23V17ZM13.2205 16.2175C12.2597 16.7166 11.1673 17 10 17V23C12.1527 23 14.1914 22.4744 15.9864 21.542L13.2205 16.2175ZM19.3004 17.0709L15.4064 15.9892L13.8005 21.7703L17.6945 22.852L19.3004 17.0709ZM18.7805 17C18.9562 17 19.1311 17.0238 19.3004 17.0709L17.6945 22.852C18.0481 22.9502 18.4135 23 18.7805 23V17ZM16.8577 19.217C16.6905 18.0469 17.5985 17 18.7805 17V23C21.2498 23 23.1466 20.813 22.7974 18.3685L16.8577 19.217ZM16.1791 14.4673L16.8577 19.217L22.7974 18.3685L22.1188 13.6188L16.1791 14.4673ZM17 10C17 11.0127 16.7868 11.9677 16.4056 12.8289L21.8923 15.2571C22.6054 13.6458 23 11.865 23 10H17ZM10 3C13.866 3 17 6.13401 17 10H23C23 2.8203 17.1797 -3 10 -3V3Z" fill="black" mask="url(#path-1-inside-1_932:5873)"/>
</svg>
