<svg width="191" height="245" viewBox="0 0 191 245" fill="none" xmlns="http://www.w3.org/2000/svg">
<circle cx="141.954" cy="44.9545" r="19" transform="rotate(30 141.954 44.9545)" fill="#F5F5F5"/>
<g filter="url(#filter0_ddd_103_10)">
<mask id="path-2-inside-1_103_10" fill="white">
<path fill-rule="evenodd" clip-rule="evenodd" d="M134.347 61.1307C135.166 59.7117 136.925 59.1842 138.519 59.5599C144.795 61.0385 151.555 58.3258 154.945 52.4545C159.087 45.2801 156.629 36.1062 149.454 31.9641C142.28 27.822 133.106 30.2801 128.964 37.4545C125.574 43.3259 126.605 50.5364 131.023 55.2322C132.146 56.4254 132.568 58.2118 131.749 59.6307L130.905 61.092C130.491 61.8095 130.737 62.7269 131.454 63.1411V63.1411C132.172 63.5553 133.089 63.3095 133.503 62.592L134.347 61.1307Z"/>
</mask>
<path fill-rule="evenodd" clip-rule="evenodd" d="M134.347 61.1307C135.166 59.7117 136.925 59.1842 138.519 59.5599C144.795 61.0385 151.555 58.3258 154.945 52.4545C159.087 45.2801 156.629 36.1062 149.454 31.9641C142.28 27.822 133.106 30.2801 128.964 37.4545C125.574 43.3259 126.605 50.5364 131.023 55.2322C132.146 56.4254 132.568 58.2118 131.749 59.6307L130.905 61.092C130.491 61.8095 130.737 62.7269 131.454 63.1411V63.1411C132.172 63.5553 133.089 63.3095 133.503 62.592L134.347 61.1307Z" fill="white"/>
<path d="M131.023 55.2322L129.567 56.6028L131.023 55.2322ZM138.519 59.5599L138.978 57.6132L138.519 59.5599ZM153.213 51.4545C150.276 56.5404 144.419 58.895 138.978 57.6132L138.061 61.5066C145.172 63.182 152.834 60.1112 156.677 53.4545L153.213 51.4545ZM148.454 33.6961C154.672 37.286 156.803 45.2367 153.213 51.4545L156.677 53.4545C161.371 45.3235 158.585 34.9265 150.454 30.232L148.454 33.6961ZM130.696 38.4545C134.286 32.2367 142.237 30.1063 148.454 33.6961L150.454 30.232C142.323 25.5376 131.926 28.3235 127.232 36.4545L130.696 38.4545ZM132.48 53.8616C128.649 49.7908 127.76 43.5404 130.696 38.4545L127.232 36.4545C123.389 43.1113 124.56 51.282 129.567 56.6028L132.48 53.8616ZM132.637 62.092L133.481 60.6307L130.017 58.6307L129.173 60.092L132.637 62.092ZM132.615 60.1307L131.771 61.592L135.236 63.592L136.079 62.1307L132.615 60.1307ZM129.173 60.092C128.207 61.7661 128.78 63.9066 130.454 64.8731L132.454 61.409C132.694 61.5471 132.776 61.8529 132.637 62.092L129.173 60.092ZM129.567 56.6028C130.246 57.3246 130.288 58.1623 130.017 58.6307L133.481 60.6307C134.849 58.2612 134.046 55.5262 132.48 53.8616L129.567 56.6028ZM130.454 64.8731C132.128 65.8396 134.269 65.2661 135.236 63.592L131.771 61.592C131.91 61.3529 132.215 61.2709 132.454 61.409L130.454 64.8731ZM138.978 57.6132C136.753 57.0891 133.983 57.7612 132.615 60.1307L136.079 62.1307C136.35 61.6623 137.096 61.2793 138.061 61.5066L138.978 57.6132Z" fill="#F9F9F9" mask="url(#path-2-inside-1_103_10)"/>
</g>
<circle cx="141.954" cy="44.9545" r="1.5" transform="rotate(30 141.954 44.9545)" fill="black"/>
<circle cx="147.151" cy="47.9545" r="1.5" transform="rotate(30 147.151 47.9545)" fill="black"/>
<circle cx="136.758" cy="41.9545" r="1.5" transform="rotate(30 136.758 41.9545)" fill="black"/>
<circle cx="48.9545" cy="154.687" r="19" transform="rotate(-150 48.9545 154.687)" fill="#F5F5F5"/>
<g filter="url(#filter1_ddd_103_10)">
<mask id="path-8-inside-2_103_10" fill="white">
<path fill-rule="evenodd" clip-rule="evenodd" d="M56.5617 138.51C55.7425 139.929 53.9844 140.457 52.3896 140.081C46.1137 138.603 39.3539 141.315 35.9641 147.187C31.822 154.361 34.2801 163.535 41.4545 167.677C48.6289 171.819 57.8027 169.361 61.9449 162.187C65.3347 156.315 64.304 149.105 59.8855 144.409C58.7627 143.216 58.3405 141.429 59.1598 140.01L60.0035 138.549C60.4177 137.832 60.1719 136.914 59.4544 136.5V136.5C58.737 136.086 57.8196 136.332 57.4054 137.049L56.5617 138.51Z"/>
</mask>
<path fill-rule="evenodd" clip-rule="evenodd" d="M56.5617 138.51C55.7425 139.929 53.9844 140.457 52.3896 140.081C46.1137 138.603 39.3539 141.315 35.9641 147.187C31.822 154.361 34.2801 163.535 41.4545 167.677C48.6289 171.819 57.8027 169.361 61.9449 162.187C65.3347 156.315 64.304 149.105 59.8855 144.409C58.7627 143.216 58.3405 141.429 59.1598 140.01L60.0035 138.549C60.4177 137.832 60.1719 136.914 59.4544 136.5V136.5C58.737 136.086 57.8196 136.332 57.4054 137.049L56.5617 138.51Z" fill="white"/>
<path d="M59.8855 144.409L61.3421 143.038L59.8855 144.409ZM52.3896 140.081L52.8483 138.134L52.3896 140.081ZM37.6962 148.187C40.6325 143.101 46.4903 140.746 51.931 142.028L52.8483 138.134C45.7371 136.459 38.0753 139.53 34.232 146.187L37.6962 148.187ZM42.4545 165.945C36.2367 162.355 34.1063 154.404 37.6962 148.187L34.232 146.187C29.5376 154.318 32.3235 164.715 40.4545 169.409L42.4545 165.945ZM60.2128 161.187C56.623 167.404 48.6723 169.535 42.4545 165.945L40.4545 169.409C48.5855 174.103 58.9825 171.318 63.6769 163.187L60.2128 161.187ZM58.4289 145.779C62.2594 149.85 63.1492 156.101 60.2128 161.187L63.6769 163.187C67.5202 156.53 66.3487 148.359 61.3421 143.038L58.4289 145.779ZM58.2714 137.549L57.4277 139.01L60.8918 141.01L61.7355 139.549L58.2714 137.549ZM58.2937 139.51L59.1374 138.049L55.6733 136.049L54.8296 137.51L58.2937 139.51ZM61.7355 139.549C62.702 137.875 62.1285 135.734 60.4544 134.768L58.4544 138.232C58.2153 138.094 58.1333 137.788 58.2714 137.549L61.7355 139.549ZM61.3421 143.038C60.6628 142.316 60.6214 141.479 60.8918 141.01L57.4277 139.01C56.0597 141.38 56.8626 144.115 58.4289 145.779L61.3421 143.038ZM60.4544 134.768C58.7804 133.801 56.6398 134.375 55.6733 136.049L59.1374 138.049C58.9994 138.288 58.6936 138.37 58.4544 138.232L60.4544 134.768ZM51.931 142.028C54.1557 142.552 56.9257 141.88 58.2937 139.51L54.8296 137.51C54.5592 137.979 53.8131 138.362 52.8483 138.134L51.931 142.028Z" fill="#F9F9F9" mask="url(#path-8-inside-2_103_10)"/>
<mask id="mask0_103_10" style="mask-type:alpha" maskUnits="userSpaceOnUse" x="37" y="143" width="23" height="23">
<circle cx="48.9545" cy="154.687" r="11" transform="rotate(-150 48.9545 154.687)" fill="#C4C4C4"/>
</mask>
<g mask="url(#mask0_103_10)">
<circle cx="48.9545" cy="154.687" r="10" transform="rotate(-150 48.9545 154.687)" stroke="black" stroke-width="2"/>
<mask id="path-12-inside-3_103_10" fill="white">
<path d="M46.3108 139.304C46.0195 139.136 45.8739 139.052 45.3417 138.962C44.2954 138.785 42.3954 139.884 42.0274 140.879C41.8403 141.385 41.8395 140.979 41.8398 141.141V141.141C41.8425 142.544 42.1844 144.014 42.8459 145.468C43.5075 146.922 44.4757 148.332 45.6955 149.617C46.9152 150.901 48.3625 152.035 49.9547 152.955C51.5468 153.874 53.2528 154.56 54.975 154.974C56.6973 155.388 58.4022 155.522 59.9923 155.368C61.5825 155.214 63.0267 154.775 64.2427 154.076V154.076C64.3838 153.995 64.031 154.197 64.3759 153.782C65.0538 152.966 65.0559 150.771 64.3795 149.953C64.0355 149.537 63.8898 149.453 63.5985 149.285L54.9547 144.294L46.3108 139.304Z"/>
</mask>
<path d="M46.3108 139.304C46.0195 139.136 45.8739 139.052 45.3417 138.962C44.2954 138.785 42.3954 139.884 42.0274 140.879C41.8403 141.385 41.8395 140.979 41.8398 141.141V141.141C41.8425 142.544 42.1844 144.014 42.8459 145.468C43.5075 146.922 44.4757 148.332 45.6955 149.617C46.9152 150.901 48.3625 152.035 49.9547 152.955C51.5468 153.874 53.2528 154.56 54.975 154.974C56.6973 155.388 58.4022 155.522 59.9923 155.368C61.5825 155.214 63.0267 154.775 64.2427 154.076V154.076C64.3838 153.995 64.031 154.197 64.3759 153.782C65.0538 152.966 65.0559 150.771 64.3795 149.953C64.0355 149.537 63.8898 149.453 63.5985 149.285L54.9547 144.294L46.3108 139.304Z" stroke="black" stroke-width="4" mask="url(#path-12-inside-3_103_10)"/>
<circle cx="47.7044" cy="156.851" r="2.5" transform="rotate(-150 47.7044 156.851)" fill="black"/>
</g>
</g>
<circle cx="71.8701" cy="87.8701" r="19" transform="rotate(-45 71.8701 87.8701)" fill="#F5F5F5"/>
<g filter="url(#filter2_ddd_103_10)">
<mask id="path-15-inside-4_103_10" fill="white">
<path fill-rule="evenodd" clip-rule="evenodd" d="M85.5262 99.4047C84.3676 98.2462 84.3131 96.4115 85.0887 94.9683C88.1413 89.2889 87.2706 82.0574 82.4767 77.2635C76.6188 71.4056 67.1213 71.4056 61.2635 77.2635C55.4056 83.1213 55.4056 92.6188 61.2635 98.4767C66.0574 103.271 73.289 104.141 78.9684 101.089C80.4116 100.313 82.2463 100.368 83.4049 101.526L84.598 102.719C85.1838 103.305 86.1336 103.305 86.7194 102.719V102.719C87.3052 102.133 87.3052 101.184 86.7194 100.598L85.5262 99.4047Z"/>
</mask>
<path fill-rule="evenodd" clip-rule="evenodd" d="M85.5262 99.4047C84.3676 98.2462 84.3131 96.4115 85.0887 94.9683C88.1413 89.2889 87.2706 82.0574 82.4767 77.2635C76.6188 71.4056 67.1213 71.4056 61.2635 77.2635C55.4056 83.1213 55.4056 92.6188 61.2635 98.4767C66.0574 103.271 73.289 104.141 78.9684 101.089C80.4116 100.313 82.2463 100.368 83.4049 101.526L84.598 102.719C85.1838 103.305 86.1336 103.305 86.7194 102.719V102.719C87.3052 102.133 87.3052 101.184 86.7194 100.598L85.5262 99.4047Z" fill="#F5D089"/>
<path d="M78.9684 101.089L79.4419 101.97L78.9684 101.089ZM85.0887 94.9683L85.9696 95.4417L85.0887 94.9683ZM81.7696 77.9706C86.2428 82.4438 87.0573 89.1934 84.2079 94.4949L85.9696 95.4417C89.2253 89.3844 88.2983 81.6709 83.1838 76.5563L81.7696 77.9706ZM61.9706 77.9706C67.4379 72.5032 76.3022 72.5032 81.7696 77.9706L83.1838 76.5563C76.9354 70.308 66.8047 70.308 60.5563 76.5563L61.9706 77.9706ZM61.9706 97.7696C56.5032 92.3022 56.5032 83.4379 61.9706 77.9706L60.5563 76.5563C54.308 82.8047 54.308 92.9354 60.5563 99.1838L61.9706 97.7696ZM78.495 100.208C73.1935 103.057 66.4439 102.243 61.9706 97.7696L60.5563 99.1838C65.671 104.298 73.3845 105.225 79.4419 101.97L78.495 100.208ZM85.3052 102.012L84.112 100.819L82.6977 102.233L83.8909 103.426L85.3052 102.012ZM84.8191 100.112L86.0123 101.305L87.4265 99.8908L86.2333 98.6976L84.8191 100.112ZM83.8909 103.426C84.8673 104.403 86.4502 104.403 87.4265 103.426L86.0123 102.012C85.817 102.207 85.5004 102.207 85.3052 102.012L83.8909 103.426ZM79.4419 101.97C80.6 101.347 81.9273 101.463 82.6977 102.233L84.112 100.819C82.5654 99.2724 80.2232 99.279 78.495 100.208L79.4419 101.97ZM87.4265 103.426C88.4028 102.45 88.4028 100.867 87.4265 99.8908L86.0123 101.305C86.2075 101.5 86.2075 101.817 86.0123 102.012L87.4265 103.426ZM84.2079 94.4949C83.279 96.2231 83.2725 98.5653 84.8191 100.112L86.2333 98.6976C85.4628 97.9271 85.3471 96.5999 85.9696 95.4417L84.2079 94.4949Z" fill="black" fill-opacity="0.08" mask="url(#path-15-inside-4_103_10)"/>
</g>
<mask id="mask1_103_10" style="mask-type:alpha" maskUnits="userSpaceOnUse" x="56" y="72" width="31" height="31">
<circle cx="71.8701" cy="87.8701" r="15" transform="rotate(-45 71.8701 87.8701)" fill="#C4C4C4"/>
</mask>
<g mask="url(#mask1_103_10)">
<path d="M75.9566 78.0422L77.6658 83.2471C77.8952 83.9454 78.0098 84.2946 78.0435 84.6113C78.1582 85.6922 77.6793 86.7507 76.7916 87.378C76.5316 87.5618 76.1936 87.7062 75.5176 87.9949V87.9949M75.5176 87.9949L78.6234 99.586M75.5176 87.9949V87.9949C74.7878 88.0829 74.4229 88.1268 74.1057 88.0977C73.0233 87.9982 72.0794 87.3211 71.6383 86.3276C71.5091 86.0365 71.4338 85.6768 71.2832 84.9573L70.161 79.5951M73.0588 78.8186L74.6117 84.6142" stroke="black" stroke-width="1.5" stroke-linecap="round"/>
<path fill-rule="evenodd" clip-rule="evenodd" d="M61.9854 89.5746L62.0019 89.5133L62.0057 89.5001C62.0452 89.3786 62.1698 89.3065 62.2948 89.3327L62.3082 89.336L62.3696 89.3522L73.2543 92.2443C73.0195 92.5959 72.8834 93.0219 72.8911 93.487C72.8982 93.9171 72.5084 94.2452 72.0858 94.1649L63.8887 92.6066C63.6912 92.569 63.6215 92.5555 63.5686 92.5425C62.3888 92.2529 61.6519 91.0791 61.9039 89.8906C61.9152 89.8374 61.9333 89.7688 61.9854 89.5746ZM62.2948 89.3327C62.295 89.3327 62.2952 89.3328 62.2954 89.3328C62.2949 89.3327 62.2946 89.3327 62.2947 89.3327L62.2948 89.3327ZM78.9066 92.1942L84.0732 93.567L84.075 93.5674C84.475 93.6737 84.7133 94.0839 84.6075 94.484C84.5017 94.8841 84.0918 95.1229 83.6916 95.0176L83.6898 95.0171L79.39 93.886L78.9066 92.1942ZM76.6557 91.5961L62.7548 87.9025L62.7429 87.8993C62.6978 87.8873 62.651 87.8749 62.6071 87.8656C61.7297 87.6792 60.8535 88.1863 60.578 89.0399C60.5642 89.0826 60.5517 89.1294 60.5397 89.1744L60.5365 89.1864L60.5303 89.2096C60.4867 89.3719 60.4572 89.4822 60.4366 89.5795C60.0165 91.5602 61.2447 93.5166 63.2111 93.9993C63.3077 94.023 63.4198 94.0443 63.5849 94.0757L63.5849 94.0757L63.6085 94.0802L71.8057 95.6385C73.1624 95.8964 74.4137 94.8431 74.3909 93.4622C74.3835 93.0127 74.8073 92.6804 75.242 92.7948L77.1409 93.2943L76.6557 91.5961Z" fill="black"/>
</g>
<circle r="19" transform="matrix(-0.637643 -0.770332 -0.770332 0.637643 119.292 123.752)" fill="#F5F5F5"/>
<g filter="url(#filter3_ddd_103_10)">
<mask id="path-21-inside-5_103_10" fill="white">
<path fill-rule="evenodd" clip-rule="evenodd" d="M104.614 133.954C105.876 132.909 106.103 131.088 105.466 129.578C102.96 123.637 104.505 116.52 109.728 112.197C116.109 106.914 125.565 107.805 130.847 114.187C136.13 120.569 135.239 130.024 128.857 135.306C123.634 139.63 116.353 139.818 110.985 136.246C109.621 135.338 107.789 135.22 106.527 136.265L105.227 137.341C104.589 137.869 103.644 137.78 103.115 137.142V137.142C102.587 136.504 102.676 135.558 103.314 135.03L104.614 133.954Z"/>
</mask>
<path fill-rule="evenodd" clip-rule="evenodd" d="M104.614 133.954C105.876 132.909 106.103 131.088 105.466 129.578C102.96 123.637 104.505 116.52 109.728 112.197C116.109 106.914 125.565 107.805 130.847 114.187C136.13 120.569 135.239 130.024 128.857 135.306C123.634 139.63 116.353 139.818 110.985 136.246C109.621 135.338 107.789 135.22 106.527 136.265L105.227 137.341C104.589 137.869 103.644 137.78 103.115 137.142V137.142C102.587 136.504 102.676 135.558 103.314 135.03L104.614 133.954Z" fill="#DFB7FF"/>
<path d="M110.985 136.246L110.431 137.078L110.985 136.246ZM105.466 129.578L106.387 129.19L105.466 129.578ZM110.365 112.967C105.492 117.001 104.048 123.644 106.387 129.19L104.545 129.967C101.872 123.631 103.518 116.038 109.09 111.426L110.365 112.967ZM130.077 114.825C125.147 108.868 116.322 108.037 110.365 112.967L109.09 111.426C115.897 105.792 125.983 106.742 131.618 113.549L130.077 114.825ZM128.219 134.536C134.176 129.606 135.007 120.781 130.077 114.825L131.618 113.549C137.252 120.356 136.302 130.442 129.495 136.077L128.219 134.536ZM111.539 135.413C116.55 138.748 123.346 138.57 128.219 134.536L129.495 136.077C123.923 140.689 116.156 140.888 110.431 137.078L111.539 135.413ZM104.59 136.571L105.89 135.495L107.165 137.035L105.865 138.111L104.59 136.571ZM105.252 134.724L103.952 135.8L102.677 134.26L103.977 133.184L105.252 134.724ZM105.865 138.111C104.801 138.992 103.225 138.843 102.345 137.78L103.886 136.504C104.062 136.717 104.377 136.747 104.59 136.571L105.865 138.111ZM110.431 137.078C109.337 136.35 108.004 136.341 107.165 137.035L105.89 135.495C107.574 134.1 109.906 134.326 111.539 135.413L110.431 137.078ZM102.345 137.78C101.465 136.716 101.613 135.14 102.677 134.26L103.952 135.8C103.739 135.976 103.71 136.292 103.886 136.504L102.345 137.78ZM106.387 129.19C107.15 130.997 106.937 133.33 105.252 134.724L103.977 133.184C104.816 132.489 105.056 131.178 104.545 129.967L106.387 129.19Z" fill="black" fill-opacity="0.08" mask="url(#path-21-inside-5_103_10)"/>
</g>
<mask id="mask2_103_10" style="mask-type:alpha" maskUnits="userSpaceOnUse" x="104" y="108" width="31" height="31">
<circle r="15" transform="matrix(-0.637643 -0.770332 -0.770332 0.637643 119.292 123.752)" fill="#C4C4C4"/>
</mask>
<g mask="url(#mask2_103_10)">
<path d="M113.872 121.032L118.442 117.787C119.16 117.277 119.519 117.022 119.908 117.073C120.298 117.124 120.578 117.464 121.14 118.142L125.305 123.174C125.878 123.866 126.164 124.212 126.137 124.61C126.11 125.007 125.78 125.312 125.119 125.92L120.946 129.764C119.039 131.521 118.086 132.399 116.971 132.435C116.771 132.441 116.571 132.428 116.373 132.395C115.274 132.209 114.447 131.21 112.794 129.213C111.109 127.177 110.266 126.159 110.3 125.029C110.306 124.826 110.333 124.625 110.379 124.427C110.64 123.327 111.717 122.562 113.872 121.032Z" stroke="black" stroke-width="1.5" stroke-linecap="round"/>
<path d="M120.541 120.555L123.471 117.842C124.274 117.098 125.537 117.182 126.236 118.025V118.025C126.926 118.859 126.784 120.1 125.923 120.757L122.727 123.196" stroke="black" stroke-width="1.5" stroke-linecap="round"/>
</g>
<circle cx="93" cy="103" r="73" stroke="#E1E1E1" stroke-width="2" stroke-linecap="round" stroke-linejoin="round" stroke-dasharray="0.1 4.1"/>
<ellipse cx="93" cy="103" rx="38" ry="73" stroke="#E1E1E1" stroke-width="2" stroke-linecap="round" stroke-linejoin="round" stroke-dasharray="0.1 4.1"/>
<line x1="21" y1="102" x2="165" y2="102" stroke="#E1E1E1" stroke-width="2" stroke-linecap="round" stroke-linejoin="round" stroke-dasharray="0.1 4.1"/>
<line x1="28" y1="72" x2="158" y2="72" stroke="#E1E1E1" stroke-width="2" stroke-linecap="round" stroke-linejoin="round" stroke-dasharray="0.1 4.1"/>
<line x1="28" y1="132" x2="158" y2="132" stroke="#E1E1E1" stroke-width="2" stroke-linecap="round" stroke-linejoin="round" stroke-dasharray="0.1 4.1"/>
<line x1="92" y1="175" x2="92" y2="31" stroke="#E1E1E1" stroke-width="2" stroke-linecap="round" stroke-linejoin="round" stroke-dasharray="0.1 4.1"/>
<defs>
<filter id="filter0_ddd_103_10" x="93.5298" y="0.309877" width="96.8492" height="138.232" filterUnits="userSpaceOnUse" color-interpolation-filters="sRGB">
<feFlood flood-opacity="0" result="BackgroundImageFix"/>
<feColorMatrix in="SourceAlpha" type="matrix" values="0 0 0 0 0 0 0 0 0 0 0 0 0 0 0 0 0 0 127 0" result="hardAlpha"/>
<feOffset dy="41.7776"/>
<feGaussianBlur stdDeviation="16.711"/>
<feColorMatrix type="matrix" values="0 0 0 0 0 0 0 0 0 0 0 0 0 0 0 0 0 0 0.0503198 0"/>
<feBlend mode="normal" in2="BackgroundImageFix" result="effect1_dropShadow_103_10"/>
<feColorMatrix in="SourceAlpha" type="matrix" values="0 0 0 0 0 0 0 0 0 0 0 0 0 0 0 0 0 0 127 0" result="hardAlpha"/>
<feOffset dy="3.78"/>
<feGaussianBlur stdDeviation="16.711"/>
<feColorMatrix type="matrix" values="0 0 0 0 0 0 0 0 0 0 0 0 0 0 0 0 0 0 0.0503198 0"/>
<feBlend mode="normal" in2="effect1_dropShadow_103_10" result="effect2_dropShadow_103_10"/>
<feColorMatrix in="SourceAlpha" type="matrix" values="0 0 0 0 0 0 0 0 0 0 0 0 0 0 0 0 0 0 127 0" result="hardAlpha"/>
<feOffset dy="4"/>
<feGaussianBlur stdDeviation="2"/>
<feComposite in2="hardAlpha" operator="out"/>
<feColorMatrix type="matrix" values="0 0 0 0 0.679167 0 0 0 0 0.489 0 0 0 0 0 0 0 0 0.28 0"/>
<feBlend mode="multiply" in2="effect2_dropShadow_103_10" result="effect3_dropShadow_103_10"/>
<feBlend mode="normal" in="SourceGraphic" in2="effect3_dropShadow_103_10" result="shape"/>
</filter>
<filter id="filter1_ddd_103_10" x="0.529892" y="106.657" width="96.8492" height="138.232" filterUnits="userSpaceOnUse" color-interpolation-filters="sRGB">
<feFlood flood-opacity="0" result="BackgroundImageFix"/>
<feColorMatrix in="SourceAlpha" type="matrix" values="0 0 0 0 0 0 0 0 0 0 0 0 0 0 0 0 0 0 127 0" result="hardAlpha"/>
<feOffset dy="41.7776"/>
<feGaussianBlur stdDeviation="16.711"/>
<feColorMatrix type="matrix" values="0 0 0 0 0 0 0 0 0 0 0 0 0 0 0 0 0 0 0.0503198 0"/>
<feBlend mode="normal" in2="BackgroundImageFix" result="effect1_dropShadow_103_10"/>
<feColorMatrix in="SourceAlpha" type="matrix" values="0 0 0 0 0 0 0 0 0 0 0 0 0 0 0 0 0 0 127 0" result="hardAlpha"/>
<feOffset dy="3.78"/>
<feGaussianBlur stdDeviation="16.711"/>
<feColorMatrix type="matrix" values="0 0 0 0 0 0 0 0 0 0 0 0 0 0 0 0 0 0 0.0503198 0"/>
<feBlend mode="normal" in2="effect1_dropShadow_103_10" result="effect2_dropShadow_103_10"/>
<feColorMatrix in="SourceAlpha" type="matrix" values="0 0 0 0 0 0 0 0 0 0 0 0 0 0 0 0 0 0 127 0" result="hardAlpha"/>
<feOffset dy="4"/>
<feGaussianBlur stdDeviation="2"/>
<feComposite in2="hardAlpha" operator="out"/>
<feColorMatrix type="matrix" values="0 0 0 0 0.679167 0 0 0 0 0.489 0 0 0 0 0 0 0 0 0.28 0"/>
<feBlend mode="multiply" in2="effect2_dropShadow_103_10" result="effect3_dropShadow_103_10"/>
<feBlend mode="normal" in="SourceGraphic" in2="effect3_dropShadow_103_10" result="shape"/>
</filter>
<filter id="filter2_ddd_103_10" x="23.448" y="43.228" width="97.1328" height="135.13" filterUnits="userSpaceOnUse" color-interpolation-filters="sRGB">
<feFlood flood-opacity="0" result="BackgroundImageFix"/>
<feColorMatrix in="SourceAlpha" type="matrix" values="0 0 0 0 0 0 0 0 0 0 0 0 0 0 0 0 0 0 127 0" result="hardAlpha"/>
<feOffset dy="41.7776"/>
<feGaussianBlur stdDeviation="16.711"/>
<feColorMatrix type="matrix" values="0 0 0 0 0 0 0 0 0 0 0 0 0 0 0 0 0 0 0.0503198 0"/>
<feBlend mode="normal" in2="BackgroundImageFix" result="effect1_dropShadow_103_10"/>
<feColorMatrix in="SourceAlpha" type="matrix" values="0 0 0 0 0 0 0 0 0 0 0 0 0 0 0 0 0 0 127 0" result="hardAlpha"/>
<feOffset dy="3.78"/>
<feGaussianBlur stdDeviation="16.711"/>
<feColorMatrix type="matrix" values="0 0 0 0 0 0 0 0 0 0 0 0 0 0 0 0 0 0 0.0503198 0"/>
<feBlend mode="normal" in2="effect1_dropShadow_103_10" result="effect2_dropShadow_103_10"/>
<feColorMatrix in="SourceAlpha" type="matrix" values="0 0 0 0 0 0 0 0 0 0 0 0 0 0 0 0 0 0 127 0" result="hardAlpha"/>
<feOffset dy="4"/>
<feGaussianBlur stdDeviation="2"/>
<feComposite in2="hardAlpha" operator="out"/>
<feColorMatrix type="matrix" values="0 0 0 0 0.679167 0 0 0 0 0.489 0 0 0 0 0 0 0 0 0.28 0"/>
<feBlend mode="multiply" in2="effect2_dropShadow_103_10" result="effect3_dropShadow_103_10"/>
<feBlend mode="normal" in="SourceGraphic" in2="effect3_dropShadow_103_10" result="shape"/>
</filter>
<filter id="filter3_ddd_103_10" x="69.3488" y="79.109" width="98.3662" height="134.843" filterUnits="userSpaceOnUse" color-interpolation-filters="sRGB">
<feFlood flood-opacity="0" result="BackgroundImageFix"/>
<feColorMatrix in="SourceAlpha" type="matrix" values="0 0 0 0 0 0 0 0 0 0 0 0 0 0 0 0 0 0 127 0" result="hardAlpha"/>
<feOffset dy="41.7776"/>
<feGaussianBlur stdDeviation="16.711"/>
<feColorMatrix type="matrix" values="0 0 0 0 0 0 0 0 0 0 0 0 0 0 0 0 0 0 0.0503198 0"/>
<feBlend mode="normal" in2="BackgroundImageFix" result="effect1_dropShadow_103_10"/>
<feColorMatrix in="SourceAlpha" type="matrix" values="0 0 0 0 0 0 0 0 0 0 0 0 0 0 0 0 0 0 127 0" result="hardAlpha"/>
<feOffset dy="3.78"/>
<feGaussianBlur stdDeviation="16.711"/>
<feColorMatrix type="matrix" values="0 0 0 0 0 0 0 0 0 0 0 0 0 0 0 0 0 0 0.0503198 0"/>
<feBlend mode="normal" in2="effect1_dropShadow_103_10" result="effect2_dropShadow_103_10"/>
<feColorMatrix in="SourceAlpha" type="matrix" values="0 0 0 0 0 0 0 0 0 0 0 0 0 0 0 0 0 0 127 0" result="hardAlpha"/>
<feOffset dy="4"/>
<feGaussianBlur stdDeviation="2"/>
<feComposite in2="hardAlpha" operator="out"/>
<feColorMatrix type="matrix" values="0 0 0 0 0.679167 0 0 0 0 0.489 0 0 0 0 0 0 0 0 0.28 0"/>
<feBlend mode="multiply" in2="effect2_dropShadow_103_10" result="effect3_dropShadow_103_10"/>
<feBlend mode="normal" in="SourceGraphic" in2="effect3_dropShadow_103_10" result="shape"/>
</filter>
</defs>
</svg>
