<svg width="24" height="24" viewBox="0 0 24 24" fill="#12151F" xmlns="http://www.w3.org/2000/svg">
<path fill-rule="evenodd" clip-rule="evenodd" d="M4.97335 20.2739C5.33077 20.299 5.80122 20.3 6.54545 20.3C7.28969 20.3 7.76014 20.299 8.11756 20.2739C8.45906 20.2499 8.56757 20.2101 8.60265 20.195C8.90975 20.0635 9.15444 19.8188 9.28595 19.5117C9.30097 19.4767 9.34081 19.3682 9.36481 19.0267C9.38993 18.6692 9.39091 18.1988 9.39091 17.4545C9.39091 16.7103 9.38993 16.2399 9.36481 15.8824C9.34081 15.5409 9.30097 15.4324 9.28595 15.3973C9.15444 15.0902 8.90975 14.8456 8.60265 14.7141C8.56757 14.699 8.45906 14.6592 8.11756 14.6352C7.76014 14.6101 7.28969 14.6091 6.54545 14.6091C5.80122 14.6091 5.33077 14.6101 4.97335 14.6352C4.63184 14.6592 4.52334 14.699 4.48825 14.7141C4.18115 14.8456 3.93647 15.0902 3.80496 15.3973C3.78994 15.4324 3.75009 15.5409 3.72609 15.8824C3.70098 16.2399 3.7 16.7103 3.7 17.4545C3.7 18.1988 3.70098 18.6692 3.72609 19.0267C3.75009 19.3682 3.78994 19.4767 3.80496 19.5117C3.93647 19.8188 4.18115 20.0635 4.48825 20.195C4.52334 20.2101 4.63184 20.2499 4.97335 20.2739ZM2.24222 14.7281C2 15.2938 2 16.014 2 17.4545C2 18.8951 2 19.6153 2.24222 20.181C2.5457 20.8896 3.11036 21.4543 3.81905 21.7578C4.38468 22 5.10494 22 6.54545 22C7.98597 22 8.70622 22 9.27186 21.7578C9.98055 21.4543 10.5452 20.8896 10.8487 20.181C11.0909 19.6153 11.0909 18.8951 11.0909 17.4545C11.0909 16.014 11.0909 15.2938 10.8487 14.7281C10.5452 14.0194 9.98055 13.4548 9.27186 13.1513C8.70622 12.9091 7.98597 12.9091 6.54545 12.9091C5.10494 12.9091 4.38468 12.9091 3.81905 13.1513C3.11036 13.4548 2.5457 14.0194 2.24222 14.7281Z" stroke="none"/>
<path fill-rule="evenodd" clip-rule="evenodd" d="M15.8824 20.2739C16.2399 20.299 16.7103 20.3 17.4545 20.3C18.1988 20.3 18.6692 20.299 19.0267 20.2739C19.3682 20.2499 19.4767 20.2101 19.5117 20.195C19.8188 20.0635 20.0635 19.8188 20.195 19.5117C20.2101 19.4767 20.2499 19.3682 20.2739 19.0267C20.299 18.6692 20.3 18.1988 20.3 17.4545C20.3 16.7103 20.299 16.2399 20.2739 15.8824C20.2499 15.5409 20.2101 15.4324 20.195 15.3973C20.0635 15.0902 19.8188 14.8456 19.5117 14.7141C19.4767 14.699 19.3682 14.6592 19.0267 14.6352C18.6692 14.6101 18.1988 14.6091 17.4545 14.6091C16.7103 14.6091 16.2399 14.6101 15.8824 14.6352C15.5409 14.6592 15.4324 14.699 15.3973 14.7141C15.0902 14.8456 14.8456 15.0902 14.7141 15.3973C14.699 15.4324 14.6592 15.5409 14.6352 15.8824C14.6101 16.2399 14.6091 16.7103 14.6091 17.4545C14.6091 18.1988 14.6101 18.6692 14.6352 19.0267C14.6592 19.3682 14.699 19.4767 14.7141 19.5117C14.8456 19.8188 15.0902 20.0635 15.3973 20.195C15.4324 20.2101 15.5409 20.2499 15.8824 20.2739ZM13.1513 14.7281C12.9091 15.2938 12.9091 16.014 12.9091 17.4545C12.9091 18.8951 12.9091 19.6153 13.1513 20.181C13.4548 20.8896 14.0194 21.4543 14.7281 21.7578C15.2938 22 16.014 22 17.4545 22C18.8951 22 19.6153 22 20.181 21.7578C20.8896 21.4543 21.4543 20.8896 21.7578 20.181C22 19.6153 22 18.8951 22 17.4545C22 16.014 22 15.2938 21.7578 14.7281C21.4543 14.0194 20.8896 13.4548 20.181 13.1513C19.6153 12.9091 18.8951 12.9091 17.4545 12.9091C16.014 12.9091 15.2938 12.9091 14.7281 13.1513C14.0194 13.4548 13.4548 14.0194 13.1513 14.7281Z" stroke="none"/>
<path fill-rule="evenodd" clip-rule="evenodd" d="M4.97335 9.36481C5.33077 9.38993 5.80122 9.39091 6.54545 9.39091C7.28969 9.39091 7.76014 9.38993 8.11756 9.36481C8.45906 9.34081 8.56757 9.30097 8.60265 9.28595C8.90975 9.15444 9.15444 8.90975 9.28595 8.60265C9.30097 8.56757 9.34081 8.45906 9.36481 8.11756C9.38993 7.76014 9.39091 7.28969 9.39091 6.54545C9.39091 5.80122 9.38993 5.33077 9.36481 4.97335C9.34081 4.63184 9.30097 4.52334 9.28595 4.48825C9.15444 4.18115 8.90975 3.93647 8.60265 3.80496C8.56757 3.78994 8.45906 3.75009 8.11756 3.72609C7.76014 3.70098 7.28969 3.7 6.54545 3.7C5.80122 3.7 5.33077 3.70098 4.97335 3.72609C4.63184 3.75009 4.52334 3.78994 4.48825 3.80496C4.18115 3.93647 3.93647 4.18115 3.80496 4.48825C3.78994 4.52334 3.75009 4.63184 3.72609 4.97335C3.70098 5.33077 3.7 5.80122 3.7 6.54545C3.7 7.28969 3.70098 7.76014 3.72609 8.11756C3.75009 8.45906 3.78994 8.56757 3.80496 8.60265C3.93647 8.90975 4.18115 9.15444 4.48825 9.28595C4.52334 9.30097 4.63184 9.34081 4.97335 9.36481ZM2.24222 3.81905C2 4.38468 2 5.10494 2 6.54545C2 7.98597 2 8.70622 2.24222 9.27186C2.5457 9.98055 3.11036 10.5452 3.81905 10.8487C4.38468 11.0909 5.10494 11.0909 6.54545 11.0909C7.98597 11.0909 8.70622 11.0909 9.27186 10.8487C9.98055 10.5452 10.5452 9.98055 10.8487 9.27186C11.0909 8.70622 11.0909 7.98597 11.0909 6.54545C11.0909 5.10494 11.0909 4.38468 10.8487 3.81905C10.5452 3.11036 9.98055 2.5457 9.27186 2.24222C8.70622 2 7.98597 2 6.54545 2C5.10494 2 4.38468 2 3.81905 2.24222C3.11036 2.5457 2.5457 3.11036 2.24222 3.81905Z" stroke="none"/>
<path fill-rule="evenodd" clip-rule="evenodd" d="M15.8824 9.36481C16.2399 9.38993 16.7103 9.39091 17.4545 9.39091C18.1988 9.39091 18.6692 9.38993 19.0267 9.36481C19.3682 9.34081 19.4767 9.30097 19.5117 9.28595C19.8188 9.15444 20.0635 8.90975 20.195 8.60265C20.2101 8.56757 20.2499 8.45906 20.2739 8.11756C20.299 7.76014 20.3 7.28969 20.3 6.54545C20.3 5.80122 20.299 5.33077 20.2739 4.97335C20.2499 4.63184 20.2101 4.52334 20.195 4.48825C20.0635 4.18115 19.8188 3.93647 19.5117 3.80496C19.4767 3.78994 19.3682 3.75009 19.0267 3.72609C18.6692 3.70098 18.1988 3.7 17.4545 3.7C16.7103 3.7 16.2399 3.70098 15.8824 3.72609C15.5409 3.75009 15.4324 3.78994 15.3973 3.80496C15.0902 3.93647 14.8456 4.18115 14.7141 4.48825C14.699 4.52334 14.6592 4.63184 14.6352 4.97335C14.6101 5.33077 14.6091 5.80122 14.6091 6.54545C14.6091 7.28969 14.6101 7.76014 14.6352 8.11756C14.6592 8.45906 14.699 8.56757 14.7141 8.60265C14.8456 8.90975 15.0902 9.15444 15.3973 9.28595C15.4324 9.30097 15.5409 9.34081 15.8824 9.36481ZM13.1513 3.81905C12.9091 4.38468 12.9091 5.10494 12.9091 6.54545C12.9091 7.98597 12.9091 8.70622 13.1513 9.27186C13.4548 9.98055 14.0194 10.5452 14.7281 10.8487C15.2938 11.0909 16.014 11.0909 17.4545 11.0909C18.8951 11.0909 19.6153 11.0909 20.181 10.8487C20.8896 10.5452 21.4543 9.98055 21.7578 9.27186C22 8.70622 22 7.98597 22 6.54545C22 5.10494 22 4.38468 21.7578 3.81905C21.4543 3.11036 20.8896 2.5457 20.181 2.24222C19.6153 2 18.8951 2 17.4545 2C16.014 2 15.2938 2 14.7281 2.24222C14.0194 2.5457 13.4548 3.11036 13.1513 3.81905Z" stroke="none"/>
</svg>
