<svg width="24" height="24" viewBox="0 0 24 24" fill="#12151F" xmlns="http://www.w3.org/2000/svg">
<path fill-rule="evenodd" clip-rule="evenodd" d="M20.3334 18.0008H19C18.7239 18.0008 18.5 17.7769 18.5 17.5008V16.6258C18.5 16.3496 18.7239 16.1258 19 16.1258H19.625C19.9012 16.1258 20.125 15.9044 20.125 15.6282V8.89953L15 5.5011L13.9925 6.06443C13.8417 6.14874 13.658 6.14923 13.5068 6.06574L12.3688 5.43747C12.2027 5.34573 12.1953 5.10958 12.3554 5.00769L14.4282 3.6887C14.6009 3.5844 14.7986 3.5293 15 3.5293C15.2015 3.5293 15.3991 3.5844 15.5718 3.6887L21.4608 7.5408C21.6251 7.6406 21.7609 7.7813 21.8554 7.94931C21.9498 8.11732 21.9996 8.30698 22 8.5V16.3239C21.9996 16.7685 21.8238 17.1947 21.5114 17.5091C21.1989 17.8235 20.7752 18.0003 20.3334 18.0008ZM2.53944 9.01628L8.92833 5.1594C9.10105 5.0551 9.2987 5 9.50014 5C9.70158 5 9.89923 5.0551 10.0719 5.1594L16.4608 9.01628C16.625 9.11608 16.7609 9.25677 16.8554 9.42478C16.9498 9.59279 16.9996 9.78245 17 9.97547V18.3231C16.9996 18.7677 16.8238 19.194 16.5114 19.5084C16.1989 19.8227 15.7752 19.9996 15.3333 20H11.9306C11.6359 20 11.3533 19.8822 11.1449 19.6726C10.9365 19.4629 10.8194 19.1786 10.8194 18.8821V16.25C10.8194 16.1018 10.7609 15.9596 10.6567 15.8547C10.5525 15.7499 10.4112 15.691 10.2639 15.691H8.73611C8.58877 15.691 8.44746 15.7499 8.34327 15.8547C8.23909 15.9596 8.18056 16.1018 8.18056 16.25V18.8821C8.18056 19.1786 8.06349 19.4629 7.85512 19.6726C7.64674 19.8822 7.36413 20 7.06944 20H3.66667C3.22477 19.9996 2.80111 19.8227 2.48864 19.5084C2.17618 19.194 2.00044 18.7677 2 18.3231V9.97547C2.00042 9.78242 2.05027 9.59274 2.14476 9.42473C2.23925 9.25672 2.37519 9.11604 2.53944 9.01628ZM9.50014 6.9718L15.125 10.375V17.6282C15.125 17.9043 14.9011 18.125 14.625 18.125H12.625V15.25C12.625 14.4216 11.9534 13.75 11.125 13.75H7.875C7.04657 13.75 6.375 14.4216 6.375 15.25V17.625C6.375 17.9011 6.15114 18.125 5.875 18.125H4.375C4.09886 18.125 3.875 17.9043 3.875 17.6282V10.375L9.50014 6.9718Z"/>
</svg>
