<svg width="18" height="20" viewBox="0 0 18 20" fill="none" xmlns="http://www.w3.org/2000/svg">
<mask id="path-1-inside-1_932:7232" fill="white">
<path fill-rule="evenodd" clip-rule="evenodd" d="M9 0C4.58172 0 1 3.58172 1 8V15H0V18H1H17H18V15H17V8C17 3.58172 13.4183 0 9 0Z"/>
</mask>
<path d="M1 15V18H4V15H1ZM0 15V12H-3V15H0ZM0 18H-3V21H0V18ZM18 18V21H21V18H18ZM18 15H21V12H18V15ZM17 15H14V18H17V15ZM4 8C4 5.23858 6.23858 3 9 3V-3C2.92487 -3 -2 1.92487 -2 8H4ZM4 15V8H-2V15H4ZM0 18H1V12H0V18ZM3 18V15H-3V18H3ZM1 15H0V21H1V15ZM17 15H1V21H17V15ZM18 15H17V21H18V15ZM15 15V18H21V15H15ZM17 18H18V12H17V18ZM14 8V15H20V8H14ZM9 3C11.7614 3 14 5.23858 14 8H20C20 1.92487 15.0751 -3 9 -3V3Z" fill="black" mask="url(#path-1-inside-1_932:7232)"/>
<path d="M11 18C11 18.2626 10.9483 18.5227 10.8478 18.7654C10.7472 19.008 10.5999 19.2285 10.4142 19.4142C10.2285 19.5999 10.008 19.7472 9.76537 19.8478C9.52272 19.9483 9.26264 20 9 20C8.73736 20 8.47728 19.9483 8.23463 19.8478C7.99198 19.7472 7.7715 19.5999 7.58579 19.4142C7.40007 19.2285 7.25275 19.008 7.15224 18.7654C7.05173 18.5227 7 18.2626 7 18L9 18H11Z" fill="black"/>
</svg>
