<svg width="14" height="18" viewBox="0 0 14 18" fill="none" xmlns="http://www.w3.org/2000/svg">
<path fill-rule="evenodd" clip-rule="evenodd" d="M7.00016 7.26447C8.46706 7.26447 9.63239 6.09875 9.63239 4.63224C9.63239 3.16572 8.46706 2 7.00016 2C5.53389 2 4.36792 3.16597 4.36792 4.63224C4.36792 6.0985 5.53389 7.26447 7.00016 7.26447ZM2.02423 14.404C2.00916 14.4188 2 14.4278 2 14.5085C2 14.5949 2.01104 14.6062 2.02838 14.624C2.03043 14.6262 2.03257 14.6284 2.03479 14.6308C2.09703 14.6987 2.28768 14.8536 2.74443 15.0154C3.6847 15.3484 5.15072 15.5065 7 15.5065C8.84278 15.5065 10.3111 15.3535 11.2564 15.0234C11.716 14.8629 11.9072 14.7088 11.9689 14.6422C11.9712 14.6396 11.9735 14.6374 11.9757 14.6353C11.9907 14.6205 12 14.6114 12 14.5304C12 14.4438 11.9889 14.4324 11.9716 14.4146C11.9696 14.4125 11.9674 14.4103 11.9652 14.4079C11.903 14.34 11.7125 14.1852 11.2558 14.0234C10.3157 13.6904 8.84976 13.5324 7 13.5324C5.15743 13.5324 3.68908 13.6855 2.74376 14.0157C2.28414 14.1763 2.09276 14.3304 2.03107 14.3971C2.02868 14.3997 2.02639 14.4019 2.02423 14.404ZM7.00016 9.26447C9.57187 9.26447 11.6324 7.20307 11.6324 4.63224C11.6324 2.0614 9.57187 0 7.00016 0C4.42932 0 2.36792 2.0614 2.36792 4.63224C2.36792 7.20307 4.42932 9.26447 7.00016 9.26447ZM7 11.5324C3.22471 11.5324 0 12.1276 0 14.5085C0 16.8902 3.20458 17.5065 7 17.5065C10.7753 17.5065 14 16.9121 14 14.5304C14 12.1486 10.7963 11.5324 7 11.5324Z" fill="#12151F"/>
</svg>
