<svg width="108" viewBox="0 15 100 70" fill="none" xmlns="http://www.w3.org/2000/svg">
<circle cx="54.0008" cy="54.0001" r="41.5946" fill="url(#paint0_linear_2643_134732)"/>
<path d="M27.446 40.8647C14.0708 40.8647 4.37891 51.7767 4.37891 63.8858C4.37891 67.7533 5.50694 71.7359 7.48674 75.3732C7.85508 75.9718 7.90112 76.7315 7.64789 77.4451L6.10548 82.6018C5.76017 83.845 6.81913 84.7658 7.99321 84.3975L12.6435 83.0162C13.9096 82.6018 14.8995 83.1313 16.0759 83.845C19.437 85.8248 23.6245 86.8377 27.3999 86.8377C38.8184 86.8377 50.4209 78.0207 50.4209 63.8167C50.4209 51.5695 40.5219 40.8647 27.446 40.8647Z" fill="url(#paint1_linear_2643_134732)"/>
<path fill-rule="evenodd" clip-rule="evenodd" d="M27.3554 66.8558C25.7209 66.8328 24.4087 65.5206 24.4087 63.8861C24.4087 62.2747 25.7439 60.9394 27.3554 60.9625C28.9899 60.9625 30.3021 62.2747 30.3021 63.9091C30.3021 65.5206 28.9899 66.8558 27.3554 66.8558ZM16.7416 66.8569C15.1301 66.8569 13.7949 65.5216 13.7949 63.9102C13.7949 62.2757 15.1071 60.9635 16.7416 60.9635C18.3761 60.9635 19.6883 62.2757 19.6883 63.9102C19.6883 65.5216 18.3761 66.8338 16.7416 66.8569ZM35.021 63.9094C35.021 65.5208 36.3332 66.8561 37.9677 66.8561C39.6022 66.8561 40.9144 65.5208 40.9144 63.9094C40.9144 62.2749 39.6022 60.9627 37.9677 60.9627C36.3332 60.9627 35.021 62.2749 35.021 63.9094Z" fill="white"/>
<path d="M79.5562 71.3745V70.4439C79.5562 69.0397 79.8862 67.8478 80.5462 66.8682C81.2392 65.8559 82.3117 64.8436 83.7637 63.8313C84.0277 63.6354 84.5227 63.3088 85.2487 62.8517C86.0077 62.3945 86.5192 62.068 86.7832 61.872C87.0802 61.6435 87.3772 61.3006 87.6742 60.8434C87.9712 60.3536 88.1197 59.8311 88.1197 59.276C88.1197 58.2964 87.7732 57.5453 87.0802 57.0228C86.3872 56.4677 85.5292 56.1901 84.5062 56.1901C83.4172 56.1901 82.4602 56.533 81.6352 57.2188C80.8432 57.8719 80.4472 58.8025 80.4472 60.0107H72.9727C72.9727 56.9412 74.0782 54.3288 76.2892 52.1736C78.5332 49.9858 81.2722 48.8918 84.5062 48.8918C87.6742 48.8918 90.3142 49.8878 92.4263 51.8797C94.5383 53.839 95.5943 56.1575 95.5943 58.8352C95.5943 60.6638 95.2973 62.2476 94.7033 63.5864C94.1093 64.8926 92.9873 66.1335 91.3373 67.309C90.9743 67.5703 90.4957 67.9131 89.9017 68.3376C89.3407 68.7622 88.9282 69.0724 88.6642 69.2683C88.4002 69.4642 88.1197 69.6928 87.8227 69.954C87.5257 70.2153 87.3112 70.4602 87.1792 70.6888C87.0802 70.8847 87.0307 71.097 87.0307 71.3255V71.3745H79.5562ZM86.9812 83.1302C85.9582 84.1425 84.7207 84.6486 83.2687 84.6486C81.8167 84.6486 80.5627 84.1425 79.5067 83.1302C78.4837 82.0852 77.9722 80.8444 77.9722 79.4076C77.9722 77.9707 78.4837 76.7462 79.5067 75.7339C80.5627 74.689 81.8167 74.1665 83.2687 74.1665C84.7207 74.1665 85.9582 74.689 86.9812 75.7339C88.0372 76.7462 88.5652 77.9707 88.5652 79.4076C88.5652 80.8444 88.0372 82.0852 86.9812 83.1302Z" fill="url(#paint2_linear_2643_134732)"/>
<defs>
<linearGradient id="paint0_linear_2643_134732" x1="45.609" y1="87.2028" x2="59.8387" y2="12.4055" gradientUnits="userSpaceOnUse">
<stop offset="0.0138835" stop-color="white" stop-opacity="0"/>
<stop offset="1" stop-color="#75FBDC"/>
</linearGradient>
<linearGradient id="paint1_linear_2643_134732" x1="-6.84705" y1="63.3167" x2="50.3519" y2="56.9018" gradientUnits="userSpaceOnUse">
<stop stop-color="#5D54E6" stop-opacity="0"/>
<stop offset="1" stop-color="#5D54E6"/>
</linearGradient>
<linearGradient id="paint2_linear_2643_134732" x1="67.4571" y1="66.3544" x2="95.7717" y2="64.3485" gradientUnits="userSpaceOnUse">
<stop stop-color="#5D54E6" stop-opacity="0"/>
<stop offset="1" stop-color="#5D54E6"/>
</linearGradient>
</defs>
</svg>
