<svg width="175" viewBox="0 0 175 128" fill="none" xmlns="http://www.w3.org/2000/svg">
<g clip-path="url(#clip0_6347_613619)">
<path d="M8.11252 100.418C8.25761 101.729 8.4356 103.041 8.64808 104.352C8.86109 105.665 9.10717 106.977 9.38837 108.289C9.9506 110.912 10.6513 113.531 11.4952 116.14C12.3391 118.748 13.3059 121.282 14.3871 123.74C14.9278 124.968 15.4967 126.178 16.0939 127.367C16.6901 128.556 17.3152 129.725 17.9656 130.873C18.616 132.021 19.2941 133.15 19.9962 134.257C21.4023 136.471 22.9092 138.601 24.5103 140.643C25.3106 141.664 26.1349 142.663 26.9807 143.639C27.8262 144.615 28.6953 145.568 29.5845 146.499C30.0292 146.964 30.48 147.424 30.9353 147.877C31.8455 148.784 32.777 149.668 33.7284 150.527C36.582 153.106 39.6124 155.469 42.7916 157.602C44.3813 158.668 46.0076 159.677 47.668 160.627C48.7752 161.26 49.8965 161.867 51.0327 162.446C52.1683 163.026 53.3181 163.579 54.4806 164.104C59.7115 166.467 65.2026 168.274 70.8585 169.477C72.1151 169.743 73.3802 169.982 74.6522 170.188C77.1961 170.602 79.768 170.893 82.3604 171.06C83.6562 171.143 84.9577 171.195 86.2624 171.214C94.7438 171.341 103.391 170.114 111.913 167.387C117.724 165.528 123.17 163.066 128.209 160.098C130.561 158.713 132.826 157.219 134.996 155.62C136.045 154.848 137.07 154.052 138.075 153.233C140.084 151.595 142.002 149.866 143.826 148.054C144.738 147.148 145.627 146.222 146.49 145.276C150.381 141.02 153.781 136.366 156.645 131.413C157.282 130.312 157.891 129.196 158.474 128.067C159.057 126.938 159.613 125.794 160.141 124.638C160.933 122.904 161.663 121.141 162.329 119.353C163.383 116.523 164.272 113.631 164.998 110.69C165.19 109.913 165.375 109.133 165.543 108.348C165.812 107.099 166.051 105.841 166.259 104.576C166.362 103.943 166.458 103.309 166.547 102.673C166.726 101.402 166.871 100.123 166.986 98.8395C167.101 97.5557 167.185 96.2664 167.236 94.9727C167.339 92.3856 167.314 89.7809 167.159 87.1672C167.08 85.8599 166.97 84.5507 166.824 83.2408C166.679 81.9299 166.501 80.618 166.289 79.3061C166.076 77.9942 165.829 76.6817 165.549 75.3698C164.986 72.7471 164.286 70.1276 163.442 67.5189C162.598 64.9106 161.631 62.3761 160.55 59.9194C160.009 58.6905 159.44 57.4816 158.843 56.2921C158.247 55.1034 157.622 53.9337 156.971 52.7855C156.321 51.6374 155.643 50.5086 154.94 49.4021C153.534 47.1884 152.027 45.0578 150.426 43.016C150.027 42.5055 149.62 42.0006 149.208 41.5008C147.973 40.003 146.686 38.5555 145.352 37.1597C144.907 36.6947 144.456 36.2354 144.001 35.7816C143.091 34.8746 142.159 33.991 141.207 33.1318C138.354 30.5528 135.324 28.19 132.145 26.0568C130.555 24.9906 128.929 23.9816 127.268 23.032C126.161 22.3991 125.039 21.7923 123.903 21.213C122.768 20.6327 121.618 20.0804 120.456 19.5554C118.204 18.5379 115.903 17.6261 113.563 16.8191C110.466 15.7512 107.299 14.8678 104.078 14.1829C102.821 13.9162 101.556 13.6782 100.284 13.4716C99.7056 13.3776 99.1253 13.2914 98.5447 13.2105C97.8478 13.1133 97.1485 13.0223 96.4479 12.9434C96.1544 12.9106 95.8605 12.8843 95.5674 12.8542C94.5731 12.7524 93.5774 12.6645 92.5762 12.6005C92.5626 12.5993 92.5483 12.5995 92.5341 12.598C91.468 12.5308 90.3972 12.4891 89.3245 12.4639C89.1079 12.4592 88.8911 12.4493 88.674 12.4466C86.1791 12.4094 83.6707 12.4923 81.1551 12.6937C80.3689 12.7561 79.5822 12.8278 78.7951 12.9138C78.2279 12.9758 77.6607 13.0466 77.0932 13.1212C72.8634 13.6774 68.6262 14.5822 64.4143 15.8478C63.9495 15.9872 63.4862 16.1255 63.022 16.274C62.2347 16.526 61.4558 16.793 60.6816 17.0666C53.0784 19.7564 46.1256 23.4841 39.9397 28.0414C38.8913 28.814 37.8644 29.6107 36.8602 30.4295C36.5496 30.683 36.2459 30.9417 35.9393 31.1995C35.2547 31.7752 34.578 32.3575 33.9153 32.9537C32.9566 33.8179 32.0213 34.7021 31.1095 35.6082C30.1972 36.5136 29.309 37.4401 28.4447 38.386C24.9676 42.1917 21.8815 46.3138 19.2192 50.6846C18.9037 51.2029 18.5932 51.723 18.2897 52.2486C17.653 53.3493 17.0431 54.4656 16.4608 55.5947C15.8784 56.7238 15.3218 57.8674 14.794 59.0237C14.0018 60.7576 13.272 62.5205 12.6061 64.309C11.2738 67.885 10.1977 71.5629 9.39161 75.3127C9.12257 76.5624 8.88404 77.8205 8.67641 79.0852C8.57254 79.7179 8.47652 80.3522 8.38744 80.988C8.12153 82.896 7.92551 84.818 7.79968 86.7513C7.75806 87.3961 7.72401 88.0417 7.69825 88.6885C7.59466 91.2757 7.61976 93.8802 7.77568 96.4942C7.85645 97.7981 7.96768 99.1083 8.11252 100.418ZM51.8285 25.5826C52.0583 25.7856 52.2761 26.035 52.6749 26.0287C53.2675 25.4348 54.1032 25.5984 54.8786 25.3235C55.6331 25.0526 56.2023 24.487 57.0857 24.3489C58.6467 24.1043 61.1901 24.8851 62.1075 23.7263C62.3382 23.434 62.1578 23.1146 62.2573 22.5156C62.3363 22.0372 62.5201 21.4765 62.5595 20.9056C63.1464 20.7017 63.7359 20.5041 64.3307 20.3137C69.244 18.7415 74.2039 17.6994 79.1468 17.1528C79.1171 17.7241 78.4051 17.7014 77.9492 18.1192C77.5215 18.5119 77.4886 19.0505 76.987 19.3214C75.5926 20.0745 74.1527 19.8201 72.8832 20.2779C73.0017 20.8499 73.801 20.9491 74.2029 21.0166C75.5636 21.2509 76.4846 20.8644 78.1144 20.3027C78.9496 20.015 80.0033 19.9739 80.5663 19.2488C80.9237 18.7911 80.6775 18.1137 80.9376 17.6105C81.0489 17.3974 81.2364 17.1591 81.4625 16.9352C82.3296 16.8664 83.1963 16.8155 84.0627 16.7763C84.1051 17.3657 83.1732 17.5185 83.3986 18.2542C84.0762 18.411 85.227 17.4648 85.5504 16.7237C85.7662 16.7188 85.9837 16.7136 86.1993 16.7096C87.4668 16.6892 88.731 16.7003 89.9913 16.7429C91.7882 16.8046 93.5758 16.9309 95.3524 17.1186C95.1104 17.3895 94.8648 17.7161 94.6019 17.7985C93.9258 18.0102 93.3476 17.2064 92.7022 17.7787C92.9177 18.6673 94.0208 18.7022 94.7771 18.9026C95.596 19.1194 96.4483 19.3237 96.9336 20.0013C96.7225 21.6134 95.1865 20.4793 94.1331 20.8091C92.9719 21.1717 91.9924 23.91 90.4278 22.4415C90.3678 21.4172 91.3689 20.9348 91.3231 19.9193C91.1102 20.0293 90.916 20.1716 90.7273 20.3276C90.3888 20.6044 90.0728 20.9328 89.7454 21.2713C89.3157 21.7156 88.8594 22.1665 88.2851 22.5018C87.7564 22.8085 87.1919 22.9559 86.7307 23.2658C85.8461 23.8628 85.3954 24.7973 84.4848 25.5069C84.1288 25.7831 83.6313 25.8922 83.2565 26.1666C82.377 26.8091 81.3855 27.7722 80.5459 28.6444C79.6872 29.5352 78.705 30.497 78.2399 31.2602C77.9882 31.6706 77.4249 33.0244 77.5655 33.3522C77.763 33.8214 78.7298 33.6886 78.9121 34.1741C78.9881 34.4797 78.6875 35.2875 79.1951 35.6039C79.657 35.8923 80.2229 35.3581 80.9603 35.2174C82.2573 34.972 83.4043 35.7339 84.5309 35.9528C85.3829 36.1181 86.6099 36.2471 87.4599 36.0885C88.6265 35.8694 89.7311 35.0033 90.1727 35.8464C90.5985 36.6564 89.4936 37.3477 89.5812 37.9136C90.4415 38.5123 89.5495 39.215 89.7768 39.9085C89.9613 40.4698 90.9281 41.0916 91.553 40.9479C92.3981 40.7541 93.3197 39.4952 93.3974 38.5698C93.4889 37.4678 92.8899 36.205 93.4067 35.2583C97.244 34.1455 99.873 31.2966 98.3741 27.4997C98.2257 27.1246 97.8474 26.7015 97.7922 26.2547C97.7088 25.5901 98.6231 24.7173 98.2227 23.9715C98.5924 23.7148 98.7311 23.3067 98.8207 22.8689C98.9547 22.216 98.9942 21.5069 99.5081 21.1125C99.544 21.0841 99.5694 21.0474 99.6113 21.0232C99.9198 20.8426 100.289 20.7966 100.69 20.7871C101.404 20.77 102.217 20.8736 102.978 20.5723C103.365 20.419 103.764 19.9024 104.18 19.8308C105.014 19.6862 105.809 20.5089 106.556 20.7697C107.216 21.0023 107.733 20.695 108.042 21.1876C108.176 22.1372 107.558 22.3724 107.876 23.1823C107.879 23.1909 107.88 23.197 107.883 23.2059C108.183 23.9292 109.142 24.244 109.553 24.1934C110.184 24.1136 110.933 23.5237 111.437 23.0531C111.981 22.5465 112.355 21.7079 112.769 21.0761C113.767 21.4303 114.756 21.8037 115.738 22.1976C115.942 22.5298 116.109 22.8349 116.209 23.0455C116.606 23.8849 116.59 24.6288 116.889 25.4229C117.436 26.7557 119.126 26.0618 120.21 26.5048C120.538 26.6398 120.818 27.1617 121.124 27.3752C121.716 27.7914 122.216 27.6313 122.47 28.1956C123.076 29.5463 121.683 30.1221 122.322 31.6414C122.223 32.3411 121.467 32.5429 121.788 33.3317C122.297 34.5805 123.831 33.0079 124.657 33.845C125.103 34.2945 124.914 34.7951 124.962 35.6236C125.837 36.1699 126.22 37.3665 125.103 37.7256C124.424 37.9429 124.002 37.2786 123.262 37.3303C122.85 37.3577 122.336 37.5425 121.823 37.6124C121.383 37.6721 120.849 37.7077 120.439 37.7867C119.393 37.9904 118.396 38.6305 117.614 38.2442C118.171 36.6526 119.053 34.9773 119.945 33.4746C120.209 33.026 120.933 32.5456 120.531 31.9459C119.64 31.5622 118.995 32.4785 118.458 33.0559C117.894 33.6609 117.253 34.478 116.513 34.8411C115.227 35.472 113.245 35.4535 112.374 36.5224C112.419 37.1827 113.75 36.4947 113.853 37.4805C113.341 37.7412 112.844 37.9479 112.307 37.7059C111.817 37.4881 111.87 36.9086 111.558 36.7829C111.028 36.5722 109.425 36.982 108.759 37.3217C107.947 37.735 107.353 38.4877 107.489 39.2475C108.674 39.3969 110.059 37.8812 110.828 38.9851C110.59 40.1744 109.44 41.1549 110.056 42.4499C110.295 42.9495 111.145 43.447 111.62 43.3809C112.097 43.3137 112.206 42.7881 112.656 42.69C113.131 42.5851 113.196 43.1423 113.713 42.8896C114.391 42.3052 114.471 41.0712 115.388 40.8341C116.889 41.7904 115.039 43.0824 114.027 43.862C112.873 44.7503 111.255 45.5438 110.394 46.2782C109.942 46.6617 108.581 49.1885 107.828 47.8127C107.287 46.8203 108.562 46.7492 108.528 45.8007C107.186 45.961 106.262 47.1215 105.253 47.9241C103.812 49.0649 101.157 50.3452 101.353 52.3014C101.394 52.6923 101.854 53.3013 101.692 53.6225C101.559 53.8814 100.4 54.2916 99.9448 54.6282C99.2443 55.1485 98.743 55.9413 98.2989 56.2276C97.9641 56.4455 97.4129 56.5904 97.2099 56.7574C96.642 57.2145 96.6846 58.1623 96.128 58.9797C95.8997 59.3139 95.2785 59.7027 95.1132 60.0196C94.8257 60.5727 95.108 61.6363 94.413 62.0315C93.9524 62.2244 93.4387 61.9528 93.0802 62.368C93.3607 63.4189 94.2367 64.6901 94.1266 65.8785C93.4128 66.9701 92.5308 67.8631 91.5172 68.949C90.9571 69.551 90.3761 69.8448 89.6831 70.5203C89.1909 70.998 88.8789 71.8611 88.3325 72.4719C87.0686 73.8812 85.5358 75.5613 86.294 77.8639C86.4582 78.3625 86.8915 78.8177 87.1442 79.3806C87.2946 79.7116 87.3224 80.0728 87.4851 80.4343C87.856 81.2502 88.8232 82.1312 88.2974 82.9452C87.0541 82.8491 85.6074 83.1442 84.5874 82.6129C84.1181 81.8804 84.5404 81.0175 84.2073 80.3204C83.9398 79.7605 82.7737 78.9831 82.267 79.0625C81.7453 79.1437 81.4567 79.814 80.9306 79.9369C80.3049 80.0843 79.468 79.4321 78.6554 79.5922C77.464 79.8262 76.7464 80.4901 75.4172 80.7193C74.3974 81.766 74.4134 83.0435 72.8674 83.4114C72.3236 83.5429 71.7063 83.2951 71.0516 83.3665C70.342 83.4429 69.2564 83.5326 68.5787 83.8019C67.219 84.3388 66.5326 85.6536 65.5382 86.6511C64.6612 87.5326 63.3894 88.6871 63.4418 89.9158C63.4668 90.5784 63.8884 91.388 63.8518 92.0201C63.8271 92.4366 63.6183 92.8671 63.5387 93.2805C63.1606 95.233 63.1116 97.6699 64.5786 99.8349C64.7964 100.156 66.3518 101.862 66.857 102.146C67.4229 102.459 68.8791 102.736 69.59 102.522C70.1919 102.343 70.7908 101.805 71.3369 101.517C71.9704 101.183 72.8081 100.903 73.3555 100.514C74.9389 99.3885 73.8236 97.1304 75.3319 95.7668C75.9911 95.1741 76.8608 94.8191 78.1945 94.3157C78.7415 94.5376 79.148 95.1037 79.265 95.671C79.3534 96.0991 79.0788 96.6008 79.0577 97.2583C79.0395 97.8344 79.1966 98.453 79.1481 98.9289C79.0818 99.5528 78.669 100.126 78.6408 100.701C78.6214 101.076 78.8257 101.469 78.8186 101.805C78.8035 102.399 78.2063 103.005 78.7178 103.447C80.6889 103.578 82.517 102.015 84.1325 101.806C84.8137 101.715 86.3871 102.054 86.694 103.043C86.9243 103.782 86.5157 104.446 86.6962 105.278C86.925 106.324 86.9007 107.703 87.1209 108.539C87.4837 109.907 90.2933 111.568 91.7287 111.088C93.274 110.572 93.6899 108.77 95.8197 108.975C96.5266 109.043 97.5047 109.832 98.1739 109.563C98.7257 109.342 99.2609 108.087 99.4186 107.286C99.6105 106.311 99.4174 105.602 100.095 104.925C100.825 104.194 101.592 104.187 102.579 103.414C103.02 103.069 103.353 102.613 103.704 102.159C104.012 101.763 104.2 100.922 104.853 101.254C105.714 101.692 104.382 102.52 105.158 103.035C106.483 103.268 106.511 101.38 107.323 101.092C107.582 101 108.653 101.223 109.217 101.379C109.988 101.591 110.393 102.105 111.134 102.017C111.61 101.962 112.246 101.474 112.904 101.361C113.775 101.212 114.501 101.764 115.126 101.543C115.888 101.277 115.988 100.328 116.608 99.9959C117.964 99.2729 118.636 99.523 119.56 100.214C120.31 100.109 120.032 99.1623 120.79 99.2851C120.662 100.105 121.246 100.277 121.722 100.775C122.03 101.094 122.086 101.372 122.312 101.481C122.82 101.725 123.573 101.484 124.26 101.661C124.984 101.844 125.55 102.436 126.496 103.003C127.468 103.582 128.934 104.034 129.902 103.789C130.818 103.559 131.448 103.016 132.219 102.87C133.974 102.535 135.294 103.036 136.768 103.561C137.59 103.853 138.299 104.013 138.706 104.549C138.991 104.922 139.101 105.51 139.423 105.929C140.111 106.823 141.751 106.836 141.779 108.752C142.19 109.185 142.799 109.193 143.507 109.361C144.073 109.496 144.669 109.972 145.208 109.89C145.557 109.837 145.868 109.568 146.161 109.495C147.109 109.262 147.862 109.415 148.766 109.468C149.327 109.499 149.989 109.368 150.394 109.485C150.898 109.63 151.254 110.546 151.844 110.629C152.231 110.683 152.9 110.222 153.477 110.106C154.385 109.926 155.747 110.079 156.543 109.841C157.027 109.698 157.359 109.365 157.796 109.261C158.812 109.02 159.792 109.393 160.785 109.842C156.053 128.754 144.019 145.517 126.839 155.948C126.54 155.26 126.112 154.609 125.851 153.911C125.288 152.391 125.172 151.228 124.46 149.885C123.922 148.869 123.153 147.295 122.542 146.743C121.862 146.13 119.73 145.399 118.71 145.197C118.037 145.065 117.317 145.173 116.596 145.069C115.057 144.846 112.039 144.303 111.032 143.183C110.741 142.86 110.603 142.354 110.285 141.992C109.662 141.275 108.681 140.794 107.893 140.163C106.39 138.957 104.955 137.3 103.41 136.053C102.627 135.419 101.88 134.655 101.1 134.2C100.642 133.931 99.4514 133.922 99.1301 133.399C98.7039 132.709 97.813 131.859 97.7162 131.257C97.5837 130.446 98.8982 129.334 98.6675 128.629C98.4709 128.031 97.5501 127.939 97.2163 127.484C96.4036 126.378 96.8214 125.44 96.9801 124.251C97.0328 123.86 97.0156 123.264 97.104 122.961C97.2587 122.419 97.8259 122.099 98.0682 121.489C98.2034 121.148 98.1616 120.54 98.3284 120.064C98.6838 119.047 99.5864 118.42 99.6026 117.6C99.6158 116.931 98.7639 113.882 98.1889 112.956C97.8581 112.418 97.155 112.108 96.768 111.622C96.0823 110.763 95.6498 109.721 94.6423 110.067C94.0206 110.28 93.8012 111.108 93.5393 111.671C93.6294 112.279 93.8824 112.886 93.3316 113.257C92.4919 113.826 91.7343 112.698 90.5463 112.719C90.0734 112.726 89.3892 112.953 89.0808 112.919C88.1768 112.82 87.5506 111.754 86.5733 111.574C85.7572 111.427 85.2023 111.747 84.5961 111.313C84.2939 110.978 84.2039 110.228 83.9913 109.718C82.9286 109.485 81.5434 107.789 80.3537 107.665C79.5645 107.581 78.5165 107.948 77.5586 107.933C77.1081 107.927 76.7381 107.85 76.2837 107.895C75.7227 107.946 75.1819 108.112 74.7113 108.039C72.8377 107.76 71.1309 105.459 69.1474 106.155C68.3012 106.449 67.7353 107.505 66.9603 107.748C66.1902 107.99 64.7058 107.797 63.5976 107.661C62.4462 107.52 61.2554 107.623 60.2934 107.468C59.5155 107.342 58.8507 106.869 58.1841 106.799C57.6736 106.745 57.0084 106.92 56.5863 106.865C55.9853 106.786 55.2712 106.437 54.4772 106.196C53.7241 105.97 52.8486 105.536 52.6471 104.996C52.4151 104.37 52.8545 103.633 52.723 103.002C52.309 101.005 50.4281 100.077 49.158 99.2254C48.2162 98.5921 47.2004 98.1245 46.2771 97.5547C46.1461 97.0222 46.1158 96.9285 45.9103 96.421C45.2453 96.0944 44.584 95.5061 43.8111 94.9456C43.1131 94.4404 41.9409 94.0379 41.5795 93.3365C41.1346 92.474 41.3746 91.5142 40.74 90.7418C39.6845 89.461 37.8473 90.7801 38.7388 92.6351C38.9857 93.1456 39.977 93.6211 40.3776 94.0777C40.7872 94.5432 40.9596 95.2309 41.3887 95.8116C41.8008 96.3681 42.6079 96.7037 43.054 97.3362C43.7592 98.3348 44.1353 99.5334 44.6772 100.125C45.1569 100.651 46.378 100.904 46.0402 101.835C45.319 102.241 44.7734 101.569 44.1488 101.277C43.8004 101.115 42.6771 100.955 42.3428 100.426C42.0651 99.9884 42.2853 99.2089 41.9545 98.671C41.3041 97.6172 38.9694 98.3323 38.5805 97.1582C38.3373 96.4209 39.2857 96.0203 39.0634 95.3032C38.8169 94.5197 37.5224 94.2037 37.0756 93.6152C36.6668 93.0754 36.3188 92.1184 35.9634 91.2888C35.6273 90.5107 35.4256 89.5497 35.0379 88.9907C34.6905 88.4876 33.6001 87.992 32.963 87.8659C32.1204 87.6996 31.606 88.0452 31.0688 87.5786C30.6008 87.1708 30.0584 86.179 29.8163 85.6553C29.3831 84.7185 29.1295 83.6241 28.7378 82.6018C28.3472 81.5774 27.9167 80.6127 27.7156 79.442C27.8659 78.529 28.4769 77.9071 28.6376 76.9989C28.75 76.3673 28.5744 75.6868 28.7127 75.0084C28.9682 73.7586 29.9546 72.3638 30.4927 71.0402C31.0734 69.6141 31.5944 68.2593 31.7313 66.7977C31.7822 66.2784 31.9865 65.0975 31.7292 64.5629C31.3698 63.8182 29.6824 63.6491 29.4991 62.684C29.3872 62.0856 30.2144 61.83 30.2765 61.1842C30.3077 60.8513 30.1562 59.9981 30.0497 59.6463C29.8091 58.861 29.1294 58.1794 29.0179 57.294C28.9217 56.5391 29.896 55.9088 29.0944 55.3024C28.2996 54.7023 27.7083 56.2069 26.9448 55.9002C26.2432 55.6165 26.7271 54.8479 26.5042 53.984C26.4153 53.6406 26.0721 53.325 26.0271 53.0637C25.9596 52.6857 26.4731 51.8482 26.2051 51.6656C25.79 51.389 25.2251 50.7433 24.5701 50.2931C31.3311 40.1371 40.5955 31.5536 51.8285 25.5826Z" fill="url(#paint0_linear_6347_613619)"/>
<path d="M58.4956 33C46.7115 33 40.026 43.008 42.5183 53.6464C44.2934 61.2221 55.0122 81 58.4957 81C61.7505 81 72.6702 61.2157 74.4731 53.6464C76.9817 43.1117 70.3487 33 58.4956 33ZM58.5006 54.9282C55.0986 54.9282 52.3413 52.2123 52.3413 48.8612C52.3413 45.51 55.0986 42.7941 58.5006 42.7941C61.9027 42.7941 64.6599 45.51 64.6599 48.8612C64.6599 52.2123 61.9027 54.9282 58.5006 54.9282Z" fill="white"/>
</g>
<defs>
<linearGradient id="paint0_linear_6347_613619" x1="-12.5129" y1="-0.971384" x2="156.525" y2="169.154" gradientUnits="userSpaceOnUse">
<stop stop-color="white"/>
<stop offset="1" stop-color="white" stop-opacity="0"/>
</linearGradient>
<clipPath id="clip0_6347_613619">
<rect width="175" height="184" fill="white"/>
</clipPath>
</defs>
</svg>
