<svg width="74" height="74" viewBox="0 0 74 74" fill="none" xmlns="http://www.w3.org/2000/svg">
<g filter="url(#filter0_dd_4825_190489)">
<rect x="17" y="13" width="40" height="40" rx="20" fill="white" shape-rendering="crispEdges"/>
<path d="M32 25V41L45 33L32 25Z" fill="#12151F"/>
<path fill-rule="evenodd" clip-rule="evenodd" d="M31.5853 24.258C31.8541 24.1078 32.1831 24.1147 32.4454 24.2761L45.4454 32.2761C45.6968 32.4308 45.8499 32.7049 45.8499 33C45.8499 33.2952 45.6968 33.5692 45.4454 33.7239L32.4454 41.7239C32.1831 41.8853 31.8541 41.8923 31.5853 41.742C31.3165 41.5918 31.1499 41.308 31.1499 41V25C31.1499 24.6921 31.3165 24.4082 31.5853 24.258ZM32.8499 26.5212V39.4789L43.3781 33L32.8499 26.5212Z" fill="#12151F"/>
</g>
<defs>
<filter id="filter0_dd_4825_190489" x="0" y="0" width="74" height="74" filterUnits="userSpaceOnUse" color-interpolation-filters="sRGB">
<feFlood flood-opacity="0" result="BackgroundImageFix"/>
<feColorMatrix in="SourceAlpha" type="matrix" values="0 0 0 0 0 0 0 0 0 0 0 0 0 0 0 0 0 0 127 0" result="hardAlpha"/>
<feMorphology radius="1" operator="dilate" in="SourceAlpha" result="effect1_dropShadow_4825_190489"/>
<feOffset dy="4"/>
<feGaussianBlur stdDeviation="8"/>
<feColorMatrix type="matrix" values="0 0 0 0 0.0705882 0 0 0 0 0.0823529 0 0 0 0 0.121569 0 0 0 0.08 0"/>
<feBlend mode="normal" in2="BackgroundImageFix" result="effect1_dropShadow_4825_190489"/>
<feColorMatrix in="SourceAlpha" type="matrix" values="0 0 0 0 0 0 0 0 0 0 0 0 0 0 0 0 0 0 127 0" result="hardAlpha"/>
<feOffset dy="2"/>
<feGaussianBlur stdDeviation="2"/>
<feComposite in2="hardAlpha" operator="out"/>
<feColorMatrix type="matrix" values="0 0 0 0 0.0705882 0 0 0 0 0.0823529 0 0 0 0 0.121569 0 0 0 0.08 0"/>
<feBlend mode="normal" in2="effect1_dropShadow_4825_190489" result="effect2_dropShadow_4825_190489"/>
<feBlend mode="normal" in="SourceGraphic" in2="effect2_dropShadow_4825_190489" result="shape"/>
</filter>
</defs>
</svg>
