<svg width="24" height="24" viewBox="0 0 24 24" fill="#12151F" xmlns="http://www.w3.org/2000/svg">
<path stroke="none" fill-rule="evenodd" clip-rule="evenodd" d="M11.85 21C11.3806 21 11 20.6194 11 20.15V3.85C11 3.38056 11.3806 3 11.85 3C12.3194 3 12.7 3.38056 12.7 3.85V20.15C12.7 20.6194 12.3194 21 11.85 21Z"/>
<path stroke="none" fill-rule="evenodd" clip-rule="evenodd" d="M21 12.15C21 12.6194 20.6194 13 20.15 13L3.85 13C3.38056 13 3 12.6194 3 12.15C3 11.6806 3.38056 11.3 3.85 11.3L20.15 11.3C20.6194 11.3 21 11.6806 21 12.15Z"/>
</svg>
