<svg width="10" height="10" viewBox="0 0 10 10" fill="none" xmlns="http://www.w3.org/2000/svg">
<mask id="path-1-inside-1_1570:1097" fill="white">
<path fill-rule="evenodd" clip-rule="evenodd" d="M5 0C2.23858 0 0 2.23858 0 5C0 7.76142 2.23858 10 5 10C5.79185 10 6.54071 9.81592 7.20613 9.48823L9.25829 9.98545C9.29819 9.99512 9.33909 10 9.38014 10C9.70298 10 9.947 9.70761 9.88925 9.38998L9.4911 7.20028C9.817 6.53633 10 5.78954 10 5C10 2.23858 7.76142 0 5 0Z"/>
</mask>
<path d="M7.20613 9.48823L7.67708 7.54447L6.97271 7.37381L6.32253 7.694L7.20613 9.48823ZM9.25829 9.98545L9.72925 8.04169H9.72925L9.25829 9.98545ZM9.38014 10V12H9.38015L9.38014 10ZM9.88925 9.38998L11.857 9.03219L9.88925 9.38998ZM9.4911 7.20028L7.69572 6.31903L7.40556 6.91017L7.52337 7.55807L9.4911 7.20028ZM2 5C2 3.34315 3.34315 2 5 2V-2C1.13401 -2 -2 1.13401 -2 5H2ZM5 8C3.34315 8 2 6.65685 2 5H-2C-2 8.86599 1.13401 12 5 12V8ZM6.32253 7.694C5.92591 7.88933 5.47873 8 5 8V12C6.10498 12 7.15552 11.7425 8.08973 11.2825L6.32253 7.694ZM9.72925 8.04169L7.67708 7.54447L6.73517 11.432L8.78734 11.9292L9.72925 8.04169ZM9.38014 8C9.49776 8 9.61495 8.014 9.72925 8.04169L8.78734 11.9292C8.98143 11.9762 9.18043 12 9.38014 12V8ZM7.92151 9.74776C7.75604 8.83771 8.45518 8 9.38014 8L9.38015 12C10.9508 12 12.138 10.5775 11.857 9.03219L7.92151 9.74776ZM7.52337 7.55807L7.92151 9.74776L11.857 9.03219L11.4588 6.84249L7.52337 7.55807ZM8 5C8 5.47734 7.88997 5.92329 7.69572 6.31903L11.2865 8.08153C11.744 7.14937 12 6.10173 12 5H8ZM5 2C6.65685 2 8 3.34315 8 5H12C12 1.13401 8.86599 -2 5 -2V2Z" fill="#CCCCCC" mask="url(#path-1-inside-1_1570:1097)"/>
</svg>
