<svg width="24" height="24" viewBox="0 0 24 24" fill="#9EA9B2" xmlns="http://www.w3.org/2000/svg">
<path d="M4.19772 12.7192C4.04264 13.1623 4.27612 13.6472 4.7192 13.8023C5.16229 13.9574 5.6472 13.7239 5.80228 13.2808L4.19772 12.7192ZM18.1977 13.2808C18.3528 13.7239 18.8377 13.9574 19.2808 13.8023C19.7239 13.6472 19.9574 13.1623 19.8023 12.7192L18.1977 13.2808ZM5 13C5.80228 13.2808 5.80216 13.2811 5.80204 13.2815C5.80201 13.2816 5.8019 13.2819 5.80184 13.282C5.80172 13.2824 5.80163 13.2826 5.80156 13.2828C5.80143 13.2832 5.80139 13.2833 5.80147 13.2831C5.80161 13.2827 5.80217 13.2811 5.80316 13.2785C5.80512 13.2731 5.80878 13.2633 5.81418 13.2492C5.82497 13.2212 5.84269 13.1765 5.86773 13.1176C5.91787 12.9997 5.99696 12.8255 6.10806 12.6139C6.33115 12.1889 6.67812 11.6229 7.17094 11.0597C8.14935 9.94154 9.68233 8.85 12 8.85V7.15C9.06767 7.15 7.10065 8.55846 5.89156 9.94027C5.29063 10.6271 4.87197 11.3111 4.60288 11.8236C4.46788 12.0808 4.36924 12.2972 4.30317 12.4527C4.2701 12.5305 4.2451 12.5932 4.22769 12.6384C4.21899 12.6611 4.21218 12.6793 4.2072 12.6929C4.20472 12.6996 4.20269 12.7052 4.20111 12.7096C4.20032 12.7118 4.19964 12.7137 4.19908 12.7153C4.1988 12.7161 4.19854 12.7169 4.19832 12.7175C4.1982 12.7178 4.19805 12.7183 4.198 12.7184C4.19786 12.7188 4.19772 12.7192 5 13ZM12 8.85C14.3177 8.85 15.8506 9.94154 16.8291 11.0597C17.3219 11.6229 17.6688 12.1889 17.8919 12.6139C18.003 12.8255 18.0821 12.9997 18.1323 13.1176C18.1573 13.1765 18.175 13.2212 18.1858 13.2492C18.1912 13.2633 18.1949 13.2731 18.1968 13.2785C18.1978 13.2811 18.1984 13.2827 18.1985 13.2831C18.1986 13.2833 18.1986 13.2832 18.1984 13.2828C18.1984 13.2826 18.1983 13.2824 18.1982 13.282C18.1981 13.2819 18.198 13.2816 18.198 13.2815C18.1978 13.2811 18.1977 13.2808 19 13C19.8023 12.7192 19.8021 12.7188 19.802 12.7184C19.8019 12.7183 19.8018 12.7178 19.8017 12.7175C19.8015 12.7169 19.8012 12.7161 19.8009 12.7153C19.8004 12.7137 19.7997 12.7118 19.7989 12.7096C19.7973 12.7052 19.7953 12.6996 19.7928 12.6929C19.7878 12.6793 19.781 12.6611 19.7723 12.6384C19.7549 12.5932 19.7299 12.5305 19.6968 12.4527C19.6308 12.2972 19.5321 12.0808 19.3971 11.8236C19.128 11.3111 18.7094 10.6271 18.1084 9.94027C16.8994 8.55846 14.9323 7.15 12 7.15V8.85Z"/>
<circle cx="12" cy="13" r="2"/>
</svg>
