<svg width="18" height="18" viewBox="0 0 18 18" fill="none" xmlns="http://www.w3.org/2000/svg">
<path fill-rule="evenodd" clip-rule="evenodd" d="M12.7726 15.2815L15.9167 16.0433L15.3113 12.7139L15.5579 12.2114C16.0326 11.2443 16.3 10.1558 16.3 9C16.3 4.96832 13.0317 1.7 9 1.7C4.96832 1.7 1.7 4.96832 1.7 9C1.7 13.0317 4.96832 16.3 9 16.3C10.1592 16.3 11.2507 16.0311 12.22 15.5537L12.7726 15.2815ZM0 9C0 4.02944 4.02944 0 9 0C13.9706 0 18 4.02944 18 9C18 10.4211 17.6706 11.7654 17.084 12.9604L17.8007 16.902C17.9046 17.4737 17.4654 18 16.8843 18C16.8104 18 16.7368 17.9912 16.665 17.9738L12.971 17.0788C11.7733 17.6687 10.4253 18 9 18C4.02944 18 0 13.9706 0 9Z" fill="#12151F"/>
</svg>
