<svg width="24" height="25" viewBox="0 0 24 25" fill="#12151F" stroke="#12151F" xmlns="http://www.w3.org/2000/svg">
<path d="M4.50046 6.48931C7.80975 6.34803 10.4269 4.83789 11.6303 3.83477C11.8424 3.65796 12.1575 3.65802 12.3691 3.83546C13.5659 4.83919 16.1514 6.34986 19.4995 6.48956C19.7754 6.50107 20 6.72386 20 7V13.4999C20 16.4999 18 21.4999 12 21.4999C6 21.4999 4 16.4999 4 13.4999V7C4 6.72386 4.22456 6.50109 4.50046 6.48931Z" fill="none" stroke-width="1.7"/>
<path d="M9.04491 12.8418C8.68462 12.5408 8.14859 12.5889 7.84764 12.9492C7.5467 13.3095 7.5948 13.8455 7.95509 14.1465L9.04491 12.8418ZM11.5 16L10.9551 16.6524L11.6214 17.2089L12.1637 16.531L11.5 16ZM16.1637 11.531C16.457 11.1644 16.3976 10.6295 16.031 10.3363C15.6644 10.043 15.1295 10.1024 14.8363 10.469L16.1637 11.531ZM7.95509 14.1465L10.9551 16.6524L12.0449 15.3476L9.04491 12.8418L7.95509 14.1465ZM12.1637 16.531L16.1637 11.531L14.8363 10.469L10.8363 15.469L12.1637 16.531Z" stroke="none"/>
</svg>
