<svg width="24" height="24" viewBox="0 0 24 24" stroke="#9EA9B2" fill="#C4C4C4" xmlns="http://www.w3.org/2000/svg">
<mask id="mask0_1270_23512" style="mask-type:alpha" maskUnits="userSpaceOnUse" x="2" y="2" width="20" height="20">
<circle cx="12" cy="12" r="10" fill="white" stroke="none"/>
</mask>
<g mask="url(#mask0_1270_23512)">
<circle cx="12" cy="12" r="9.15" fill="none" stroke-width="1.7"/>
<mask id="path-3-inside-1_1270_23512" fill="white" stroke="none">
<path d="M21.429 22C22.4804 22 19.852 22 19.8906 21.999C21.5035 21.9575 23.2074 18.7106 22.3252 17.3597C22.3041 17.3274 24.3781 20.3315 23.5485 19.1299C22.9203 18.2199 21.9996 17.3931 20.8388 16.6967C19.6781 16.0003 18.3001 15.4478 16.7835 15.0709C15.267 14.694 13.6415 14.5 12 14.5C10.3585 14.5 8.73303 14.694 7.21646 15.0709C5.69989 15.4478 4.3219 16.0003 3.16116 16.6967C2.00043 17.3931 1.07969 18.2199 0.451505 19.1299C-0.378066 20.3315 1.69586 17.3274 1.67476 17.3597C0.792562 18.7106 2.49649 21.9575 4.10945 21.999C4.14803 22 1.5196 22 2.57097 22L12 22H21.429Z"/>
</mask>
<path fill="none" d="M21.429 22C22.4804 22 19.852 22 19.8906 21.999C21.5035 21.9575 23.2074 18.7106 22.3252 17.3597C22.3041 17.3274 24.3781 20.3315 23.5485 19.1299C22.9203 18.2199 21.9996 17.3931 20.8388 16.6967C19.6781 16.0003 18.3001 15.4478 16.7835 15.0709C15.267 14.694 13.6415 14.5 12 14.5C10.3585 14.5 8.73303 14.694 7.21646 15.0709C5.69989 15.4478 4.3219 16.0003 3.16116 16.6967C2.00043 17.3931 1.07969 18.2199 0.451505 19.1299C-0.378066 20.3315 1.69586 17.3274 1.67476 17.3597C0.792562 18.7106 2.49649 21.9575 4.10945 21.999C4.14803 22 1.5196 22 2.57097 22L12 22H21.429Z" stroke-width="3.4" mask="url(#path-3-inside-1_1270_23512)"/>
<circle cx="12" cy="9.5" r="2.5" fill="none" stroke-width="1.7" stroke-linejoin="bevel"/>
</g>
</svg>
