<svg width="12" height="12" viewBox="0 0 12 12" fill="none" xmlns="http://www.w3.org/2000/svg">
<path d="M12.0002 3.98037L11.9956 10.6631C11.9955 10.747 11.9955 10.8661 11.9954 10.999C11.9954 11.5534 11.5444 12.002 10.99 12.0005C10.8621 12.0001 10.7479 11.9999 10.6669 12H8.44469C8.20894 12 7.98285 11.9058 7.81615 11.7381C7.64945 11.5703 7.5558 11.3428 7.5558 11.1057V8.64619C7.5558 8.52759 7.50897 8.41385 7.42562 8.32999C7.34227 8.24613 7.22923 8.19902 7.11135 8.19902H4.88913C4.77126 8.19902 4.65821 8.24613 4.57486 8.32999C4.49151 8.41385 4.44469 8.52759 4.44469 8.64619V11.1057C4.44469 11.3428 4.35104 11.5703 4.18434 11.7381C4.01764 11.9058 3.79155 12 3.5558 12H1.33357C1.25045 11.9999 1.13268 11.9999 1.00115 11.9999C0.448486 11.9998 0.000342053 11.5515 0.000353236 10.9989C0.000355962 10.8642 0.000325682 10.7434 0.000241436 10.6585V3.98037C0.00057401 3.82594 0.0404604 3.6742 0.116052 3.53979C0.191644 3.40538 0.30039 3.29284 0.431797 3.21302L5.54291 0.12752C5.68108 0.0440786 5.8392 0 6.00035 0C6.1615 0 6.31962 0.0440786 6.4578 0.12752L11.5689 3.21302C11.7003 3.29286 11.809 3.40541 11.8845 3.53982C11.9601 3.67423 11.9999 3.82596 12.0002 3.98037Z" fill="#5D54E6"/>
</svg>
