<svg width="108" height="108" viewBox="0 0 108 108" fill="none" xmlns="http://www.w3.org/2000/svg">
<g clip-path="url(#clip0_1807_57729)">
<path d="M80.4446 85.4202C61.288 94.0157 63.3139 70.7892 30.2338 66.2414C-2.84628 61.6937 33.8779 22.8983 49.3954 15.9357C64.9129 8.97306 90.0735 13.7815 99.6062 35.1144C109.139 56.4474 99.6013 76.8247 80.4446 85.4202Z" fill="url(#paint0_linear_1807_57729)"/>
<path d="M39.888 19.266C60.8208 17.6307 51.0845 38.8151 80.6958 54.247C110.307 69.679 62.6553 93.8254 45.699 95.15C28.7427 96.4747 6.67527 83.4668 4.89117 60.169C3.10708 36.8713 18.9551 20.9013 39.888 19.266Z" fill="url(#paint1_linear_1807_57729)"/>
<path fill-rule="evenodd" clip-rule="evenodd" d="M77.3516 54.5C77.3516 67.5422 66.8982 78 53.8516 78C40.8093 78 30.3516 67.5422 30.3516 54.5C30.3516 41.4578 40.8093 31 53.8516 31C66.8982 31 77.3516 41.4578 77.3516 54.5ZM51.0069 55.967V56.4837H55.1569V56.4565C55.1569 56.3296 55.1844 56.2118 55.2394 56.103C55.3126 55.9761 55.4317 55.8401 55.5966 55.695C55.7615 55.55 55.9173 55.423 56.0639 55.3142C56.2104 55.2055 56.4395 55.0332 56.7509 54.7975C57.0808 54.5618 57.3464 54.3714 57.548 54.2263C58.4641 53.5736 59.0871 52.8846 59.4169 52.1593C59.7467 51.4159 59.9116 50.5365 59.9116 49.5211C59.9116 48.0343 59.3252 46.747 58.1526 45.6591C56.98 44.553 55.5142 44 53.7552 44C51.9596 44 50.4389 44.6074 49.193 45.8222C47.9654 47.0189 47.3516 48.4695 47.3516 50.1739H51.5016C51.5016 49.503 51.7215 48.9862 52.1612 48.6236C52.6193 48.2428 53.1506 48.0525 53.7552 48.0525C54.3232 48.0525 54.7996 48.2066 55.1844 48.5148C55.5692 48.8049 55.7615 49.222 55.7615 49.7659C55.7615 50.0742 55.6791 50.3643 55.5142 50.6362C55.3493 50.8901 55.1844 51.0805 55.0195 51.2074C54.8729 51.3162 54.5889 51.4975 54.1675 51.7513C53.7644 52.0052 53.4896 52.1865 53.343 52.2953C52.5368 52.8574 51.9413 53.4195 51.5566 53.9816C51.1901 54.5255 51.0069 55.1873 51.0069 55.967ZM53.0681 64.5695C53.8743 64.5695 54.5614 64.2885 55.1294 63.7264C55.7157 63.1462 56.0089 62.4572 56.0089 61.6594C56.0089 60.8616 55.7157 60.1816 55.1294 59.6196C54.5614 59.0393 53.8743 58.7492 53.0681 58.7492C52.262 58.7492 51.5657 59.0393 50.9794 59.6196C50.4114 60.1816 50.1274 60.8616 50.1274 61.6594C50.1274 62.4572 50.4114 63.1462 50.9794 63.7264C51.5657 64.2885 52.262 64.5695 53.0681 64.5695Z" fill="url(#paint2_linear_1807_57729)"/>
</g>
<defs>
<linearGradient id="paint0_linear_1807_57729" x1="67.4475" y1="87.2027" x2="96.7066" y2="23.7484" gradientUnits="userSpaceOnUse">
<stop offset="0.184442" stop-color="white" stop-opacity="0"/>
<stop offset="1" stop-color="#75FBDC"/>
</linearGradient>
<linearGradient id="paint1_linear_1807_57729" x1="49.5692" y1="46.3378" x2="6.49186" y2="67.4526" gradientUnits="userSpaceOnUse">
<stop offset="0.0138835" stop-color="white" stop-opacity="0"/>
<stop offset="1" stop-color="#75FBDC"/>
</linearGradient>
<linearGradient id="paint2_linear_1807_57729" x1="30.3516" y1="66.7546" x2="84.2346" y2="41.2331" gradientUnits="userSpaceOnUse">
<stop stop-color="#5D54E6"/>
<stop offset="1" stop-color="#5D54E6" stop-opacity="0"/>
</linearGradient>
<clipPath id="clip0_1807_57729">
<rect width="108" height="108" fill="white"/>
</clipPath>
</defs>
</svg>
