<svg width="22" height="21" viewBox="0 0 22 21" fill="none" xmlns="http://www.w3.org/2000/svg">
<path fill-rule="evenodd" clip-rule="evenodd" d="M11.0007 1.95029L2.90131 5.99997L11.0007 10.0496L19.1 5.99997L11.0007 1.95029ZM10.4256 0.337172C10.7876 0.156164 11.2137 0.156164 11.5757 0.337172L20.601 4.84982C21.5488 5.32371 21.5488 6.67622 20.601 7.15011L11.5757 11.6628C11.2137 11.8438 10.7876 11.8438 10.4256 11.6628L1.40028 7.15011C0.452513 6.67622 0.452509 5.32371 1.40028 4.84982L10.4256 0.337172ZM20.0007 8.74994C20.4701 8.74994 20.8507 9.1305 20.8507 9.59994V19.5999C20.8507 20.0694 20.4701 20.4499 20.0007 20.4499C19.5312 20.4499 19.1507 20.0694 19.1507 19.5999V9.59994C19.1507 9.1305 19.5312 8.74994 20.0007 8.74994ZM17.8507 11C17.8507 10.5305 17.4701 10.15 17.0007 10.15C16.5312 10.15 16.1507 10.5305 16.1507 11V15.4746L11.0007 18.0496L5.85065 15.4746V11.5C5.85065 11.0305 5.4701 10.65 5.00065 10.65C4.53121 10.65 4.15065 11.0305 4.15065 11.5V15.7306C4.15065 16.2176 4.42584 16.6629 4.86148 16.8807L10.4256 19.6628C10.7876 19.8438 11.2137 19.8438 11.5757 19.6628L17.1398 16.8807C17.5755 16.6629 17.8507 16.2176 17.8507 15.7306V11Z" fill="#12151F"/>
</svg>
