<svg width="18" height="15" viewBox="0 0 18 15" fill="#12151F" xmlns="http://www.w3.org/2000/svg">
<path fill-rule="evenodd" clip-rule="evenodd" d="M0.150391 3.9999C0.150391 3.53046 0.530949 3.1499 1.00039 3.1499H12.0004C15.2313 3.1499 17.8504 5.76904 17.8504 8.9999C17.8504 12.2308 15.2313 14.8499 12.0004 14.8499H7.50039C7.03095 14.8499 6.65039 14.4693 6.65039 13.9999C6.65039 13.5305 7.03095 13.1499 7.50039 13.1499H12.0004C14.2924 13.1499 16.1504 11.2919 16.1504 8.9999C16.1504 6.70792 14.2924 4.8499 12.0004 4.8499H1.00039C0.530949 4.8499 0.150391 4.46934 0.150391 3.9999Z" stroke="none"/>
<path fill-rule="evenodd" clip-rule="evenodd" d="M0.150391 3.9999C0.150391 3.77447 0.239944 3.55827 0.39935 3.39886L3.39935 0.398861C3.7313 0.066916 4.26949 0.066916 4.60143 0.398861C4.93338 0.730807 4.93338 1.269 4.60143 1.60094L2.20247 3.9999L4.60143 6.39886C4.93338 6.73081 4.93338 7.269 4.60143 7.60094C4.26949 7.93289 3.7313 7.93289 3.39935 7.60094L0.39935 4.60094C0.239944 4.44154 0.150391 4.22534 0.150391 3.9999Z" stroke="none"/>
</svg>
