<svg width="22" height="19" viewBox="0 0 22 19" fill="#12151F" xmlns="http://www.w3.org/2000/svg">
<path d="M1.8499 11C1.8499 5.94659 5.9465 1.84999 10.9999 1.84999C16.0533 1.84999 20.1499 5.94659 20.1499 11C20.1499 13.3211 19.2867 15.4386 17.8626 17.0521C17.552 17.404 17.5855 17.9412 17.9374 18.2518C18.2894 18.5625 18.8265 18.529 19.1372 18.177C20.8249 16.2649 21.8499 13.7511 21.8499 11C21.8499 5.0077 16.9922 0.149994 10.9999 0.149994C5.00761 0.149994 0.149902 5.0077 0.149902 11C0.149902 13.7511 1.17492 16.2649 2.86262 18.177C3.17327 18.529 3.71042 18.5625 4.06238 18.2518C4.41433 17.9412 4.44783 17.404 4.13718 17.0521C2.71307 15.4386 1.8499 13.3211 1.8499 11Z" stroke="none"/>
<path d="M4.8499 10.7822C4.8499 7.53104 7.57782 4.84999 10.9999 4.84999C11.4693 4.84999 11.8499 4.46944 11.8499 3.99999C11.8499 3.53055 11.4693 3.14999 10.9999 3.14999C6.69 3.14999 3.1499 6.5419 3.1499 10.7822C3.1499 12.0961 3.49211 13.334 4.09393 14.4138C4.32247 14.8239 4.84015 14.971 5.25021 14.7425C5.66026 14.5139 5.80742 13.9963 5.57888 13.5862C5.11348 12.7511 4.8499 11.7971 4.8499 10.7822Z" stroke="none"/>
<path d="M11.6794 9.11839C11.4673 9.04176 11.2385 8.99999 10.9999 8.99999C9.89533 8.99999 8.9999 9.89542 8.9999 11C8.9999 12.1046 9.89533 13 10.9999 13C12.1045 13 12.9999 12.1046 12.9999 11C12.9999 10.7614 12.9581 10.5326 12.8815 10.3205L16.6009 6.60103C16.9329 6.26909 16.9329 5.7309 16.6009 5.39895C16.269 5.06701 15.7308 5.06701 15.3989 5.39895L11.6794 9.11839Z" stroke="none"/>
</svg>
