<svg width="18" height="18" viewBox="0 0 18 18" fill="none" xmlns="http://www.w3.org/2000/svg">
<path fill-rule="evenodd" clip-rule="evenodd" d="M2.00016 0C2.55244 0 3.00016 0.447715 3.00016 1V2.24407C4.60893 0.845431 6.72493 0 9.00016 0C13.9707 0 18.0002 4.02944 18.0002 9C18.0002 13.9706 13.9707 18 9.00016 18C5.66763 18 2.75944 16.1882 1.20481 13.5007C0.996548 13.1407 0.812435 12.7648 0.654739 12.3752C0.507366 12.0111 0.383094 11.6352 0.283758 11.2493C0.146096 10.7144 0.468083 10.1692 1.00294 10.0316C1.53779 9.8939 2.08297 10.2159 2.22063 10.7507C2.29774 11.0503 2.3942 11.3421 2.50861 11.6248C2.63105 11.9273 2.77409 12.2193 2.93602 12.4993C4.14787 14.5942 6.41043 16 9.00016 16C12.8662 16 16.0002 12.866 16.0002 9C16.0002 5.13401 12.8662 2 9.00016 2C7.08826 2 5.32316 2.76514 4.043 4H6.00016C6.55244 4 7.00016 4.44772 7.00016 5C7.00016 5.55228 6.55244 6 6.00016 6H2.00016C1.44788 6 1.00016 5.55228 1.00016 5V1C1.00016 0.447715 1.44788 0 2.00016 0ZM9.00024 4C9.55253 4 10.0002 4.44772 10.0002 5V8.58579L11.7073 10.2929C12.0979 10.6834 12.0979 11.3166 11.7073 11.7071C11.3168 12.0976 10.6837 12.0976 10.2931 11.7071L8.29313 9.70711C8.1056 9.51957 8.00024 9.26522 8.00024 9V5C8.00024 4.44772 8.44796 4 9.00024 4Z" fill="#9EA9B2"/>
</svg>
