<svg width="108" height="108" viewBox="0 0 108 108" fill="none" xmlns="http://www.w3.org/2000/svg">
<g clip-path="url(#clip0_720_99347)">
<path d="M25.6026 58.1692C30.8667 37.676 59.0289 16.7354 72.2403 30.5945C85.4516 44.4536 59.1544 55.6939 86.3859 73.7826C113.617 91.8714 73.6705 110.071 53.1773 104.807C32.6841 99.5428 20.3385 78.6624 25.6026 58.1692Z" fill="url(#paint0_linear_720_99347)"/>
<ellipse cx="34.1613" cy="52.5784" rx="27.715" ry="27.8892" fill="url(#paint1_linear_720_99347)"/>
<path opacity="0.4" d="M66.6344 89.0045C65.5578 88.9696 64.534 88.5266 63.7683 87.7643L57.205 80.0926C55.7978 78.8058 55.6828 76.6188 56.947 75.1897C57.5388 74.5908 58.3433 74.2542 59.1826 74.2542C60.0218 74.2542 60.8264 74.5908 61.4181 75.1897L69.6724 81.7942C70.8614 83.0112 71.2283 84.8178 70.6092 86.4066C69.99 87.9954 68.5005 89.0695 66.8064 89.1487L66.6344 89.0045Z" fill="url(#paint2_linear_720_99347)"/>
<path fill-rule="evenodd" clip-rule="evenodd" d="M45.809 40.5924C49.2352 43.2369 52.1523 47.1113 54.2472 51.9567C54.4038 52.3245 54.4038 52.7546 54.2472 53.1048C50.0574 62.7956 42.5982 68.5946 34.2971 68.5946H34.2775C25.9959 68.5946 18.5367 62.7956 14.347 53.1048C14.1903 52.7546 14.1903 52.3245 14.347 51.9567C18.5367 42.264 25.9959 36.4865 34.2775 36.4865H34.2971C38.4476 36.4865 42.3828 37.9265 45.809 40.5924ZM26.4658 52.5405C26.4658 56.8216 29.9703 60.3048 34.297 60.3048C38.6042 60.3048 42.1087 56.8216 42.1087 52.5405C42.1087 48.24 38.6042 44.7567 34.297 44.7567C29.9703 44.7567 26.4658 48.24 26.4658 52.5405Z" fill="white"/>
<path d="M39.1757 52.5343C39.1757 55.2002 36.983 57.3797 34.3008 57.3797C31.599 57.3797 29.4062 55.2002 29.4062 52.5343C29.4062 52.2035 29.4454 51.8941 29.5041 51.5827H29.602C31.7752 51.5827 33.5372 49.8703 33.6155 47.7278C33.8309 47.6908 34.0658 47.6694 34.3008 47.6694C36.983 47.6694 39.1757 49.8489 39.1757 52.5343Z" fill="#3F37C9"/>
</g>
<defs>
<linearGradient id="paint0_linear_720_99347" x1="99.8173" y1="77.2327" x2="16.7018" y2="73.9169" gradientUnits="userSpaceOnUse">
<stop stop-color="white" stop-opacity="0"/>
<stop offset="1" stop-color="#75FBDC"/>
</linearGradient>
<linearGradient id="paint1_linear_720_99347" x1="-7.06866" y1="51.9298" x2="61.8064" y2="44.2652" gradientUnits="userSpaceOnUse">
<stop stop-color="#5D54E6" stop-opacity="0"/>
<stop offset="1" stop-color="#5D54E6"/>
</linearGradient>
<linearGradient id="paint2_linear_720_99347" x1="56.1898" y1="74.4324" x2="67.4879" y2="85.027" gradientUnits="userSpaceOnUse">
<stop offset="0.322917" stop-color="#5D54E6" stop-opacity="0"/>
<stop offset="1" stop-color="#5D54E6"/>
</linearGradient>
<clipPath id="clip0_720_99347">
<rect width="108" height="108" fill="white"/>
</clipPath>
</defs>
</svg>
