<svg width="22" height="22" viewBox="0 0 22 22" fill="none" xmlns="http://www.w3.org/2000/svg">
<path fill-rule="evenodd" clip-rule="evenodd" d="M19.9866 21.6363L14.6963 16.3459L16.3462 14.696L21.6365 19.9863L19.9866 21.6363Z" fill="#12151F"/>
<path fill-rule="evenodd" clip-rule="evenodd" d="M4.90787 4.90787C2.14182 7.67392 2.14182 12.1586 4.90787 14.9246C7.67392 17.6907 12.1586 17.6907 14.9246 14.9246C17.6907 12.1586 17.6907 7.67392 14.9246 4.90787C12.1586 2.14182 7.67392 2.14182 4.90787 4.90787ZM3.25795 16.5745C-0.419318 12.8973 -0.419318 6.93523 3.25795 3.25795C6.93523 -0.419318 12.8973 -0.419318 16.5745 3.25795C20.2518 6.93523 20.2518 12.8973 16.5745 16.5745C12.8973 20.2518 6.93523 20.2518 3.25795 16.5745Z" fill="#12151F"/>
</svg>
