<svg width="16" height="14" viewBox="0 0 16 14" fill="none" xmlns="http://www.w3.org/2000/svg">
<path fill-rule="evenodd" clip-rule="evenodd" d="M2.75039 4.35C2.79101 4.35 2.83095 4.34715 2.87005 4.34164C3.23387 5.58881 4.38571 6.5 5.75038 6.5C7.112 6.5 8.26175 5.59288 8.62827 4.35H14.7504C15.2198 4.35 15.6004 3.96944 15.6004 3.5C15.6004 3.03056 15.2198 2.65 14.7504 2.65H8.62827C8.26175 1.40712 7.112 0.5 5.75038 0.5C4.38571 0.5 3.23387 1.41119 2.87005 2.65836C2.83095 2.65285 2.79101 2.65 2.75039 2.65H1.25039C0.780949 2.65 0.400391 3.03056 0.400391 3.5C0.400391 3.96944 0.780949 4.35 1.25039 4.35H2.75039ZM4.75038 3.5C4.75038 2.94772 5.1981 2.5 5.75038 2.5C6.30267 2.5 6.75038 2.94772 6.75038 3.5C6.75038 4.05228 6.30267 4.5 5.75038 4.5C5.1981 4.5 4.75038 4.05228 4.75038 3.5ZM13.1307 9.65836C12.7669 8.41119 11.6151 7.5 10.2504 7.5C8.88876 7.5 7.73902 8.40712 7.3725 9.65H1.25039C0.780949 9.65 0.400391 10.0306 0.400391 10.5C0.400391 10.9694 0.780949 11.35 1.25039 11.35H7.3725C7.73902 12.5929 8.88876 13.5 10.2504 13.5C11.6151 13.5 12.7669 12.5888 13.1307 11.3416C13.1698 11.3471 13.2098 11.35 13.2504 11.35H14.7504C15.2198 11.35 15.6004 10.9694 15.6004 10.5C15.6004 10.0306 15.2198 9.65 14.7504 9.65H13.2504C13.2098 9.65 13.1698 9.65285 13.1307 9.65836ZM11.2504 10.5C11.2504 9.94772 10.8027 9.5 10.2504 9.5C9.6981 9.5 9.25038 9.94772 9.25038 10.5C9.25038 11.0523 9.6981 11.5 10.2504 11.5C10.8027 11.5 11.2504 11.0523 11.2504 10.5Z" fill="#12151F"/>
</svg>
