<svg width="216" height="164" viewBox="0 0 216 164" fill="none" xmlns="http://www.w3.org/2000/svg">
<g clip-path="url(#clip0_4658_630412)">
<path d="M15.9495 144.324C16.1215 145.878 16.3326 147.434 16.5846 148.989C16.8372 150.546 17.129 152.102 17.4625 153.658C18.1292 156.768 18.9602 159.874 19.961 162.968C20.9617 166.061 22.1082 169.066 23.3904 171.98C24.0317 173.437 24.7063 174.871 25.4145 176.282C26.1215 177.691 26.8628 179.078 27.6341 180.44C28.4055 181.802 29.2096 183.14 30.0422 184.452C31.7096 187.078 33.4966 189.605 35.3954 192.026C36.3444 193.236 37.322 194.421 38.325 195.578C39.3277 196.736 40.3583 197.867 41.4129 198.97C41.9402 199.522 42.4748 200.067 43.0148 200.605C44.0941 201.68 45.1987 202.728 46.327 203.747C49.711 206.806 53.3048 209.608 57.0749 212.138C58.9601 213.402 60.8887 214.598 62.8578 215.725C64.1708 216.476 65.5005 217.195 66.8479 217.882C68.1946 218.57 69.5582 219.225 70.9367 219.848C77.1401 222.651 83.6518 224.794 90.359 226.219C91.8493 226.536 93.3495 226.818 94.8579 227.063C97.8748 227.554 100.925 227.899 103.999 228.097C105.536 228.196 107.079 228.256 108.626 228.28C118.684 228.43 128.938 226.975 139.045 223.741C145.936 221.536 152.394 218.617 158.371 215.098C161.16 213.454 163.846 211.683 166.419 209.787C167.662 208.872 168.879 207.927 170.071 206.956C172.452 205.014 174.727 202.963 176.89 200.814C177.972 199.74 179.026 198.642 180.05 197.52C184.663 192.473 188.696 186.954 192.092 181.08C192.848 179.774 193.57 178.451 194.261 177.112C194.952 175.773 195.612 174.416 196.238 173.045C197.177 170.989 198.043 168.899 198.832 166.778C200.082 163.423 201.136 159.993 201.998 156.505C202.226 155.583 202.445 154.659 202.644 153.728C202.964 152.246 203.247 150.754 203.493 149.254C203.616 148.504 203.73 147.752 203.835 146.998C204.046 145.49 204.219 143.974 204.355 142.452C204.491 140.929 204.591 139.4 204.652 137.866C204.774 134.798 204.745 131.709 204.56 128.61C204.467 127.059 204.336 125.507 204.164 123.953C203.991 122.399 203.781 120.843 203.529 119.287C203.276 117.731 202.984 116.175 202.651 114.619C201.984 111.509 201.153 108.402 200.153 105.309C199.152 102.216 198.005 99.2101 196.723 96.2967C196.081 94.8394 195.407 93.4057 194.699 91.9952C193.991 90.5855 193.25 89.1983 192.479 87.8368C191.708 86.4752 190.904 85.1366 190.071 83.8244C188.403 81.1992 186.616 78.6726 184.718 76.2513C184.243 75.6458 183.761 75.0471 183.273 74.4544C181.808 72.6782 180.282 70.9616 178.699 69.3064C178.172 68.7549 177.638 68.2102 177.098 67.6721C176.018 66.5965 174.913 65.5486 173.785 64.5297C170.401 61.4713 166.807 58.6693 163.037 56.1395C161.152 54.8752 159.224 53.6786 157.254 52.5525C155.942 51.802 154.611 51.0823 153.264 50.3954C151.918 49.7072 150.554 49.0523 149.176 48.4296C146.505 47.223 143.777 46.1417 141.001 45.1847C137.329 43.9182 133.573 42.8707 129.753 42.0585C128.263 41.7422 126.762 41.46 125.255 41.215C124.568 41.1035 123.88 41.0013 123.192 40.9053C122.365 40.79 121.536 40.6821 120.705 40.5886C120.357 40.5496 120.009 40.5184 119.661 40.4827C118.482 40.3621 117.301 40.2578 116.114 40.1819C116.098 40.1805 116.081 40.1807 116.064 40.1789C114.8 40.0993 113.53 40.0497 112.258 40.02C112.001 40.0144 111.744 40.0027 111.486 39.9994C108.528 39.9553 105.553 40.0536 102.57 40.2924C101.637 40.3665 100.704 40.4514 99.771 40.5535C99.0984 40.627 98.4257 40.7109 97.7527 40.7994C92.7366 41.459 87.7118 42.5319 82.717 44.0328C82.1658 44.1981 81.6163 44.3622 81.0659 44.5383C80.1322 44.8371 79.2085 45.1537 78.2905 45.4783C69.2739 48.668 61.0287 53.0886 53.693 58.4931C52.4496 59.4093 51.2318 60.354 50.041 61.325C49.6726 61.6257 49.3125 61.9324 48.9488 62.2382C48.137 62.921 47.3346 63.6114 46.5486 64.3184C45.4117 65.3434 44.3025 66.3919 43.2213 67.4664C42.1394 68.5401 41.0861 69.6388 40.0611 70.7606C35.9377 75.2737 32.2779 80.162 29.1208 85.3453C28.7466 85.9599 28.3784 86.5768 28.0185 87.2C27.2635 88.5053 26.5402 89.8292 25.8496 91.1682C25.1589 92.5072 24.4989 93.8633 23.8729 95.2345C22.9334 97.2907 22.068 99.3814 21.2784 101.502C19.6984 105.743 18.4223 110.105 17.4663 114.551C17.1473 116.033 16.8644 117.525 16.6182 119.025C16.495 119.776 16.3811 120.528 16.2755 121.282C15.9602 123.544 15.7277 125.824 15.5785 128.116C15.5291 128.881 15.4888 129.647 15.4582 130.414C15.3354 133.482 15.3651 136.57 15.55 139.67C15.6458 141.217 15.7777 142.77 15.9495 144.324ZM67.7917 55.5772C68.0642 55.818 68.3225 56.1137 68.7954 56.1062C69.4982 55.402 70.4891 55.596 71.4088 55.2699C72.3035 54.9487 72.9785 54.2779 74.0261 54.1141C75.8772 53.8242 78.8935 54.7501 79.9814 53.3759C80.2549 53.0292 80.041 52.6504 80.159 51.9401C80.2528 51.3727 80.4707 50.7079 80.5174 50.0308C81.2134 49.789 81.9125 49.5546 82.6179 49.3289C88.4444 47.4645 94.3263 46.2286 100.188 45.5804C100.153 46.258 99.3084 46.231 98.7678 46.7264C98.2607 47.1921 98.2216 47.8308 97.6268 48.1522C95.9732 49.0452 94.2656 48.7435 92.7601 49.2865C92.9007 49.9648 93.8485 50.0824 94.3251 50.1625C95.9388 50.4403 97.031 49.9819 98.9637 49.3158C99.9542 48.9747 101.204 48.926 101.871 48.066C102.295 47.5233 102.003 46.7199 102.312 46.1232C102.444 45.8705 102.666 45.5879 102.934 45.3223C103.962 45.2408 104.99 45.1804 106.018 45.1339C106.068 45.8329 104.963 46.0141 105.23 46.8865C106.034 47.0725 107.398 45.9505 107.782 45.0716C108.038 45.0657 108.296 45.0595 108.551 45.0548C110.055 45.0307 111.554 45.0438 113.048 45.0943C115.179 45.1675 117.299 45.3172 119.406 45.5398C119.119 45.8611 118.828 46.2485 118.516 46.3461C117.714 46.5972 117.029 45.644 116.263 46.3226C116.519 47.3765 117.827 47.4179 118.724 47.6555C119.695 47.9125 120.706 48.1549 121.281 48.9584C121.031 50.8701 119.209 49.5253 117.96 49.9164C116.583 50.3463 115.421 53.5937 113.566 51.8522C113.495 50.6375 114.682 50.0654 114.628 48.8611C114.375 48.9917 114.145 49.1604 113.921 49.3454C113.52 49.6736 113.145 50.0631 112.757 50.4645C112.247 50.9914 111.706 51.5261 111.025 51.9237C110.398 52.2875 109.729 52.4623 109.182 52.8298C108.133 53.5377 107.598 54.646 106.518 55.4874C106.096 55.815 105.506 55.9444 105.062 56.2697C104.019 57.0317 102.843 58.1738 101.847 59.2081C100.829 60.2645 99.6641 61.4052 99.1125 62.3102C98.8141 62.7969 98.1461 64.4024 98.3128 64.791C98.5471 65.3475 99.6936 65.19 99.9097 65.7657C99.9999 66.1281 99.6433 67.0861 100.245 67.4613C100.793 67.8034 101.464 67.1698 102.339 67.0029C103.877 66.7119 105.237 67.6155 106.573 67.875C107.583 68.0711 109.038 68.2241 110.046 68.036C111.43 67.7761 112.74 66.7491 113.264 67.7489C113.769 68.7095 112.458 69.5293 112.562 70.2004C113.582 70.9103 112.524 71.7437 112.794 72.566C113.013 73.2318 114.159 73.9691 114.9 73.7987C115.903 73.5689 116.995 72.0759 117.088 70.9785C117.196 69.6717 116.486 68.1741 117.099 67.0515C121.649 65.7318 124.767 62.3534 122.989 57.8506C122.814 57.4058 122.365 56.9041 122.299 56.3742C122.2 55.5861 123.285 54.5511 122.81 53.6666C123.248 53.3622 123.413 52.8782 123.519 52.359C123.678 51.5848 123.725 50.7439 124.334 50.2762C124.377 50.2425 124.407 50.199 124.457 50.1703C124.822 49.9561 125.261 49.9016 125.736 49.8903C126.582 49.87 127.547 49.9929 128.449 49.6355C128.908 49.4538 129.382 48.8411 129.875 48.7563C130.863 48.5848 131.807 49.5604 132.692 49.8697C133.475 50.1455 134.088 49.7811 134.454 50.3652C134.614 51.4913 133.88 51.7703 134.257 52.7307C134.262 52.7409 134.262 52.7481 134.265 52.7587C134.622 53.6165 135.759 53.9898 136.247 53.9298C136.995 53.8351 137.883 53.1355 138.48 52.5775C139.125 51.9768 139.57 50.9823 140.06 50.233C141.243 50.653 142.417 51.0959 143.581 51.5629C143.824 51.957 144.021 52.3188 144.14 52.5685C144.611 53.5639 144.591 54.4461 144.946 55.3878C145.595 56.9683 147.598 56.1455 148.885 56.6708C149.273 56.8309 149.606 57.4498 149.968 57.7031C150.67 58.1966 151.263 58.0067 151.564 58.6759C152.283 60.2777 150.631 60.9606 151.389 62.7623C151.271 63.592 150.375 63.8313 150.756 64.7668C151.36 66.2476 153.179 64.3827 154.158 65.3754C154.686 65.9085 154.463 66.5021 154.519 67.4847C155.557 68.1326 156.011 69.5516 154.687 69.9774C153.882 70.2351 153.382 69.4474 152.504 69.5086C152.015 69.5412 151.406 69.7603 150.797 69.8432C150.276 69.9139 149.642 69.9561 149.156 70.0499C147.916 70.2914 146.733 71.0506 145.805 70.5924C146.466 68.7049 147.512 66.7182 148.57 64.9362C148.883 64.4042 149.742 63.8346 149.265 63.1234C148.208 62.6684 147.443 63.755 146.807 64.4397C146.138 65.1572 145.377 66.1261 144.5 66.5568C142.975 67.3049 140.625 67.2829 139.591 68.5505C139.645 69.3336 141.224 68.5178 141.346 69.6868C140.739 69.9959 140.149 70.241 139.512 69.9541C138.932 69.6958 138.994 69.0085 138.624 68.8594C137.996 68.6097 136.094 69.0956 135.305 69.4985C134.341 69.9886 133.637 70.8812 133.799 71.7822C135.205 71.9594 136.846 70.1619 137.759 71.4711C137.476 72.8814 136.112 74.0441 136.843 75.5799C137.126 76.1724 138.135 76.7624 138.697 76.684C139.263 76.6043 139.393 75.981 139.926 75.8646C140.49 75.7402 140.567 76.401 141.179 76.1013C141.983 75.4083 142.079 73.9449 143.166 73.6638C144.946 74.7978 142.752 76.3299 141.552 77.2544C140.183 78.308 138.264 79.2489 137.244 80.1198C136.708 80.5746 135.094 83.5711 134.201 81.9396C133.559 80.7626 135.072 80.6784 135.031 79.5536C133.439 79.7437 132.344 81.1199 131.147 82.0717C129.438 83.4245 126.29 84.9428 126.522 87.2627C126.57 87.7262 127.116 88.4484 126.924 88.8293C126.767 89.1364 125.392 89.6228 124.852 90.022C124.021 90.639 123.427 91.5791 122.9 91.9187C122.503 92.1771 121.85 92.3489 121.609 92.5469C120.935 93.089 120.986 94.213 120.326 95.1824C120.055 95.5787 119.318 96.0397 119.122 96.4156C118.781 97.0714 119.116 98.3328 118.292 98.8015C117.746 99.0302 117.137 98.7081 116.711 99.2005C117.044 100.447 118.083 101.954 117.952 103.364C117.106 104.658 116.06 105.717 114.858 107.005C114.194 107.719 113.505 108.067 112.683 108.868C112.099 109.435 111.729 110.458 111.081 111.183C109.582 112.854 107.765 114.846 108.664 117.577C108.859 118.168 109.372 118.708 109.672 119.376C109.85 119.768 109.883 120.196 110.076 120.625C110.516 121.593 111.663 122.637 111.04 123.603C109.565 123.489 107.85 123.839 106.64 123.209C106.083 122.34 106.584 121.317 106.189 120.49C105.872 119.826 104.489 118.904 103.888 118.998C103.27 119.095 102.927 119.889 102.303 120.035C101.561 120.21 100.569 119.437 99.6053 119.626C98.1925 119.904 97.3415 120.691 95.7652 120.963C94.5558 122.204 94.5747 123.719 92.7414 124.156C92.0965 124.311 91.3645 124.018 90.5881 124.102C89.7466 124.193 88.4592 124.299 87.6555 124.619C86.043 125.255 85.2291 126.815 84.0498 127.997C83.0098 129.043 81.5016 130.412 81.5637 131.869C81.5934 132.655 82.0934 133.615 82.0499 134.365C82.0207 134.858 81.773 135.369 81.6786 135.859C81.2303 138.175 81.1721 141.065 82.9118 143.632C83.1701 144.012 85.0147 146.036 85.6138 146.373C86.2848 146.744 88.0118 147.073 88.8548 146.819C89.5685 146.606 90.2788 145.968 90.9264 145.626C91.6776 145.231 92.6711 144.899 93.3202 144.437C95.1979 143.103 93.8753 140.425 95.664 138.808C96.4458 138.105 97.4772 137.684 99.0587 137.087C99.7075 137.35 100.189 138.021 100.328 138.694C100.433 139.202 100.107 139.797 100.082 140.576C100.061 141.26 100.247 141.993 100.19 142.558C100.111 143.297 99.6215 143.977 99.588 144.659C99.565 145.104 99.8073 145.57 99.7988 145.968C99.7809 146.672 99.0727 147.392 99.6794 147.916C102.017 148.071 104.185 146.217 106.101 145.969C106.908 145.862 108.774 146.263 109.138 147.436C109.411 148.313 108.927 149.1 109.141 150.087C109.412 151.327 109.383 152.963 109.644 153.954C110.075 155.576 113.407 157.546 115.109 156.977C116.941 156.364 117.434 154.227 119.96 154.472C120.799 154.552 121.958 155.487 122.752 155.169C123.406 154.907 124.041 153.418 124.228 152.468C124.456 151.311 124.227 150.472 125.03 149.668C125.896 148.801 126.806 148.794 127.976 147.876C128.499 147.468 128.894 146.926 129.31 146.388C129.676 145.918 129.899 144.921 130.672 145.315C131.693 145.834 130.114 146.816 131.035 147.427C132.606 147.703 132.639 145.464 133.602 145.123C133.909 145.014 135.179 145.279 135.848 145.463C136.762 145.714 137.243 146.324 138.121 146.22C138.685 146.155 139.44 145.575 140.22 145.441C141.253 145.265 142.114 145.919 142.855 145.658C143.759 145.342 143.878 144.216 144.612 143.823C146.22 142.965 147.018 143.262 148.113 144.081C149.003 143.957 148.673 142.834 149.573 142.98C149.42 143.953 150.113 144.156 150.677 144.747C151.042 145.125 151.109 145.455 151.377 145.584C151.98 145.873 152.872 145.587 153.687 145.797C154.546 146.015 155.217 146.716 156.339 147.389C157.491 148.075 159.23 148.611 160.379 148.321C161.465 148.048 162.211 147.405 163.125 147.231C165.207 146.834 166.772 147.429 168.52 148.051C169.495 148.397 170.336 148.587 170.819 149.222C171.157 149.665 171.287 150.363 171.669 150.859C172.484 151.919 174.429 151.934 174.463 154.206C174.95 154.72 175.672 154.73 176.512 154.929C177.183 155.089 177.89 155.654 178.529 155.556C178.943 155.493 179.312 155.175 179.659 155.088C180.784 154.811 181.676 154.993 182.749 155.055C183.414 155.092 184.199 154.937 184.679 155.076C185.277 155.248 185.699 156.334 186.399 156.432C186.857 156.497 187.652 155.95 188.335 155.813C189.412 155.599 191.027 155.781 191.972 155.498C192.545 155.328 192.939 154.934 193.457 154.811C194.662 154.524 195.824 154.966 197.002 155.499C191.39 177.926 177.119 197.805 156.745 210.176C156.391 209.36 155.883 208.588 155.574 207.76C154.907 205.958 154.769 204.578 153.924 202.986C153.286 201.781 152.374 199.914 151.65 199.26C150.843 198.532 148.315 197.665 147.106 197.426C146.307 197.269 145.453 197.398 144.599 197.274C142.774 197.01 139.194 196.367 138 195.037C137.655 194.655 137.491 194.055 137.115 193.625C136.376 192.775 135.213 192.205 134.277 191.456C132.495 190.026 130.794 188.062 128.962 186.583C128.033 185.831 127.147 184.924 126.222 184.385C125.678 184.066 124.267 184.055 123.886 183.436C123.381 182.617 122.324 181.609 122.209 180.895C122.052 179.933 123.611 178.615 123.337 177.779C123.104 177.069 122.012 176.96 121.616 176.421C120.653 175.109 121.148 173.997 121.336 172.587C121.399 172.123 121.378 171.417 121.483 171.057C121.667 170.414 122.339 170.035 122.627 169.312C122.787 168.907 122.737 168.186 122.935 167.622C123.357 166.416 124.427 165.672 124.446 164.699C124.462 163.906 123.452 160.291 122.77 159.192C122.378 158.554 121.544 158.186 121.085 157.61C120.272 156.591 119.759 155.356 118.564 155.766C117.827 156.019 117.567 157.001 117.256 157.668C117.363 158.389 117.663 159.109 117.01 159.549C116.014 160.224 115.115 158.886 113.707 158.911C113.146 158.919 112.334 159.189 111.969 159.149C110.897 159.031 110.154 157.766 108.995 157.554C108.027 157.379 107.369 157.758 106.65 157.244C106.292 156.846 106.185 155.957 105.933 155.352C104.673 155.076 103.03 153.065 101.619 152.918C100.683 152.818 99.4406 153.253 98.3047 153.236C97.7704 153.228 97.3316 153.137 96.7928 153.19C96.1274 153.25 95.4861 153.447 94.928 153.361C92.7062 153.031 90.6821 150.302 88.3299 151.127C87.3264 151.476 86.6553 152.728 85.7362 153.016C84.823 153.303 83.0627 153.074 81.7484 152.913C80.383 152.745 78.9709 152.867 77.8301 152.684C76.9076 152.535 76.1192 151.974 75.3287 151.89C74.7233 151.827 73.9344 152.034 73.4338 151.969C72.7211 151.876 71.8743 151.461 70.9327 151.176C70.0396 150.907 69.0014 150.393 68.7624 149.752C68.4873 149.01 69.0084 148.137 68.8525 147.388C68.3615 145.02 66.1309 143.919 64.6248 142.909C63.5079 142.158 62.3033 141.604 61.2083 140.928C61.053 140.296 61.0171 140.185 60.7734 139.584C59.9847 139.196 59.2005 138.498 58.2839 137.834C57.4562 137.235 56.0661 136.757 55.6375 135.926C55.1099 134.903 55.3946 133.765 54.642 132.849C53.3903 131.33 51.2116 132.894 52.2687 135.094C52.5615 135.699 53.7371 136.263 54.2122 136.805C54.698 137.357 54.9024 138.172 55.4112 138.861C55.8999 139.521 56.8571 139.919 57.3861 140.669C58.2224 141.853 58.6684 143.274 59.311 143.976C59.8799 144.6 61.328 144.899 60.9273 146.003C60.0721 146.485 59.4252 145.689 58.6844 145.342C58.2712 145.15 56.9392 144.961 56.5427 144.332C56.2134 143.814 56.4745 142.89 56.0822 142.252C55.311 141.002 52.5423 141.85 52.081 140.458C51.7926 139.583 52.9174 139.108 52.6537 138.258C52.3614 137.329 50.8262 136.954 50.2964 136.256C49.8116 135.616 49.3989 134.481 48.9774 133.497C48.5788 132.575 48.3397 131.435 47.8799 130.772C47.468 130.175 46.1748 129.588 45.4193 129.438C44.4201 129.241 43.81 129.651 43.173 129.097C42.618 128.614 41.9748 127.438 41.6876 126.817C41.174 125.706 40.8732 124.408 40.4087 123.195C39.9455 121.981 39.435 120.837 39.1964 119.448C39.3747 118.366 40.0994 117.628 40.2899 116.551C40.4232 115.802 40.2149 114.995 40.3789 114.191C40.682 112.708 41.8517 111.054 42.4899 109.485C43.1784 107.794 43.7963 106.187 43.9587 104.454C44.0191 103.838 44.2613 102.437 43.9561 101.803C43.53 100.92 41.5289 100.72 41.3115 99.5752C41.1789 98.8657 42.1598 98.5625 42.2334 97.7966C42.2704 97.4018 42.0908 96.3901 41.9645 95.9729C41.6792 95.0416 40.8732 94.2334 40.7409 93.1833C40.6267 92.2881 41.7822 91.5406 40.8316 90.8215C39.889 90.1098 39.1879 91.8942 38.2824 91.5304C37.4504 91.1939 38.0243 90.2825 37.7599 89.2581C37.6545 88.8508 37.2475 88.4765 37.1941 88.1666C37.1141 87.7184 37.723 86.7253 37.4052 86.5087C36.913 86.1806 36.243 85.4149 35.4663 84.881C43.4841 72.8371 54.4706 62.6582 67.7917 55.5772Z" fill="url(#paint0_linear_4658_630412)"/>
<mask id="path-2-outside-1_4658_630412" maskUnits="userSpaceOnUse" x="1" y="14" width="92" height="94" fill="black">
<rect fill="white" x="1" y="14" width="92" height="94"/>
<path d="M87.1509 18.326C86.5327 17.9131 85.7318 17.891 85.0932 18.2678L6.94207 64.2954C6.27863 64.6863 5.91498 65.432 6.01698 66.19C6.11721 66.9471 6.66623 67.5731 7.40772 67.7791L27.2657 73.2665C27.8688 73.4321 28.5154 73.2982 29.0006 72.9056L60.725 47.1815L38.5947 75.2192C38.3277 75.5555 38.1849 75.9711 38.1849 76.3981V101.579C38.1849 102.429 38.749 103.176 39.5712 103.413C39.7495 103.466 39.9305 103.489 40.1096 103.489C40.7553 103.489 41.3735 103.167 41.7327 102.605L55.5488 81.08L75.7465 86.6599C76.2769 86.8069 76.8463 86.7189 77.311 86.4213C77.7731 86.1228 78.0853 85.6422 78.1687 85.1016L87.9784 20.195C88.0893 19.4661 87.7673 18.738 87.1509 18.326Z"/>
</mask>
<path d="M87.1509 18.326C86.5327 17.9131 85.7318 17.891 85.0932 18.2678L6.94207 64.2954C6.27863 64.6863 5.91498 65.432 6.01698 66.19C6.11721 66.9471 6.66623 67.5731 7.40772 67.7791L27.2657 73.2665C27.8688 73.4321 28.5154 73.2982 29.0006 72.9056L60.725 47.1815L38.5947 75.2192C38.3277 75.5555 38.1849 75.9711 38.1849 76.3981V101.579C38.1849 102.429 38.749 103.176 39.5712 103.413C39.7495 103.466 39.9305 103.489 40.1096 103.489C40.7553 103.489 41.3735 103.167 41.7327 102.605L55.5488 81.08L75.7465 86.6599C76.2769 86.8069 76.8463 86.7189 77.311 86.4213C77.7731 86.1228 78.0853 85.6422 78.1687 85.1016L87.9784 20.195C88.0893 19.4661 87.7673 18.738 87.1509 18.326Z" fill="url(#paint1_linear_4658_630412)"/>
<path d="M87.1509 18.326C86.5327 17.9131 85.7318 17.891 85.0932 18.2678L6.94207 64.2954C6.27863 64.6863 5.91498 65.432 6.01698 66.19C6.11721 66.9471 6.66623 67.5731 7.40772 67.7791L27.2657 73.2665C27.8688 73.4321 28.5154 73.2982 29.0006 72.9056L60.725 47.1815L38.5947 75.2192C38.3277 75.5555 38.1849 75.9711 38.1849 76.3981V101.579C38.1849 102.429 38.749 103.176 39.5712 103.413C39.7495 103.466 39.9305 103.489 40.1096 103.489C40.7553 103.489 41.3735 103.167 41.7327 102.605L55.5488 81.08L75.7465 86.6599C76.2769 86.8069 76.8463 86.7189 77.311 86.4213C77.7731 86.1228 78.0853 85.6422 78.1687 85.1016L87.9784 20.195C88.0893 19.4661 87.7673 18.738 87.1509 18.326Z" stroke="#5D54E6" stroke-width="8" mask="url(#path-2-outside-1_4658_630412)"/>
</g>
<defs>
<linearGradient id="paint0_linear_4658_630412" x1="-8.50992" y1="24.0872" x2="152.076" y2="197.992" gradientUnits="userSpaceOnUse">
<stop stop-color="white"/>
<stop offset="1" stop-color="white" stop-opacity="0"/>
</linearGradient>
<linearGradient id="paint1_linear_4658_630412" x1="87.1277" y1="17.1277" x2="-16.6809" y2="113.957" gradientUnits="userSpaceOnUse">
<stop stop-color="white"/>
<stop offset="1" stop-color="#BDB9F5"/>
</linearGradient>
<clipPath id="clip0_4658_630412">
<rect width="216" height="164" fill="white"/>
</clipPath>
</defs>
</svg>
