<svg width="17" viewBox="0 0 17 14" fill="#12151F" xmlns="http://www.w3.org/2000/svg">
    <path fill-rule="evenodd" clip-rule="evenodd" d="M6.70703 12.1828C6.70703 12.1827 6.70703 12.1828 6.70703 12.1828C6.70705 12.5891 6.8439 12.9839 7.09572 13.3037C7.09709 13.3055 7.09846 13.3072 7.09984 13.3089C7.72128 14.0925 8.86165 14.2301 9.65314 13.617C9.65488 13.6157 9.65663 13.6143 9.65837 13.613L16.3006 8.43017C16.4145 8.34128 16.5174 8.23922 16.6071 8.12615C16.6085 8.12441 16.6099 8.12268 16.6112 8.12094C17.2331 7.33105 17.094 6.18885 16.3006 5.56975L9.65837 0.386955C9.65663 0.385595 9.65488 0.384238 9.65314 0.382885C9.33276 0.134769 8.93839 0 8.53236 0L8.38265 0.00602378C7.44461 0.0818298 6.70708 0.863701 6.70703 1.81707C6.70703 1.81704 6.70703 1.8171 6.70703 1.81707L6.70669 3.60695L6.6045 3.62849C6.58129 3.63353 6.55812 3.63866 6.53499 3.64388C3.23627 4.38886 0.706431 7.0528 0.125975 10.3546C0.123589 10.3682 0.121235 10.3818 0.118914 10.3954C0.117343 10.4046 0.115787 10.4138 0.114246 10.423C0.0390678 10.8726 0 11.3339 0 11.8035C0 12.0941 0.0149108 12.384 0.0443708 12.6718C0.104067 13.2551 0.747384 13.5207 1.19695 13.25C1.2652 13.2089 1.32898 13.1555 1.38558 13.0889C1.3945 13.0784 1.40324 13.0676 1.41179 13.0564L1.59012 12.8326C1.90126 12.4564 2.24512 12.1128 2.61654 11.8051C2.62205 11.8005 2.62756 11.7959 2.63309 11.7914C2.64042 11.7853 2.64776 11.7793 2.65512 11.7733C3.35429 11.2015 4.14948 10.7557 5.00675 10.4576C5.4979 10.2868 6.00944 10.1644 6.53497 10.0946C6.59205 10.087 6.64929 10.08 6.70669 10.0737L6.70703 12.1828ZM7.23447 8.51277L7.45385 8.50793C7.88234 8.49848 8.23482 8.84166 8.23487 9.26833L8.23521 12.1826C8.23521 12.1826 8.23521 12.1826 8.23521 12.1826C8.23523 12.2465 8.25604 12.3089 8.29444 12.36C8.29577 12.3617 8.29712 12.3635 8.29849 12.3652C8.39972 12.4938 8.5865 12.5164 8.71566 12.4156L15.3579 7.23279C15.3596 7.23143 15.3614 7.23005 15.3631 7.22865C15.3799 7.21495 15.3951 7.19945 15.4085 7.18244C15.4098 7.1807 15.4112 7.17895 15.4125 7.17718C15.5077 7.05059 15.4859 6.87154 15.3631 6.77127C15.3614 6.76988 15.3596 6.7685 15.3579 6.76714L9.01429 1.81736L8.71566 1.58434C8.67972 1.55629 8.63799 1.53704 8.59383 1.52775C8.57374 1.52352 8.55314 1.52135 8.53236 1.52135C8.52321 1.52135 8.51415 1.52176 8.50521 1.52257C8.48415 1.52447 8.46372 1.52855 8.44416 1.5346C8.32314 1.572 8.23525 1.68433 8.23521 1.81717C8.23521 1.8172 8.23521 1.81714 8.23521 1.81717L8.23491 4.25313C8.23486 4.6376 7.94664 4.9616 7.56328 5.00812C7.37993 5.03037 7.19894 5.05975 7.02057 5.09597C6.98934 5.10231 6.9582 5.10886 6.92713 5.11562C6.92421 5.11625 6.9213 5.11689 6.91838 5.11753C5.1883 5.49627 3.71285 6.52012 2.74534 7.91443C2.23734 8.64652 1.86937 9.48073 1.6781 10.3773C1.66367 10.445 1.65025 10.513 1.63785 10.5813C1.63778 10.5816 1.63772 10.582 1.63766 10.5823C1.63544 10.5945 1.63326 10.6068 1.63111 10.619L1.62701 10.6467L1.66499 10.6143C1.7204 10.5687 1.77631 10.5238 1.83272 10.4796C2.46769 9.98165 3.16554 9.56859 3.90915 9.25133C4.73717 8.89806 5.62193 8.66357 6.53983 8.56293C6.66717 8.54897 6.79516 8.53758 6.92372 8.52881L7.23447 8.51277Z"/>
</svg>
