<svg width="24" height="24" viewBox="0 0 24 24" fill="#12151F" xmlns="http://www.w3.org/2000/svg">
<path stroke="none" fill-rule="evenodd" clip-rule="evenodd" d="M12.1114 3.85002C10.7702 3.85002 9.50778 4.18235 8.39749 4.76993C7.98257 4.98951 7.46821 4.83116 7.24862 4.41624C7.02904 4.00132 7.18739 3.48695 7.60231 3.26737C8.95104 2.5536 10.4857 2.15002 12.1114 2.15002C17.4998 2.15002 21.8499 6.57004 21.8499 12C21.8499 17.43 17.4998 21.85 12.1114 21.85C10.4857 21.85 8.95104 21.4465 7.60231 20.7327C7.18739 20.5131 7.02904 19.9987 7.24862 19.5838C7.46821 19.1689 7.98257 19.0105 8.39749 19.2301C9.50778 19.8177 10.7702 20.15 12.1114 20.15C16.541 20.15 20.1499 16.5112 20.1499 12C20.1499 7.48889 16.541 3.85002 12.1114 3.85002ZM11.4899 7.32002C11.8655 7.03836 12.3982 7.11447 12.6799 7.49002L15.6799 11.49C15.9066 11.7922 15.9066 12.2078 15.6799 12.51L12.6799 16.51C12.3982 16.8856 11.8655 16.9617 11.4899 16.68C11.1143 16.3984 11.0382 15.8656 11.3199 15.49L13.2999 12.85H2.9999C2.53046 12.85 2.1499 12.4695 2.1499 12C2.1499 11.5306 2.53046 11.15 2.9999 11.15H13.2999L11.3199 8.51002C11.0382 8.13447 11.1143 7.60169 11.4899 7.32002Z"/>
</svg>
