<svg width="14" height="16" viewBox="0 0 14 16" fill="none" xmlns="http://www.w3.org/2000/svg">
<path fill-rule="evenodd" clip-rule="evenodd" d="M3.50002 15.1C3.27167 15.1 3.05292 15.0081 2.89305 14.8451L0.392953 12.2951C0.0643028 11.9599 0.0696205 11.4217 0.40483 11.093C0.740039 10.7644 1.2782 10.7697 1.60685 11.1049L2.65 12.1689V1.74999C2.65 1.28055 3.03056 0.899994 3.5 0.899994C3.96944 0.899994 4.35 1.28055 4.35 1.74999V12.1688L5.39293 11.1049C5.72157 10.7697 6.25973 10.7644 6.59495 11.093C6.93017 11.4217 6.93551 11.9598 6.60688 12.295L4.10698 14.845C3.94712 15.0081 3.72837 15.1 3.50002 15.1Z" fill="#12151F"/>
<path fill-rule="evenodd" clip-rule="evenodd" d="M10.4998 0.899997C10.7281 0.899992 10.9469 0.991868 11.1068 1.15492L13.6069 3.70492C13.9355 4.04013 13.9302 4.5783 13.595 4.90695C13.2598 5.2356 12.7216 5.23028 12.393 4.89507L11.3498 3.8311V14.25C11.3498 14.7194 10.9692 15.1 10.4998 15.1C10.0304 15.1 9.6498 14.7194 9.6498 14.25V3.83122L8.60688 4.89505C8.27824 5.23027 7.74008 5.23561 7.40485 4.90697C7.06963 4.57833 7.06429 4.04017 7.39293 3.70495L9.89283 1.15495C10.0527 0.991885 10.2714 0.900001 10.4998 0.899997Z" fill="#12151F"/>
</svg>
