<svg width="108" height="108" viewBox="0 0 108 108" fill="none" xmlns="http://www.w3.org/2000/svg">
<g clip-path="url(#clip0_489_7825)">
<path d="M25.6028 58.1693C30.8669 37.6761 59.0291 16.7355 72.2404 30.5946C85.4518 44.4538 59.1545 55.694 86.3861 73.7828C113.618 91.8715 73.6706 110.071 53.1775 104.807C32.6843 99.5429 20.3387 78.6625 25.6028 58.1693Z" fill="url(#paint0_linear_489_7825)"/>
<ellipse cx="34.161" cy="52.5781" rx="27.715" ry="27.8892" fill="url(#paint1_linear_489_7825)"/>
<path opacity="0.4" d="M66.6338 89.0042C65.5572 88.9694 64.5335 88.5264 63.7677 87.7641L57.2044 80.0924C55.7972 78.8056 55.6822 76.6186 56.9464 75.1894C57.5382 74.5906 58.3428 74.2539 59.182 74.2539C60.0212 74.2539 60.8258 74.5906 61.4175 75.1894L69.6719 81.794C70.8609 83.011 71.2278 84.8176 70.6086 86.4064C69.9894 87.9952 68.4999 89.0692 66.8058 89.1484L66.6338 89.0042Z" fill="url(#paint2_linear_489_7825)"/>
<path fill-rule="evenodd" clip-rule="evenodd" d="M45.8092 40.5923C49.2354 43.2368 52.1525 47.1112 54.2474 51.9566C54.404 52.3244 54.404 52.7544 54.2474 53.1047C50.0577 62.7955 42.5984 68.5944 34.2973 68.5944H34.2777C25.9962 68.5944 18.5369 62.7955 14.3472 53.1047C14.1906 52.7544 14.1906 52.3244 14.3472 51.9566C18.5369 42.2638 25.9962 36.4863 34.2777 36.4863H34.2973C38.4479 36.4863 42.3831 37.9263 45.8092 40.5923ZM26.466 52.5404C26.466 56.8215 29.9705 60.3047 34.2973 60.3047C38.6045 60.3047 42.1089 56.8215 42.1089 52.5404C42.1089 48.2399 38.6045 44.7566 34.2973 44.7566C29.9705 44.7566 26.466 48.2399 26.466 52.5404Z" fill="white"/>
<path d="M39.1755 52.5343C39.1755 55.2002 36.9828 57.3797 34.3006 57.3797C31.5988 57.3797 29.4061 55.2002 29.4061 52.5343C29.4061 52.2035 29.4452 51.8941 29.504 51.5827H29.6018C31.775 51.5827 33.537 49.8703 33.6154 47.7278C33.8307 47.6908 34.0657 47.6694 34.3006 47.6694C36.9828 47.6694 39.1755 49.8489 39.1755 52.5343Z" fill="#3F37C9"/>
</g>
<defs>
<linearGradient id="paint0_linear_489_7825" x1="99.8174" y1="77.2328" x2="16.7019" y2="73.917" gradientUnits="userSpaceOnUse">
<stop stop-color="white" stop-opacity="0"/>
<stop offset="1" stop-color="#75FBDC"/>
</linearGradient>
<linearGradient id="paint1_linear_489_7825" x1="-7.06903" y1="51.9295" x2="61.8061" y2="44.265" gradientUnits="userSpaceOnUse">
<stop stop-color="#5D54E6" stop-opacity="0"/>
<stop offset="1" stop-color="#5D54E6"/>
</linearGradient>
<linearGradient id="paint2_linear_489_7825" x1="56.1892" y1="74.4322" x2="67.4874" y2="85.0267" gradientUnits="userSpaceOnUse">
<stop offset="0.322917" stop-color="#5D54E6" stop-opacity="0"/>
<stop offset="1" stop-color="#5D54E6"/>
</linearGradient>
<clipPath id="clip0_489_7825">
<rect width="108" height="108" fill="white"/>
</clipPath>
</defs>
</svg>
