<svg width="24" height="24" viewBox="0 0 24 24" fill="12151F" xmlns="http://www.w3.org/2000/svg">
<path fill-rule="evenodd" clip-rule="evenodd" d="M8.76176 8.64946C8.76176 6.85554 10.2115 5.40129 11.9999 5.40129C13.7883 5.40129 15.2381 6.85554 15.2381 8.64946C15.2381 10.4434 13.7883 11.8976 11.9999 11.8976C10.2115 11.8976 8.76176 10.4434 8.76176 8.64946ZM13.7253 8.64946C13.7253 7.69359 12.9528 6.91871 11.9999 6.91871C11.047 6.91871 10.2745 7.69359 10.2745 8.64946C10.2745 9.60532 11.047 10.3802 11.9999 10.3802C12.9528 10.3802 13.7253 9.60532 13.7253 8.64946Z" stroke="none"/>
<path fill-rule="evenodd" clip-rule="evenodd" d="M3.50463 8.24135C3.6551 3.65135 7.41977 -0.0156082 12.0288 4.99595e-05L12.284 0.00469042C16.8598 0.15567 20.5155 3.93192 20.4999 8.55264L20.4998 8.65498C20.4477 11.4112 19.0686 14.1252 16.7805 16.5473C15.655 17.7196 14.3986 18.7579 13.036 19.6415L12.9858 19.6828C12.3973 20.1057 11.6026 20.1057 11.014 19.6828L10.9537 19.6354L10.5403 19.3571C8.82311 18.1733 7.2938 16.7371 6.00692 15.1008L5.69028 14.6876C4.34207 12.9207 3.57661 10.7761 3.5 8.52625L3.50463 8.24135ZM18.9839 8.30911C18.87 4.54942 15.8022 1.53038 12.0237 1.51747L11.7835 1.52071C8.03532 1.63498 5.02559 4.71221 5.01275 8.49986L5.03184 8.85689C5.16175 10.6374 5.80718 12.3442 6.89636 13.7717C8.24857 15.583 9.90797 17.1416 11.7987 18.376L11.8809 18.438C11.9492 18.4974 12.0506 18.4974 12.119 18.438L12.2036 18.3745C13.4727 17.5526 14.6429 16.5862 15.6866 15.4991C17.7334 13.3324 18.9434 10.9514 18.9871 8.64061L18.9839 8.30911Z" stroke="none"/>
<path d="M3.42721 17.6068C3.76234 17.2781 3.76753 16.7399 3.4388 16.4048C3.11007 16.0697 2.5719 16.0645 2.23677 16.3932C1.5948 17.0229 1.1499 17.8083 1.1499 18.7143C1.1499 19.5935 1.56925 20.36 2.18077 20.9796C2.78868 21.5955 3.62619 22.1113 4.594 22.526C6.53265 23.3569 9.15162 23.85 11.9999 23.85C14.8482 23.85 17.4672 23.3569 19.4058 22.526C20.3736 22.1113 21.2111 21.5955 21.819 20.9796C22.4306 20.36 22.8499 19.5935 22.8499 18.7143C22.8499 17.8083 22.405 17.0229 21.763 16.3932C21.4279 16.0645 20.8897 16.0697 20.561 16.4048C20.2323 16.7399 20.2375 17.2781 20.5726 17.6068C21.001 18.0271 21.1499 18.4013 21.1499 18.7143C21.1499 19.0186 21.0096 19.3796 20.6091 19.7854C20.2049 20.1949 19.578 20.6027 18.7361 20.9635C17.0555 21.6838 14.6745 22.15 11.9999 22.15C9.32533 22.15 6.9443 21.6838 5.26367 20.9635C4.42184 20.6027 3.79488 20.1949 3.39074 19.7854C2.9902 19.3796 2.8499 19.0186 2.8499 18.7143C2.8499 18.4013 2.99879 18.0271 3.42721 17.6068Z" stroke="none"/>
</svg>
