<svg width="48" height="48" viewBox="0 0 48 48" fill="none" xmlns="http://www.w3.org/2000/svg">
<path fill-rule="evenodd" clip-rule="evenodd" d="M31.9382 11.1111H40.2C41.1941 11.1111 42 11.917 42 12.9111C42 13.9052 41.1941 14.7111 40.2 14.7111H39V36.111C39 40.5293 35.4182 44.111 31 44.111H17C12.5817 44.111 8.99997 40.5293 8.99997 36.111V14.7111H7.8C6.80589 14.7111 6 13.9052 6 12.9111C6 11.917 6.80589 11.1111 7.8 11.1111H16.0619C16.554 7.16479 19.9204 4.11108 24.0001 4.11108C28.0797 4.11108 31.4461 7.16479 31.9382 11.1111ZM28.4913 11.1111C28.0348 9.05142 26.1974 7.51109 24.0003 7.51109C21.8032 7.51109 19.9659 9.05142 19.5093 11.1111H28.4913ZM17 19.5111C17 18.7379 17.6268 18.1111 18.4 18.1111C19.1732 18.1111 19.8 18.7379 19.8 19.5111V34.7111C19.8 35.4843 19.1732 36.1111 18.4 36.1111C17.6268 36.1111 17 35.4843 17 34.7111V19.5111ZM22.5996 19.5111C22.5996 18.7379 23.2264 18.1111 23.9996 18.1111C24.7728 18.1111 25.3996 18.7379 25.3996 19.5111V34.7111C25.3996 35.4843 24.7728 36.1111 23.9996 36.1111C23.2264 36.1111 22.5996 35.4843 22.5996 34.7111V19.5111ZM29.6002 18.1111C28.827 18.1111 28.2002 18.7379 28.2002 19.5111V34.7111C28.2002 35.4843 28.827 36.1111 29.6002 36.1111C30.3734 36.1111 31.0002 35.4843 31.0002 34.7111V19.5111C31.0002 18.7379 30.3734 18.1111 29.6002 18.1111Z" fill="url(#paint0_linear_1211_188747)"/>
<defs>
<linearGradient id="paint0_linear_1211_188747" x1="-1.5" y1="50.5" x2="44.5" y2="20" gradientUnits="userSpaceOnUse">
<stop stop-color="#8F89EE"/>
<stop offset="1" stop-color="#5D54E6"/>
</linearGradient>
</defs>
</svg>
