<svg width="22" height="24" viewBox="0 5 20 15" fill="none" xmlns="http://www.w3.org/2000/svg">
<mask id="path-1-inside-1_3015_154457" fill="white">
<path d="M3.67615 10.297C6.16299 5.73777 7.40641 3.45816 9.22065 3.08291C9.75513 2.97236 10.3066 2.97236 10.8411 3.08291C12.6553 3.45816 13.8987 5.73777 16.3856 10.297C18.6959 14.5326 19.851 16.6504 19.2591 18.3307C19.084 18.8279 18.8123 19.2856 18.4597 19.6774C17.2679 21.0017 14.8556 21.0017 10.0309 21.0017C5.20614 21.0017 2.79378 21.0017 1.60204 19.6774C1.24942 19.2856 0.977734 18.8279 0.802593 18.3307C0.210662 16.6504 1.36582 14.5326 3.67615 10.297Z"/>
</mask>
<path d="M10.8411 3.08291L10.4967 4.74767L10.8411 3.08291ZM1.60204 19.6774L2.8657 18.5403L1.60204 19.6774ZM0.802593 18.3307L-0.800832 18.8956L0.802593 18.3307ZM18.4597 19.6774L19.7233 20.8146L18.4597 19.6774ZM19.2591 18.3307L17.6557 17.7659L19.2591 18.3307ZM17.878 9.48293C16.6566 7.24379 15.6672 5.42341 14.744 4.13221C13.8264 2.84887 12.7386 1.7394 11.1854 1.41815L10.4967 4.74767C10.7578 4.80167 11.1988 5.01964 11.9782 6.10971C12.752 7.19192 13.6276 8.79096 14.8931 11.111L17.878 9.48293ZM5.16857 11.111C6.43407 8.79096 7.30974 7.19192 8.08351 6.10972C8.86291 5.01964 9.30392 4.80167 9.56499 4.74767L8.87632 1.41815C7.32314 1.7394 6.23532 2.84887 5.31774 4.13221C4.39454 5.42342 3.40508 7.24379 2.18373 9.48293L5.16857 11.111ZM11.1854 1.41815C10.4238 1.26062 9.63795 1.26062 8.87632 1.41815L9.56499 4.74767C9.87231 4.68411 10.1894 4.68411 10.4967 4.74767L11.1854 1.41815ZM10.0309 19.3017C7.57282 19.3017 5.88776 19.2987 4.66021 19.1487C3.43475 18.9991 3.04477 18.7393 2.8657 18.5403L0.338373 20.8146C1.35104 21.9399 2.76311 22.3423 4.24795 22.5237C5.73069 22.7048 7.66416 22.7017 10.0309 22.7017V19.3017ZM2.18373 9.48293C1.05043 11.5606 0.121914 13.2566 -0.429092 14.645C-0.980875 16.0354 -1.30382 17.4677 -0.800832 18.8956L2.40602 17.7659C2.31707 17.5134 2.27574 17.0467 2.73114 15.8992C3.18732 14.7497 3.99154 13.2689 5.16857 11.111L2.18373 9.48293ZM2.8657 18.5403C2.66294 18.315 2.50672 18.0518 2.40602 17.7659L-0.800832 18.8956C-0.551256 19.6041 -0.164101 20.2562 0.338373 20.8146L2.8657 18.5403ZM10.0309 22.7017C12.3975 22.7017 14.331 22.7048 15.8138 22.5237C17.2986 22.3423 18.7107 21.9399 19.7233 20.8146L17.196 18.5403C17.0169 18.7393 16.627 18.9991 15.4015 19.1487C14.1739 19.2987 12.4889 19.3017 10.0309 19.3017V22.7017ZM14.8931 11.111C16.0702 13.2689 16.8744 14.7497 17.3306 15.8992C17.786 17.0467 17.7446 17.5134 17.6557 17.7659L20.8625 18.8956C21.3655 17.4677 21.0426 16.0354 20.4908 14.645C19.9398 13.2566 19.0113 11.5606 17.878 9.48293L14.8931 11.111ZM19.7233 20.8146C20.2258 20.2562 20.613 19.6041 20.8625 18.8956L17.6557 17.7659C17.555 18.0518 17.3988 18.315 17.196 18.5403L19.7233 20.8146Z" fill="#F58648" mask="url(#path-1-inside-1_3015_154457)"/>
<path d="M10.031 8.3999L10.031 12.5999" stroke="#F58648" stroke-width="1.7" stroke-linecap="round"/>
<path d="M10.031 15.5996L10.031 16.0996" stroke="#F58648" stroke-width="1.7" stroke-linecap="round"/>
</svg>
