<svg width="22" height="20" viewBox="0 0 22 20" fill="none" xmlns="http://www.w3.org/2000/svg">
<path fill-rule="evenodd" clip-rule="evenodd" d="M12.875 5.3C12.1253 5.3 11.5041 5.51271 11 5.82191C10.4959 5.51271 9.87467 5.3 9.125 5.3C6.88957 5.3 5.3 7.13037 5.3 9.26213C5.3 10.4998 5.83569 11.4644 6.49878 12.2438C7.09029 12.939 7.89377 13.6099 8.6788 14.2654L8.79144 14.3594C9.41454 14.8796 9.59563 15.0352 9.74263 15.1615C9.79339 15.2052 9.84027 15.2455 9.89991 15.2961L11 16.2298L12.1001 15.2961C12.1461 15.257 12.1859 15.2228 12.2313 15.1838C12.3747 15.0605 12.5745 14.8888 13.208 14.3599L13.3212 14.2654C14.1062 13.6099 14.9097 12.9391 15.5012 12.2438C16.1643 11.4644 16.7 10.4998 16.7 9.26213C16.7 7.1304 15.1104 5.3 12.875 5.3ZM10.8512 13.8727C10.9005 13.915 10.9451 13.9534 11 14C11.0418 13.9645 11.0793 13.9323 11.1229 13.8948C11.2657 13.772 11.4745 13.5926 12.1185 13.0549L12.1668 13.0146C13.8658 11.5951 15 10.6475 15 9.26213C15 7.97243 14.0775 7 12.875 7C12.6627 7 12.4675 7.03285 12.2887 7.09044C11.6692 7.28995 11.2472 7.7864 11 8.24283C10.7528 7.7864 10.3308 7.28995 9.71133 7.09044C9.53252 7.03285 9.33726 7 9.125 7C7.92245 7 7 7.97241 7 9.26213C7 10.6475 8.13419 11.5951 9.83323 13.0146L9.88145 13.0549C10.5147 13.5835 10.7039 13.7461 10.8512 13.8727Z" fill="#12151F"/>
<path fill-rule="evenodd" clip-rule="evenodd" d="M19.4155 16.4443C21.0875 14.6428 22 12.3842 22 9.99997C22 4.48566 17.0651 0 11 0C4.93496 0 0 4.48566 0 9.99997C0 15.5142 4.93496 19.9999 11 20H21.421C21.6676 20 21.8888 19.8071 21.9687 19.5186C22.0486 19.23 21.9722 18.91 21.7777 18.7229L19.4155 16.4443ZM17.0351 16.51L18.1695 15.2878C19.5631 13.7863 20.3 11.936 20.3 9.99997C20.3 5.57346 16.2823 1.7 11 1.7C5.71766 1.7 1.7 5.57347 1.7 9.99997C1.7 14.4264 5.71768 18.2999 11 18.3H18.8907L17.0351 16.51Z" fill="#12151F"/>
</svg>
