<svg width="28" height="25" viewBox="0 0 28 25" fill="none" xmlns="http://www.w3.org/2000/svg">
<path fill-rule="evenodd" clip-rule="evenodd" d="M16.8724 22.262C16.1847 22.8232 15.5184 23.3669 14.8943 23.8943C14.3792 24.3296 13.6208 24.3296 13.1057 23.8943C12.4816 23.3669 11.8154 22.8232 11.1277 22.262C7.55473 19.346 3.40346 15.958 1.59179 11.9437C1.00767 10.6506 0.666687 9.29144 0.666687 7.86009C0.666687 3.83175 3.89335 0.666626 8.00002 0.666626C9.59725 0.666626 11.1502 1.13708 12.4371 1.97649C13.0193 2.35627 13.5474 2.81191 14 3.33329C14.4527 2.81191 14.9802 2.35663 15.5624 1.97685C16.8492 1.13744 18.4028 0.666626 20 0.666626C24.1067 0.666626 27.3334 3.83175 27.3334 7.86009C27.3334 9.29151 26.9923 10.6508 26.4082 11.944C24.5965 15.958 20.4451 19.3461 16.8724 22.262Z" fill="white"/>
</svg>
