<svg width="40" height="48" viewBox="0 0 40 48" fill="none" xmlns="http://www.w3.org/2000/svg">
<path d="M0 20C0 8.95431 8.95431 0 20 0C31.0457 0 40 8.9543 40 20V48H0V20Z" fill="white"/>
<path fill-rule="evenodd" clip-rule="evenodd" d="M19.85 33C19.3806 33 19 32.6194 19 32.15V15.85C19 15.3806 19.3806 15 19.85 15C20.3194 15 20.7 15.3806 20.7 15.85V32.15C20.7 32.6194 20.3194 33 19.85 33Z" fill="#12151F"/>
<path fill-rule="evenodd" clip-rule="evenodd" d="M29 24.15C29 24.6194 28.6194 25 28.15 25L11.85 25C11.3806 25 11 24.6194 11 24.15C11 23.6806 11.3806 23.3 11.85 23.3L28.15 23.3C28.6194 23.3 29 23.6806 29 24.15Z" fill="#12151F"/>
</svg>
