<svg width="148" height="148" viewBox="0 0 148 148" fill="none" xmlns="http://www.w3.org/2000/svg">
<path d="M128.666 80.4782C115.665 102.997 100.821 78.2313 64.2782 97.6683C27.7357 117.105 36.4401 51.5525 46.9714 33.3118C57.5026 15.0711 86.2774 1.64086 111.359 16.1218C136.441 30.6027 141.667 57.9598 128.666 80.4782Z" fill="url(#paint0_linear_4292_76670)"/>
<path d="M57.701 30.0862C83.703 30.0862 69.6777 55.3244 104.782 77.2527C139.886 99.1809 78.7635 124.419 57.701 124.419C36.6385 124.419 10.6201 106.214 10.6201 77.2527C10.6201 48.2909 31.6989 30.0862 57.701 30.0862Z" fill="url(#paint1_linear_4292_76670)"/>
<path fill-rule="evenodd" clip-rule="evenodd" d="M90.1224 53.8769C90.1224 63.7344 82.2216 71.6386 72.3607 71.6386C62.5032 71.6386 54.5991 63.7344 54.5991 53.8769C54.5991 44.0194 62.5032 36.1152 72.3607 36.1152C82.2216 36.1152 90.1224 44.0194 90.1224 53.8769ZM44.1504 89.3865C44.1504 79.6157 57.3841 77.173 72.8773 77.173C88.4566 77.173 101.604 79.7019 101.604 89.4763C101.604 99.2507 88.3704 101.69 72.8773 101.69C57.3015 101.69 44.1504 99.1609 44.1504 89.3865Z" fill="url(#paint2_linear_4292_76670)"/>
<circle cx="123.848" cy="105.077" r="18" fill="url(#paint3_linear_4292_76670)"/>
<path d="M122.348 111.077C122.348 111.906 123.019 112.577 123.848 112.577C124.676 112.577 125.348 111.906 125.348 111.077H122.348ZM125.348 99.0771C125.348 98.2487 124.676 97.5771 123.848 97.5771C123.019 97.5771 122.348 98.2487 122.348 99.0771H125.348ZM125.348 111.077V99.0771H122.348V111.077H125.348Z" fill="white"/>
<path d="M129.848 106.577C130.676 106.577 131.348 105.906 131.348 105.077C131.348 104.249 130.676 103.577 129.848 103.577V106.577ZM117.848 103.577C117.019 103.577 116.348 104.249 116.348 105.077C116.348 105.906 117.019 106.577 117.848 106.577V103.577ZM129.848 103.577H117.848V106.577H129.848V103.577Z" fill="white"/>
<defs>
<linearGradient id="paint0_linear_4292_76670" x1="47.1693" y1="94.5008" x2="122.842" y2="12.5146" gradientUnits="userSpaceOnUse">
<stop offset="0.0138835" stop-color="white" stop-opacity="0"/>
<stop offset="1" stop-color="#75FBDC"/>
</linearGradient>
<linearGradient id="paint1_linear_4292_76670" x1="110.593" y1="93.6531" x2="1.75496" y2="69.1122" gradientUnits="userSpaceOnUse">
<stop offset="0.0138835" stop-color="white" stop-opacity="0"/>
<stop offset="1" stop-color="#75FBDC"/>
</linearGradient>
<linearGradient id="paint2_linear_4292_76670" x1="10.6166" y1="86.7146" x2="93.0891" y2="74.6013" gradientUnits="userSpaceOnUse">
<stop stop-color="#5D54E6" stop-opacity="0"/>
<stop offset="1" stop-color="#5D54E6"/>
</linearGradient>
<linearGradient id="paint3_linear_4292_76670" x1="78.8477" y1="118.077" x2="141.8" y2="99.6562" gradientUnits="userSpaceOnUse">
<stop stop-color="#5D54E6" stop-opacity="0"/>
<stop offset="1" stop-color="#5D54E6"/>
</linearGradient>
</defs>
</svg>
