<svg width="148" height="148" viewBox="0 0 148 148" fill="none" xmlns="http://www.w3.org/2000/svg">
<rect x="18" y="7" width="102" height="127" rx="12" fill="url(#paint0_radial_749_10707)"/>
<path d="M89 40.2629L88.9845 62.53C88.9844 62.6571 88.9843 62.8084 88.9842 62.9773C88.9832 65.1948 87.1798 66.9878 84.9622 66.9849C84.8095 66.9847 84.6722 66.9846 84.5556 66.9848H77.1484C76.3626 66.9848 75.6089 66.6708 75.0533 66.1119C74.4976 65.5531 74.1855 64.7951 74.1855 64.0047V55.8097C74.1855 55.4145 74.0294 55.0355 73.7516 54.7561C73.4738 54.4766 73.0969 54.3196 72.704 54.3196H65.2968C64.9039 54.3196 64.5271 54.4766 64.2492 54.7561C63.9714 55.0355 63.8153 55.4145 63.8153 55.8097V64.0047C63.8153 64.7951 63.5032 65.5531 62.9475 66.1119C62.3919 66.6708 61.6382 66.9848 60.8524 66.9848H53.4452C53.3199 66.9846 53.171 66.9845 53.0049 66.9845C50.7943 66.9834 49.0018 65.1904 49.0011 62.9798C49.001 62.8038 49.0009 62.6463 49.0008 62.5147V40.2629C49.0019 39.7483 49.1349 39.2427 49.3868 38.7948C49.6388 38.3469 50.0013 37.9719 50.4393 37.706L67.476 27.4249C67.9366 27.1469 68.4636 27 69.0008 27C69.5379 27 70.065 27.1469 70.5256 27.4249L87.5622 37.706C88.0001 37.972 88.3625 38.3471 88.6143 38.7949C88.8661 39.2428 88.999 39.7483 89 40.2629Z" fill="white"/>
<ellipse cx="121" cy="119.5" rx="25" ry="25.5" fill="url(#paint1_linear_749_10707)"/>
<path d="M112.33 119.87C111.506 119.135 110.242 119.208 109.507 120.033C108.772 120.857 108.845 122.121 109.67 122.856L112.33 119.87ZM132.627 114.162C133.269 113.264 133.061 112.015 132.162 111.373C131.264 110.731 130.015 110.939 129.373 111.838L132.627 114.162ZM120.219 128.094L121.846 129.256L120.219 128.094ZM109.67 122.856L117.409 129.752L120.07 126.766L112.33 119.87L109.67 122.856ZM121.846 129.256L132.627 114.162L129.373 111.838L118.591 126.931L121.846 129.256ZM117.409 129.752C118.742 130.939 120.809 130.708 121.846 129.256L118.591 126.931C118.937 126.447 119.626 126.37 120.07 126.766L117.409 129.752Z" fill="white"/>
<rect x="39" y="83" width="60" height="4" rx="2" fill="white"/>
<rect x="39" y="95" width="60" height="4" rx="2" fill="white"/>
<rect x="39" y="107" width="45" height="4" rx="2" fill="white"/>
<defs>
<radialGradient id="paint0_radial_749_10707" cx="0" cy="0" r="1" gradientUnits="userSpaceOnUse" gradientTransform="translate(137.708 141.056) rotate(-130.943) scale(171.867 150.279)">
<stop offset="0.0812031" stop-color="#75FBDC" stop-opacity="0"/>
<stop offset="1" stop-color="#75FBDC"/>
</radialGradient>
<linearGradient id="paint1_linear_749_10707" x1="83.809" y1="118.907" x2="145.957" y2="112.084" gradientUnits="userSpaceOnUse">
<stop stop-color="#5D54E6" stop-opacity="0"/>
<stop offset="1" stop-color="#5D54E6"/>
</linearGradient>
</defs>
</svg>
