<svg width="148" height="148" viewBox="0 0 148 148" fill="none" xmlns="http://www.w3.org/2000/svg">
<circle cx="74.1546" cy="73.9999" r="54.3929" fill="url(#paint0_linear_4332_81417)"/>
<path d="M82.0005 73.0037L81.971 115.241C81.97 116.239 81.9699 118.023 81.9701 119.698C81.9703 121.916 80.1671 123.711 77.9496 123.702C76.3007 123.695 74.5524 123.69 73.5733 123.691H59.528C58.038 123.691 56.609 123.095 55.5554 122.035C54.5018 120.975 53.9098 119.537 53.9098 118.038V105.596C53.9098 104.846 53.6139 104.127 53.0871 103.597C52.5603 103.067 51.8458 102.769 51.1008 102.769H37.0555C36.3105 102.769 35.596 103.067 35.0692 103.597C34.5424 104.127 34.2464 104.846 34.2464 105.596V118.038C34.2464 119.537 33.6545 120.975 32.6009 122.035C31.5473 123.095 30.1183 123.691 28.6283 123.691H14.583C13.5918 123.69 11.8212 123.69 10.1579 123.69C7.94723 123.69 6.15541 121.898 6.1561 119.687C6.15662 118.007 6.15682 116.214 6.15582 115.212V73.0037C6.15792 72.0276 6.41002 71.0685 6.88779 70.219C7.36556 69.3695 8.05287 68.6582 8.88342 68.1537L41.1876 48.6522C42.0609 48.1248 43.0603 47.8462 44.0788 47.8462C45.0974 47.8462 46.0968 48.1248 46.9701 48.6522L79.2743 68.1537C80.1045 68.6584 80.7916 69.3697 81.2691 70.2192C81.7466 71.0688 81.9985 72.0277 82.0005 73.0037Z" fill="url(#paint1_linear_4332_81417)"/>
<path d="M95.7318 64.5083L95.7054 102.362C95.7046 103.179 95.7044 104.581 95.7045 105.96C95.7047 108.17 93.9137 109.961 91.704 109.961H86.9241C86.3718 109.961 85.9241 109.514 85.9241 108.961V70.9006C85.9241 69.169 85.0282 67.5607 83.5558 66.6492L53.2915 47.9144C52.6557 47.5208 52.661 46.5942 53.3011 46.2079L59.141 42.6838C59.924 42.2111 60.82 41.9614 61.7331 41.9614C62.6463 41.9614 63.5423 42.2111 64.3253 42.6838L93.2876 60.1616C94.032 60.6139 94.648 61.2514 95.0761 62.0128C95.5042 62.7741 95.73 63.6336 95.7318 64.5083Z" fill="url(#paint2_linear_4332_81417)"/>
<circle cx="123.848" cy="105.077" r="18" fill="url(#paint3_linear_4332_81417)"/>
<path d="M122.348 111.077C122.348 111.905 123.019 112.577 123.848 112.577C124.676 112.577 125.348 111.905 125.348 111.077H122.348ZM125.348 99.0767C125.348 98.2482 124.676 97.5767 123.848 97.5767C123.019 97.5767 122.348 98.2482 122.348 99.0767H125.348ZM125.348 111.077V99.0767H122.348V111.077H125.348Z" fill="white"/>
<path d="M129.848 106.577C130.676 106.577 131.348 105.905 131.348 105.077C131.348 104.248 130.676 103.577 129.848 103.577V106.577ZM117.848 103.577C117.019 103.577 116.348 104.248 116.348 105.077C116.348 105.905 117.019 106.577 117.848 106.577V103.577ZM129.848 103.577H117.848V106.577H129.848V103.577Z" fill="white"/>
<defs>
<linearGradient id="paint0_linear_4332_81417" x1="63.1806" y1="117.419" x2="81.7887" y2="19.6069" gradientUnits="userSpaceOnUse">
<stop offset="0.0138835" stop-color="white" stop-opacity="0"/>
<stop offset="1" stop-color="#75FBDC"/>
</linearGradient>
<linearGradient id="paint1_linear_4332_81417" x1="-25.7011" y1="94.1124" x2="81.8948" y2="74.3581" gradientUnits="userSpaceOnUse">
<stop stop-color="#5D54E6" stop-opacity="0"/>
<stop offset="1" stop-color="#5D54E6"/>
</linearGradient>
<linearGradient id="paint2_linear_4332_81417" x1="-0.828217" y1="83.4265" x2="95.6348" y2="65.7098" gradientUnits="userSpaceOnUse">
<stop stop-color="#5D54E6" stop-opacity="0"/>
<stop offset="1" stop-color="#5D54E6"/>
</linearGradient>
<linearGradient id="paint3_linear_4332_81417" x1="78.8477" y1="118.077" x2="141.8" y2="99.6557" gradientUnits="userSpaceOnUse">
<stop stop-color="#5D54E6" stop-opacity="0"/>
<stop offset="1" stop-color="#5D54E6"/>
</linearGradient>
</defs>
</svg>
