<svg width="108" height="108" viewBox="0 0 108 108" fill="none" xmlns="http://www.w3.org/2000/svg">
<g clip-path="url(#clip0_1392_95)">
<path d="M79.0625 52.8651C76.7249 50.1353 75.6627 47.7698 75.6627 43.7509V42.3844C75.6627 37.1473 74.4573 33.773 71.8367 30.3987C67.7976 25.1584 60.998 22 54.3415 22H54.0585C47.5419 22 40.9554 25.0133 36.8464 30.041C34.0827 33.483 32.7374 37.0023 32.7374 42.3844V43.7509C32.7374 47.7698 31.7451 50.1353 29.3376 52.8651C27.5661 54.8761 27 57.4608 27 60.2583C27 63.0589 27.9191 65.7113 29.7637 67.8674C32.1713 70.4521 35.5711 72.1022 39.044 72.389C44.0722 72.9627 49.1003 73.1786 54.2016 73.1786C59.2997 73.1786 64.3279 72.8176 69.3592 72.389C72.829 72.1022 76.2288 70.4521 78.6363 67.8674C80.4777 65.7113 81.4 63.0589 81.4 60.2583C81.4 57.4608 80.8339 54.8761 79.0625 52.8651Z" fill="url(#paint0_linear_1392_95)"/>
<path d="M60.6257 77.1307C59.026 76.789 49.2782 76.789 47.6785 77.1307C46.3109 77.4465 44.832 78.1813 44.832 79.7927C44.9115 81.33 45.8116 82.6868 47.0583 83.5473L47.0551 83.5505C48.6675 84.8074 50.5599 85.6067 52.5412 85.8935C53.5971 86.0386 54.6721 86.0321 55.7661 85.8935C57.7443 85.6067 59.6366 84.8074 61.249 83.5505L61.2459 83.5473C62.4926 82.6868 63.3926 81.33 63.4721 79.7927C63.4721 78.1813 61.9932 77.4465 60.6257 77.1307Z" fill="url(#paint1_linear_1392_95)"/>
</g>
<defs>
<linearGradient id="paint0_linear_1392_95" x1="91.9205" y1="98.8567" x2="39.1641" y2="26.8756" gradientUnits="userSpaceOnUse">
<stop stop-color="white" stop-opacity="0"/>
<stop offset="1" stop-color="#75FBDC"/>
</linearGradient>
<linearGradient id="paint1_linear_1392_95" x1="40.2872" y1="81.3311" x2="70.5351" y2="71.5777" gradientUnits="userSpaceOnUse">
<stop offset="0.0104167" stop-color="#5D54E6"/>
<stop offset="1" stop-color="#5D54E6" stop-opacity="0"/>
</linearGradient>
<clipPath id="clip0_1392_95">
<rect width="108" height="108" fill="white"/>
</clipPath>
</defs>
</svg>
