<svg width="148" height="148" viewBox="0 0 148 148" fill="none" xmlns="http://www.w3.org/2000/svg">
<path d="M115.799 103.542C98.514 126.824 51.9302 138.818 42.3306 114.389C32.731 89.9597 71.9283 89.311 46.7199 52.2548C21.5115 15.1987 81.6365 12.7855 104.927 30.077C128.217 47.3685 133.085 80.2599 115.799 103.542Z" fill="url(#paint0_linear_872_69)"/>
<path d="M27.4549 48.2744C14.9338 48.2744 5.86084 58.4771 5.86084 69.7991C5.86084 73.4153 6.91684 77.139 8.77022 80.5399C9.11503 81.0996 9.15813 81.8099 8.92107 82.4771L7.47716 87.2987C7.1539 88.461 8.14524 89.322 9.24434 88.9776L13.5976 87.6861C14.7829 87.2987 15.7096 87.7937 16.8109 88.461C19.9573 90.3121 23.8774 91.2592 27.4118 91.2592C38.101 91.2592 48.9627 83.0153 48.9627 69.7345C48.9627 58.2834 39.6958 48.2744 27.4549 48.2744" fill="url(#paint1_linear_872_69)"/>
<path fill-rule="evenodd" clip-rule="evenodd" d="M27.3699 72.5762C25.8398 72.5546 24.6114 71.3277 24.6114 69.7995C24.6114 68.2927 25.8613 67.0443 27.3699 67.0658C28.9 67.0658 30.1284 68.2927 30.1284 69.821C30.1284 71.3277 28.9 72.5762 27.3699 72.5762ZM17.4338 72.5774C15.9252 72.5774 14.6753 71.3289 14.6753 69.8222C14.6753 68.294 15.9037 67.067 17.4338 67.067C18.9639 67.067 20.1923 68.294 20.1923 69.8222C20.1923 71.3289 18.9639 72.5558 17.4338 72.5774ZM34.5455 69.8212C34.5455 71.3279 35.7739 72.5764 37.304 72.5764C38.8341 72.5764 40.0625 71.3279 40.0625 69.8212C40.0625 68.2929 38.8341 67.066 37.304 67.066C35.7739 67.066 34.5455 68.2929 34.5455 69.8212Z" fill="white"/>
<path d="M135.186 47.8627C132.325 46.0975 129.665 44.0162 127.255 41.6567C125.554 39.9721 124.255 37.9151 123.457 35.6429C122.031 31.2116 123.691 26.1474 128.325 24.6439C130.77 23.8768 133.43 24.3477 135.476 25.91V25.91C137.522 24.3494 140.181 23.8787 142.627 24.6439C147.261 26.1474 148.931 31.2116 147.506 35.6429C146.714 37.9129 145.423 39.9697 143.73 41.6567C141.318 44.0136 138.658 46.0947 135.799 47.8627L135.487 48.0662L135.186 47.8627Z" fill="url(#paint2_linear_872_69)"/>
<path d="M116.286 80.1012L120.465 88.4875C120.772 89.0951 121.36 89.517 122.038 89.6108L131.423 90.976C131.971 91.0529 132.468 91.3417 132.804 91.7824C133.136 92.2174 133.279 92.7688 133.198 93.3107C133.133 93.7608 132.921 94.1771 132.596 94.4959L125.795 101.08C125.298 101.539 125.073 102.22 125.193 102.886L126.867 112.142C127.045 113.26 126.304 114.314 125.193 114.526C124.735 114.599 124.266 114.522 123.853 114.312L115.481 109.956C114.86 109.643 114.126 109.643 113.505 109.956L105.133 114.312C104.104 114.858 102.83 114.487 102.257 113.474C102.045 113.071 101.97 112.611 102.04 112.163L103.714 102.905C103.834 102.241 103.607 101.556 103.112 101.097L96.3111 94.5165C95.5021 93.7364 95.4777 92.4518 96.2566 91.6436C96.2735 91.6267 96.2923 91.608 96.3111 91.5892C96.6339 91.261 97.0581 91.0529 97.5161 90.9985L106.901 89.6314C107.577 89.5358 108.164 89.1176 108.474 88.5062L112.502 80.1012C112.861 79.3811 113.604 78.9329 114.411 78.9516H114.663C115.363 79.036 115.973 79.4692 116.286 80.1012" fill="url(#paint3_linear_872_69)"/>
<defs>
<linearGradient id="paint0_linear_872_69" x1="31.4552" y1="40.9219" x2="115.799" y2="103.542" gradientUnits="userSpaceOnUse">
<stop stop-color="#75FBDC"/>
<stop offset="1" stop-color="white" stop-opacity="0"/>
</linearGradient>
<linearGradient id="paint1_linear_872_69" x1="-4.64825" y1="69.267" x2="48.8964" y2="63.2547" gradientUnits="userSpaceOnUse">
<stop stop-color="#5D54E6" stop-opacity="0"/>
<stop offset="1" stop-color="#5D54E6"/>
</linearGradient>
<linearGradient id="paint2_linear_872_69" x1="119.512" y1="35.904" x2="147.922" y2="32.2644" gradientUnits="userSpaceOnUse">
<stop stop-color="#5D54E6" stop-opacity="0"/>
<stop offset="0.860128" stop-color="#473ED0"/>
</linearGradient>
<linearGradient id="paint3_linear_872_69" x1="90.5174" y1="96.3521" x2="133.102" y2="90.8907" gradientUnits="userSpaceOnUse">
<stop stop-color="#5D54E6" stop-opacity="0"/>
<stop offset="0.860128" stop-color="#473ED0"/>
</linearGradient>
</defs>
</svg>
