<svg width="108" height="108" viewBox="0 0 108 108" fill="none" xmlns="http://www.w3.org/2000/svg">
<g clip-path="url(#clip0_860_178211)">
<path d="M11.3641 64.2472C11.4421 64.9512 11.5377 65.6557 11.6518 66.3601C11.7662 67.0649 11.8983 67.7696 12.0493 68.4743C12.3513 69.8828 12.7276 71.2897 13.1809 72.6906C13.6341 74.0915 14.1533 75.4526 14.734 76.7722C15.0244 77.432 15.3299 78.0815 15.6506 78.7201C15.9708 79.3586 16.3065 79.9868 16.6558 80.6034C17.0052 81.22 17.3693 81.8261 17.7464 82.4205C18.5015 83.6096 19.3108 84.7539 20.1707 85.8504C20.6005 86.3985 21.0432 86.9352 21.4975 87.4592C21.9516 87.9833 22.4183 88.4955 22.8959 88.9954C23.1347 89.2451 23.3768 89.4919 23.6214 89.7356C24.1102 90.2226 24.6104 90.6972 25.1214 91.1588C26.6539 92.5437 28.2815 93.8128 29.9889 94.9585C30.8426 95.5311 31.716 96.0729 32.6078 96.583C33.2024 96.9231 33.8046 97.2488 34.4148 97.5598C35.0247 97.8714 35.6422 98.1681 36.2665 98.4502C39.0759 99.7196 42.0249 100.69 45.0624 101.336C45.7373 101.479 46.4167 101.607 47.0999 101.718C48.4662 101.94 49.8474 102.097 51.2396 102.186C51.9356 102.231 52.6345 102.258 53.3353 102.269C57.8903 102.337 62.5341 101.678 67.1113 100.213C70.2319 99.2149 73.1567 97.8929 75.8632 96.299C77.1265 95.5548 78.3429 94.7524 79.508 93.8941C80.0713 93.4794 80.6222 93.0516 81.1619 92.6117C82.2406 91.7322 83.2707 90.8035 84.2502 89.8303C84.7402 89.3441 85.2173 88.8465 85.6813 88.3387C87.7705 86.0527 89.597 83.5535 91.135 80.8934C91.477 80.3019 91.8043 79.7026 92.1172 79.0961C92.4301 78.4897 92.7289 77.8754 93.0125 77.2546C93.4379 76.3234 93.83 75.3765 94.1874 74.4161C94.7535 72.8966 95.2308 71.3432 95.6211 69.7639C95.7243 69.3463 95.8233 68.9276 95.9137 68.5061C96.0584 67.835 96.1865 67.1594 96.298 66.48C96.3537 66.1402 96.4052 65.7998 96.453 65.4583C96.5487 64.7753 96.6269 64.0888 96.6885 63.3993C96.7501 62.7099 96.7954 62.0174 96.8228 61.3226C96.8783 59.9332 96.865 58.5344 96.7813 57.1306C96.7392 56.4285 96.6798 55.7254 96.6019 55.0219C96.5238 54.3179 96.4283 53.6133 96.3142 52.9088C96.1997 52.2042 96.0675 51.4993 95.9166 50.7947C95.6147 49.3862 95.2385 47.9793 94.7853 46.5783C94.3321 45.1775 93.8127 43.8163 93.2321 42.4969C92.9414 41.837 92.636 41.1877 92.3154 40.5489C91.9951 39.9104 91.6595 39.2822 91.3101 38.6656C90.9608 38.049 90.5966 37.4428 90.2195 36.8485C89.4644 35.6596 88.6549 34.5154 87.7951 33.4188C87.5804 33.1446 87.362 32.8735 87.141 32.605C86.4775 31.8006 85.7865 31.0232 85.0696 30.2736C84.8308 30.0239 84.5888 29.7772 84.3442 29.5335C83.8553 29.0464 83.355 28.5719 82.844 28.1104C81.3115 26.7253 79.6841 25.4564 77.9767 24.3107C77.1229 23.7381 76.2495 23.1962 75.3576 22.6862C74.7632 22.3463 74.1608 22.0204 73.5508 21.7093C72.941 21.3977 72.3233 21.101 71.6991 20.8191C70.4897 20.2726 69.2541 19.7829 67.9972 19.3495C66.334 18.776 64.6329 18.3016 62.9031 17.9337C62.2282 17.7905 61.5487 17.6627 60.8658 17.5517C60.555 17.5012 60.2434 17.4549 59.9316 17.4115C59.5573 17.3593 59.1817 17.3104 58.8055 17.268C58.6479 17.2504 58.49 17.2363 58.3326 17.2201C57.7986 17.1655 57.2638 17.1182 56.7261 17.0839C56.7189 17.0832 56.7112 17.0833 56.7035 17.0825C56.131 17.0464 55.5559 17.024 54.9798 17.0105C54.8635 17.008 54.747 17.0027 54.6304 17.0012C53.2905 16.9812 51.9433 17.0257 50.5924 17.1339C50.1701 17.1675 49.7476 17.2059 49.3249 17.2521C49.0203 17.2854 48.7156 17.3235 48.4109 17.3635C46.1392 17.6622 43.8636 18.1481 41.6015 18.8278C41.3519 18.9027 41.1031 18.977 40.8538 19.0568C40.431 19.1921 40.0126 19.3355 39.5969 19.4825C35.5135 20.927 31.7794 22.929 28.4572 25.3766C27.8942 25.7915 27.3427 26.2193 26.8034 26.6591C26.6365 26.7953 26.4734 26.9342 26.3088 27.0726C25.9411 27.3818 25.5777 27.6945 25.2217 28.0147C24.7069 28.4789 24.2046 28.9537 23.7149 29.4404C23.2249 29.9266 22.7479 30.4242 22.2837 30.9322C20.4163 32.9761 18.7589 35.1899 17.3291 37.5373C17.1597 37.8156 16.9929 38.095 16.8299 38.3772C16.488 38.9684 16.1604 39.5679 15.8476 40.1743C15.5349 40.7807 15.236 41.3949 14.9525 42.0159C14.527 42.9471 14.1351 43.8939 13.7775 44.8544C13.0619 46.7749 12.484 48.7502 12.0511 50.764C11.9066 51.4352 11.7785 52.1109 11.667 52.7901C11.6112 53.1299 11.5596 53.4706 11.5118 53.812C11.369 54.8367 11.2637 55.8689 11.1961 56.9073C11.1738 57.2536 11.1555 57.6003 11.1416 57.9476C11.086 59.3371 11.0995 60.7359 11.1832 62.1398C11.2266 62.8401 11.2863 63.5437 11.3641 64.2472ZM34.8422 24.056C34.9656 24.1651 35.0826 24.299 35.2968 24.2956C35.6151 23.9767 36.0638 24.0645 36.4803 23.9169C36.8855 23.7714 37.1912 23.4676 37.6656 23.3934C38.504 23.2621 39.87 23.6814 40.3626 23.0591C40.4865 22.9021 40.3896 22.7306 40.4431 22.4089C40.4855 22.1519 40.5842 21.8508 40.6054 21.5442C40.9206 21.4347 41.2372 21.3285 41.5567 21.2263C44.1954 20.382 46.8591 19.8223 49.5138 19.5287C49.4978 19.8356 49.1154 19.8233 48.8706 20.0477C48.6409 20.2586 48.6232 20.5479 48.3538 20.6934C47.605 21.0978 46.8316 20.9612 46.1498 21.2071C46.2135 21.5143 46.6427 21.5676 46.8586 21.6038C47.5894 21.7297 48.084 21.5221 48.9593 21.2204C49.4079 21.0659 49.9737 21.0438 50.2761 20.6544C50.4681 20.4086 50.3359 20.0448 50.4755 19.7745C50.5353 19.6601 50.636 19.5321 50.7574 19.4118C51.2231 19.3749 51.6886 19.3476 52.1539 19.3265C52.1767 19.6431 51.6762 19.7251 51.7972 20.1202C52.1611 20.2044 52.7792 19.6963 52.9529 19.2983C53.0688 19.2956 53.1856 19.2928 53.3014 19.2907C53.9821 19.2798 54.661 19.2857 55.3379 19.3086C56.3029 19.3417 57.263 19.4095 58.2172 19.5103C58.0872 19.6559 57.9553 19.8313 57.8141 19.8755C57.451 19.9892 57.1404 19.5575 56.7938 19.8648C56.9095 20.3421 57.502 20.3609 57.9082 20.4685C58.3479 20.5849 58.8057 20.6946 59.0663 21.0585C58.953 21.9243 58.128 21.3153 57.5623 21.4924C56.9387 21.6871 56.4126 23.1578 55.5723 22.3691C55.5401 21.8189 56.0777 21.5599 56.0532 21.0145C55.9388 21.0736 55.8345 21.15 55.7332 21.2338C55.5514 21.3824 55.3816 21.5588 55.2058 21.7406C54.9751 21.9792 54.73 22.2214 54.4216 22.4015C54.1376 22.5662 53.8345 22.6453 53.5868 22.8118C53.1117 23.1324 52.8696 23.6343 52.3806 24.0154C52.1894 24.1637 51.9222 24.2223 51.7209 24.3697C51.2486 24.7147 50.7161 25.232 50.2652 25.7004C49.804 26.1788 49.2765 26.6954 49.0267 27.1052C48.8915 27.3257 48.589 28.0527 48.6645 28.2287C48.7706 28.4807 49.2898 28.4094 49.3877 28.6702C49.4285 28.8343 49.2671 29.2681 49.5397 29.4381C49.7878 29.593 50.0917 29.306 50.4877 29.2305C51.1843 29.0987 51.8003 29.5079 52.4053 29.6254C52.8629 29.7142 53.5219 29.7835 53.9784 29.6983C54.6049 29.5806 55.1982 29.1155 55.4353 29.5683C55.664 30.0033 55.0706 30.3746 55.1176 30.6785C55.5797 31 55.1006 31.3775 55.2227 31.7499C55.3218 32.0514 55.841 32.3853 56.1766 32.3081C56.6305 32.204 57.1254 31.5279 57.1672 31.0309C57.2163 30.4391 56.8946 29.7609 57.1722 29.2524C59.233 28.6548 60.6449 27.1248 59.8399 25.0856C59.7603 24.8842 59.5571 24.657 59.5275 24.417C59.4827 24.0601 59.9737 23.5913 59.7587 23.1908C59.9572 23.0529 60.0317 22.8337 60.0798 22.5986C60.1518 22.248 60.173 21.8671 60.449 21.6553C60.4683 21.6401 60.4819 21.6204 60.5044 21.6074C60.6701 21.5104 60.8686 21.4857 61.0836 21.4806C61.467 21.4714 61.9039 21.527 62.3124 21.3652C62.5202 21.2829 62.7348 21.0054 62.9581 20.967C63.4057 20.8893 63.8332 21.3312 64.2339 21.4712C64.5884 21.5961 64.8664 21.4311 65.0321 21.6956C65.1043 22.2056 64.772 22.332 64.9428 22.7669C64.9449 22.7715 64.945 22.7748 64.9466 22.7796C65.108 23.1681 65.623 23.3371 65.8438 23.31C66.1828 23.2671 66.585 22.9503 66.8553 22.6976C67.1474 22.4255 67.3487 21.9751 67.5709 21.6358C68.1067 21.826 68.6382 22.0265 69.1652 22.2381C69.2752 22.4165 69.3647 22.5804 69.4183 22.6934C69.6318 23.1443 69.6228 23.5438 69.7837 23.9702C70.0775 24.686 70.9847 24.3134 71.5673 24.5513C71.7433 24.6238 71.8939 24.9041 72.0579 25.0188C72.3758 25.2423 72.6445 25.1563 72.7808 25.4594C73.1061 26.1848 72.3583 26.494 72.7014 27.31C72.6481 27.6858 72.2421 27.7941 72.4147 28.2178C72.6882 28.8884 73.512 28.0438 73.9553 28.4934C74.1947 28.7348 74.0937 29.0037 74.119 29.4487C74.5892 29.7421 74.7946 30.3847 74.1949 30.5775C73.8303 30.6942 73.6039 30.3375 73.2062 30.3652C72.985 30.38 72.7092 30.4792 72.4333 30.5168C72.1972 30.5488 71.9101 30.5679 71.6903 30.6104C71.1284 30.7197 70.593 31.0635 70.1727 30.8561C70.4719 30.0013 70.9456 29.1015 71.4246 28.2945C71.5667 28.0536 71.9556 27.7956 71.7394 27.4735C71.2609 27.2674 70.9145 27.7596 70.6262 28.0697C70.3234 28.3946 69.9788 28.8334 69.5816 29.0284C68.8911 29.3672 67.8266 29.3573 67.3586 29.9313C67.383 30.286 68.098 29.9165 68.153 30.4459C67.8783 30.5859 67.6111 30.6969 67.3227 30.567C67.0598 30.45 67.088 30.1388 66.9204 30.0712C66.6361 29.9581 65.7747 30.1782 65.4173 30.3606C64.981 30.5826 64.6621 30.9868 64.7354 31.3949C65.3719 31.4751 66.1154 30.6611 66.5286 31.254C66.4005 31.8927 65.7831 32.4193 66.1138 33.1147C66.2422 33.3831 66.6989 33.6503 66.9537 33.6148C67.2098 33.5787 67.2687 33.2964 67.5102 33.2437C67.7655 33.1874 67.8003 33.4866 68.0776 33.3509C68.4417 33.037 68.485 32.3743 68.9773 32.247C69.7836 32.7606 68.79 33.4544 68.2466 33.8731C67.6267 34.3502 66.7576 34.7764 66.2954 35.1708C66.0528 35.3768 65.3218 36.7338 64.9173 35.9949C64.6266 35.4619 65.3117 35.4238 65.2934 34.9144C64.5725 35.0005 64.0765 35.6237 63.5345 36.0547C62.7605 36.6674 61.3346 37.355 61.4399 38.4056C61.4617 38.6156 61.7088 38.9426 61.6217 39.1151C61.5506 39.2542 60.9281 39.4745 60.6835 39.6553C60.3073 39.9347 60.0381 40.3604 59.7996 40.5142C59.6198 40.6312 59.3237 40.7091 59.2147 40.7987C58.9097 41.0442 58.9326 41.5532 58.6337 41.9923C58.5111 42.1717 58.1775 42.3805 58.0887 42.5507C57.9343 42.8478 58.0859 43.419 57.7126 43.6313C57.4652 43.7349 57.1894 43.589 56.9968 43.812C57.1475 44.3763 57.6179 45.0591 57.5588 45.6973C57.1755 46.2836 56.7018 46.7632 56.1574 47.3463C55.8566 47.6697 55.5446 47.8274 55.1724 48.1902C54.9081 48.4468 54.7405 48.9104 54.447 49.2384C53.7683 49.9952 52.945 50.8975 53.3522 52.1342C53.4404 52.402 53.6731 52.6465 53.8088 52.9488C53.8896 53.1265 53.9046 53.3205 53.9919 53.5147C54.1911 53.9528 54.7106 54.426 54.4282 54.8632C53.7604 54.8115 52.9835 54.97 52.4357 54.6847C52.1836 54.2913 52.4105 53.8279 52.2316 53.4535C52.0879 53.1528 51.4616 52.7353 51.1895 52.7779C50.9093 52.8215 50.7543 53.1815 50.4718 53.2475C50.1357 53.3267 49.6863 52.9764 49.2498 53.0624C48.61 53.1881 48.2246 53.5446 47.5108 53.6677C46.9631 54.2299 46.9716 54.9159 46.1414 55.1135C45.8493 55.1841 45.5178 55.0511 45.1662 55.0894C44.7851 55.1304 44.202 55.1786 43.8381 55.3233C43.1078 55.6116 42.7392 56.3177 42.2051 56.8534C41.7342 57.3269 41.0511 57.9469 41.0792 58.6068C41.0927 58.9626 41.3191 59.3974 41.2994 59.7369C41.2862 59.9606 41.174 60.1918 41.1313 60.4138C40.9283 61.4625 40.9019 62.7712 41.6898 63.9339C41.8067 64.1062 42.6421 65.0228 42.9134 65.1751C43.2173 65.3434 43.9994 65.4921 44.3812 65.3773C44.7044 65.2809 45.0261 64.9921 45.3194 64.8372C45.6596 64.658 46.1095 64.5076 46.4035 64.2985C47.2539 63.6942 46.6549 62.4815 47.4649 61.7491C47.819 61.4308 48.2861 61.2402 49.0023 60.9698C49.2961 61.089 49.5144 61.393 49.5772 61.6977C49.6247 61.9276 49.4772 62.197 49.4659 62.5501C49.4562 62.8595 49.5405 63.1917 49.5145 63.4474C49.4789 63.7824 49.2572 64.09 49.242 64.3993C49.2316 64.6004 49.3413 64.8117 49.3375 64.9919C49.3294 65.3108 49.0086 65.6367 49.2834 65.874C50.3419 65.9442 51.3238 65.1046 52.1914 64.9923C52.5572 64.9439 53.4023 65.1257 53.567 65.6569C53.6907 66.0538 53.4713 66.4101 53.5682 66.8572C53.6911 67.4189 53.6781 68.1598 53.7963 68.6086C53.9912 69.3432 55.5001 70.2353 56.271 69.9776C57.1009 69.7002 57.3243 68.7324 58.4681 68.8429C58.8478 68.8792 59.3731 69.3029 59.7324 69.1586C60.0288 69.04 60.3162 68.3656 60.4009 67.9357C60.504 67.4117 60.4003 67.0314 60.7639 66.6674C61.1562 66.2751 61.5684 66.2715 62.0984 65.8559C62.3352 65.671 62.514 65.4258 62.7024 65.1821C62.868 64.9693 62.9691 64.5175 63.3194 64.6961C63.7818 64.9311 63.0667 65.3761 63.4835 65.6526C64.195 65.7777 64.2102 64.7638 64.646 64.609C64.785 64.5597 65.3603 64.6797 65.6632 64.7634C66.0773 64.8769 66.2949 65.153 66.6928 65.1058C66.9482 65.0763 67.29 64.8141 67.6432 64.7533C68.1111 64.6736 68.501 64.9698 68.8368 64.8512C69.2461 64.7084 69.2999 64.1986 69.6324 64.0204C70.3607 63.6321 70.7219 63.7664 71.2179 64.1375C71.6211 64.081 71.4716 63.5727 71.8788 63.6387C71.8098 64.0792 72.1234 64.1714 72.3792 64.4387C72.5443 64.61 72.5746 64.7595 72.6961 64.8178C72.969 64.9488 73.3731 64.8195 73.7422 64.9144C74.1311 65.0132 74.4351 65.3307 74.943 65.6353C75.465 65.9461 76.2524 66.189 76.7726 66.0575C77.2644 65.9341 77.6025 65.6424 78.0166 65.5638C78.9592 65.3841 79.6682 65.6533 80.4596 65.9351C80.9012 66.092 81.282 66.1777 81.5007 66.4655C81.6538 66.666 81.7129 66.982 81.8859 67.2067C82.255 67.6867 83.1358 67.6938 83.1509 68.7227C83.3716 68.9554 83.6988 68.9598 84.0789 69.0503C84.3829 69.1227 84.7033 69.3784 84.9927 69.3341C85.1802 69.3056 85.3471 69.1614 85.5044 69.122C86.0137 68.9966 86.4177 69.0793 86.9034 69.1073C87.2046 69.1241 87.5604 69.0536 87.7775 69.1165C88.0484 69.1946 88.2395 69.6864 88.5566 69.7308C88.7641 69.7601 89.1239 69.5127 89.4334 69.4502C89.9212 69.3535 90.6526 69.4357 91.0803 69.3078C91.3401 69.2308 91.5183 69.0521 91.7532 68.9965C92.2985 68.8666 92.8248 69.067 93.3584 69.3082C90.8168 79.465 84.3537 88.4677 75.127 94.0702C74.9669 93.7006 74.7366 93.3507 74.5966 92.9759C74.2945 92.1598 74.232 91.5348 73.8494 90.8138C73.5607 90.2683 73.1476 89.4229 72.8197 89.1264C72.4541 88.797 71.3094 88.4044 70.7616 88.2959C70.3999 88.2249 70.0132 88.2832 69.6264 88.2272C68.7998 88.1075 67.1786 87.8161 66.6381 87.2142C66.4818 87.041 66.4074 86.7693 66.237 86.5747C65.9024 86.1895 65.3755 85.9315 64.952 85.5923C64.1449 84.9448 63.3746 84.0551 62.5446 83.3854C62.1243 83.0449 61.7228 82.6343 61.3039 82.3901C61.0577 82.2456 60.4185 82.2405 60.246 81.9601C60.0171 81.5892 59.5386 81.1328 59.4866 80.8095C59.4155 80.3737 60.1214 79.7767 59.9975 79.3982C59.892 79.0767 59.3974 79.0274 59.2182 78.7832C58.7817 78.1889 59.0061 77.6855 59.0913 77.047C59.1196 76.8369 59.1104 76.5169 59.1579 76.3538C59.2409 76.0629 59.5456 75.8911 59.6757 75.5637C59.7483 75.3803 59.7258 75.0537 59.8154 74.7984C60.0063 74.2521 60.491 73.9151 60.4997 73.4746C60.5068 73.1156 60.0493 71.4783 59.7405 70.9805C59.5629 70.6916 59.1853 70.5251 58.9774 70.2645C58.6091 69.8027 58.3768 69.2434 57.8357 69.429C57.5019 69.5435 57.3841 69.9883 57.2434 70.2905C57.2918 70.6171 57.4277 70.9432 57.1319 71.1424C56.6809 71.448 56.274 70.8422 55.636 70.8532C55.382 70.8572 55.0145 70.9793 54.8489 70.9611C54.3634 70.9076 54.0271 70.3351 53.5022 70.2387C53.0639 70.1598 52.7659 70.3312 52.4404 70.0983C52.2781 69.9183 52.2297 69.5158 52.1155 69.2417C51.5448 69.1165 50.8009 68.2057 50.162 68.1391C49.7381 68.0941 49.1753 68.291 48.6608 68.2833C48.4189 68.2796 48.2201 68.2384 47.9761 68.2624C47.6748 68.2898 47.3844 68.379 47.1316 68.3402C46.1254 68.1904 45.2087 66.9545 44.1435 67.3281C43.689 67.4863 43.3851 68.0534 42.9689 68.1838C42.5553 68.3136 41.7581 68.2102 41.1629 68.1372C40.5445 68.0612 39.905 68.1164 39.3884 68.0331C38.9706 67.9657 38.6135 67.7119 38.2555 67.674C37.9814 67.6453 37.6241 67.7391 37.3974 67.7096C37.0747 67.6673 36.6911 67.4795 36.2647 67.3504C35.8603 67.2287 35.3901 66.9959 35.2819 66.7056C35.1572 66.3696 35.3932 65.974 35.3226 65.635C35.1003 64.5625 34.0901 64.064 33.408 63.6066C32.9022 63.2665 32.3567 63.0153 31.8608 62.7093C31.7905 62.4234 31.7742 62.373 31.6638 62.1005C31.3066 61.9251 30.9515 61.6091 30.5364 61.3081C30.1615 61.0367 29.532 60.8206 29.3379 60.4439C29.0989 59.9807 29.2279 59.4652 28.8871 59.0504C28.3202 58.3625 27.3335 59.071 27.8122 60.0672C27.9449 60.3414 28.4772 60.5967 28.6924 60.842C28.9124 61.092 29.005 61.4613 29.2354 61.7732C29.4567 62.0721 29.8902 62.2523 30.1298 62.592C30.5085 63.1283 30.7105 63.772 31.0015 64.0899C31.2591 64.3724 31.915 64.5078 31.7335 65.0079C31.3462 65.2262 31.0532 64.8654 30.7177 64.7084C30.5306 64.6214 29.9274 64.5356 29.7478 64.2511C29.5987 64.0163 29.7169 63.5977 29.5393 63.3088C29.19 62.7429 27.9361 63.1269 27.7272 62.4964C27.5966 62.1004 28.106 61.8853 27.9866 61.5001C27.8542 61.0794 27.159 60.9096 26.919 60.5936C26.6995 60.3037 26.5126 59.7897 26.3217 59.3442C26.1412 58.9263 26.0329 58.4102 25.8247 58.11C25.6381 57.8397 25.0525 57.5736 24.7103 57.5059C24.2578 57.4165 23.9815 57.6021 23.693 57.3515C23.4417 57.1326 23.1504 56.5999 23.0203 56.3186C22.7877 55.8155 22.6515 55.2277 22.4412 54.6787C22.2314 54.1286 22.0002 53.6105 21.8921 52.9818C21.9729 52.4914 22.301 52.1574 22.3873 51.6697C22.4477 51.3304 22.3534 50.9649 22.4276 50.6006C22.5649 49.9294 23.0946 49.1803 23.3836 48.4695C23.6955 47.7036 23.9753 46.9759 24.0488 46.191C24.0762 45.9121 24.1859 45.2779 24.0477 44.9908C23.8547 44.5908 22.9484 44.5 22.85 43.9817C22.7899 43.6603 23.2342 43.523 23.2675 43.1762C23.2843 42.9974 23.2029 42.5392 23.1457 42.3503C23.0165 41.9285 22.6515 41.5625 22.5916 41.0869C22.5399 40.6815 23.0632 40.343 22.6327 40.0173C22.2058 39.695 21.8882 40.5031 21.4782 40.3384C21.1014 40.186 21.3613 39.7732 21.2415 39.3093C21.1938 39.1248 21.0095 38.9553 20.9853 38.815C20.9491 38.612 21.2248 38.1622 21.0809 38.0642C20.858 37.9156 20.5546 37.5688 20.2029 37.327C23.8339 31.8726 28.8094 27.2628 34.8422 24.056Z" fill="url(#paint0_linear_860_178211)"/>
<path d="M30.7448 8C23.7833 8 19.8338 14.0519 21.3062 20.485C22.3548 25.066 28.687 37.0257 30.7449 37.0257C32.6677 37.0257 39.1185 25.0621 40.1836 20.485C41.6656 14.1146 37.7471 8 30.7448 8ZM30.7478 21.26C28.738 21.26 27.1092 19.6178 27.1092 17.5913C27.1092 15.5648 28.738 13.9225 30.7478 13.9225C32.7576 13.9225 34.3864 15.5648 34.3864 17.5913C34.3864 19.6178 32.7576 21.26 30.7478 21.26Z" fill="#3F37C9"/>
<path d="M8.5987 68.1123C2.02304 75.4963 -0.855076 81.9478 1.43836 85.8984C6.32088 94.3088 32.7934 88.1994 60.5663 72.2526C88.3392 56.3057 106.896 36.5603 102.013 28.1499C99.9257 24.5543 93.8924 23.6125 85.4985 24.9586" stroke="#00E5BC" stroke-width="0.86644" stroke-linecap="round"/>
<ellipse cx="101.884" cy="27.5645" rx="4.53835" ry="4.51347" fill="#00E5BC"/>
</g>
<defs>
<linearGradient id="paint0_linear_860_178211" x1="13.7416" y1="48.1572" x2="101.617" y2="75.1379" gradientUnits="userSpaceOnUse">
<stop stop-color="#7E78DB"/>
<stop offset="1" stop-color="#C9C7EE"/>
</linearGradient>
<clipPath id="clip0_860_178211">
<rect width="108" height="108" fill="white"/>
</clipPath>
</defs>
</svg>
