<svg width="148" height="148" viewBox="0 0 148 148" fill="none" xmlns="http://www.w3.org/2000/svg">
<path d="M47.0842 39.9822C27.2935 39.9822 12.9529 56.1085 12.9529 74.0039C12.9529 79.7195 14.622 85.6053 17.5514 90.9807C18.0964 91.8652 18.1645 92.988 17.7899 94.0426L15.5076 101.663C14.9967 103.501 16.5636 104.862 18.3008 104.317L25.1816 102.276C27.055 101.663 28.5198 102.446 30.2604 103.501C35.2336 106.427 41.4297 107.923 47.0161 107.923C63.9114 107.923 81.0792 94.8932 81.0792 73.9018C81.0792 55.8023 66.4321 39.9822 47.0842 39.9822Z" fill="url(#paint0_linear_46_4848)"/>
<path fill-rule="evenodd" clip-rule="evenodd" d="M46.9495 78.3928C44.5311 78.3588 42.5895 76.4196 42.5895 74.004C42.5895 71.6225 44.5651 69.6493 46.9495 69.6833C49.368 69.6833 51.3096 71.6225 51.3096 74.0381C51.3096 76.4196 49.368 78.3928 46.9495 78.3928ZM31.2451 78.3936C28.8607 78.3936 26.885 76.4204 26.885 74.0389C26.885 71.6233 28.8266 69.6841 31.2451 69.6841C33.6636 69.6841 35.6052 71.6233 35.6052 74.0389C35.6052 76.4204 33.6636 78.3596 31.2451 78.3936ZM58.292 74.0384C58.292 76.4199 60.2336 78.3932 62.6521 78.3932C65.0706 78.3932 67.0122 76.4199 67.0122 74.0384C67.0122 71.6229 65.0706 69.6836 62.6521 69.6836C60.2336 69.6836 58.292 71.6229 58.292 74.0384Z" fill="white"/>
<path d="M101.064 39.9822C120.854 39.9822 135.195 56.1085 135.195 74.0039C135.195 79.7195 133.526 85.6053 130.596 90.9807C130.051 91.8652 129.983 92.988 130.358 94.0426L132.64 101.663C133.151 103.501 131.584 104.862 129.847 104.317L122.966 102.276C121.093 101.663 119.628 102.446 117.887 103.501C112.914 106.427 106.718 107.923 101.132 107.923C84.2363 107.923 67.0685 94.8932 67.0685 73.9018C67.0685 55.8023 81.7156 39.9822 101.064 39.9822Z" fill="url(#paint1_linear_46_4848)"/>
<path fill-rule="evenodd" clip-rule="evenodd" d="M101.198 78.3928C103.617 78.3588 105.558 76.4196 105.558 74.004C105.558 71.6225 103.583 69.6493 101.198 69.6833C98.7797 69.6833 96.8381 71.6225 96.8381 74.0381C96.8381 76.4196 98.7797 78.3928 101.198 78.3928ZM116.903 78.3936C119.287 78.3936 121.263 76.4204 121.263 74.0389C121.263 71.6233 119.321 69.6841 116.903 69.6841C114.484 69.6841 112.543 71.6233 112.543 74.0389C112.543 76.4204 114.484 78.3596 116.903 78.3936ZM89.8557 74.0384C89.8557 76.4199 87.9141 78.3932 85.4956 78.3932C83.0771 78.3932 81.1355 76.4199 81.1355 74.0384C81.1355 71.6229 83.0771 69.6836 85.4956 69.6836C87.9141 69.6836 89.8557 71.6229 89.8557 74.0384Z" fill="white"/>
<defs>
<linearGradient id="paint0_linear_46_4848" x1="12.9529" y1="91.6676" x2="90.9782" y2="54.6105" gradientUnits="userSpaceOnUse">
<stop stop-color="#5D54E6"/>
<stop offset="1" stop-color="#5D54E6" stop-opacity="0"/>
</linearGradient>
<linearGradient id="paint1_linear_46_4848" x1="53.9846" y1="52.685" x2="131.294" y2="78.426" gradientUnits="userSpaceOnUse">
<stop stop-color="white" stop-opacity="0"/>
<stop offset="0.771993" stop-color="#75FBDC"/>
</linearGradient>
</defs>
</svg>
