<svg width="148" height="148" viewBox="0 0 148 148" fill="none" xmlns="http://www.w3.org/2000/svg">
<path fill-rule="evenodd" clip-rule="evenodd" d="M113.759 66.5853C113.481 64.7388 114.367 62.9116 115.988 61.985L124.335 57.2142C127.231 55.5591 128.221 51.86 126.539 48.9796L118.987 36.0456C117.328 33.2029 113.687 32.2283 110.829 33.8614L102.438 38.656C100.796 39.5947 98.7474 39.4426 97.2613 38.2716C93.8058 35.5514 89.9495 33.3458 85.8089 31.7245C84.0513 31.0358 82.895 29.3409 82.895 27.4533V18C82.895 14.6863 80.2087 12 76.895 12H61.6926C58.3788 12 55.6926 14.6863 55.6926 18V27.4656C55.6926 29.3487 54.5381 31.0392 52.7841 31.7245C48.833 33.2681 45.1149 35.3719 41.7352 37.9741C40.2397 39.1286 38.1927 39.2584 36.5634 38.3019L28.2144 33.401C25.3742 31.7337 21.721 32.6675 20.0292 35.4931L12.3333 48.3462C10.6198 51.2079 11.5692 54.9178 14.4467 56.6046L22.7261 61.4581C24.3342 62.4008 25.2008 64.2322 24.91 66.0734C24.4822 68.7427 24.2818 70.9884 24.2818 73.1351C24.2818 75.1182 24.4605 77.1952 24.8315 79.6822C25.109 81.5287 24.2237 83.356 22.6027 84.2826L14.2558 89.054C11.3608 90.7088 10.3706 94.4067 12.0512 97.2869L19.6005 110.224C21.2599 113.068 24.9013 114.044 27.76 112.41L36.1585 107.61C37.7986 106.672 39.8438 106.825 41.3263 107.996C44.7791 110.716 48.6299 112.922 52.7814 114.543C54.5359 115.232 55.6898 116.924 55.6898 118.809V128.267C55.6898 131.581 58.3761 134.267 61.6898 134.267H76.8923C80.206 134.267 82.8923 131.581 82.8923 128.267V118.807C82.8923 116.921 84.0491 115.228 85.8062 114.543C89.7627 112.999 93.4808 110.896 96.8496 108.299C98.3452 107.144 100.392 107.014 102.022 107.97L110.371 112.869C113.211 114.535 116.863 113.601 118.555 110.776L126.252 97.9208C127.965 95.0593 127.016 91.3497 124.139 89.6627L115.859 84.8078C114.249 83.8634 113.383 82.0267 113.68 80.1834C114.103 77.5704 114.309 75.2683 114.309 73.1324C114.309 71.1492 114.13 69.0723 113.759 66.5853ZM70 100C84.9117 100 97 87.9117 97 73C97 58.0883 84.9117 46 70 46C55.0883 46 43 58.0883 43 73C43 87.9117 55.0883 100 70 100Z" fill="url(#paint0_radial_4254_20932)"/>
<path fill-rule="evenodd" clip-rule="evenodd" d="M97.7089 76.0103C105.594 71.4286 115.287 71.5086 123.098 76.2201C130.833 81.0275 135.533 89.6072 135.49 98.8367C135.31 108.006 130.269 116.624 123.968 123.287C120.331 127.15 116.263 130.566 111.847 133.465C111.392 133.728 110.893 133.904 110.376 133.984C109.879 133.963 109.394 133.816 108.966 133.556C102.223 129.201 96.3075 123.641 91.5038 117.144C87.4842 111.721 85.2005 105.169 84.9629 98.3782C84.9577 89.1311 89.8235 80.592 97.7089 76.0103ZM102.266 102.205C103.593 105.475 106.723 107.608 110.197 107.608C112.472 107.625 114.66 106.713 116.272 105.077C117.884 103.441 118.786 101.216 118.778 98.8978C118.79 95.3596 116.707 92.163 113.502 90.8004C110.296 89.4378 106.6 90.1781 104.14 92.6756C101.679 95.1731 100.94 98.9351 102.266 102.205Z" fill="url(#paint1_linear_4254_20932)"/>
<defs>
<radialGradient id="paint0_radial_4254_20932" cx="0" cy="0" r="1" gradientUnits="userSpaceOnUse" gradientTransform="translate(145.061 114.093) rotate(-137.943) scale(110.469 113.5)">
<stop offset="0.232242" stop-color="#F0F1F7" stop-opacity="0"/>
<stop offset="1" stop-color="#75FBDC"/>
</radialGradient>
<linearGradient id="paint1_linear_4254_20932" x1="128.815" y1="134.296" x2="98.673" y2="71.3146" gradientUnits="userSpaceOnUse">
<stop stop-color="#5D54E6" stop-opacity="0"/>
<stop offset="1" stop-color="#5D54E6"/>
</linearGradient>
</defs>
</svg>
