<svg width="24" height="24" viewBox="0 0 24 24" fill="none" xmlns="http://www.w3.org/2000/svg">
<path fill-rule="evenodd" clip-rule="evenodd" d="M12.3 7.3H17.7V12.7H12.3V7.3ZM14 9V11H16V9H14Z" fill="#12151F"/>
<path fill-rule="evenodd" clip-rule="evenodd" d="M17.7 14.3H12.3V19.7H17.7V14.3ZM14 18V16H16V18H14Z" fill="#12151F"/>
<path fill-rule="evenodd" clip-rule="evenodd" d="M15 0.9375L23.51 7.32C23.8855 7.60167 23.9616 8.13445 23.68 8.51C23.3983 8.88555 22.8655 8.96167 22.49 8.68L21.8499 8.19996V21.15H22.9999C23.4693 21.15 23.8499 21.5306 23.8499 22C23.8499 22.4694 23.4693 22.85 22.9999 22.85H0.999902C0.53046 22.85 0.149902 22.4694 0.149902 22C0.149902 21.5306 0.53046 21.15 0.999902 21.15H2.1501V11.15H8.1499V8.20004L7.50995 8.68C7.1344 8.96167 6.60162 8.88555 6.31995 8.51C6.03829 8.13445 6.1144 7.60167 6.48995 7.32L15 0.9375ZM9.8499 12.0184L9.8501 12L9.8499 11.9816V6.92504L15 3.0625L20.1499 6.92496V21.15H9.8499V12.0184ZM8.1499 12.85H3.8501V21.15H8.1499V12.85Z" fill="#12151F"/>
</svg>
