<svg width="24" height="24" viewBox="0 0 24 24" fill="none" xmlns="http://www.w3.org/2000/svg">
<path fill-rule="evenodd" clip-rule="evenodd" d="M14.6131 3.22837C15.591 4.28427 16.3731 5.95423 16.8254 7.97427C17.8901 7.67168 18.8118 7.2756 19.543 6.81918C19.3735 6.57287 19.1922 6.33525 18.9999 6.10712C18.6974 5.74816 18.7431 5.21192 19.1021 4.90939C19.4611 4.60686 19.9973 4.65261 20.2998 5.01157C21.8906 6.89905 22.8499 9.33861 22.8499 12C22.8499 17.9923 17.9922 22.85 11.9999 22.85C6.00761 22.85 1.1499 17.9923 1.1499 12C1.1499 6.00774 6.00761 1.15002 11.9999 1.15002C14.0898 1.15002 16.0441 1.74173 17.7014 2.76716C18.1006 3.01416 18.224 3.53802 17.977 3.93722C17.73 4.33643 17.2061 4.45982 16.8069 4.21282C16.1294 3.79362 15.3932 3.46038 14.6131 3.22837ZM9.84307 3.10569C7.62085 3.64265 5.71514 4.99078 4.45696 6.81909C4.56485 6.88645 4.67727 6.95273 4.79416 7.0178C5.54471 7.43564 6.45883 7.7922 7.49436 8.06111C7.96103 5.9216 8.79631 4.16678 9.84307 3.10569ZM2.8499 12C2.8499 10.6849 3.12734 9.43466 3.62687 8.30452C3.73779 8.37237 3.85131 8.43859 3.96726 8.50314C4.89217 9.01805 5.99302 9.43884 7.21463 9.74415C7.12963 10.4691 7.08472 11.2243 7.08472 12C7.08472 12.7758 7.12963 13.5309 7.21463 14.2559C5.84338 14.5985 4.62051 15.0875 3.62682 15.6954C3.12732 14.5653 2.8499 13.3151 2.8499 12ZM4.45691 17.1809C5.7151 19.0092 7.62082 20.3574 9.84308 20.8944C8.79631 19.8333 7.96101 18.0784 7.49435 15.9389C6.29386 16.2507 5.26039 16.6794 4.45691 17.1809ZM9.16051 15.6004C9.38893 16.6391 9.70965 17.5538 10.0894 18.3006C10.9123 19.9191 11.7411 20.3 12.1695 20.3C12.5978 20.3 13.4266 19.9191 14.2496 18.3006C14.6228 17.5665 14.9391 16.67 15.1667 15.653C14.1811 15.4851 13.1162 15.3924 11.9999 15.3924C11.0038 15.3924 10.0511 15.4661 9.16051 15.6004ZM16.8254 16.0258C16.3732 18.0456 15.5911 19.7154 14.6134 20.7714C16.6396 20.1685 18.3718 18.8827 19.5429 17.1809C19.4351 17.1135 19.3227 17.0473 19.2058 16.9822C18.5335 16.6079 17.7299 16.2828 16.8254 16.0258ZM20.373 15.6954C20.2621 15.6276 20.1486 15.5614 20.0327 15.4969C19.1915 15.0286 18.2048 14.6381 17.114 14.3416C17.2057 13.5905 17.2542 12.8064 17.2542 12C17.2542 11.1936 17.2057 10.4096 17.114 9.65844C18.3523 9.32192 19.4596 8.86353 20.3732 8.30458C20.8727 9.4345 21.1499 10.6845 21.1499 12C21.1499 13.3151 20.8725 14.5653 20.373 15.6954ZM15.4453 13.976C14.357 13.7911 13.1977 13.6924 11.9999 13.6924C10.9261 13.6924 9.88043 13.7719 8.8877 13.9226C8.82072 13.3083 8.78472 12.6652 8.78472 12C8.78472 11.3348 8.82072 10.6918 8.88769 10.0775C9.87834 10.2279 10.9236 10.3076 12.0001 10.3076C13.1947 10.3076 14.3545 10.2092 15.4453 10.0239C15.5161 10.6543 15.5542 11.3154 15.5542 12C15.5542 12.6846 15.5161 13.3456 15.4453 13.976ZM12.0001 8.60763C13.1193 8.60763 14.1837 8.51463 15.1668 8.34716C14.9391 7.33013 14.6229 6.43363 14.2496 5.69947C13.4266 4.08098 12.5978 3.70002 12.1695 3.70002C11.7411 3.70002 10.9123 4.08098 10.0894 5.69947C9.70966 6.44621 9.38896 7.3609 9.16054 8.39955C10.0532 8.53413 11.0063 8.60763 12.0001 8.60763Z" fill="#12151F"/>
</svg>
