<svg width="24" height="24" viewBox="0 0 24 24" fill="none" xmlns="http://www.w3.org/2000/svg">
<path fill-rule="evenodd" clip-rule="evenodd" d="M3 3C1.89543 3 1 3.89543 1 5V19C1 20.1046 1.89543 21 3 21H21C22.1046 21 23 20.1046 23 19V5C23 3.89543 22.1046 3 21 3H3ZM4.44414 4.7H3C2.83431 4.7 2.7 4.83431 2.7 5V18.4323L6.62104 13.727C6.89992 13.3924 7.25838 13.2105 7.55018 13.105C7.84723 12.9975 8.11634 12.81 8.25793 12.5672C8.37617 12.3644 8.48227 11.9944 8.21079 11.3157C7.48487 9.50087 5.50035 6.30368 4.44414 4.7ZM6.46858 4.7C7.5782 6.44423 9.12611 9.02657 9.78921 10.6843C10.2169 11.7536 10.1565 12.686 9.72654 13.4235C9.62371 13.5998 9.50463 13.7566 9.37552 13.8954L9.87677 14.2296L13.5694 15.4605L14.1161 14.3671L13.6616 11.6397C13.6234 11.4106 13.6806 11.1758 13.82 10.99L15.32 8.99C15.4237 8.85169 15.5672 8.74829 15.7312 8.69362L17.1713 8.21358C17.3183 8.13778 17.5414 8.0141 17.7707 7.86909C18.0382 7.6999 18.2664 7.53151 18.399 7.39896C18.4456 7.35231 18.5199 7.22792 18.5783 7.00749C18.6331 6.80058 18.65 6.59911 18.65 6.5C18.65 6.40864 18.6647 6.31788 18.6936 6.23121C18.7884 5.94674 18.9594 5.5159 19.1751 5.13972C19.2559 4.99874 19.3554 4.84333 19.4739 4.7H6.46858ZM7.84259 14.9166L4.18979 19.3H13.1499V17.1126L9.2312 15.8064C9.15953 15.7825 9.09136 15.7492 9.0285 15.7072L7.84259 14.9166ZM21.3 5.70233C21.1283 5.75639 20.9361 5.80656 20.7467 5.83218C20.72 5.86966 20.6873 5.92009 20.6499 5.98528C20.5304 6.19377 20.4204 6.45165 20.3456 6.65657C20.3339 6.87675 20.2975 7.15607 20.2217 7.44251C20.13 7.78874 19.9544 8.24769 19.601 8.60104C19.0964 9.10565 18.2213 9.58968 17.8801 9.76026C17.8442 9.77825 17.8069 9.79366 17.7688 9.80638L16.5207 10.2224L15.3982 11.719L15.4185 11.8405L15.62 11.7397C15.8799 11.6098 16.1882 11.6216 16.4374 11.7711L18.6556 13.1021L20.8334 12.6665C20.8883 12.6555 20.9441 12.65 21.0001 12.65H21.3V5.70233ZM14.8499 16.7008L15.7603 14.8801C15.8406 14.7195 15.868 14.5375 15.8384 14.3603L15.7109 13.5949L15.9629 13.4689L18.0628 14.7289C18.2441 14.8377 18.4594 14.875 18.6668 14.8335L21.0843 14.35H21.3V19C21.3 19.1657 21.1657 19.3 21 19.3H14.8499V16.7008ZM20.8178 5.74772C20.8178 5.74772 20.8143 5.75157 20.8074 5.75704C20.8144 5.75008 20.8178 5.74772 20.8178 5.74772Z" fill="#12151F"/>
</svg>
