<svg width="24" height="24" viewBox="0 0 24 24" fill="none" xmlns="http://www.w3.org/2000/svg">
<path d="M5 11H7V13H5V11Z" fill="#12151F"/>
<path d="M7 15H5V17H7V15Z" fill="#12151F"/>
<path fill-rule="evenodd" clip-rule="evenodd" d="M6.8499 3.15L6.8499 0H5.1499V3.15H2.7499V6.93948H1.1499V21.15H0.999902C0.53046 21.15 0.149902 21.5306 0.149902 22C0.149902 22.4694 0.53046 22.85 0.999902 22.85H22.9999C23.4693 22.85 23.8499 22.4694 23.8499 22C23.8499 21.5306 23.4693 21.15 22.9999 21.15H22.8499V12.15H20.8499V2.15H15.1499V12.15H10.8499V6.93948H9.2499V3.15H6.8499ZM15.9999 13.85L10.8499 13.85L10.8499 21.15H13.1499V16H14.8499V21.15H17.1499V16H18.8499V21.15H21.1499V13.85L19.9999 13.85H15.9999ZM19.1499 12.15H16.8499V3.85H19.1499V12.15ZM9.1499 21.15H2.8499V8.63947H4.4499V4.85H7.5499V8.63947H9.1499V21.15Z" fill="#12151F"/>
</svg>
