<svg width="16" height="16" viewBox="0 0 16 16" fill="none" xmlns="http://www.w3.org/2000/svg">
<path fill-rule="evenodd" clip-rule="evenodd" d="M0 11.1618V15C0 15.5523 0.447715 16 1 16H4.83824C5.36867 16 5.87738 15.7893 6.25245 15.4142L14.8787 6.78802C16.0503 5.61645 16.0503 3.71695 14.8787 2.54538L13.4547 1.12136C12.2831 -0.0502165 10.3836 -0.0502183 9.21201 1.12135L0.585787 9.74758C0.210714 10.1227 0 10.6314 0 11.1618ZM4.83824 14.3H1.7V11.1618C1.7 11.0822 1.73161 11.0059 1.78787 10.9497L7.76771 4.96982L11.0302 8.23233L5.05037 14.2122C4.99411 14.2684 4.9178 14.3 4.83824 14.3ZM12.2323 7.03025L13.6766 5.58594C14.1843 5.07826 14.1843 4.25514 13.6766 3.74746L12.2526 2.32344C11.7449 1.81576 10.9218 1.81576 10.4141 2.32344L8.96979 3.76774L12.2323 7.03025Z" fill="#12151F"/>
</svg>
