<svg width="36" height="42" viewBox="0 0 36 42" fill="none" xmlns="http://www.w3.org/2000/svg">
<path fill-rule="evenodd" clip-rule="evenodd" d="M17.9974 4.51117C15.3734 6.68788 10.3007 9.6257 3.92883 10.078V22.8592C3.92883 25.6305 4.82139 29.3764 7.0259 32.3889C9.17853 35.3304 12.6304 37.6499 17.9999 37.6499C23.3695 37.6499 26.8213 35.3304 28.9739 32.3889C31.1784 29.3764 32.071 25.6305 32.071 22.8592V10.0792C25.6323 9.63126 20.608 6.69119 17.9974 4.51117ZM16.2013 1.51505C17.2389 0.605912 18.7627 0.604467 19.8011 1.51983C21.9405 3.40569 26.687 6.33129 32.8285 6.60065C34.2198 6.66167 35.4166 7.85025 35.4166 9.41337V22.8592C35.4166 26.2938 34.3412 30.8224 31.6257 34.533C28.8584 38.3145 24.4383 41.1666 17.9999 41.1666C11.5616 41.1666 7.14146 38.3145 4.37412 34.533C1.65867 30.8224 0.583252 26.2938 0.583252 22.8592V9.41337C0.583252 7.85014 1.7797 6.66257 3.16958 6.6002C9.23751 6.32791 14.0483 3.40155 16.2013 1.51505Z" fill="#12151F"/>
<path fill-rule="evenodd" clip-rule="evenodd" d="M25.9328 16.3146C26.6543 16.9213 26.7712 18.0278 26.1941 18.7861L17.2548 30.5316L10.0396 24.1965C9.33055 23.574 9.23588 22.4651 9.82814 21.7198C10.4204 20.9745 11.4753 20.875 12.1843 21.4976L16.777 25.53L23.5816 16.5892C24.1588 15.8309 25.2114 15.708 25.9328 16.3146Z" fill="#12151F"/>
</svg>
