<svg width="38" height="41" viewBox="0 0 38 41" fill="none" xmlns="http://www.w3.org/2000/svg">
<path fill-rule="evenodd" clip-rule="evenodd" d="M18.18 0.341573C18.6987 0.0206366 19.3569 0.0317923 19.8644 0.37012L36.3644 11.3701C37.0805 11.8475 37.274 12.815 36.7966 13.5311C36.3192 14.2472 35.3517 14.4407 34.6356 13.9633L18.9686 3.51869L4.05832 12.7448V34.9417H20.0312C20.8919 34.9417 21.5896 35.6394 21.5896 36.5001C21.5896 37.3607 20.8919 38.0584 20.0312 38.0584H2.49998C1.63934 38.0584 0.94165 37.3607 0.94165 36.5001V11.8765C0.94165 11.3367 1.22099 10.8354 1.68001 10.5513L18.18 0.341573Z" fill="#12151F"/>
<path d="M31.364 40.9074V38.8541C29.9267 38.7001 28.7374 38.1525 27.7963 37.2114C26.8552 36.2532 26.3675 34.9955 26.3333 33.4384H29.1567C29.3278 34.8928 30.0635 35.7741 31.364 36.0821V30.6407L30.4913 30.3071C27.7535 29.2633 26.3847 27.5094 26.3847 25.0454C26.3847 23.6081 26.8381 22.4616 27.745 21.6061C28.669 20.7334 29.8753 20.2457 31.364 20.1431V18.1667H32.75V20.1944C34.0504 20.3655 35.137 20.896 36.0097 21.7857C36.8823 22.6584 37.3187 23.7278 37.3187 24.9941H34.4953C34.3071 23.9332 33.7253 23.2573 32.75 22.9664V28.0484L33.52 28.3564C34.9231 28.904 35.984 29.6226 36.7027 30.5124C37.4213 31.3851 37.7807 32.4973 37.7807 33.8491C37.7807 35.3891 37.3272 36.5954 36.4203 37.4681C35.5134 38.3236 34.29 38.7942 32.75 38.8797V40.9074H31.364ZM34.9573 33.9261C34.9573 32.7625 34.2215 31.8556 32.75 31.2054V36.1591C33.4002 36.0735 33.9307 35.834 34.3413 35.4404C34.752 35.0297 34.9573 34.525 34.9573 33.9261ZM29.208 25.0197C29.208 26.0806 29.9267 26.9105 31.364 27.5094V22.8637C30.7138 22.9493 30.1919 23.1888 29.7983 23.5824C29.4048 23.976 29.208 24.4551 29.208 25.0197Z" fill="#12151F"/>
<path fill-rule="evenodd" clip-rule="evenodd" d="M2.77498 12.6667C2.77498 11.8061 3.47267 11.1084 4.33332 11.1084H35.5C36.3606 11.1084 37.0583 11.8061 37.0583 12.6667C37.0583 13.5274 36.3606 14.2251 35.5 14.2251H4.33332C3.47267 14.2251 2.77498 13.5274 2.77498 12.6667Z" fill="#12151F"/>
</svg>
