<svg width="40" height="40" viewBox="0 0 40 40" fill="none" xmlns="http://www.w3.org/2000/svg">
<path fill-rule="evenodd" clip-rule="evenodd" d="M24.7906 3.91871C26.5834 5.85452 28.0174 8.9161 28.8465 12.6195C30.7985 12.0648 32.4883 11.3386 33.8289 10.5019C33.5181 10.0503 33.1857 9.61465 32.8332 9.19641C32.2786 8.53831 32.3624 7.5552 33.0205 7.00057C33.6786 6.44593 34.6617 6.52981 35.2164 7.1879C38.1327 10.6483 39.8915 15.1208 39.8915 20.0001C39.8915 30.9859 30.9857 39.8917 19.9998 39.8917C9.01396 39.8917 0.108154 30.9859 0.108154 20.0001C0.108154 9.0142 9.01396 0.108398 19.9998 0.108398C23.8313 0.108398 27.4141 1.1932 30.4525 3.07315C31.1844 3.52598 31.4106 4.48638 30.9578 5.21826C30.5049 5.95014 29.5445 6.17635 28.8127 5.72352C27.5705 4.95499 26.2208 4.34405 24.7906 3.91871ZM16.0456 3.69378C11.9715 4.67822 8.47776 7.14979 6.17108 10.5017C6.36889 10.6252 6.575 10.7467 6.7893 10.866C8.16529 11.632 9.84118 12.2857 11.7397 12.7787C12.5952 8.85629 14.1266 5.63912 16.0456 3.69378ZM3.22482 20.0001C3.22482 17.5891 3.73345 15.2969 4.64926 13.225C4.85261 13.3494 5.06073 13.4708 5.27331 13.5891C6.96898 14.5331 8.9872 15.3046 11.2268 15.8643C11.071 17.1934 10.9886 18.5778 10.9886 20.0001C10.9886 21.4223 11.071 22.8067 11.2268 24.1358C8.71287 24.7639 6.47094 25.6604 4.64918 26.775C3.73342 24.7031 3.22482 22.411 3.22482 20.0001ZM6.171 29.4983C8.47768 32.8503 11.9715 35.3219 16.0456 36.3063C14.1266 34.361 12.5952 31.1438 11.7396 27.2212C9.53874 27.793 7.64405 28.5789 6.171 29.4983ZM14.7943 26.6007C15.213 28.505 15.801 30.182 16.4972 31.5511C18.0059 34.5183 19.5254 35.2167 20.3107 35.2167C21.0959 35.2167 22.6154 34.5183 24.1242 31.5511C24.8086 30.2052 25.3884 28.5617 25.8057 26.6972C23.9988 26.3894 22.0463 26.2194 19.9999 26.2194C18.1737 26.2194 16.427 26.3545 14.7943 26.6007ZM28.8465 27.3807C28.0175 31.0837 26.5837 34.145 24.7912 36.0808C28.506 34.9756 31.6816 32.6183 33.8287 29.4983C33.6309 29.3748 33.4249 29.2534 33.2107 29.1341C31.9781 28.4479 30.5048 27.8518 28.8465 27.3807ZM35.3505 26.775C35.1472 26.6506 34.9392 26.5293 34.7267 26.411C33.1845 25.5524 31.3755 24.8366 29.3757 24.293C29.5437 22.9159 29.6327 21.4784 29.6327 20.0001C29.6327 18.5217 29.5437 17.0842 29.3757 15.7072C31.6459 15.0902 33.676 14.2498 35.3509 13.2251C36.2665 15.2966 36.7748 17.5883 36.7748 20.0001C36.7748 22.411 36.2662 24.7031 35.3505 26.775ZM26.3164 23.6227C24.3212 23.2837 22.1959 23.1028 19.9999 23.1028C18.0311 23.1028 16.1141 23.2485 14.2941 23.5248C14.1713 22.3986 14.1053 21.2196 14.1053 20.0001C14.1053 18.7805 14.1713 17.6016 14.2941 16.4755C16.1103 16.7512 18.0267 16.8973 20.0001 16.8973C22.1904 16.8973 24.3165 16.7169 26.3164 16.3772C26.4461 17.533 26.516 18.745 26.516 20.0001C26.516 21.2551 26.4461 22.467 26.3164 23.6227ZM20.0001 13.7807C22.052 13.7807 24.0034 13.6102 25.8057 13.3032C25.3884 11.4386 24.8086 9.795 24.1242 8.44905C22.6154 5.48182 21.0959 4.78339 20.3107 4.78339C19.5254 4.78339 18.0059 5.48182 16.4972 8.44905C15.801 9.81807 15.2131 11.495 14.7943 13.3992C16.4308 13.6459 18.1782 13.7807 20.0001 13.7807Z" fill="#12151F"/>
</svg>
