<svg width="40" height="40" viewBox="0 0 40 40" fill="none" xmlns="http://www.w3.org/2000/svg">
<path fill-rule="evenodd" clip-rule="evenodd" d="M28.2997 33.8194L35.2167 35.4953L33.8848 28.1704L34.4274 27.065C35.4717 24.9374 36.0599 22.5427 36.0599 20C36.0599 11.1303 28.8696 3.93995 20 3.93995C11.1303 3.93995 3.93995 11.1303 3.93995 20C3.93995 28.8696 11.1303 36.0599 20 36.0599C22.5502 36.0599 24.9515 35.4683 27.0839 34.4181L28.2997 33.8194ZM0.199951 20C0.199951 9.06471 9.06471 0.199951 20 0.199951C30.9352 0.199951 39.7999 9.06471 39.7999 20C39.7999 23.1265 39.0753 26.0837 37.7848 28.7129L39.3615 37.3843C39.5902 38.6421 38.6239 39.7999 37.3454 39.7999C37.1828 39.7999 37.0209 39.7806 36.8629 39.7423L28.7362 37.7733C26.1012 39.071 23.1357 39.7999 20 39.7999C9.06471 39.7999 0.199951 30.9352 0.199951 20Z" fill="#12151F"/>
<path d="M22.1999 20C22.1999 21.215 21.215 22.1999 20 22.1999C18.7849 22.1999 17.7999 21.215 17.7999 20C17.7999 18.7849 18.7849 17.7999 20 17.7999C21.215 17.7999 22.1999 18.7849 22.1999 20Z" fill="#12151F"/>
<path d="M30.9999 20C30.9999 21.215 30.015 22.1999 28.7999 22.1999C27.5849 22.1999 26.5999 21.215 26.5999 20C26.5999 18.7849 27.5849 17.7999 28.7999 17.7999C30.015 17.7999 30.9999 18.7849 30.9999 20Z" fill="#12151F"/>
<path d="M13.4 20C13.4 21.215 12.415 22.1999 11.2 22.1999C9.98492 22.1999 8.99995 21.215 8.99995 20C8.99995 18.7849 9.98492 17.7999 11.2 17.7999C12.415 17.7999 13.4 18.7849 13.4 20Z" fill="#12151F"/>
</svg>
