<svg width="109" height="108" viewBox="0 0 109 108" fill="none" xmlns="http://www.w3.org/2000/svg">
<path fill-rule="evenodd" clip-rule="evenodd" d="M83.8431 48.8325C83.6406 47.4851 84.2867 46.1517 85.4696 45.4756L90.14 42.8063C93.0358 41.1512 94.026 37.4521 92.3442 34.5717L88.4686 27.9341C86.8088 25.0914 83.1686 24.1168 80.3105 25.75L75.5822 28.4517C74.3834 29.1367 72.8889 29.0257 71.8044 28.1712C69.2828 26.1862 66.4688 24.5767 63.4472 23.3935C62.1647 22.891 61.3209 21.6542 61.3209 20.2767V15C61.3209 11.6863 58.6346 9 55.3209 9H47.4705C44.1567 9 41.4705 11.6863 41.4705 15V20.2857C41.4705 21.6599 40.628 22.8935 39.3481 23.3935C36.4649 24.52 33.7516 26.0552 31.2854 27.9541C30.1941 28.7965 28.7003 28.8912 27.5114 28.1933L22.8052 25.4307C19.965 23.7635 16.3119 24.6973 14.62 27.5228L10.6707 34.1186C8.95725 36.9803 9.90665 40.6902 12.7842 42.3771L17.4139 45.0911C18.5873 45.779 19.2197 47.1154 19.0075 48.459C18.6953 50.4068 18.5491 52.0456 18.5491 53.6121C18.5491 55.0593 18.6795 56.5749 18.9502 58.3897C19.1527 59.7372 18.5067 61.0706 17.3238 61.7468L12.6533 64.4166C9.75828 66.0715 8.76805 69.7694 10.4486 72.6495L14.323 79.2892C15.9825 82.1332 19.6238 83.1084 22.4826 81.4745L27.2159 78.7692C28.4127 78.0852 29.9051 78.1967 30.987 79.0511C33.5066 81.0361 36.3167 82.6455 39.3461 83.8287C40.6264 84.3313 41.4685 85.5664 41.4685 86.9418V92.2222C41.4685 95.5359 44.1548 98.2222 47.4685 98.2222H55.3189C58.6326 98.2222 61.3189 95.5359 61.3189 92.2222V86.9402C61.3189 85.564 62.1631 84.3287 63.4453 83.8287C66.3324 82.7023 69.0457 81.1671 71.504 79.2721C72.5954 78.4296 74.0891 78.3347 75.2783 79.0323L79.9847 81.7935C82.8248 83.4597 86.4771 82.5257 88.1686 79.7007L92.119 73.1031C93.8323 70.2416 92.8832 66.532 90.0061 64.845L85.3759 62.13C84.2005 61.4409 83.569 60.1006 83.7858 58.7554C84.0941 56.8487 84.2443 55.1688 84.2443 53.6101C84.2443 52.163 84.1138 50.6473 83.8431 48.8325ZM51.3977 74C62.4434 74 71.3977 65.0457 71.3977 54C71.3977 42.9543 62.4434 34 51.3977 34C40.352 34 31.3977 42.9543 31.3977 54C31.3977 65.0457 40.352 74 51.3977 74Z" fill="url(#paint0_radial_543_2890)"/>
<path fill-rule="evenodd" clip-rule="evenodd" d="M71.8011 55.4671C77.5553 52.1237 84.6282 52.1821 90.3283 55.6202C95.9725 59.1283 99.4029 65.3892 99.3709 72.1242C99.2396 78.8151 95.5612 85.1044 90.9633 89.9664C88.3095 92.7853 85.3408 95.2778 82.1178 97.3932C81.7858 97.5852 81.4222 97.7137 81.0449 97.7724C80.6818 97.7569 80.3281 97.6496 80.0159 97.4601C75.0953 94.2816 70.7785 90.2244 67.2731 85.4836C64.3398 81.5262 62.6734 76.7452 62.5 71.7897C62.4962 65.0418 66.0469 58.8106 71.8011 55.4671ZM75.1267 74.5823C76.0946 76.9686 78.3793 78.5251 80.914 78.5251C82.5745 78.537 84.1708 77.8719 85.347 76.6779C86.5233 75.4839 87.1818 73.8603 87.1759 72.1688C87.1848 69.5869 85.6648 67.2542 83.3256 66.2599C80.9863 65.2656 78.2894 65.8058 76.494 67.6283C74.6985 69.4508 74.1587 72.1961 75.1267 74.5823Z" fill="url(#paint1_linear_543_2890)"/>
<defs>
<radialGradient id="paint0_radial_543_2890" cx="0" cy="0" r="1" gradientUnits="userSpaceOnUse" gradientTransform="translate(105.897 83.5) rotate(-137.534) scale(79.9813 82.2886)">
<stop offset="0.232242" stop-color="#F0F1F7" stop-opacity="0"/>
<stop offset="1" stop-color="#75FBDC"/>
</radialGradient>
<linearGradient id="paint1_linear_543_2890" x1="94.5" y1="98" x2="72.5047" y2="52.0406" gradientUnits="userSpaceOnUse">
<stop stop-color="#5D54E6" stop-opacity="0"/>
<stop offset="1" stop-color="#5D54E6"/>
</linearGradient>
</defs>
</svg>
