<svg width="24" height="28" viewBox="0 0 24 28" fill="white" xmlns="http://www.w3.org/2000/svg">
<path fill-rule="evenodd" clip-rule="evenodd" d="M12.0384 0.666693C5.89303 0.645815 0.873467 5.5351 0.672842 11.6551L0.666672 12.035C0.768817 15.0347 1.78944 17.8942 3.58705 20.2501L4.00923 20.8011C5.72507 22.9828 7.76416 24.8977 10.0537 26.4761L10.605 26.8472L10.6854 26.9103C11.4701 27.4742 12.5297 27.4742 13.3144 26.9103L13.3814 26.8553C15.1981 25.6771 16.8733 24.2928 18.374 22.7297C21.4248 19.5002 23.2636 15.8816 23.333 12.2066L23.3332 12.0702C23.354 5.90919 18.4798 0.874186 12.3786 0.67288L12.0384 0.666693ZM12.0316 2.68993C17.0696 2.70715 21.16 6.73253 21.3119 11.7455L21.3162 12.1875C21.2578 15.2686 19.6446 18.4432 16.9155 21.3322C15.5239 22.7816 13.9637 24.0701 12.2714 25.1659L12.1586 25.2507C12.0675 25.3298 11.9323 25.3298 11.8412 25.2507L11.7316 25.168C9.21063 23.5221 6.9981 21.444 5.19516 19.0289C3.74291 17.1256 2.88234 14.8498 2.70913 12.4758L2.68368 11.9998C2.70079 6.94959 6.71377 2.84662 11.7113 2.69426L12.0316 2.68993ZM11.9999 7.86835C9.61539 7.86835 7.68235 9.80735 7.68235 12.1992C7.68235 14.5911 9.61539 16.5301 11.9999 16.5301C14.3844 16.5301 16.3175 14.5911 16.3175 12.1992C16.3175 9.80735 14.3844 7.86835 11.9999 7.86835ZM11.9999 9.89158C13.2705 9.89158 14.3005 10.9248 14.3005 12.1992C14.3005 13.4737 13.2705 14.5069 11.9999 14.5069C10.7293 14.5069 9.69935 13.4737 9.69935 12.1992C9.69935 10.9248 10.7293 9.89158 11.9999 9.89158Z"/>
</svg>
