<svg width="148" height="148" viewBox="0 0 148 148" fill="none" xmlns="http://www.w3.org/2000/svg">
<g clip-path="url(#clip0_543_2569)">
<circle cx="73.5" cy="134.5" r="48.5" fill="url(#paint0_linear_543_2569)"/>
<path d="M85.3298 142.464L85.4896 143.111L100 143.118V148H48V143.118H58.6298L58.6678 141.794C58.6678 141.794 58.5689 132.173 59.1244 126.343C59.6798 120.521 58.432 113.119 58.333 111.367C58.2189 109.607 58.7668 95.5775 59.3298 91.1846C59.8853 86.784 59.0102 66.2408 58.782 63.593C58.5765 60.9677 56.2406 54.461 56.2406 54.461C56.2406 54.461 52.5654 50.4968 53.7905 47.6383C55.0079 44.7799 56.4536 42.2524 56.4536 42.2524C56.4536 42.2524 54.6731 36.197 54.9014 32.7819C55.1144 29.3743 54.7872 27.5163 54.7872 27.5163C54.7872 27.5163 53.6763 25.3123 53.6763 24.1012C53.6763 22.8902 53.5622 22.2357 53.5622 22.2357C53.5622 22.2357 52.3447 20.7915 52.4513 18.8056C52.5654 16.8573 53.1056 16.0825 53.1285 16.06V16.0525C53.1285 16.0525 52.3676 15.2175 52.4361 14.3148C51.2643 13.9989 50.4958 13.525 50.4958 12.9759C50.4958 12.8028 50.5871 12.6223 50.7545 12.4568V11.0502C50.5871 10.8922 50.4881 10.7041 50.4881 10.5236C50.4881 9.74882 52.0708 9.08686 54.2013 8.89881C53.6763 8.39482 53.3187 7.55985 53.0143 6.63461C52.2763 4.42308 52.9078 3.36996 53.9046 2.48986C55.2894 1.27878 59.444 0 59.444 0L57.2373 3.4151L59.6114 2.39207C59.6114 2.39207 58.9798 2.97128 58.7287 3.36996C58.47 3.77616 58.4243 4.44564 58.508 5.5815C58.5765 6.70983 57.7243 7.33418 57.2754 7.62755C56.971 7.83817 56.9406 8.50013 56.971 8.92137C59.0102 9.13952 60.5092 9.76386 60.5092 10.5311C60.5092 10.7342 60.4027 10.9298 60.2125 11.0953V12.4192C60.4027 12.5847 60.5092 12.7803 60.5092 12.9683C60.5092 13.5927 59.5353 14.1268 58.0896 14.4276C58.0896 14.7135 58.0287 15.0294 57.808 15.2927C57.2373 15.9471 57.0243 16.4963 57.0243 16.4963C57.0243 16.4963 58.6831 18.2565 58.5841 20.2423C58.47 22.2282 58.5841 24.861 58.5841 26.0721C58.5841 27.2832 61.0266 33.0076 61.1484 36.4227C61.1484 36.6333 61.1484 36.8289 61.156 37.032L61.1788 37.0395C61.1788 37.1975 61.1864 37.3629 61.1864 37.5284C61.2016 37.9196 61.2473 38.3484 61.3158 38.7847C61.4147 39.6873 62.0919 41.7033 62.2289 41.9741C62.6702 42.5307 62.9898 44.1931 63.0811 45.5095C63.1952 47.0365 64.6485 48.6764 65.204 49.218C65.7594 49.7822 66.6877 49.9928 66.6877 49.9928L67.0073 46.8109C67.0073 46.8109 66.5356 45.9609 66.4214 43.802C66.2236 43.4635 65.9344 42.9971 65.7442 42.6962C65.6225 42.4931 65.5388 42.3652 65.5388 42.3652C65.5388 42.3652 64.0398 42.0944 63.0811 41.9741C62.8832 41.5303 62.7234 41.0714 62.5865 40.5524C63.8344 40.4395 65.5844 40.5373 65.5844 40.5373L65.6986 39.8829L62.1375 38.3258C62.206 37.9798 62.2821 37.6638 62.3506 37.3629L66.5279 38.4462L67.0301 37.6187C67.0301 37.6187 63.6593 31.5859 63.9333 31.8115C64.2148 32.0297 69.3357 36.8138 69.3357 36.8138C70.0509 36.4603 69.9368 36.5129 70.789 36.4151L71.7021 28.7726L72.9043 36.4227C73.3913 36.4828 73.8478 36.5731 74.2968 36.716C74.7837 36.3174 78.2382 32.7518 79.2046 31.977C79.4633 31.7664 76.9295 36.8138 76.3664 37.5736C76.724 37.8068 76.6251 38.0324 76.9066 38.3108L83.6787 36.5205L78.0023 40.0333C78.1621 40.3493 78.0936 40.2515 78.1621 40.6201C80.2546 40.8006 84.3026 41.282 84.4852 41.3272C84.6526 41.3723 80.4144 42.4179 78.2687 42.6511C78.2078 43.0422 78.048 43.0046 77.8958 43.3507C78.0556 44.2308 78.261 45.5848 78.0556 46.0887C77.7132 46.856 77.6067 49.3985 77.9415 50.7149C78.1545 51.5725 78.8926 53.626 79.3644 54.9725C80.6959 55.4765 82.0732 56.2287 82.7199 57.3119C84.1733 59.7341 83.8308 63.4726 85.1776 65.0147C86.5168 66.5492 89.0735 67.986 89.0735 67.986L91.8507 63.924L98.5391 67.0006L99.1858 67.986L97.5195 71.732C97.5195 71.732 98.4097 72.9356 97.9532 74.0489C97.5195 75.1396 96.5151 77.4414 95.3965 78.2162C94.3008 78.9835 93.5399 79.9087 93.5399 79.9087C93.5399 79.9087 91.2192 86.6261 90.0018 87.288C88.7691 87.9349 86.6081 89.1235 86.2733 89.3266C85.9462 89.5447 87.9169 104.13 87.2473 104.589C86.5853 105.025 85.7255 107.365 85.7255 107.365C85.7255 107.365 86.9429 129.969 86.0603 131.188C85.17 132.384 84.8961 134.016 84.8961 134.016L85.3298 142.464Z" fill="white"/>
<path d="M85.4896 143.111L85.3298 142.464L84.8961 134.016C84.8961 134.016 85.17 132.384 86.0603 131.188C86.9429 129.969 85.7255 107.365 85.7255 107.365C85.7255 107.365 86.5853 105.025 87.2473 104.589C87.9169 104.13 85.9462 89.5447 86.2733 89.3266C86.6081 89.1235 88.7691 87.935 90.0018 87.288C91.2192 86.6261 93.5399 79.9087 93.5399 79.9087C93.5399 79.9087 94.3008 78.9835 95.3965 78.2162C96.5151 77.4414 97.5195 75.1396 97.9532 74.0489C98.4097 72.9356 97.5195 71.7321 97.5195 71.7321L99.1858 67.986L98.5391 67.0006L91.8507 63.924L89.0735 67.986C89.0735 67.986 86.5168 66.5492 85.1776 65.0147C83.8308 63.4726 84.1733 59.7341 82.7199 57.3119C82.0732 56.2287 80.6959 55.4765 79.3644 54.9725C78.8926 53.626 78.1545 51.5725 77.9415 50.7149C77.6067 49.3985 77.7132 46.856 78.0556 46.0887C78.261 45.5848 78.0556 44.2308 77.8958 43.3507C78.048 43.0046 78.2078 43.0422 78.2687 42.6511C80.4144 42.4179 84.6526 41.3723 84.4852 41.3272C84.3026 41.282 80.2546 40.8006 78.1621 40.6201C78.0936 40.2515 78.1621 40.3493 78.0023 40.0333L83.6787 36.5205L76.9066 38.3108C76.6251 38.0324 76.724 37.8068 76.3664 37.5736C76.9295 36.8138 79.4633 31.7664 79.2046 31.977C78.2382 32.7518 74.7837 36.3174 74.2968 36.716C73.8478 36.5731 73.3913 36.4828 72.9043 36.4227L71.7021 28.7726L70.789 36.4151C69.9368 36.5129 70.0509 36.4603 69.3357 36.8138C69.3357 36.8138 64.2148 32.0297 63.9333 31.8115C63.6593 31.5859 67.0301 37.6187 67.0301 37.6187L66.5279 38.4462L62.3506 37.3629C62.2821 37.6638 62.206 37.9798 62.1375 38.3258L65.6986 39.8829L65.5844 40.5373C65.5844 40.5373 63.8344 40.4395 62.5865 40.5524C62.7234 41.0714 62.8832 41.5303 63.0811 41.9741C64.0398 42.0944 65.5388 42.3652 65.5388 42.3652C65.5388 42.3652 65.6225 42.4931 65.7442 42.6962C65.9344 42.9971 66.2236 43.4635 66.4214 43.802C66.5356 45.9609 67.0073 46.8109 67.0073 46.8109L66.6877 49.9928C66.6877 49.9928 65.7594 49.7822 65.204 49.218C64.6485 48.6764 63.1952 47.0365 63.0811 45.5095C62.9898 44.1931 62.6702 42.5307 62.2289 41.9741C62.0919 41.7033 61.4147 39.6873 61.3158 38.7847C61.2473 38.3484 61.2016 37.9196 61.1864 37.5284C61.1864 37.3629 61.1788 37.1975 61.1788 37.0395L61.156 37.032C61.1484 36.8289 61.1484 36.6333 61.1484 36.4227C61.0266 33.0076 58.5841 27.2832 58.5841 26.0721C58.5841 24.861 58.47 22.2282 58.5841 20.2423C58.6831 18.2565 57.0243 16.4963 57.0243 16.4963C57.0243 16.4963 57.2373 15.9471 57.808 15.2927C58.0287 15.0294 58.0896 14.7135 58.0896 14.4277C59.5353 14.1268 60.5092 13.5927 60.5092 12.9683C60.5092 12.7803 60.4027 12.5847 60.2125 12.4192V11.0953C60.4027 10.9298 60.5092 10.7342 60.5092 10.5311C60.5092 9.76386 59.0102 9.13952 56.971 8.92137C56.9406 8.50013 56.971 7.83817 57.2754 7.62755C57.7243 7.33418 58.5765 6.70984 58.508 5.5815C58.4243 4.44564 58.47 3.77616 58.7287 3.36996C58.9798 2.97128 59.6114 2.39207 59.6114 2.39207L57.2373 3.4151L59.444 0C59.444 0 55.2894 1.27878 53.9046 2.48986C52.9078 3.36996 52.2763 4.42308 53.0143 6.63461C53.3187 7.55985 53.6763 8.39482 54.2013 8.89881C52.0708 9.08686 50.4881 9.74882 50.4881 10.5236C50.4881 10.7041 50.5871 10.8922 50.7545 11.0502V12.4568C50.5871 12.6223 50.4958 12.8028 50.4958 12.9759C50.4958 13.525 51.2643 13.9989 52.4361 14.3148C52.3676 15.2175 53.1285 16.0525 53.1285 16.0525C53.1285 16.06 53.1285 16.06 53.1285 16.06C53.1056 16.0825 52.5654 16.8573 52.4513 18.8056C52.3447 20.7915 53.5622 22.2357 53.5622 22.2357C53.5622 22.2357 53.6763 22.8902 53.6763 24.1012C53.6763 25.3123 54.7872 27.5163 54.7872 27.5163C54.7872 27.5163 55.1144 29.3743 54.9014 32.7819C54.6731 36.197 56.4536 42.2524 56.4536 42.2524C56.4536 42.2524 55.0079 44.7799 53.7905 47.6383C52.5654 50.4968 56.2406 54.461 56.2406 54.461C56.2406 54.461 58.5765 60.9677 58.782 63.593C59.0102 66.2408 59.8853 86.784 59.3298 91.1846C58.7668 95.5775 58.2189 109.607 58.333 111.367C58.432 113.119 59.6798 120.521 59.1244 126.343C58.5689 132.173 58.6678 141.794 58.6678 141.794L58.6298 143.118H48V148H100V143.118L85.4896 143.111ZM92.1627 65.1727L97.7782 67.813L96.6064 70.4533C96.6064 70.4533 95.252 70.3103 94.5139 70.8971C93.7834 71.4763 92.5888 73.5223 92.5888 74.1091C92.5888 74.7033 92.8856 76.0197 92.8856 76.0197L88.5865 83.4968L87.6962 82.7672L86.9658 72.5219L92.1627 65.1727ZM72.7826 45.4042C72.7445 45.6901 72.5999 45.833 72.2651 45.833C71.9303 45.833 71.5651 45.9533 71.5651 45.9533L72.0293 46.6454V47.0365C72.0293 47.0365 71.9303 47.0892 71.5956 47.0892C71.2531 47.0892 71.1466 47.345 71.0781 47.533C70.9944 47.706 71.5195 47.5706 71.8238 47.5706C72.113 47.5706 72.2347 47.9768 72.2347 47.9768C72.2347 47.9768 72.2347 48.7742 72.2347 49.1127C72.2347 49.4361 71.9988 49.4813 71.6032 49.4361C71.1999 49.4061 69.9672 49.3233 69.5487 48.5937C69.1454 47.8489 69.077 46.0511 69.2596 45.7352C69.4574 45.4117 70.8955 44.7799 71.1542 44.7122C71.4053 44.637 71.489 43.9073 71.4053 43.5312C71.3292 43.1626 70.1118 42.9068 70.1118 42.9068C69.4879 42.3126 72.2651 41.0714 72.638 41.1542C73.0032 41.2143 74.6315 42.7263 74.6315 42.7263C74.6315 42.7263 73.0793 43.0197 72.851 43.2754C72.638 43.5312 72.8206 45.1109 72.7826 45.4042ZM74.2359 47.0892C73.8935 47.202 73.0489 45.0281 73.5587 45.0281C73.5587 45.0281 74.9359 45.0657 74.9663 45.4042C75.0044 45.7352 74.5783 46.9764 74.2359 47.0892ZM73.5282 40.5298C73.2239 40.4847 72.1054 40.086 71.489 40.4395C70.8575 40.8232 69.0085 42.1697 68.3465 42.6511C67.6617 43.1325 67.4791 41.3648 67.4791 41.3648C68.2248 40.1236 70.1879 39.1382 70.9944 39.063C71.8238 38.9802 73.0032 39.1382 73.4141 39.3563C73.8174 39.567 74.7837 39.3112 75.5218 39.913C76.2675 40.4772 76.686 41.8086 76.5718 42.1471C76.4577 42.4706 73.825 40.5599 73.5282 40.5298Z" fill="url(#paint1_linear_543_2569)"/>
<path d="M128.977 64.3254C135.301 77.0749 115.546 99.7517 84.8535 114.975C54.1609 130.199 24.1532 132.204 17.8293 119.455C12.8111 109.337 24.215 92.9687 44.4751 79.0338" stroke="#75FBDC" stroke-linecap="round"/>
<path d="M72.2651 113.01C50.6651 123.724 29.5471 125.135 25.0967 116.163" stroke="#75FBDC" stroke-linecap="round"/>
</g>
<defs>
<linearGradient id="paint0_linear_543_2569" x1="79" y1="45" x2="79" y2="148.5" gradientUnits="userSpaceOnUse">
<stop offset="0.0138835" stop-color="white" stop-opacity="0"/>
<stop offset="1" stop-color="#75FBDC" stop-opacity="0.7"/>
</linearGradient>
<linearGradient id="paint1_linear_543_2569" x1="74" y1="0" x2="74" y2="148" gradientUnits="userSpaceOnUse">
<stop stop-color="#3F37C9"/>
<stop offset="1" stop-color="#3F37C9" stop-opacity="0.4"/>
</linearGradient>
<clipPath id="clip0_543_2569">
<rect width="148" height="148" fill="white"/>
</clipPath>
</defs>
</svg>
