<svg width="28" height="28" viewBox="0 0 28 28" fill="none" xmlns="http://www.w3.org/2000/svg">
<path d="M12.7678 3.03892C13.2045 1.78716 14.9748 1.78716 15.4115 3.03892L17.4818 8.97298C17.6743 9.52475 18.1893 9.89891 18.7735 9.91148L25.0569 10.0467C26.3824 10.0753 26.9294 11.7589 25.8739 12.5611L20.87 16.3638C20.4048 16.7174 20.208 17.3228 20.3766 17.8823L22.1897 23.9C22.5721 25.1694 21.1399 26.2099 20.0509 25.4539L14.888 21.87C14.4079 21.5368 13.7714 21.5368 13.2913 21.87L8.12844 25.4539C7.03935 26.2099 5.60717 25.1694 5.98962 23.9L7.80266 17.8823C7.97124 17.3228 7.77454 16.7174 7.30926 16.3638L2.30539 12.5611C1.24985 11.7589 1.7969 10.0753 3.12235 10.0467L9.40574 9.91148C9.98999 9.89891 10.505 9.52475 10.6975 8.97298L12.7678 3.03892Z" fill="#75FBDC"/>
</svg>
