<svg width="20" height="20" viewBox="0 0 20 20" fill="none" xmlns="http://www.w3.org/2000/svg">
<path d="M10 20C15.5228 20 20 15.5228 20 10C20 4.47715 15.5228 0 10 0C4.47715 0 0 4.47715 0 10C0 15.5228 4.47715 20 10 20Z" fill="#0971BD"/>
<path fill-rule="evenodd" clip-rule="evenodd" d="M5 7.09432C5 7.09432 9.18709 9.58325 9.99979 9.58325C10.8516 9.58325 14.9933 7.14186 14.9933 7.14186L15 6.70566C15 6.22409 14.6271 5.83325 14.1665 5.83325H5.83309C5.37285 5.83325 5 6.22409 5 6.70566V7.09432ZM14.9933 8.33325C14.9933 8.33325 10.8907 10.5611 9.99979 10.5611C9.18709 10.5611 5.00624 8.33325 5.00666 8.33325L5 13.3333C5 13.7933 5.37327 14.1666 5.83309 14.1666H14.1665C14.6271 14.1666 15 13.7933 15 13.3333L14.9933 8.33325Z" fill="white"/>
</svg>
