<svg width="20" height="20" viewBox="0 0 20 20" fill="none" xmlns="http://www.w3.org/2000/svg">
<path d="M17.6673 8.72359L14.8006 11.5903C14.6111 11.7799 14.3268 11.7799 14.1372 11.5903C13.9477 11.4008 13.9477 11.1165 14.1372 10.9269L17.0039 8.06022C18.4018 6.66239 18.4018 4.38796 17.0039 2.99013C16.3169 2.30306 15.4403 1.94768 14.4689 1.94768C13.5212 1.94768 12.6209 2.32675 11.9339 2.99013L9.06713 5.85686C7.6693 7.25469 7.6693 9.52912 9.06713 10.9269C9.39882 11.2586 9.80158 11.5429 10.2517 11.7088C10.4886 11.8036 10.6071 12.0879 10.5123 12.3248C10.2991 12.8223 10.0157 12.6351 9.89635 12.5854C9.32774 12.3485 8.83021 12.0168 8.40375 11.5903C6.62685 9.83712 6.62685 6.94669 8.40375 5.19348L11.2705 2.32675C12.1234 1.47384 13.2606 1 14.4689 1C15.6772 1 16.8144 1.47384 17.6673 2.32675C19.4442 4.07996 19.4442 6.97038 17.6673 8.72359ZM10.0859 7.42053C9.84896 7.32576 9.56466 7.44422 9.46989 7.68114C9.37512 7.91806 9.49358 8.20237 9.7305 8.29713C10.1807 8.48667 10.5834 8.74728 10.9151 9.07897C12.3129 10.4768 12.3129 12.7512 10.9151 14.1491L8.04837 17.0158C7.3613 17.7029 6.4847 18.0582 5.51333 18.0582C4.56565 18.0582 3.66535 17.6792 2.97828 17.0158C1.58045 15.618 1.58045 13.3435 2.97828 11.9457L5.84501 9.07897C6.03455 8.88943 6.03455 8.60513 5.84501 8.4156C5.65548 8.22606 5.37117 8.22606 5.18164 8.4156L2.31491 11.2823C0.561698 13.0355 0.561698 15.926 2.31491 17.6792C3.16782 18.5321 4.30503 19.0059 5.51333 19.0059C6.72162 19.0059 7.85883 18.5321 8.71175 17.6792L11.5785 14.8124C13.3554 13.0592 13.3554 10.1688 11.5785 8.4156C11.152 7.98914 10.6545 7.65745 10.0859 7.42053Z" fill="#12151F" stroke="black" stroke-width="0.5"/>
</svg>
