<svg width="20" height="21" viewBox="0 0 20 21" fill="none" xmlns="http://www.w3.org/2000/svg">
<path d="M0 10.5C0 4.97715 4.47715 0.5 10 0.5C15.5228 0.5 20 4.97715 20 10.5C20 16.0228 15.5228 20.5 10 20.5C4.47715 20.5 0 16.0228 0 10.5Z" fill="#55ACEE"/>
<path d="M10.0218 8.38184L10.0498 8.85041L9.58313 8.79303C7.88452 8.57309 6.40057 7.8272 5.14062 6.57449L4.52464 5.95291L4.36598 6.41192C4.02999 7.43513 4.24465 8.51571 4.94462 9.24248C5.31794 9.64411 5.23395 9.70149 4.58997 9.46242C4.36598 9.38592 4.16999 9.32854 4.15132 9.35723C4.08599 9.42417 4.30998 10.2944 4.48731 10.6386C4.72997 11.1168 5.22461 11.5853 5.76593 11.8627L6.22325 12.0826L5.68193 12.0922C5.15928 12.0922 5.14062 12.1017 5.19662 12.3025C5.38328 12.9241 6.12058 13.5839 6.94189 13.8708L7.52053 14.0716L7.01655 14.3776C6.26991 14.8175 5.39261 15.0662 4.51531 15.0853C4.09532 15.0949 3.75 15.1331 3.75 15.1618C3.75 15.2574 4.88863 15.7929 5.55127 16.0033C7.5392 16.6249 9.90045 16.3571 11.6737 15.2957C12.9337 14.5402 14.1936 13.0389 14.7816 11.5853C15.0989 10.8108 15.4163 9.39548 15.4163 8.71653C15.4163 8.27665 15.4443 8.21927 15.9669 7.69332C16.2749 7.38732 16.5642 7.05262 16.6202 6.95699C16.7135 6.7753 16.7042 6.7753 16.2282 6.93787C15.4349 7.22475 15.3229 7.1865 15.7149 6.75618C16.0042 6.45017 16.3496 5.89553 16.3496 5.73297C16.3496 5.70428 16.2096 5.75209 16.0509 5.83816C15.8829 5.93379 15.5096 6.07723 15.2296 6.16329L14.7256 6.32586L14.2683 6.01029C14.0163 5.83816 13.6616 5.6469 13.475 5.58953C12.999 5.45565 12.271 5.47478 11.8417 5.62778C10.6751 6.0581 9.93778 7.16737 10.0218 8.38184Z" fill="white"/>
</svg>
