<svg width="20" height="21" viewBox="0 0 20 21" fill="none" xmlns="http://www.w3.org/2000/svg">
<path d="M10 20.5C15.5228 20.5 20 16.0228 20 10.5C20 4.97715 15.5228 0.5 10 0.5C4.47715 0.5 0 4.97715 0 10.5C0 16.0228 4.47715 20.5 10 20.5Z" fill="#25D366"/>
<path fill-rule="evenodd" clip-rule="evenodd" d="M10.3293 16.0636H10.3268C9.33163 16.0633 8.35376 15.8136 7.48524 15.3399L4.33301 16.1667L5.1766 13.0854C4.65623 12.1836 4.38242 11.1607 4.38286 10.1127C4.38417 6.83412 7.05168 4.16675 10.3292 4.16675C11.9199 4.16743 13.4129 4.78669 14.5356 5.91067C15.6583 7.03459 16.2762 8.52855 16.2756 10.1174C16.2743 13.3952 13.6078 16.0623 10.3293 16.0636ZM7.63129 14.2634L7.81176 14.3705C8.57059 14.8208 9.44042 15.059 10.3273 15.0594H10.3293C13.0534 15.0594 15.2705 12.8422 15.2716 10.117C15.2721 8.79642 14.7585 7.5547 13.8254 6.62049C12.8923 5.68629 11.6513 5.17155 10.3312 5.1711C7.60506 5.1711 5.38791 7.38804 5.38683 10.113C5.38645 11.0469 5.64775 11.9564 6.14248 12.7433L6.26 12.9303L5.76071 14.7541L7.63129 14.2634ZM13.1215 11.3976C13.2251 11.4477 13.2951 11.4815 13.325 11.5314C13.3621 11.5933 13.3621 11.8908 13.2384 12.2379C13.1145 12.585 12.5209 12.9017 12.2355 12.9444C11.9795 12.9827 11.6556 12.9986 11.2997 12.8855C11.0839 12.817 10.8071 12.7256 10.4526 12.5725C9.05974 11.9711 8.11844 10.6211 7.94053 10.3659C7.92807 10.3481 7.91935 10.3356 7.91449 10.3291L7.91329 10.3275C7.83466 10.2225 7.30781 9.5196 7.30781 8.79207C7.30781 8.10768 7.64399 7.74896 7.79873 7.58384C7.80934 7.57253 7.81909 7.56212 7.82782 7.55258C7.964 7.40383 8.12498 7.36665 8.22402 7.36665C8.32306 7.36665 8.42222 7.36756 8.50879 7.37191C8.51947 7.37245 8.53058 7.37238 8.54207 7.37231C8.62865 7.37181 8.7366 7.37117 8.84308 7.62696C8.88405 7.72539 8.94399 7.87132 9.00721 8.02523C9.13506 8.33649 9.27632 8.6804 9.30117 8.73017C9.33833 8.80454 9.36308 8.89127 9.31356 8.99048C9.30613 9.00535 9.29925 9.01939 9.29268 9.0328C9.25548 9.10874 9.22812 9.16461 9.16499 9.23832C9.14016 9.26731 9.1145 9.29855 9.08885 9.3298C9.03773 9.39205 8.98662 9.45429 8.94211 9.49863C8.86773 9.57272 8.7903 9.6531 8.87697 9.80185C8.96364 9.9506 9.26183 10.4371 9.70353 10.8311C10.1783 11.2546 10.591 11.4336 10.8002 11.5243C10.841 11.5421 10.8741 11.5564 10.8984 11.5686C11.0469 11.643 11.1336 11.6305 11.2202 11.5314C11.3069 11.4322 11.5917 11.0975 11.6907 10.9488C11.7897 10.8001 11.8888 10.8249 12.025 10.8744C12.1612 10.9241 12.8917 11.2835 13.0403 11.3578C13.0693 11.3724 13.0964 11.3855 13.1215 11.3976Z" fill="#FDFDFD"/>
</svg>
