<svg viewBox="0 0 176 120" fill="none" xmlns="http://www.w3.org/2000/svg">
<path fill-rule="evenodd" clip-rule="evenodd" d="M29.1758 0.470703L58.3523 29.6472H101.646L72.4699 0.470703H29.1758ZM58.3521 29.6472H101.646V120H58.3521V29.6472Z" fill="#C1C9D0"/>
<path fill-rule="evenodd" clip-rule="evenodd" d="M74.3535 58.8237L103.53 29.6472L132.706 58.8237H74.3535ZM132.706 58.8237H74.3536V120H132.706V58.8237Z" fill="#CED6DE"/>
<path fill-rule="evenodd" clip-rule="evenodd" d="M58.3529 29.6472L29.1765 0.470703L0 29.6472V120H58.3529V29.6472Z" fill="#CED6DE"/>
<rect x="88.4707" y="63.5295" width="13.1765" height="19.7647" fill="#F0F2F5"/>
<rect x="103.529" y="63.5295" width="13.1765" height="19.7647" fill="#F0F2F5"/>
<path fill-rule="evenodd" clip-rule="evenodd" d="M103.529 29.6472L132.706 58.8237H132.706V120H176V58.8236H176L146.823 29.6472H103.529Z" fill="#C1C9D0"/>
<path d="M94.1172 101.177C94.1172 95.9786 98.331 91.7648 103.529 91.7648C108.727 91.7648 112.941 95.9786 112.941 101.177V120H94.1172V101.177Z" fill="#F0F2F5"/>
<rect x="7" y="91.2942" width="13.1765" height="19.7647" fill="#F0F2F5"/>
<rect x="7" y="63.0001" width="13.1765" height="19.7647" fill="#F0F2F5"/>
<rect x="7" y="35" width="13.1765" height="19.7647" fill="#F0F2F5"/>
<rect x="22.0586" y="91.2942" width="13.1765" height="19.7647" fill="#F0F2F5"/>
<rect x="37" y="91.2942" width="13.1765" height="19.7647" fill="#F0F2F5"/>
<rect x="22.0586" y="63.0001" width="13.1765" height="19.7647" fill="#F0F2F5"/>
<rect x="22.0586" y="35.0001" width="13.1765" height="19.7647" fill="#F0F2F5"/>
<rect x="37" y="63.0001" width="13.1765" height="19.7647" fill="#F0F2F5"/>
<rect x="37" y="35.0001" width="13.1765" height="19.7647" fill="#F0F2F5"/>
</svg>
