<svg width="152" height="132" viewBox="0 0 152 132" fill="none" xmlns="http://www.w3.org/2000/svg">
<path d="M95.7388 74.1427V10.5015H88.3092H83.6938H60.5043V45.3991H9.0597V132H95.7388V74.1427Z" fill="url(#paint0_linear_1900_7900)"/>
<rect width="27.4627" height="104.077" transform="matrix(-1 0 0 1 141.224 0)" fill="url(#paint1_linear_1900_7900)"/>
<path fill-rule="evenodd" clip-rule="evenodd" d="M0.477615 94.7693L27.0821 68.5386L53.6866 94.7693V132H0.477615V94.7693Z" fill="#CED6DE"/>
<rect x="74.2836" y="104.923" width="12.0149" height="17.7692" fill="#ABB5BD"/>
<path d="M18.5 107.462H35.6642V132H18.5V107.462Z" fill="#F0F2F5"/>
<path fill-rule="evenodd" clip-rule="evenodd" d="M27.0821 68.5386L53.6866 94.7693L53.6866 132H93.1642V94.7693L66.5597 68.5386H27.0821Z" fill="#C1C9D0"/>
<ellipse cx="27.0821" cy="91.3846" rx="8.58209" ry="8.46154" fill="#F0F2F5"/>
<path d="M70.8508 27.9231H121.485V132H70.8508V27.9231Z" fill="#CED6DE"/>
<rect width="28.3209" height="104.077" transform="matrix(-1 0 0 1 149.806 27.9231)" fill="#C1C9D0"/>
<path d="M76.8582 43.6553C76.8582 40.5744 79.3557 38.0769 82.4366 38.0769C85.5174 38.0769 88.0149 40.5744 88.0149 43.6553V54.1538H76.8582V43.6553Z" fill="#F0F2F5"/>
<path d="M90.5896 43.6553C90.5896 40.5744 93.0871 38.0769 96.1679 38.0769C99.2487 38.0769 101.746 40.5744 101.746 43.6553V54.1538H90.5896V43.6553Z" fill="#F0F2F5"/>
<path d="M104.321 43.6553C104.321 40.5744 106.818 38.0769 109.899 38.0769C112.98 38.0769 115.478 40.5744 115.478 43.6553V54.1538H104.321V43.6553Z" fill="#F0F2F5"/>
<path d="M76.8582 89.3476C76.8582 86.2668 79.3557 83.7693 82.4366 83.7693C85.5174 83.7693 88.0149 86.2668 88.0149 89.3476V99.8462H76.8582V89.3476Z" fill="#F0F2F5"/>
<path d="M90.5896 89.3476C90.5896 86.2668 93.0871 83.7693 96.1679 83.7693C99.2487 83.7693 101.746 86.2668 101.746 89.3476V99.8462H90.5896V89.3476Z" fill="#F0F2F5"/>
<path d="M104.321 89.3476C104.321 86.2668 106.818 83.7693 109.899 83.7693C112.98 83.7693 115.478 86.2668 115.478 89.3477V99.8462H104.321V89.3476Z" fill="#F0F2F5"/>
<path d="M76.8582 66.5015C76.8582 63.4206 79.3557 60.9231 82.4366 60.9231C85.5174 60.9231 88.0149 63.4206 88.0149 66.5015V77H76.8582V66.5015Z" fill="#F0F2F5"/>
<path d="M90.5896 66.5014C90.5896 63.4206 93.0871 60.9231 96.1679 60.9231C99.2487 60.9231 101.746 63.4206 101.746 66.5015V77H90.5896V66.5014Z" fill="#F0F2F5"/>
<path d="M104.321 66.5015C104.321 63.4206 106.818 60.9231 109.899 60.9231C112.98 60.9231 115.478 63.4206 115.478 66.5015V77H104.321V66.5015Z" fill="#F0F2F5"/>
<path d="M76.8582 112.194C76.8582 109.113 79.3557 106.615 82.4366 106.615C85.5174 106.615 88.0149 109.113 88.0149 112.194V122.692H76.8582V112.194Z" fill="#F0F2F5"/>
<path d="M90.5896 112.194C90.5896 109.113 93.0871 106.615 96.1679 106.615C99.2487 106.615 101.746 109.113 101.746 112.194V122.692H90.5896V112.194Z" fill="#F0F2F5"/>
<path d="M104.321 112.194C104.321 109.113 106.818 106.615 109.899 106.615C112.98 106.615 115.478 109.113 115.478 112.194V122.692H104.321V112.194Z" fill="#F0F2F5"/>
<rect x="69.1343" y="24.5386" width="52.3507" height="3.38461" fill="#C1C9D0"/>
<rect x="121.485" y="24.5386" width="30.0373" height="3.38461" fill="#C1C9D0"/>
<defs>
<linearGradient id="paint0_linear_1900_7900" x1="52.3993" y1="10.5015" x2="52.3993" y2="132" gradientUnits="userSpaceOnUse">
<stop stop-color="#F0F2F5"/>
<stop offset="1" stop-color="#F0F2F5" stop-opacity="0"/>
</linearGradient>
<linearGradient id="paint1_linear_1900_7900" x1="13.7313" y1="0" x2="13.7313" y2="104.077" gradientUnits="userSpaceOnUse">
<stop stop-color="#F0F2F5"/>
<stop offset="1" stop-color="#F0F2F5" stop-opacity="0"/>
</linearGradient>
</defs>
</svg>
