<svg width="64" height="64" viewBox="0 0 64 64" fill="none" xmlns="http://www.w3.org/2000/svg">
<g clip-path="url(#clip0_4020_625582)">
<path d="M51.6096 53.282C38.6341 64.5331 6.49745 63.5598 4.3858 48.5654C2.27414 33.5711 -3.0458 29.4678 1.50024 14.4996C6.04628 -0.468627 41.4042 -4.51365 57.273 12.556C68.1204 25.0659 64.5851 42.0309 51.6096 53.282Z" fill="url(#paint0_linear_4020_625582)"/>
<path fill-rule="evenodd" clip-rule="evenodd" d="M31 11.9996C42.0457 11.9996 51 20.954 51 31.9998C51 43.0456 42.0457 52 31 52C19.9543 52 11 43.0456 11 31.9998C11 20.954 19.9543 11.9996 31 11.9996ZM31 18.6655C38.3638 18.6655 44.3333 24.635 44.3333 31.9988C44.3333 39.3626 38.3638 45.3321 31 45.3321C23.6363 45.3321 17.6668 39.3626 17.6668 31.9988C17.6668 24.635 23.6363 18.6655 31 18.6655Z" fill="#5D54E6"/>
<path d="M31 46C38.732 46 45 39.732 45 32C45 24.268 38.732 18 31 18C23.268 18 17 24.268 17 32C17 39.732 23.268 46 31 46Z" fill="url(#paint1_linear_4020_625582)"/>
<path d="M13 32C13 22.0589 21.0589 14 31 14" stroke="white" stroke-width="1.5" stroke-linecap="round"/>
<path d="M57 25H55V35H57V25Z" fill="#5DF1CF"/>
<path d="M56 49C57.1045 49 58 48.3198 58 47.4806V37.5194C58 36.6803 57.1046 36 56 36C54.8955 36 54 36.6802 54 37.5194V47.4806C54 48.3198 54.8955 49 56 49Z" fill="#5DF1CF"/>
<path d="M60 22.1167V13.932C60 13.4543 59.7193 13.0262 59.3448 13.0014C58.9455 12.9747 58.6153 13.3795 58.6153 13.8821V20.6474C58.6153 21.0441 58.3626 21.3655 58.0514 21.3648C57.8001 21.3642 57.5049 21.3634 57.254 21.363C56.9433 21.3624 56.6924 21.0412 56.6924 20.6456V13.9318C56.6924 13.4541 56.4117 13.026 56.0372 13.0013C55.6379 12.9745 55.3076 13.3793 55.3076 13.8819V20.6454C55.3076 21.0412 55.0567 21.3622 54.746 21.3628C54.4951 21.3632 54.1999 21.3638 53.9486 21.3646C53.6372 21.3652 53.3847 21.0437 53.3847 20.6472V13.9318C53.3847 13.4541 53.104 13.026 52.7295 13.0013C52.3302 12.9745 52 13.3793 52 13.8819V22.1165C52 24.2613 53.3649 26 55.0485 26H55.9994C55.9997 26 55.9998 26 56.0002 26C56.0005 26 56.0006 26 56.0009 26H56.9518C58.6353 25.9998 60 24.2615 60 22.1167Z" fill="#5DF1CF"/>
<path d="M7 25H5V34H7V25Z" fill="#5DF1CF"/>
<path d="M1 20.8001C1 17.928 3.23857 13 6 13C8.76143 13 11 17.928 11 20.8001C11 23.6721 8.76143 26 6 26C3.23857 26 1 23.6721 1 20.8001Z" fill="#5DF1CF"/>
<path d="M6 49C7.10441 49 8 48.3196 8 47.4805V37.5195C8 36.6804 7.10441 36 6 36C4.89559 36 4 36.6804 4 37.5195V47.4805C4.00017 48.3197 4.89559 49 6 49Z" fill="#5DF1CF"/>
</g>
<defs>
<linearGradient id="paint0_linear_4020_625582" x1="14.1366" y1="10.2751" x2="57.8027" y2="47.8421" gradientUnits="userSpaceOnUse">
<stop stop-color="#F1F1F1"/>
<stop offset="1" stop-color="#F1F1F1" stop-opacity="0"/>
</linearGradient>
<linearGradient id="paint1_linear_4020_625582" x1="20.8319" y1="23.5151" x2="39.9032" y2="43.7783" gradientUnits="userSpaceOnUse">
<stop stop-color="#8A83F8"/>
<stop offset="1" stop-color="#DCDAFF"/>
</linearGradient>
<clipPath id="clip0_4020_625582">
<rect width="64" height="64" fill="white"/>
</clipPath>
</defs>
</svg>
