<svg width="64" height="64" viewBox="0 0 64 64" fill="none" xmlns="http://www.w3.org/2000/svg">
<g clip-path="url(#clip0_4020_625553)">
<path d="M15.2859 57.6572C29.9607 66.1298 57.7236 61.7522 57.1979 46.4269C56.6722 31.1017 35.5043 39.8482 40.4156 14.1313C45.3268 -11.5857 12.5281 1.07038 4.05558 15.7452C-4.41695 30.4201 0.611022 49.1847 15.2859 57.6572Z" fill="url(#paint0_linear_4020_625553)"/>
<ellipse cx="32.0004" cy="32.0793" rx="24.84" ry="24.9196" fill="url(#paint1_linear_4020_625553)"/>
<path d="M7.57086 26.9616C7.48925 27.3685 7.41731 27.779 7.35567 28.1926C7.29411 28.6065 7.2424 29.0235 7.20116 29.4439C7.11876 30.2842 7.07786 31.1368 7.08062 31.9999C7.08339 32.863 7.12976 33.7156 7.21755 34.556C7.26148 34.9762 7.3156 35.3935 7.38008 35.8073C7.44429 36.2209 7.51894 36.6316 7.60316 37.0382C7.68738 37.4449 7.78169 37.8483 7.88522 38.2475C8.09281 39.0462 8.33833 39.8297 8.62036 40.5954C8.7613 40.9782 8.91145 41.3569 9.0702 41.7306C9.22887 42.1043 9.39667 42.4737 9.57265 42.838C9.66068 43.0201 9.75105 43.2012 9.84334 43.3809C10.0278 43.7401 10.2208 44.0944 10.4221 44.4434C11.0257 45.4904 11.7024 46.4896 12.4452 47.4342C12.8167 47.9064 13.2046 48.365 13.6082 48.809C13.8773 49.1051 14.1532 49.3945 14.4361 49.6772C14.7188 49.9601 15.0083 50.236 15.3042 50.5051C16.6356 51.7156 18.0974 52.7842 19.6658 53.6873C20.0143 53.8879 20.368 54.0807 20.7268 54.2646C21.4444 54.6327 22.1819 54.9669 22.9374 55.2655C23.315 55.4148 23.6973 55.5551 24.0837 55.6862C26.5952 56.5379 29.2847 56.9997 32.0802 56.9997C33.9861 56.9997 35.8408 56.7841 37.6229 56.3778C38.4546 56.188 39.2708 55.9574 40.0684 55.6863C40.454 55.5554 40.8351 55.415 41.2121 55.2659C41.9656 54.9676 42.7009 54.6331 43.4161 54.2648C43.7737 54.0809 44.1263 53.8883 44.4733 53.6877C46.036 52.7847 47.491 51.7158 48.8146 50.5054C49.1089 50.2363 49.3965 49.9602 49.6774 49.6775C49.9582 49.3949 50.2326 49.1053 50.4998 48.8094C50.9005 48.3655 51.2856 47.9069 51.6539 47.4346C52.2369 46.6874 52.7767 45.9055 53.2729 45.0935C53.404 44.8788 53.5331 44.6627 53.6579 44.4436C53.8571 44.0948 54.0478 43.7405 54.23 43.3811C54.3211 43.2013 54.41 43.0205 54.497 42.8384C54.6711 42.4742 54.8361 42.1049 54.9925 41.731C55.1488 41.3571 55.2966 40.9786 55.435 40.5956C55.7121 39.8298 55.9526 39.0465 56.1551 38.2479C56.2563 37.8484 56.348 37.4452 56.4295 37.0386C56.511 36.6316 56.5831 36.2212 56.6447 35.8075C56.7062 35.3936 56.7579 34.9765 56.7992 34.5562C56.8816 33.7159 56.9226 32.8633 56.9198 32.0002C56.9171 31.1372 56.8706 30.2845 56.7828 29.4442C56.7388 29.0238 56.6847 28.6068 56.6203 28.1929C56.556 27.7792 56.4814 27.3685 56.3972 26.9619C56.313 26.5552 56.2187 26.1517 56.1151 25.7526C55.9075 24.954 55.6619 24.1706 55.3799 23.4048C55.3095 23.2133 55.2366 23.023 55.1617 22.8336C54.9368 22.266 54.6917 21.7085 54.4275 21.162C54.3394 20.9799 54.249 20.799 54.1568 20.6192C53.9723 20.2599 53.7792 19.9056 53.5779 19.5567C52.9744 18.5097 52.2977 17.5105 51.5549 16.5659C51.1834 16.0937 50.7955 15.6352 50.3918 15.1911C50.1228 14.8952 49.8468 14.6056 49.564 14.323C49.2814 14.04 48.9918 13.7641 48.6959 13.4952C48.1228 12.974 47.525 12.4799 46.9055 12.0134C46.0857 11.3961 45.2274 10.8274 44.3342 10.313C43.9857 10.1125 43.6319 9.9197 43.2733 9.73578C43.11 9.65207 42.9456 9.57055 42.7805 9.4906C42.5824 9.39457 42.383 9.3002 42.1821 9.20933C42.0979 9.17132 42.013 9.13524 41.9286 9.0981C41.6424 8.97219 41.3545 8.8503 41.0627 8.73505C41.0588 8.73339 41.0545 8.73208 41.0504 8.73025C40.7396 8.60783 40.425 8.49258 40.1082 8.38214C40.0442 8.35994 39.9807 8.33618 39.9163 8.31451C39.1775 8.064 38.4233 7.84818 37.6556 7.66722C37.4158 7.61052 37.1749 7.55652 36.9325 7.5068C36.7578 7.47098 36.5823 7.43777 36.4063 7.4057C35.0948 7.16664 33.748 7.03138 32.3743 7.00674C32.2227 7.00395 32.0717 7.00098 31.9194 7.00098C31.6612 7.00098 31.404 7.00631 31.1476 7.01408C28.6293 7.09106 26.2057 7.54166 23.9312 8.3146C23.5457 8.44566 23.1643 8.58599 22.7876 8.73514C22.671 8.78136 22.556 8.82977 22.4403 8.87765C22.1818 8.9846 21.925 9.09426 21.671 9.20942C21.3035 9.37657 20.941 9.55194 20.5835 9.73613C20.2258 9.92005 19.8734 10.1126 19.5261 10.3133C18.1293 11.1208 16.8186 12.0606 15.6103 13.1157C15.4671 13.2408 15.3252 13.367 15.1849 13.4954C14.8906 13.7644 14.6029 14.0406 14.3221 14.3232C14.0414 14.6059 13.7669 14.8954 13.4997 15.1914C13.0989 15.6353 12.714 16.0938 12.3456 16.5662C11.6087 17.5105 10.9384 18.51 10.3416 19.557C10.1425 19.9059 9.95179 20.2602 9.7696 20.6195C9.67846 20.7992 9.5895 20.9802 9.50247 21.1623C9.24171 21.7088 9.00041 22.2663 8.77891 22.8339C8.70513 23.0232 8.63354 23.2135 8.5643 23.405C8.28717 24.1707 8.04668 24.9541 7.84421 25.7528C7.74411 26.1515 7.65247 26.555 7.57086 26.9616ZM27.7027 8.71801C27.7518 8.80093 27.7928 8.89661 27.9121 8.93296C28.1449 8.81177 28.378 8.941 28.6349 8.93296C28.8852 8.92413 29.1084 8.80915 29.3844 8.85249C29.8721 8.92894 30.5546 9.40707 30.9378 9.14764C31.0343 9.08211 31.011 8.96905 31.0977 8.79901C31.1668 8.66314 31.2748 8.51268 31.3409 8.34527C31.5349 8.34046 31.7291 8.33775 31.9242 8.33775C33.5358 8.33775 35.1108 8.50114 36.6336 8.81151C36.5703 8.97997 36.3606 8.90482 36.1852 8.98635C36.0206 9.06306 35.9595 9.22139 35.7845 9.25451C35.2979 9.34651 34.8937 9.13209 34.4724 9.14756C34.4532 9.33044 34.6815 9.43686 34.7947 9.49566C35.1773 9.69646 35.4881 9.66893 36.0265 9.65687C36.3024 9.65076 36.6198 9.73953 36.8564 9.57614C37.0063 9.47321 36.9975 9.24647 37.1228 9.12056C37.1762 9.06735 37.2547 9.01387 37.3433 8.96843C37.6078 9.031 37.8706 9.09889 38.1321 9.17027C38.0886 9.35106 37.7968 9.30746 37.7938 9.54966C37.9805 9.66168 38.413 9.48841 38.5797 9.29723C38.6444 9.31646 38.7096 9.33577 38.7742 9.35525C39.1532 9.47076 39.5283 9.59536 39.8993 9.72905C40.428 9.91997 40.9479 10.1293 41.4587 10.3561C41.3609 10.4141 41.2567 10.4884 41.1706 10.4879C40.9493 10.4865 40.8538 10.19 40.6073 10.2997C40.5868 10.5868 40.9117 10.7031 41.1176 10.8358C41.3406 10.9793 41.5748 11.1224 41.6547 11.3721C41.4384 11.8352 41.0893 11.3478 40.7445 11.3456C40.3645 11.3429 39.8123 12.07 39.4866 11.4796C39.5663 11.1667 39.9101 11.1181 39.9931 10.8092C39.9193 10.8218 39.848 10.8458 39.777 10.8745C39.6499 10.925 39.5246 10.9931 39.395 11.0632C39.2248 11.1552 39.0461 11.2466 38.8433 11.292C38.6568 11.3333 38.4748 11.3233 38.3081 11.372C37.9881 11.4661 37.765 11.7031 37.4265 11.8284C37.2943 11.8771 37.1359 11.8621 36.9982 11.9084C36.6754 12.0167 36.2887 12.2103 35.9558 12.3912C35.6155 12.576 35.2317 12.7701 35.0206 12.9543C34.9067 13.0532 34.6102 13.4051 34.6208 13.5168C34.6349 13.6765 34.9352 13.7294 34.9433 13.8925C34.9368 13.9914 34.7704 14.2047 34.8913 14.3483C35.0013 14.4791 35.2205 14.3732 35.4534 14.4018C35.8626 14.4526 36.1314 14.7911 36.4457 14.9648C36.6835 15.0962 37.0363 15.2526 37.3043 15.2865C37.6723 15.3328 38.0834 15.1791 38.1345 15.4742C38.1841 15.7579 37.7895 15.8592 37.7617 16.0373C37.9607 16.2993 37.6284 16.4245 37.63 16.6542C37.6315 16.8402 37.86 17.1194 38.0596 17.1362C38.3295 17.1592 38.7235 16.8702 38.8347 16.6002C38.9669 16.2785 38.9089 15.8424 39.1528 15.6082C40.4005 15.6427 41.4539 15.0408 41.3694 13.7585C41.361 13.6318 41.2887 13.4687 41.3148 13.3294C41.3533 13.1221 41.7084 12.9482 41.6603 12.6861C41.7947 12.6446 41.8748 12.5356 41.9432 12.4129C42.0452 12.23 42.1245 12.0212 42.3149 11.9523C42.3283 11.9472 42.3393 11.9386 42.3541 11.9354C42.4631 11.9108 42.5774 11.9325 42.6975 11.9681C42.9115 12.0314 43.1437 12.1406 43.3987 12.1232C43.5284 12.1143 43.6965 11.9978 43.827 12.0162C44.0888 12.0528 44.2473 12.3759 44.4444 12.5256C44.6187 12.6587 44.802 12.6162 44.8469 12.7935C44.7965 13.0911 44.59 13.1023 44.6075 13.3756C44.6079 13.3786 44.6073 13.3804 44.6074 13.3834C44.6279 13.6291 44.8833 13.8155 45.0104 13.8398C45.2058 13.8764 45.4848 13.7713 45.6793 13.6786C45.8894 13.5789 46.0808 13.3634 46.264 13.2136C46.5272 13.4156 46.7861 13.6225 47.0406 13.8347C47.0699 13.954 47.0904 14.0614 47.1001 14.1341C47.1384 14.424 47.0626 14.6454 47.0762 14.9122C47.112 15.3643 47.6807 15.3184 47.9613 15.5552C48.0459 15.6271 48.0797 15.8105 48.1502 15.9039C48.2867 16.0854 48.4508 16.0854 48.4726 16.279C48.5243 16.7421 48.0551 16.7811 48.1006 17.298C48.0045 17.4982 47.7603 17.4862 47.7808 17.7535C47.8135 18.1768 48.4196 17.8524 48.5855 18.1826C48.6753 18.3602 48.5717 18.4922 48.5068 18.7452C48.7154 18.993 48.7152 19.3884 48.3488 19.389C48.1261 19.389 48.0639 19.1494 47.8387 19.0938C47.7135 19.0625 47.5431 19.0686 47.3836 19.0403C47.2471 19.016 47.0847 18.9754 46.9554 18.9599C46.6247 18.9205 46.2671 19.0168 46.0711 18.8259C46.3883 18.4021 46.8103 17.9845 47.2187 17.6195C47.3401 17.5104 47.6013 17.4358 47.5386 17.2174C47.3101 17.0169 47.0309 17.2297 46.8162 17.3513C46.5909 17.4787 46.3222 17.6621 46.0675 17.7C45.6249 17.7658 45.0369 17.57 44.6759 17.8069C44.6265 18.0093 45.0882 17.9307 45.0248 18.2361C44.8478 18.2652 44.6801 18.2795 44.5433 18.1554C44.4184 18.0431 44.4892 17.8744 44.4083 17.8067C44.2709 17.6928 43.7546 17.6618 43.5243 17.6998C43.2432 17.7458 42.9949 17.9145 42.9632 18.1554C43.3015 18.3139 43.8578 17.9923 43.9816 18.3971C43.7974 18.7308 43.362 18.9144 43.422 19.3618C43.4455 19.5345 43.6512 19.7653 43.7986 19.791C43.9469 19.8166 44.0296 19.6695 44.1727 19.6832C44.3241 19.6974 44.2904 19.8707 44.4681 19.8445C44.7254 19.7343 44.8669 19.372 45.1622 19.3889C45.5179 19.8196 44.8444 20.0295 44.4691 20.1662C44.0411 20.3218 43.4841 20.4045 43.1581 20.5421C42.9872 20.6137 42.3416 21.2407 42.2485 20.756C42.1819 20.4065 42.5682 20.5076 42.6484 20.2199C42.2337 20.1392 41.8485 20.3985 41.4718 20.5423C40.9344 20.7461 40.0225 20.8752 39.8946 21.4806C39.8695 21.6017 39.9484 21.8284 39.8696 21.9092C39.8055 21.9741 39.4216 21.9859 39.2541 22.0431C38.9961 22.1319 38.7715 22.3215 38.612 22.3647C38.4917 22.398 38.3139 22.3885 38.2376 22.4191C38.0251 22.5017 37.9476 22.7899 37.7041 22.9816C37.6044 23.0599 37.3826 23.1169 37.3032 23.196C37.165 23.3343 37.1477 23.6803 36.9033 23.7321C36.7479 23.7457 36.6209 23.615 36.4747 23.7051C36.4581 24.0471 36.5977 24.5123 36.4518 24.858C36.1355 25.1168 35.7881 25.3 35.3831 25.5283C35.1592 25.6551 34.9583 25.6874 34.6878 25.8235C34.4959 25.9195 34.3209 26.1483 34.1001 26.279C33.5899 26.5803 32.9739 26.937 32.9803 27.7001C32.9817 27.8654 33.0672 28.0434 33.0889 28.2365C33.1021 28.3501 33.076 28.4611 33.09 28.5851C33.1227 28.8653 33.3266 29.2222 33.0926 29.4159C32.7318 29.2678 32.2733 29.2174 32.0204 28.9603C31.9505 28.6956 32.1583 28.4774 32.1256 28.2365C32.0992 28.0429 31.8263 27.698 31.668 27.6731C31.505 27.6474 31.3553 27.8207 31.1871 27.8071C30.9869 27.7913 30.8 27.5154 30.5429 27.4855C30.1662 27.4413 29.8895 27.5715 29.4722 27.5127C29.0691 27.7287 28.9522 28.1133 28.4572 28.0752C28.2829 28.0625 28.1228 27.929 27.9212 27.8876C27.7028 27.8424 27.3712 27.7651 27.1439 27.7809C26.6883 27.8114 26.3589 28.1397 25.968 28.3434C25.6232 28.5236 25.1348 28.7477 25.0334 29.1211C24.9778 29.3222 25.0262 29.6054 24.9551 29.7914C24.9081 29.9139 24.805 30.023 24.742 30.1393C24.4436 30.6884 24.197 31.4143 24.4274 32.2042C24.4616 32.3213 24.762 32.9822 24.8853 33.1157C25.0238 33.264 25.4307 33.4867 25.6626 33.4908C25.8588 33.4948 26.0882 33.391 26.2781 33.3569C26.4984 33.3177 26.7743 33.3141 26.9742 33.2499C27.5525 33.0644 27.4356 32.2803 28.0142 32.0162C28.2668 31.9017 28.5594 31.8787 29.0041 31.8558C29.1457 31.9748 29.2128 32.1835 29.1936 32.3648C29.1791 32.5017 29.0497 32.6257 28.9808 32.8208C28.9205 32.9918 28.9084 33.1924 28.8486 33.3304C28.7695 33.5111 28.5922 33.6432 28.529 33.8132C28.4875 33.9236 28.5109 34.0611 28.4768 34.1611C28.4158 34.3377 28.1803 34.4623 28.2905 34.6439C28.8645 34.8722 29.5573 34.5789 30.0578 34.6711C30.2691 34.7095 30.705 34.9619 30.7022 35.2879C30.7003 35.5316 30.5156 35.6913 30.4901 35.9583C30.4586 36.2938 30.32 36.7051 30.306 36.9767C30.2837 37.4217 30.9615 38.1893 31.4343 38.1831C31.9432 38.1765 32.2386 37.6761 32.8527 37.9422C33.0566 38.0302 33.2725 38.3606 33.4972 38.3443C33.6824 38.331 33.9612 38.0059 34.0843 37.7809C34.2343 37.5068 34.2443 37.276 34.5103 37.1378C34.7971 36.9888 35.0261 37.0604 35.3934 36.9231C35.5574 36.8622 35.6999 36.7572 35.8475 36.6548C35.977 36.5656 36.113 36.3315 36.2755 36.4937C36.49 36.7075 36.0149 36.8282 36.1968 37.057C36.5688 37.254 36.757 36.6907 37.0259 36.6821C37.1116 36.6794 37.4091 36.8492 37.5621 36.95C37.7714 37.0874 37.843 37.2804 38.0717 37.3251C38.2185 37.3543 38.4544 37.2689 38.6608 37.2981C38.9341 37.3372 39.0977 37.5722 39.3047 37.566C39.5568 37.5594 39.677 37.2844 39.8928 37.2443C40.3651 37.1576 40.5414 37.2971 40.7504 37.5929C40.9838 37.6334 40.9911 37.3229 41.205 37.4325C41.0887 37.6661 41.2461 37.7736 41.3404 37.9685C41.4015 38.0937 41.3918 38.1825 41.4487 38.2368C41.5767 38.3587 41.8236 38.3587 42.0112 38.4776C42.2091 38.6022 42.3213 38.8337 42.5487 39.0946C42.7828 39.3613 43.1759 39.6376 43.4875 39.6571C43.7818 39.6761 44.0208 39.5737 44.2642 39.6037C44.8183 39.6718 45.1634 39.9488 45.5518 40.2474C45.7687 40.4139 45.9644 40.5298 46.0346 40.7296C46.0839 40.8688 46.0606 41.0558 46.1166 41.2121C46.236 41.5461 46.7227 41.7074 46.5487 42.2845C46.6298 42.4538 46.8102 42.5147 47.0048 42.6331C47.1604 42.7279 47.2925 42.9279 47.4607 42.9549C47.5696 42.9724 47.6877 42.9217 47.7818 42.9279C48.0862 42.9488 48.2954 43.0671 48.5595 43.1695C48.7234 43.2327 48.933 43.2569 49.0421 43.3308C49.1784 43.4229 49.197 43.7316 49.3649 43.813C49.4746 43.8664 49.7178 43.7925 49.9004 43.813C50.1878 43.8461 50.5784 44.0227 50.838 44.0277C50.9956 44.0311 51.126 43.9632 51.266 43.9741C51.5912 43.999 51.8472 44.2049 52.1001 44.4348C48.8915 49.6511 43.715 53.5225 37.6101 55.002C37.5869 54.767 37.5213 54.5306 37.5102 54.2963C37.4875 53.7868 37.5637 53.4267 37.4795 52.9558C37.4163 52.5997 37.3373 52.0539 37.2082 51.8298C37.064 51.5806 36.4994 51.1569 36.2151 50.9985C36.0273 50.8942 35.8028 50.8577 35.5984 50.7573C35.1617 50.5428 34.3151 50.0906 34.1224 49.658C34.0665 49.5334 34.0735 49.3684 34.0135 49.2293C33.8965 48.9545 33.6503 48.7163 33.4757 48.4513C33.1434 47.9456 32.8743 47.3113 32.5332 46.7891C32.3607 46.5239 32.2111 46.223 32.0223 46.0118C31.9115 45.8872 31.5583 45.7701 31.5124 45.5828C31.4514 45.3348 31.2672 44.9946 31.2957 44.8048C31.3335 44.5488 31.8304 44.3416 31.8289 44.1081C31.8274 43.9098 31.5622 43.7939 31.5062 43.6256C31.3697 43.2159 31.5832 42.9749 31.7436 42.6337C31.7966 42.5214 31.8482 42.3411 31.9034 42.2586C32.001 42.111 32.2002 42.0695 32.3303 41.9099C32.403 41.8205 32.4485 41.6342 32.5434 41.5076C32.746 41.2368 33.0743 41.1352 33.1572 40.8909C33.2248 40.6917 33.2615 39.6959 33.1787 39.3628C33.1315 39.1698 32.9518 39.0094 32.8828 38.8268C32.7607 38.5032 32.7311 38.1494 32.3984 38.1564C32.1932 38.1607 32.0491 38.388 31.9176 38.5315C31.8865 38.7225 31.9039 38.9288 31.7048 38.9872C31.4007 39.0773 31.2827 38.6663 30.9273 38.5585C30.7859 38.5153 30.5606 38.5179 30.4721 38.4781C30.2126 38.3616 30.1278 37.9818 29.8541 37.8342C29.6252 37.7119 29.4297 37.7544 29.2907 37.5662C29.2327 37.4367 29.2772 37.2034 29.2625 37.0299C28.9686 36.8581 28.7178 36.2167 28.3757 36.0654C28.1488 35.9646 27.8021 35.9739 27.5185 35.8777C27.3851 35.8324 27.2823 35.7739 27.1428 35.7438C26.971 35.7052 26.7943 35.7031 26.6612 35.6363C26.1303 35.3729 25.8415 34.5192 25.1851 34.5374C24.9053 34.5446 24.6364 34.8069 24.3827 34.8053C24.1305 34.8039 23.7072 34.6038 23.3904 34.4567C23.0613 34.3038 22.6972 34.2203 22.4257 34.0816C22.2062 33.9693 22.0534 33.7638 21.8617 33.6787C21.715 33.6137 21.5004 33.6022 21.38 33.5453C21.2087 33.464 21.0295 33.2907 20.8162 33.1424C20.6137 33.0022 20.3944 32.7882 20.3859 32.6069C20.3765 32.397 20.5773 32.2183 20.5983 32.0165C20.6652 31.378 20.194 30.9192 19.8971 30.542C19.6772 30.2618 19.4195 30.0241 19.199 29.7647C19.2107 29.5924 19.2106 29.5614 19.1978 29.3896C19.031 29.2278 18.8903 28.988 18.7136 28.7458C18.5541 28.5273 18.2436 28.2942 18.2029 28.0492C18.1526 27.7479 18.3154 27.4832 18.2001 27.1907C18.008 26.7054 17.3358 26.9247 17.4244 27.5664C17.4493 27.7431 17.699 27.9808 17.7747 28.1562C17.8522 28.335 17.8381 28.5577 17.9104 28.773C17.9801 28.9794 18.1883 29.1575 18.2608 29.3899C18.3756 29.757 18.3733 30.1524 18.4782 30.3819C18.5709 30.5857 18.9102 30.7784 18.721 31.0252C18.4678 31.0779 18.3694 30.8241 18.2114 30.6765C18.1231 30.5945 17.8041 30.4389 17.7551 30.2479C17.7141 30.0902 17.8538 29.8776 17.8066 29.6846C17.7134 29.3063 16.9506 29.2967 16.9467 28.9073C16.9445 28.6629 17.2649 28.6338 17.267 28.3975C17.2682 28.1389 16.9131 27.92 16.8362 27.7007C16.766 27.4996 16.7536 27.1793 16.7268 26.8964C16.7008 26.6309 16.7323 26.3234 16.6702 26.1186C16.6147 25.9344 16.3375 25.6812 16.1599 25.5823C15.925 25.4516 15.7391 25.5058 15.6237 25.3144C15.5232 25.1473 15.4563 24.7978 15.4341 24.6176C15.3944 24.2952 15.4231 23.9427 15.4039 23.5986C15.3852 23.254 15.349 22.9234 15.4006 22.5531C15.5322 22.2938 15.7732 22.166 15.9075 21.9091C16.0011 21.7305 16.0136 21.5096 16.1193 21.3195C16.3144 20.9693 16.7406 20.6457 17.0268 20.3005C17.3353 19.9286 17.6193 19.5724 17.7992 19.1473C17.8638 18.9965 18.037 18.662 18.0113 18.477C17.9753 18.2193 17.4893 18.0067 17.5266 17.6997C17.5503 17.5096 17.8208 17.5123 17.9007 17.3246C17.9417 17.2278 17.9779 16.9574 17.9797 16.8418C17.9828 16.5832 17.8455 16.3137 17.8966 16.0375C17.9398 15.8019 18.2898 15.7064 18.109 15.4477C17.9296 15.1915 17.6104 15.5859 17.4125 15.4207C17.2307 15.2683 17.4479 15.0843 17.4638 14.8039C17.4701 14.6924 17.398 14.5648 17.4095 14.4822C17.4254 14.3624 17.6579 14.1605 17.5955 14.0801C17.4984 13.9573 17.3917 13.7095 17.2397 13.5117C20.2183 11.1153 23.792 9.43057 27.7027 8.71801Z" fill="url(#paint2_linear_4020_625553)"/>
<path d="M21.6401 40.8448C21.4251 39.2427 19.8774 38 18 38C16.1225 38 14.5749 39.2427 14.3599 40.8448C13.0566 40.8448 12 41.7749 12 42.9224C12 44.0698 13.0565 45 14.3598 45H21.6402C22.9435 45 24 44.0698 24 42.9224C24 41.7749 22.9434 40.8448 21.6401 40.8448Z" fill="white"/>
<path d="M52.0501 24.6576C51.7814 22.5978 49.8468 21 47.5 21C45.1532 21 43.2186 22.5978 42.9499 24.6576C41.3208 24.6576 40 25.8535 40 27.3288C40 28.8041 41.3206 30 42.9497 30H52.0503C53.6794 30 55 28.8041 55 27.3288C55 25.8535 53.6792 24.6576 52.0501 24.6576Z" fill="white"/>
</g>
<defs>
<linearGradient id="paint0_linear_4020_625553" x1="73.1633" y1="2.5" x2="1.28809" y2="53.9248" gradientUnits="userSpaceOnUse">
<stop stop-color="#F1F1F1" stop-opacity="0"/>
<stop offset="1" stop-color="#F1F1F1"/>
</linearGradient>
<linearGradient id="paint1_linear_4020_625553" x1="18.5002" y1="12" x2="44.0002" y2="53.5" gradientUnits="userSpaceOnUse">
<stop stop-color="#5DF1CF"/>
<stop offset="1" stop-color="#A5F7E4"/>
</linearGradient>
<linearGradient id="paint2_linear_4020_625553" x1="11.7402" y1="18.4036" x2="55.8609" y2="48.8474" gradientUnits="userSpaceOnUse">
<stop stop-color="#3F37C9"/>
<stop offset="1" stop-color="#8B85F3"/>
</linearGradient>
<clipPath id="clip0_4020_625553">
<rect width="64" height="64" fill="white"/>
</clipPath>
</defs>
</svg>
