<svg width="64" height="64" viewBox="0 0 64 64" fill="none" xmlns="http://www.w3.org/2000/svg">
<g clip-path="url(#clip0_4020_625566)">
<path d="M51.6096 53.282C38.6341 64.5331 -2.7284 63.1306 4.3858 48.5654C11.5 34.0003 -3.0458 29.4678 1.50024 14.4996C6.04628 -0.468627 41.4042 -4.51365 57.273 12.556C68.1204 25.0659 64.5851 42.0309 51.6096 53.282Z" fill="url(#paint0_linear_4020_625566)"/>
<path d="M14 26.8556V54C14 55.1046 14.8954 56 16 56H31.5H47C48.1046 56 49 55.1046 49 54V26.8556C49 25.4676 47.6208 24.5017 46.3164 24.9761L43.8503 25.8731C43.4087 26.0337 42.9246 26.0337 42.483 25.8731L38.017 24.2487C37.5754 24.088 37.0913 24.088 36.6497 24.2487L32.1836 25.8731C31.742 26.0337 31.258 26.0337 30.8164 25.8731L26.3503 24.2487C25.9087 24.088 25.4246 24.088 24.983 24.2487L20.517 25.8731C20.0754 26.0337 19.5913 26.0337 19.1497 25.8731L16.6836 24.9761C15.3792 24.5017 14 25.4676 14 26.8556Z" fill="url(#paint1_linear_4020_625566)"/>
<path fill-rule="evenodd" clip-rule="evenodd" d="M40.5683 11.9812C42.0575 11.9721 44.1315 12.2519 46.0802 13.6112C46.4367 13.8561 46.5332 14.3316 46.3218 14.6977L46.288 14.7563C46.0304 15.1347 45.4995 15.2089 45.1137 14.9471C42.3036 12.983 38.9819 13.7988 38.9357 13.8112C38.8988 13.8211 38.8431 13.8202 38.7874 13.8192C38.7818 13.8191 38.7763 13.8191 38.7707 13.819C38.7624 13.8189 38.7541 13.8188 38.7459 13.8187C37.2472 15.5015 35.7946 17.4256 34.5433 19.5929C36.037 19.5083 38.3424 19.6581 40.4468 21.1366C40.8033 21.3815 40.8997 21.857 40.6884 22.2231L40.6546 22.2817C40.397 22.6601 39.866 22.7343 39.4802 22.4725C37.0193 20.7491 34.1059 21.2636 33.5338 21.3921C32.898 22.5957 32.3502 23.8104 31.8853 25.0145C31.9927 24.9934 32.0987 24.9634 32.2024 24.9245L36.6309 23.2634C37.0838 23.0936 37.5829 23.0936 38.0357 23.2634L42.4643 24.9245C42.9171 25.0944 43.4162 25.0944 43.8691 24.9245L45.2716 24.3984C46.1553 22.8685 47.038 21.3926 47.8785 19.9871C51.598 13.7677 54.4922 8.92835 52.9947 6.89378C52.0217 5.68767 47.8002 5.33958 40.5683 11.9812ZM29.4904 24.4342L26.3691 23.2634C25.9162 23.0936 25.4171 23.0936 24.9643 23.2634L20.5357 24.9245C20.0829 25.0944 19.5838 25.0944 19.1309 24.9245L18 24.5003V24.4727C18 22.5298 18.458 20.5661 19.3253 18.7829L21.2127 14.9249H26.2849L28.1722 18.7829C29.023 20.5667 29.4803 22.4863 29.4904 24.4342ZM21.3176 8H26.1939C26.7462 8 27.1939 8.44772 27.1939 9V9.42857C27.1939 9.98086 26.7462 10.4286 26.1939 10.4286H21.3176C20.7653 10.4286 20.3176 9.98086 20.3176 9.42857V9C20.3176 8.44772 20.7653 8 21.3176 8ZM22.4165 11.8024H25.081C25.5658 11.8024 25.9588 12.1954 25.9588 12.6802C25.9588 13.165 25.5658 13.558 25.081 13.558H22.4165C21.9318 13.558 21.5388 13.165 21.5388 12.6802C21.5388 12.1954 21.9318 11.8024 22.4165 11.8024Z" fill="#5DF1CF"/>
<path d="M25.7148 48.066C25.2212 46.4801 24.1078 45.4561 22.4948 45.1046C22.075 45.013 21.6641 44.9666 21.2735 44.9666C20.2879 44.9666 19.5402 45.2611 18.9992 45.6074C19.0015 45.4306 18.9926 45.0538 18.9085 44.5169C18.9782 44.5213 19.0863 44.5263 19.2249 44.5263C19.912 44.5263 21.1913 44.4033 22.0381 43.5788C23.1936 42.4535 23.0033 40.5288 22.9946 40.4474L22.953 40.0567L22.5518 40.0162C22.5355 40.0146 22.3848 40 22.1495 40C21.4623 40 20.183 40.1231 19.3364 40.9476C18.8145 41.4558 18.5676 42.1268 18.4541 42.7176C18.2065 41.9955 17.8484 41.1713 17.3293 40.2748C17.1947 40.0422 16.8916 39.9598 16.6527 40.091C16.4137 40.2222 16.3293 40.5172 16.464 40.7499C17.9719 43.3542 18.01 45.3122 18.0054 45.6263C17.4641 45.2835 16.715 45.0096 15.7265 45.0096C15.7265 45.0096 15.7263 45.0096 15.7262 45.0096C15.3358 45.0096 14.9251 45.0345 14.5051 45.1261C12.8922 45.4776 11.7787 46.4909 11.2852 48.0767C10.8287 49.5436 11.0043 51.194 11.232 52.3246C11.4738 53.526 12.1219 54.8715 12.9657 55.9281C13.4468 56.5306 13.9694 57.0113 14.519 57.3595C15.1903 57.785 15.8852 58 16.5841 58C17.2546 58 17.8963 57.8044 18.5 57.4177C19.1038 57.8044 19.7454 57.9995 20.4159 57.9995C21.115 57.9995 21.8098 57.7837 22.4812 57.3584C23.0307 57.0102 23.5534 56.528 24.0345 55.9255C24.8782 54.8689 25.5263 53.5209 25.7682 52.3193C25.9958 51.1884 26.1712 49.5327 25.7148 48.066ZM25.2395 48.2062C25.0339 47.5456 24.7079 46.9949 24.2725 46.5641C24.7079 46.9949 25.0339 47.5457 25.2395 48.2062Z" fill="#00E5BC"/>
<circle cx="23" cy="49" r="2" fill="white"/>
</g>
<defs>
<linearGradient id="paint0_linear_4020_625566" x1="14.1366" y1="10.2751" x2="79.4941" y2="56.7124" gradientUnits="userSpaceOnUse">
<stop stop-color="#F1F1F1"/>
<stop offset="1" stop-color="#F1F1F1" stop-opacity="0"/>
</linearGradient>
<linearGradient id="paint1_linear_4020_625566" x1="15" y1="25.9394" x2="48.0477" y2="57.0128" gradientUnits="userSpaceOnUse">
<stop stop-color="#5D55E0"/>
<stop offset="1" stop-color="#736CE8"/>
</linearGradient>
<clipPath id="clip0_4020_625566">
<rect width="64" height="64" fill="white"/>
</clipPath>
</defs>
</svg>
