<svg  viewBox="0 0 427 382" fill="none" xmlns="http://www.w3.org/2000/svg">
<path fill-rule="evenodd" clip-rule="evenodd" d="M195.3 22.1812H149.682V228.096H195.3V22.1812ZM195.3 285.682H248.045L354.961 285.682V137.05H307.268V179.395H299.004V209.672H276.276V98.939H240.808V69.2972H233.749V98.939H222.385V116.413H195.3V285.682ZM41.3407 285.787V223.785H78.2954V139.099H134.001V306.623H41.3407V285.787Z" fill="url(#paint0_linear_4020_625604)"/>
<path fill-rule="evenodd" clip-rule="evenodd" d="M222.385 245.468L178.193 201.379H243.768L287.96 245.468H222.385ZM222.385 245.468H266.577H287.96H332.153L376.344 289.556V382H310.769V289.556L287.96 266.801V382H222.385V245.468Z" fill="#5D54E6"/>
<path fill-rule="evenodd" clip-rule="evenodd" d="M222.385 289.556L266.577 245.468L310.769 289.556L310.769 382H222.385V289.556L222.385 289.556Z" fill="url(#paint1_linear_4020_625604)"/>
<path fill-rule="evenodd" clip-rule="evenodd" d="M222.385 245.468L178.193 201.379L134.001 245.468H222.385ZM222.385 245.468H134.001V382H222.385V245.468Z" fill="url(#paint2_linear_4020_625604)"/>
<path fill-rule="evenodd" clip-rule="evenodd" d="M-0.000366211 318.001L44.1916 273.912L88.3836 318.001V382H-0.000366211V318.001Z" fill="url(#paint3_linear_4020_625604)"/>
<rect x="88.3834" y="318" width="65.5752" height="63.9994" fill="#5D54E6"/>
<rect x="99.7878" y="335.067" width="19.9577" height="29.8664" fill="white"/>
<rect x="243.768" y="296.667" width="19.9577" height="29.8664" fill="white"/>
<rect x="122.597" y="335.067" width="19.9577" height="29.8664" fill="white"/>
<rect x="266.577" y="296.667" width="19.9577" height="29.8664" fill="white"/>
<path d="M29.9359 353.589C29.9359 345.716 36.3183 339.333 44.1914 339.333C52.0645 339.333 58.4469 345.716 58.4469 353.589V382H29.9359V353.589Z" fill="white"/>
<path d="M252.322 353.589C252.322 345.716 258.704 339.333 266.577 339.333C274.45 339.333 280.833 345.716 280.833 353.589V382H252.322V353.589Z" fill="white"/>
<rect x="322.174" y="337.911" width="19.9577" height="29.8664" fill="white"/>
<rect x="322.174" y="296.667" width="19.9577" height="29.8664" fill="white"/>
<rect x="344.982" y="337.911" width="19.9577" height="29.8664" fill="white"/>
<rect x="344.982" y="296.667" width="19.9577" height="29.8664" fill="white"/>
<path d="M88.3837 318.001L44.1918 273.912H109.767L153.959 318.001H88.3837Z" fill="#5D54E6"/>
<ellipse cx="178.193" cy="261.112" rx="12.8299" ry="12.7999" fill="white"/>
<ellipse cx="178.193" cy="306.623" rx="12.8299" ry="12.7999" fill="white"/>
<ellipse cx="178.193" cy="352.133" rx="12.8299" ry="12.7999" fill="white"/>
<path d="M49.0416 82.7673C45.897 64.394 30.1463 79.6484 22.6641 89.5722H93.5214C96.666 65.9251 81.3842 76.3168 73.3503 84.4685C82.2876 53.336 60.8684 70.3625 49.0416 82.7673Z" fill="white"/>
<path d="M354.136 19.3187C359.608 -1.37249 333.018 7.72023 319.038 14.853C288.269 -13.2646 247.422 6.11449 230.844 19.3187H354.136Z" fill="white"/>
<path d="M340.413 80.9365C334.941 64.8599 315.996 80.7774 302.977 89.4608H426.269C431.741 68.7695 405.15 77.8623 391.171 84.995C406.722 57.7541 342.696 53.6085 340.413 80.9365Z" fill="white"/>
<defs>
<linearGradient id="paint0_linear_4020_625604" x1="198.151" y1="22.1812" x2="198.151" y2="306.623" gradientUnits="userSpaceOnUse">
<stop stop-color="white"/>
<stop offset="1" stop-color="white" stop-opacity="0.5"/>
</linearGradient>
<linearGradient id="paint1_linear_4020_625604" x1="266.577" y1="245.468" x2="266.577" y2="382" gradientUnits="userSpaceOnUse">
<stop stop-color="#8E89F1"/>
<stop offset="1" stop-color="#CFCCFF"/>
</linearGradient>
<linearGradient id="paint2_linear_4020_625604" x1="178.193" y1="201.379" x2="178.193" y2="382" gradientUnits="userSpaceOnUse">
<stop stop-color="#7C76EB"/>
<stop offset="1" stop-color="#B7B3F8"/>
</linearGradient>
<linearGradient id="paint3_linear_4020_625604" x1="44.1916" y1="273.912" x2="44.1916" y2="382" gradientUnits="userSpaceOnUse">
<stop stop-color="#7C76EB"/>
<stop offset="1" stop-color="#B7B3F8"/>
</linearGradient>
</defs>
</svg>
