<svg width="64" height="64" viewBox="0 0 64 64" fill="none" xmlns="http://www.w3.org/2000/svg">
<g clip-path="url(#clip0_4020_625652)">
<path d="M15.2859 57.6572C29.9607 66.1298 57.7236 61.7522 57.1979 46.4269C56.6722 31.1017 35.5043 39.8482 40.4156 14.1313C45.3268 -11.5857 12.5281 1.07038 4.05558 15.7452C-4.41695 30.4201 0.611022 49.1847 15.2859 57.6572Z" fill="url(#paint0_linear_4020_625652)"/>
<rect x="31.2092" y="-0.521851" width="26.7907" height="62.5116" rx="2" fill="url(#paint1_linear_4020_625652)"/>
<path fill-rule="evenodd" clip-rule="evenodd" d="M55.7674 1.71069H33.4418V5.05953H55.7674V1.71069ZM55.7674 12.8734H33.4418V16.2222H55.7674V12.8734ZM33.4418 24.0364H55.7674V27.3852H33.4418V24.0364ZM55.7674 35.1991H33.4418V38.5479H55.7674V35.1991ZM33.4418 7.29201H55.7674V10.6409H33.4418V7.29201ZM55.7674 18.455H33.4418V21.8038H55.7674V18.455ZM33.4418 29.6177H55.7674V32.9666H33.4418V29.6177ZM55.7674 40.7805H33.4418V44.1293H55.7674V40.7805Z" fill="#75FBDC"/>
<path fill-rule="evenodd" clip-rule="evenodd" d="M5.00018 40.7981L18.3415 26.1321L31.6829 40.7981H31.683L31.683 40.7983L31.683 62.0877H7C5.89543 62.0877 5 61.1923 5 60.0877V40.7983V40.7981H5.00018Z" fill="url(#paint2_linear_4020_625652)"/>
<rect x="31.6831" y="40.7983" width="19.7971" height="21.2896" fill="#6E67E3"/>
<rect x="35.126" y="46.4756" width="6.0252" height="9.93515" fill="white"/>
<rect x="42.0117" y="46.4756" width="6.0252" height="9.93515" fill="white"/>
<path d="M14.0377 52.1984C14.0377 49.8216 15.9646 47.8947 18.3414 47.8947C20.7183 47.8947 22.6452 49.8216 22.6452 52.1984V62.0878H14.0377V52.1984Z" fill="white"/>
<path d="M31.6831 40.7983L18.3416 26.1321H38.1387L51.4802 40.7983H31.6831Z" fill="#6E67E3"/>
<path d="M41.9703 6.00253C41.7303 4.21416 40.0026 2.82697 37.9069 2.82697C35.8111 2.82697 34.0835 4.21416 33.8435 6.00253C32.3887 6.00253 31.2092 7.04085 31.2092 8.32172C31.2092 9.60259 32.3886 10.6409 33.8434 10.6409H41.9704C43.4252 10.6409 44.6046 9.60259 44.6046 8.32172C44.6046 7.04085 43.4251 6.00253 41.9703 6.00253Z" fill="white"/>
<path d="M54.469 13.3628C54.249 11.8299 52.6654 10.6409 50.7443 10.6409C48.8231 10.6409 47.2395 11.8299 47.0195 13.3628C45.6859 13.3628 44.6047 14.2528 44.6047 15.3507C44.6047 16.4485 45.6858 17.3385 47.0194 17.3385H54.4692C55.8027 17.3385 56.8838 16.4485 56.8838 15.3507C56.8838 14.2528 55.8026 13.3628 54.469 13.3628Z" fill="white"/>
</g>
<defs>
<linearGradient id="paint0_linear_4020_625652" x1="73.1633" y1="2.5" x2="1.28809" y2="53.9248" gradientUnits="userSpaceOnUse">
<stop stop-color="#F1F1F1" stop-opacity="0"/>
<stop offset="1" stop-color="#F1F1F1"/>
</linearGradient>
<linearGradient id="paint1_linear_4020_625652" x1="44.6046" y1="-0.521851" x2="44.6046" y2="61.9898" gradientUnits="userSpaceOnUse">
<stop stop-color="#5C54DF"/>
<stop offset="1" stop-color="#BCB8F9"/>
</linearGradient>
<linearGradient id="paint2_linear_4020_625652" x1="18.3415" y1="26.1321" x2="17.33" y2="75.0563" gradientUnits="userSpaceOnUse">
<stop stop-color="#7C76EB"/>
<stop offset="1" stop-color="#D8D6FF"/>
</linearGradient>
<clipPath id="clip0_4020_625652">
<rect width="64" height="64" fill="white"/>
</clipPath>
</defs>
</svg>
