<svg viewBox="0 0 290 290" fill="none" xmlns="http://www.w3.org/2000/svg">
<g clip-path="url(#clip0_4020_625598)">
<path d="M82.9997 143.26C80.0005 141.434 77.2125 139.281 74.6866 136.84C72.9034 135.098 71.5416 132.97 70.7052 130.619C69.2107 126.036 70.9504 120.797 75.8075 119.242C78.3711 118.448 81.1593 119.528 83.3033 121.144C85.448 119.53 88.2353 118.45 90.7991 119.242C95.6562 120.797 97.4075 126.036 95.9131 130.619C95.0834 132.968 93.7297 135.095 91.955 136.84C89.4268 139.278 86.6391 141.431 83.6419 143.26L83.315 143.47L82.9997 143.26Z" fill="#5D54E6"/>
<path d="M133.576 104.647C128.977 101.778 124.702 98.3942 120.829 94.5587C118.095 91.8203 116.006 88.4765 114.724 84.783C112.432 77.5798 115.1 69.3476 122.547 66.9036C126.478 65.6566 130.754 67.3539 134.041 69.8935C137.33 67.3568 141.603 65.6597 145.535 66.9036C152.982 69.3476 155.668 77.5798 153.376 84.783C152.104 88.473 150.028 91.8165 147.307 94.5587C143.43 98.39 139.156 101.773 134.56 104.647L134.059 104.978L133.576 104.647Z" fill="#5D54E6"/>
<path d="M15.8994 160.562C16.1329 162.672 16.4194 164.783 16.7614 166.894C17.1042 169.006 17.5003 171.119 17.9529 173.23C18.8578 177.452 19.9856 181.668 21.3439 185.866C22.7022 190.065 24.2582 194.144 25.9985 198.099C26.8688 200.076 27.7844 202.022 28.7456 203.936C29.7051 205.85 30.7113 207.732 31.7582 209.58C32.8051 211.428 33.8964 213.245 35.0265 215.026C37.2896 218.59 39.715 222.019 42.2921 225.305C43.58 226.948 44.9069 228.556 46.2682 230.127C47.629 231.697 49.0279 233.232 50.4591 234.73C51.1748 235.479 51.9004 236.219 52.6333 236.949C54.0982 238.408 55.5974 239.831 57.1288 241.214C61.7216 245.364 66.5992 249.168 71.7162 252.601C74.2748 254.317 76.8924 255.941 79.5649 257.47C81.3469 258.489 83.1516 259.465 84.9804 260.397C86.8082 261.331 88.6589 262.22 90.5299 263.066C98.9492 266.87 107.787 269.778 116.89 271.713C118.913 272.143 120.949 272.526 122.997 272.859C127.091 273.524 131.231 273.994 135.403 274.262C137.489 274.396 139.583 274.478 141.684 274.51C155.335 274.714 169.252 272.74 182.969 268.35C192.321 265.357 201.087 261.395 209.198 256.619C212.984 254.389 216.629 251.984 220.121 249.411C221.809 248.169 223.46 246.887 225.078 245.568C228.31 242.933 231.398 240.149 234.333 237.233C235.802 235.775 237.232 234.284 238.622 232.762C244.883 225.912 250.357 218.422 254.966 210.449C255.991 208.677 256.972 206.881 257.91 205.063C258.848 203.246 259.743 201.405 260.593 199.544C261.868 196.753 263.043 193.916 264.114 191.037C265.811 186.484 267.241 181.828 268.411 177.095C268.72 175.844 269.017 174.589 269.288 173.326C269.721 171.315 270.105 169.29 270.439 167.254C270.606 166.235 270.761 165.215 270.904 164.192C271.191 162.145 271.425 160.087 271.61 158.021C271.794 155.955 271.93 153.88 272.012 151.797C272.179 147.633 272.139 143.441 271.888 139.234C271.762 137.13 271.584 135.023 271.35 132.915C271.116 130.805 270.83 128.693 270.488 126.582C270.145 124.47 269.748 122.358 269.296 120.246C268.392 116.025 267.264 111.809 265.906 107.61C264.548 103.412 262.991 99.3323 261.251 95.3782C260.38 93.4004 259.465 91.4545 258.504 89.5401C257.544 87.6268 256.538 85.7441 255.491 83.8961C254.444 82.0481 253.353 80.2313 252.222 78.4504C249.96 74.8874 247.534 71.4581 244.957 68.1719C244.313 67.3501 243.659 66.5375 242.996 65.733C241.008 63.3223 238.937 60.9925 236.789 58.746C236.073 57.9975 235.348 57.2583 234.615 56.5279C233.15 55.068 231.65 53.6459 230.119 52.263C225.526 48.112 220.649 44.3091 215.532 40.8755C212.973 39.1595 210.356 37.5356 207.683 36.0072C205.901 34.9885 204.096 34.0118 202.268 33.0794C200.44 32.1454 198.589 31.2565 196.718 30.4114C193.094 28.7737 189.391 27.3062 185.624 26.0073C180.64 24.2884 175.542 22.8667 170.357 21.7643C168.335 21.335 166.298 20.952 164.252 20.6195C163.321 20.4681 162.387 20.3294 161.452 20.1992C160.33 20.0427 159.205 19.8962 158.077 19.7693C157.605 19.7164 157.132 19.674 156.66 19.6256C155.06 19.4619 153.457 19.3204 151.846 19.2173C151.824 19.2154 151.801 19.2157 151.778 19.2132C150.062 19.1052 148.339 19.038 146.612 18.9975C146.263 18.99 145.914 18.974 145.565 18.9696C141.549 18.9097 137.512 19.0431 133.463 19.3673C132.198 19.4678 130.932 19.5831 129.665 19.7216C128.752 19.8214 127.839 19.9353 126.925 20.0555C120.117 20.9507 113.298 22.4069 106.518 24.4439C105.77 24.6682 105.025 24.8909 104.278 25.13C103.01 25.5355 101.757 25.9653 100.511 26.4057C88.273 30.7349 77.0824 36.7347 67.1261 44.0699C65.4386 45.3134 63.7858 46.5956 62.1695 47.9135C61.6695 48.3216 61.1807 48.7379 60.6872 49.1528C59.5853 50.0795 58.4963 51.0167 57.4295 51.9762C55.8865 53.3673 54.3811 54.7904 52.9136 56.2487C51.4452 57.706 50.0156 59.1972 48.6245 60.7198C43.028 66.8451 38.0608 73.4797 33.7759 80.5146C33.2681 81.3488 32.7683 82.186 32.2798 83.0318C31.2551 84.8035 30.2734 86.6003 29.3361 88.4176C28.3988 90.2349 27.5029 92.0755 26.6533 93.9365C25.3782 96.7273 24.2036 99.5648 23.1319 102.443C20.9875 108.199 19.2555 114.119 17.9581 120.154C17.5251 122.166 17.1412 124.19 16.807 126.226C16.6398 127.244 16.4852 128.265 16.3419 129.289C15.9139 132.36 15.5984 135.453 15.3959 138.565C15.3289 139.603 15.2741 140.642 15.2326 141.683C15.0659 145.847 15.1063 150.039 15.3572 154.246C15.4872 156.345 15.6663 158.454 15.8994 160.562ZM86.2613 40.1123C86.6312 40.4391 86.9818 40.8405 87.6237 40.8303C88.5775 39.8745 89.9224 40.1378 91.1705 39.6953C92.385 39.2593 93.3011 38.3489 94.7228 38.1266C97.2353 37.733 101.329 38.9897 102.806 37.1246C103.177 36.654 102.886 36.14 103.047 35.176C103.174 34.4059 103.47 33.5035 103.533 32.5845C104.478 32.2564 105.427 31.9383 106.384 31.6319C114.292 29.1015 122.275 27.4241 130.231 26.5444C130.183 27.464 129.037 27.4273 128.303 28.0997C127.615 28.7318 127.562 29.5987 126.755 30.0348C124.51 31.2469 122.193 30.8374 120.149 31.5743C120.34 32.495 121.626 32.6546 122.273 32.7633C124.463 33.1404 125.946 32.5183 128.569 31.6142C129.913 31.1511 131.609 31.085 132.515 29.9179C133.091 29.1813 132.695 28.0909 133.113 27.2811C133.292 26.9381 133.594 26.5545 133.958 26.1941C135.354 26.0834 136.749 26.0014 138.143 25.9384C138.211 26.887 136.711 27.1329 137.074 28.3171C138.165 28.5694 140.017 27.0466 140.537 25.8537C140.885 25.8458 141.235 25.8374 141.582 25.831C143.622 25.7983 145.657 25.816 147.685 25.8846C150.577 25.984 153.455 26.1872 156.314 26.4893C155.925 26.9254 155.529 27.4511 155.106 27.5836C154.018 27.9243 153.087 26.6307 152.049 27.5517C152.395 28.982 154.171 29.0382 155.388 29.3607C156.706 29.7096 158.078 30.0385 158.859 31.1291C158.519 33.7237 156.047 31.8985 154.352 32.4293C152.483 33.0128 150.906 37.4203 148.388 35.0567C148.291 33.408 149.902 32.6316 149.829 30.997C149.486 31.1742 149.174 31.4033 148.87 31.6543C148.325 32.0998 147.816 32.6284 147.289 33.1732C146.598 33.8884 145.863 34.614 144.939 35.1537C144.088 35.6474 143.18 35.8846 142.437 36.3834C141.013 37.3442 140.288 38.8484 138.822 39.9905C138.249 40.4351 137.449 40.6106 136.845 41.0523C135.43 42.0864 133.834 43.6365 132.483 45.0403C131.101 46.4741 129.52 48.0222 128.771 49.2506C128.366 49.9112 127.459 52.0901 127.686 52.6176C128.004 53.3729 129.56 53.1592 129.853 53.9405C129.975 54.4324 129.491 55.7326 130.308 56.2418C131.052 56.7061 131.963 55.8462 133.15 55.6197C135.237 55.2247 137.083 56.4511 138.897 56.8034C140.268 57.0695 142.243 57.2772 143.611 57.0218C145.489 56.6691 147.266 55.2751 147.977 56.6322C148.663 57.9359 146.884 59.0486 147.025 59.9594C148.41 60.923 146.974 62.0541 147.34 63.1702C147.637 64.0737 149.193 65.0744 150.199 64.8431C151.559 64.5312 153.042 62.5049 153.167 61.0155C153.315 59.2418 152.351 57.2093 153.182 55.6856C159.359 53.8945 163.59 49.3092 161.177 43.1979C160.939 42.5942 160.33 41.9133 160.241 41.1941C160.107 40.1244 161.578 38.7196 160.934 37.5192C161.529 37.106 161.752 36.4492 161.896 35.7445C162.112 34.6938 162.176 33.5524 163.003 32.9176C163.061 32.8719 163.101 32.8129 163.169 32.7739C163.665 32.4832 164.26 32.4092 164.905 32.3939C166.054 32.3663 167.363 32.5331 168.587 32.0481C169.21 31.8014 169.853 30.9699 170.522 30.8547C171.864 30.622 173.145 31.9461 174.346 32.3659C175.408 32.7402 176.241 32.2456 176.738 33.0384C176.954 34.5668 175.959 34.9455 176.47 36.2489C176.477 36.2628 176.477 36.2726 176.482 36.287C176.965 37.4512 178.509 37.9578 179.171 37.8765C180.186 37.7479 181.392 36.7984 182.202 36.0411C183.077 35.2257 183.681 33.876 184.346 32.859C185.952 33.4291 187.545 34.0301 189.125 34.664C189.454 35.1988 189.723 35.6899 189.883 36.0288C190.523 37.3798 190.496 38.5771 190.978 39.8553C191.859 42.0004 194.577 40.8837 196.323 41.5966C196.851 41.8139 197.302 42.6539 197.794 42.9976C198.747 43.6674 199.552 43.4098 199.96 44.318C200.935 46.492 198.694 47.4188 199.722 49.8642C199.563 50.9903 198.346 51.315 198.863 52.5848C199.683 54.5946 202.151 52.0635 203.48 53.4108C204.198 54.1343 203.895 54.94 203.971 56.2736C205.38 57.1529 205.995 59.0789 204.198 59.6568C203.105 60.0065 202.427 58.9374 201.235 59.0205C200.572 59.0647 199.746 59.3621 198.919 59.4746C198.211 59.5706 197.351 59.6279 196.692 59.7552C195.008 60.0829 193.404 61.1133 192.144 60.4915C193.04 57.9297 194.46 55.2333 195.896 52.8147C196.322 52.0926 197.487 51.3195 196.839 50.3543C195.405 49.7367 194.367 51.2115 193.503 52.1409C192.596 53.1146 191.563 54.4297 190.372 55.0142C188.303 56.0295 185.113 55.9997 183.71 57.7201C183.783 58.783 185.926 57.6757 186.091 59.2623C185.268 59.6819 184.467 60.0145 183.603 59.6252C182.815 59.2745 182.899 58.3418 182.397 58.1394C181.545 57.8004 178.963 58.46 177.892 59.0067C176.585 59.6719 175.629 60.8834 175.849 62.1063C177.756 62.3468 179.984 59.9072 181.223 61.684C180.839 63.5982 178.989 65.1763 179.98 67.2606C180.365 68.0648 181.733 68.8656 182.497 68.7591C183.264 68.651 183.441 67.8051 184.165 67.6471C184.93 67.4783 185.034 68.375 185.865 67.9684C186.956 67.0277 187.086 65.0416 188.561 64.66C190.978 66.1991 188 68.2786 186.372 69.5334C184.514 70.9633 181.909 72.2404 180.524 73.4224C179.797 74.0397 177.606 78.1066 176.394 75.8922C175.523 74.2948 177.576 74.1805 177.521 72.6539C175.361 72.9119 173.874 74.7797 172.25 76.0715C169.93 77.9076 165.657 79.9683 165.972 83.1169C166.038 83.7461 166.778 84.7263 166.517 85.2432C166.304 85.6599 164.439 86.3202 163.706 86.862C162.578 87.6993 161.771 88.9753 161.056 89.4363C160.518 89.7869 159.63 90.0202 159.304 90.2889C158.39 91.0246 158.458 92.5501 157.562 93.8658C157.195 94.4037 156.195 95.0294 155.929 95.5395C155.466 96.4297 155.921 98.1417 154.802 98.7778C154.061 99.0882 153.234 98.6511 152.657 99.3193C153.108 101.011 154.518 103.057 154.341 104.97C153.192 106.726 151.773 108.164 150.141 109.912C149.24 110.881 148.305 111.353 147.189 112.441C146.397 113.21 145.895 114.599 145.015 115.582C142.981 117.85 140.514 120.554 141.734 124.26C141.999 125.063 142.696 125.796 143.103 126.702C143.345 127.234 143.39 127.816 143.651 128.397C144.248 129.711 145.805 131.129 144.959 132.439C142.958 132.284 140.629 132.759 138.988 131.904C138.232 130.725 138.912 129.336 138.376 128.214C137.945 127.313 136.068 126.062 135.253 126.19C134.413 126.32 133.949 127.399 133.102 127.597C132.095 127.834 130.748 126.784 129.44 127.042C127.522 127.419 126.367 128.487 124.228 128.856C122.587 130.541 122.612 132.597 120.124 133.189C119.249 133.401 118.255 133.002 117.201 133.117C116.059 133.24 114.312 133.384 113.221 133.818C111.033 134.682 109.928 136.798 108.327 138.404C106.916 139.822 104.869 141.681 104.953 143.658C104.993 144.725 105.672 146.028 105.613 147.045C105.573 147.715 105.237 148.408 105.109 149.074C104.501 152.216 104.422 156.139 106.783 159.623C107.133 160.14 109.637 162.886 110.45 163.343C111.361 163.847 113.705 164.293 114.849 163.949C115.818 163.66 116.782 162.794 117.661 162.33C118.68 161.793 120.028 161.343 120.91 160.716C123.458 158.905 121.663 155.27 124.091 153.075C125.152 152.122 126.551 151.55 128.698 150.74C129.578 151.097 130.233 152.008 130.421 152.921C130.563 153.61 130.121 154.418 130.087 155.476C130.058 156.403 130.311 157.399 130.233 158.165C130.126 159.169 129.462 160.091 129.416 161.018C129.385 161.621 129.714 162.254 129.702 162.794C129.678 163.75 128.717 164.726 129.54 165.437C132.713 165.648 135.655 163.132 138.255 162.795C139.352 162.65 141.884 163.195 142.378 164.787C142.749 165.976 142.091 167.044 142.382 168.384C142.75 170.067 142.711 172.288 143.065 173.633C143.649 175.834 148.171 178.508 150.482 177.736C152.969 176.904 153.638 174.004 157.066 174.335C158.204 174.444 159.778 175.713 160.855 175.281C161.743 174.926 162.605 172.905 162.859 171.616C163.168 170.046 162.857 168.906 163.947 167.815C165.122 166.639 166.358 166.629 167.946 165.383C168.656 164.829 169.191 164.094 169.756 163.364C170.252 162.726 170.555 161.372 171.605 161.907C172.991 162.612 170.848 163.945 172.097 164.774C174.229 165.149 174.275 162.11 175.581 161.646C175.997 161.499 177.721 161.858 178.629 162.109C179.87 162.449 180.523 163.277 181.715 163.135C182.48 163.047 183.505 162.261 184.563 162.079C185.965 161.84 187.134 162.728 188.14 162.372C189.367 161.944 189.528 160.416 190.525 159.882C192.707 158.719 193.79 159.121 195.276 160.233C196.485 160.064 196.037 158.541 197.257 158.738C197.05 160.059 197.99 160.335 198.757 161.136C199.251 161.649 199.342 162.097 199.706 162.272C200.524 162.665 201.735 162.277 202.841 162.562C204.007 162.858 204.918 163.809 206.44 164.722C208.004 165.654 210.364 166.382 211.923 165.987C213.397 165.617 214.411 164.743 215.652 164.508C218.476 163.969 220.601 164.776 222.973 165.62C224.297 166.091 225.438 166.348 226.093 167.21C226.552 167.811 226.729 168.758 227.247 169.431C228.354 170.87 230.993 170.891 231.039 173.975C231.7 174.672 232.681 174.685 233.82 174.956C234.731 175.173 235.691 175.94 236.558 175.807C237.12 175.722 237.62 175.29 238.092 175.172C239.618 174.796 240.829 175.043 242.285 175.127C243.187 175.178 244.253 174.966 244.904 175.155C245.716 175.389 246.289 176.863 247.239 176.996C247.861 177.084 248.939 176.342 249.867 176.155C251.329 175.865 253.52 176.112 254.802 175.728C255.581 175.497 256.115 174.962 256.819 174.795C258.453 174.406 260.03 175.007 261.63 175.729C254.013 206.169 234.643 233.149 206.992 249.939C206.512 248.831 205.822 247.783 205.402 246.66C204.497 244.214 204.309 242.341 203.163 240.18C202.298 238.545 201.06 236.012 200.077 235.123C198.981 234.136 195.55 232.959 193.909 232.634C192.825 232.421 191.666 232.596 190.507 232.428C188.03 232.069 183.171 231.196 181.551 229.392C181.083 228.873 180.86 228.059 180.349 227.476C179.346 226.321 177.767 225.548 176.498 224.532C174.079 222.591 171.77 219.925 169.283 217.918C168.023 216.897 166.82 215.667 165.565 214.935C164.827 214.502 162.911 214.486 162.394 213.646C161.708 212.535 160.275 211.167 160.119 210.198C159.905 208.892 162.021 207.103 161.65 205.968C161.333 205.005 159.851 204.857 159.314 204.125C158.006 202.344 158.678 200.836 158.934 198.922C159.019 198.292 158.991 197.333 159.133 196.845C159.382 195.973 160.295 195.458 160.685 194.477C160.903 193.927 160.836 192.948 161.104 192.183C161.676 190.546 163.129 189.536 163.155 188.216C163.176 187.14 161.805 182.233 160.88 180.741C160.347 179.875 159.215 179.376 158.593 178.595C157.489 177.212 156.793 175.535 155.171 176.092C154.17 176.435 153.817 177.768 153.396 178.673C153.541 179.652 153.948 180.629 153.062 181.226C151.71 182.142 150.491 180.327 148.579 180.36C147.817 180.372 146.716 180.738 146.22 180.683C144.765 180.523 143.757 178.807 142.184 178.518C140.87 178.282 139.977 178.795 139.002 178.097C138.515 177.558 138.37 176.352 138.028 175.53C136.318 175.155 134.088 172.425 132.173 172.226C130.903 172.091 129.216 172.681 127.675 172.658C126.949 172.647 126.354 172.523 125.623 172.595C124.72 172.678 123.849 172.945 123.092 172.828C120.076 172.38 117.329 168.676 114.136 169.795C112.775 170.269 111.864 171.969 110.616 172.36C109.377 172.749 106.988 172.439 105.204 172.22C103.351 171.992 101.434 172.158 99.8858 171.908C98.6337 171.706 97.5637 170.945 96.4908 170.832C95.6692 170.746 94.5985 171.027 93.919 170.939C92.9517 170.812 91.8023 170.249 90.5244 169.862C89.3123 169.497 87.9032 168.8 87.5789 167.93C87.2054 166.923 87.9127 165.737 87.701 164.721C87.0347 161.507 84.0073 160.013 81.9631 158.642C80.4472 157.623 78.8123 156.87 77.3262 155.953C77.1154 155.096 77.0666 154.945 76.7358 154.128C75.6654 153.603 74.6011 152.656 73.357 151.754C72.2337 150.941 70.347 150.293 69.7652 149.164C69.0492 147.776 69.4356 146.231 68.4141 144.988C66.7153 142.926 63.7583 145.049 65.193 148.035C65.5905 148.857 67.186 149.622 67.8308 150.357C68.4901 151.106 68.7676 152.213 69.4581 153.148C70.1214 154.043 71.4206 154.584 72.1385 155.601C73.2736 157.209 73.8789 159.138 74.7511 160.091C75.5231 160.937 77.4886 161.343 76.9448 162.842C75.784 163.496 74.906 162.415 73.9006 161.944C73.3398 161.683 71.5319 161.427 70.9939 160.574C70.5469 159.87 70.9013 158.616 70.3688 157.75C69.3221 156.054 65.5643 157.205 64.9383 155.315C64.5468 154.128 66.0734 153.484 65.7155 152.329C65.3189 151.068 63.2352 150.56 62.5161 149.612C61.8582 148.744 61.2981 147.203 60.726 145.868C60.185 144.616 59.8605 143.069 59.2364 142.169C58.6773 141.359 56.9222 140.562 55.8968 140.359C54.5406 140.091 53.7126 140.647 52.8481 139.896C52.0948 139.24 51.2217 137.644 50.8321 136.801C50.1349 135.293 49.7267 133.531 49.0963 131.886C48.4676 130.237 47.7747 128.685 47.4509 126.8C47.6928 125.331 48.6764 124.33 48.935 122.868C49.1159 121.852 48.8332 120.756 49.0558 119.664C49.4671 117.653 51.0547 115.408 51.9209 113.277C52.8554 110.982 53.694 108.801 53.9144 106.449C53.9963 105.613 54.3251 103.712 53.9109 102.852C53.3326 101.653 50.6166 101.381 50.3216 99.8279C50.1416 98.8649 51.4729 98.4534 51.5728 97.4139C51.623 96.8781 51.3792 95.5049 51.2078 94.9387C50.8206 93.6747 49.7266 92.5777 49.5471 91.1525C49.3922 89.9375 50.9604 88.923 49.6702 87.947C48.3909 86.9812 47.4393 89.403 46.2103 88.9092C45.0811 88.4525 45.86 87.2155 45.5012 85.8251C45.3582 85.2724 44.8057 84.7644 44.7333 84.3438C44.6247 83.7355 45.4511 82.3875 45.0198 82.0936C44.3517 81.6483 43.4424 80.609 42.3883 79.8844C53.2703 63.5381 68.1815 49.7228 86.2613 40.1123Z" fill="url(#paint0_linear_4020_625598)"/>
<path d="M58.4424 89.1542C66.1895 84.3532 73.3947 78.7038 79.9291 72.3075L79.9382 72.2986L79.9472 72.2896C84.7258 67.5202 88.3678 61.7083 90.599 55.298L90.6094 55.2681L90.6191 55.2379C94.7114 42.4973 90.0434 27.2542 75.9762 22.6822L75.963 22.6779L75.9498 22.6738C68.9565 20.482 61.7331 23.058 56.1766 26.8353C50.6204 23.0535 43.3938 20.4767 36.3995 22.6744L36.3872 22.6782L36.3749 22.6822C22.3026 27.2559 17.6712 42.5033 21.7616 55.2379L21.7722 55.2709L21.7837 55.3036C24.0332 61.7199 27.697 67.5324 32.4983 72.2952L32.5036 72.3005L32.5089 72.3057C39.0329 78.7046 46.2334 84.3515 53.9795 89.1432L54.7327 89.6536L56.1787 90.6336L57.6409 89.678L58.4424 89.1542Z" fill="#5D54E6" stroke="#E7E5FB" stroke-width="5.24901"/>
</g>
<defs>
<linearGradient id="paint0_linear_4020_625598" x1="27.3189" y1="75.2334" x2="293.471" y2="285.172" gradientUnits="userSpaceOnUse">
<stop stop-color="#5D54E6"/>
<stop offset="1" stop-color="#5D54E6" stop-opacity="0"/>
</linearGradient>
<clipPath id="clip0_4020_625598">
<rect width="290" height="290" fill="white"/>
</clipPath>
</defs>
</svg>
