<svg width="64" height="64" viewBox="0 0 64 64" fill="none" xmlns="http://www.w3.org/2000/svg">
<g clip-path="url(#clip0_4020_625524)">
<path d="M51.6096 53.282C38.6341 64.5331 -2.7284 63.1306 4.3858 48.5655C11.5 34.0004 -3.0458 29.4679 1.50024 14.4997C6.04628 -0.468566 41.4042 -4.51359 57.273 12.556C68.1204 25.0659 64.5851 42.0309 51.6096 53.282Z" fill="url(#paint0_linear_4020_625524)"/>
<path fill-rule="evenodd" clip-rule="evenodd" d="M44.0033 10.6412C44.12 6.41119 47.2627 3.01453 51.1334 3L51.3794 3.00365C55.219 3.13221 58.3022 6.59435 58.3153 10.8558L58.2958 11.2574C58.1627 13.2607 57.5015 15.1809 56.3857 16.787C55.0006 18.8249 53.3007 20.5784 51.3638 21.9672L51.2796 22.037C51.2096 22.1038 51.1057 22.1038 51.0357 22.037L50.9491 21.9655C49.6489 21.0408 48.4502 19.9536 47.3811 18.7305C45.2843 16.2928 44.0448 13.614 44 11.0141L44.0033 10.6412ZM51.0001 13C49.3432 13 48.0001 11.6569 48.0001 10C48.0001 8.34315 49.3432 7 51.0001 7C52.6569 7 54.0001 8.34315 54.0001 10C54.0001 11.6569 52.6569 13 51.0001 13Z" fill="#5D54E6"/>
<path d="M25.797 24.2108L51 22H20.3958C18.3927 22 17.6334 24.6178 19.3257 25.6896L39.3378 38.364C40.8547 39.3246 40.4354 41.6426 38.6782 42.011L14.4719 47.0865C13.3852 47.3144 12.6921 48.3838 12.928 49.4688L14.4946 56.675C14.7584 57.8887 16.0532 58.5709 17.2035 58.1023L51.5973 44.09C53.1588 43.4538 53.2807 41.2895 51.8004 40.482L25.4056 26.0849C24.5364 25.6108 24.8108 24.2973 25.797 24.2108Z" fill="#5DF1CF"/>
<path fill-rule="evenodd" clip-rule="evenodd" d="M4.00508 41.0306C4.19257 34.2344 9.24178 28.7771 15.4607 28.7538L15.8561 28.7597C22.025 28.9662 26.9786 34.5287 26.9998 41.3754L26.9683 42.0208C26.7545 45.2393 25.6922 48.3246 23.8996 50.905C21.674 54.1792 18.9429 56.9965 15.831 59.2279L15.6957 59.34C15.5832 59.4473 15.4164 59.4473 15.3039 59.34L15.1646 59.2251C13.0757 57.7394 11.1498 55.9927 9.432 54.0276C6.06317 50.111 4.07181 45.807 3.99976 41.6298L4.00508 41.0306ZM15.3298 46.0184C12.0521 46.0184 9.39507 43.3613 9.39507 40.0837C9.39507 36.806 12.0521 34.149 15.3298 34.149C18.6074 34.149 21.2645 36.806 21.2645 40.0837C21.2645 43.3613 18.6074 46.0184 15.3298 46.0184Z" fill="#5D54E6"/>
</g>
<defs>
<linearGradient id="paint0_linear_4020_625524" x1="14.1366" y1="10.2752" x2="79.4941" y2="56.7125" gradientUnits="userSpaceOnUse">
<stop stop-color="#F1F1F1"/>
<stop offset="1" stop-color="#F1F1F1" stop-opacity="0"/>
</linearGradient>
<clipPath id="clip0_4020_625524">
<rect width="64" height="64" fill="white"/>
</clipPath>
</defs>
</svg>
