<svg width="64" height="64" viewBox="0 0 64 64" fill="none" xmlns="http://www.w3.org/2000/svg">
<g clip-path="url(#clip0_4020_625682)">
<path d="M46.8775 57.6573C32.2026 66.1298 4.43973 61.7523 4.96545 46.427C5.49117 31.1017 26.659 39.8483 21.7477 14.1313C16.8365 -11.5856 49.6352 1.07044 58.1078 15.7453C66.5803 30.4201 61.5523 49.1848 46.8775 57.6573Z" fill="url(#paint0_linear_4020_625682)"/>
<rect x="16" y="12" width="33" height="36" fill="url(#paint1_linear_4020_625682)"/>
<rect x="13.5083" y="31.2734" width="38.6233" height="5.75361" transform="rotate(-30 13.5083 31.2734)" fill="white"/>
<rect x="15.8101" y="37.3491" width="38.6233" height="1.09893" transform="rotate(-30 15.8101 37.3491)" fill="white"/>
<path d="M51.492 49.0429V28.9979V18.9558V11.9351C51.492 10.8546 50.6225 9.97949 49.5491 9.97949H15.4512C14.3777 9.97949 13.5083 10.8546 13.5083 11.9351V18.9558V28.9979V49.0429V50.2652H20.7893H44.211H51.492V49.0429ZM17.5301 45.8162V41.6116C23.3539 41.6116 24.7868 45.8162 24.7868 45.8162H17.5301ZM32.369 33.9211C31.9125 33.4567 31.2907 33.1975 30.6398 33.1975H17.5252L17.5738 14.0814H47.4167V36.6101V38.6585H37.0222L32.369 33.9211ZM40.1697 45.8162C40.1697 45.8162 41.6026 41.6116 47.4264 41.6116V45.8162H40.1697Z" fill="url(#paint2_linear_4020_625682)"/>
<path d="M44 53.7753C44 55.0045 44.8359 56 45.8679 56H49.1321C50.1641 56 51 55.0045 51 53.7753V51H44V53.7753Z" fill="#5D54E6"/>
<path d="M14 53.7753C14 55.0045 14.8359 56 15.8679 56H19.1321C20.1641 56 21 55.0045 21 53.7753V51H14V53.7753Z" fill="#5D54E6"/>
<path d="M13 29V16.7194C12.4125 16.4151 11.7188 16.1767 10.8937 16.0296C9.91875 15.8571 9 16.4607 9 17.2673V24.9724C9 26.9507 10.7125 28.5993 13 29Z" fill="#5D54E6"/>
<path d="M54.5797 16.0296C53.9656 16.1767 53.4406 16.4151 53 16.7194V29C54.7156 28.5993 56 26.9507 56 24.9775V17.2673C56 16.4607 55.3109 15.8571 54.5797 16.0296Z" fill="#5D54E6"/>
</g>
<defs>
<linearGradient id="paint0_linear_4020_625682" x1="-11" y1="2.50006" x2="60.8752" y2="53.9248" gradientUnits="userSpaceOnUse">
<stop stop-color="#F1F1F1" stop-opacity="0"/>
<stop offset="1" stop-color="#F1F1F1"/>
</linearGradient>
<linearGradient id="paint1_linear_4020_625682" x1="32.5" y1="12" x2="32.5" y2="48" gradientUnits="userSpaceOnUse">
<stop stop-color="#75FBDC"/>
<stop offset="1" stop-color="#D8F3ED"/>
</linearGradient>
<linearGradient id="paint2_linear_4020_625682" x1="32.5001" y1="9.97949" x2="32.5001" y2="50.2652" gradientUnits="userSpaceOnUse">
<stop stop-color="#3F37C9"/>
<stop offset="1" stop-color="#7D75F9"/>
</linearGradient>
<clipPath id="clip0_4020_625682">
<rect width="64" height="64" fill="white"/>
</clipPath>
</defs>
</svg>
