<svg width="64" height="64" viewBox="0 0 64 64" fill="none" xmlns="http://www.w3.org/2000/svg">
<g clip-path="url(#clip0_4020_625510)">
<path d="M46.8776 57.6572C32.2027 66.1297 4.43983 61.7522 4.96555 46.4269C5.49126 31.1017 5.41125 40.2167 0.500001 14.4998C-4.41125 -11.2172 49.6353 1.07037 58.1079 15.7452C66.5804 30.4201 61.5524 49.1847 46.8776 57.6572Z" fill="url(#paint0_linear_4020_625510)"/>
<rect x="15" y="19" width="32" height="14" fill="url(#paint1_linear_4020_625510)"/>
<rect x="9" y="46" width="45" height="7" fill="#8580DF"/>
<rect width="45" height="5" transform="matrix(-1 0 0 1 54 36)" fill="#8580DF"/>
<path d="M54 45H12.5C10.0147 45 8 47.0147 8 49.5V49.5C8 51.9853 10.0147 54 12.5 54H54" stroke="#5D54E6" stroke-width="2" stroke-linecap="round"/>
<path d="M9 35H51.5C53.433 35 55 36.567 55 38.5V38.5C55 40.433 53.433 42 51.5 42H9" stroke="#5D54E6" stroke-width="2" stroke-linecap="round"/>
<path d="M30.7187 10.0824L5.27403 17.5404C4.31572 17.8213 4.31572 19.1787 5.27403 19.4596L30.7187 26.9176C30.9024 26.9714 31.0976 26.9714 31.2813 26.9176L56.726 19.4596C57.6843 19.1787 57.6843 17.8213 56.726 17.5404L31.2813 10.0824C31.0976 10.0286 30.9024 10.0286 30.7187 10.0824Z" fill="#5D54E6" stroke="#5D54E6" stroke-linecap="round"/>
<path d="M32 17L43.5 22V35" stroke="#5DF1CF"/>
<path d="M39.9905 38.4592L43.5 33L46.6451 38.5039C47.026 39.1705 46.5446 40 45.7768 40H40.8317C40.0405 40 39.5627 39.1248 39.9905 38.4592Z" fill="#5DF1CF"/>
<path d="M17 52V46H22V52L19.5 49.5L17 52Z" fill="white"/>
</g>
<defs>
<linearGradient id="paint0_linear_4020_625510" x1="-16" y1="-11.0002" x2="60.8752" y2="53.9245" gradientUnits="userSpaceOnUse">
<stop stop-color="#F1F1F1" stop-opacity="0"/>
<stop offset="1" stop-color="#F1F1F1"/>
</linearGradient>
<linearGradient id="paint1_linear_4020_625510" x1="31" y1="13" x2="31" y2="33" gradientUnits="userSpaceOnUse">
<stop stop-color="#6E68E3"/>
<stop offset="1" stop-color="#9A95E6"/>
</linearGradient>
<clipPath id="clip0_4020_625510">
<rect width="64" height="64" fill="white"/>
</clipPath>
</defs>
</svg>
