<svg width="64" height="64" viewBox="0 0 64 64" fill="none" xmlns="http://www.w3.org/2000/svg">
<g clip-path="url(#clip0_4020_625538)">
<path d="M64.0504 36.1965C64.5314 20.5605 46.688 -0.173784 32.8657 6.89881C19.0434 13.9714 37.619 27.4354 11.5402 34.5809C-14.5386 41.7265 13.4197 62.977 31.1236 63.5217C48.8274 64.0664 63.5693 51.8325 64.0504 36.1965Z" fill="url(#paint0_linear_4020_625538)"/>
<path d="M44 19C44 10.7285 35.7003 4 25.5 4C15.2997 4 7.00006 10.7285 7.00006 19C7.00006 22.5763 8.53461 25.9642 11.3466 28.6664L7.37395 32.0843C7.04679 32.365 6.91827 32.845 7.05263 33.2779C7.187 33.7107 7.55898 34 7.97377 34H25.5001C35.7003 33.9999 44 27.2713 44 19Z" fill="url(#paint1_linear_4020_625538)"/>
<path d="M28.75 13C26.8548 13 25.6372 14.4028 25 15.6632C24.3628 14.4028 23.1452 13 21.25 13C18.8449 13 17 15.0837 17 17.8474C17 20.8441 19.3114 22.8849 22.7629 25.9748C24.453 27.4864 24.5616 27.6013 25 28C25.3578 27.6746 25.5558 27.4785 27.2371 25.9748C30.6886 22.8849 33 20.8441 33 17.8474C33 15.0838 31.1551 13 28.75 13Z" fill="white"/>
<path d="M20 44C20 35.7285 28.2997 29 38.5 29C48.7003 29 56.9999 35.7285 56.9999 44C56.9999 47.5763 55.4654 50.9642 52.6534 53.6664L56.6261 57.0843C56.9532 57.365 57.0817 57.845 56.9474 58.2779C56.813 58.7107 56.441 59 56.0262 59H38.4999C28.2997 58.9999 20 52.2713 20 44Z" fill="#5DF1CF"/>
<path fill-rule="evenodd" clip-rule="evenodd" d="M38 52C42.4183 52 46 48.4183 46 44C46 39.5817 42.4183 36 38 36C33.5817 36 30 39.5817 30 44C30 48.4183 33.5817 52 38 52ZM35.7618 41.2949C35.7618 41.6355 35.6141 41.9696 35.3572 42.2105C35.1004 42.4513 34.7441 42.5899 34.3809 42.5899C34.0177 42.5899 33.6615 42.4513 33.4046 42.2105C33.1471 41.9696 33 41.6355 33 41.2949C33 40.9544 33.1471 40.6203 33.4046 40.3794C33.6615 40.1386 34.017 40 34.3809 40C34.7441 40 35.1004 40.1386 35.3572 40.3794C35.6141 40.6203 35.7618 40.9544 35.7618 41.2949ZM34.4849 45.6914H41.5153C41.9342 45.6914 42.3119 45.928 42.4723 46.291C42.6325 46.6539 42.5439 47.0716 42.2477 47.3494C41.1132 48.4132 39.6046 48.9992 38.0002 48.9992C36.3957 48.9992 34.8872 48.4132 33.7526 47.3494C33.4564 47.0716 33.3678 46.6539 33.5281 46.291C33.6883 45.928 34.066 45.6914 34.4849 45.6914ZM41.619 40C41.2558 40 40.8995 40.1386 40.6426 40.3794C40.3858 40.6203 40.238 40.9537 40.238 41.2949C40.238 41.6355 40.3858 41.9696 40.6426 42.2105C40.8995 42.4513 41.2558 42.5899 41.619 42.5899C41.9821 42.5899 42.3384 42.4513 42.5953 42.2105C42.8528 41.9696 42.9999 41.6355 42.9999 41.2949C42.9999 40.9544 42.8528 40.6203 42.5953 40.3794C42.3384 40.1386 41.9828 40 41.619 40Z" fill="white"/>
</g>
<defs>
<linearGradient id="paint0_linear_4020_625538" x1="3.70427" y1="36.1211" x2="66.823" y2="52.2252" gradientUnits="userSpaceOnUse">
<stop stop-color="#F1F1F1" stop-opacity="0"/>
<stop offset="1" stop-color="#F1F1F1"/>
</linearGradient>
<linearGradient id="paint1_linear_4020_625538" x1="12.2857" y1="8.77273" x2="38.0442" y2="29.7927" gradientUnits="userSpaceOnUse">
<stop stop-color="#3F37C9"/>
<stop offset="1" stop-color="#817BE7"/>
</linearGradient>
<clipPath id="clip0_4020_625538">
<rect width="64" height="64" fill="white"/>
</clipPath>
</defs>
</svg>
