<svg viewBox="0 0 499 250" fill="none" xmlns="http://www.w3.org/2000/svg">
<g clip-path="url(#clip0_4020_625642)">
<path d="M121.751 243.256C116.495 246.29 109.737 244.504 107.074 239.051C96.5133 217.424 90.9943 193.628 90.9998 169.464C91.006 141.63 98.3422 114.288 112.27 90.1884C126.198 66.0891 146.227 46.0827 170.342 32.1816C194.457 18.2805 221.807 10.975 249.642 10.9999C277.476 11.0249 304.814 18.3794 328.903 32.3237C352.993 46.268 372.986 66.3103 386.871 90.4345C400.756 114.559 408.043 141.914 408 169.748C407.962 193.912 402.4 217.698 391.8 239.306C389.127 244.754 382.366 246.528 377.116 243.485C371.866 240.441 370.121 233.733 372.733 228.255C381.431 210.011 385.991 190.017 386.023 169.714C386.06 145.739 379.783 122.177 367.824 101.397C355.864 80.6182 338.643 63.3549 317.894 51.344C297.144 39.3332 273.597 32.9984 249.622 32.9769C225.647 32.9554 202.089 39.248 181.318 51.2216C160.547 63.1952 143.295 80.4277 131.298 101.185C119.301 121.943 112.982 145.494 112.977 169.469C112.972 189.773 117.496 209.774 126.162 228.034C128.764 233.517 127.007 240.221 121.751 243.256Z" fill="#F0F1F7"/>
<path d="M121.751 243.256C116.495 246.29 109.737 244.503 107.074 239.05C90.5356 205.186 86.5547 166.403 96.0802 129.692C106.529 89.4235 132.39 54.8775 168.084 33.5082C203.778 12.139 246.442 5.6597 286.871 15.4686C323.728 24.411 356.033 46.2371 378.072 76.8088C381.62 81.7318 380.003 88.5325 374.846 91.7319C369.69 94.9314 362.95 93.3129 359.346 88.4299C340.39 62.7424 312.939 44.4079 281.689 36.826C246.866 28.3771 210.117 33.958 179.373 52.3643C148.628 70.7706 126.352 100.527 117.353 135.211C109.276 166.337 112.472 199.192 126.161 228.034C128.763 233.516 127.007 240.221 121.751 243.256Z" fill="url(#paint0_linear_4020_625642)"/>
<circle cx="249.5" cy="169.5" r="20.5" fill="#F0F1F7"/>
<path d="M331.448 114.74L244.916 160.919C239.602 163.755 237.889 170.554 241.226 175.569C244.457 180.425 251.095 181.588 255.784 178.119L334.644 119.798C337.633 117.588 334.728 112.989 331.448 114.74Z" fill="#7C76EB"/>
<path d="M215.14 243.373C212.501 243.373 210.324 242.589 208.606 241.021C206.889 239.428 206.03 237.412 206.03 234.973C206.03 231.887 207.287 229.659 209.801 228.291C208.158 227.021 207.337 225.267 207.337 223.027C207.337 221.011 208.059 219.343 209.502 218.024C210.971 216.705 212.85 216.045 215.14 216.045C217.454 216.045 219.333 216.705 220.777 218.024C222.245 219.318 222.98 220.986 222.98 223.027C222.98 225.267 222.158 227.021 220.516 228.291C223.029 229.659 224.286 231.887 224.286 234.973C224.286 237.437 223.428 239.453 221.71 241.021C220.018 242.589 217.828 243.373 215.14 243.373ZM215.14 239.528C216.658 239.528 217.865 239.08 218.761 238.184C219.657 237.288 220.105 236.193 220.105 234.899C220.105 233.579 219.657 232.484 218.761 231.613C217.865 230.717 216.67 230.269 215.177 230.269C213.659 230.269 212.452 230.717 211.556 231.613C210.66 232.484 210.212 233.579 210.212 234.899C210.212 236.193 210.66 237.288 211.556 238.184C212.476 239.08 213.671 239.528 215.14 239.528ZM215.14 226.797C216.284 226.797 217.205 226.461 217.902 225.789C218.624 225.092 218.985 224.259 218.985 223.288C218.985 222.267 218.636 221.434 217.94 220.787C217.243 220.115 216.309 219.779 215.14 219.779C214.02 219.779 213.099 220.115 212.377 220.787C211.68 221.459 211.332 222.292 211.332 223.288C211.332 224.259 211.692 225.092 212.414 225.789C213.136 226.461 214.044 226.797 215.14 226.797ZM230.002 243V220.563H224.663L227.799 216.493H234.109V243H230.002ZM243.663 245.64L252.927 225.96H255.351L246.087 245.64H243.663ZM262.112 243V228.576H258.68L260.696 225.96H264.752V243H262.112ZM277.848 241.416C276.696 242.632 275.216 243.24 273.408 243.24C271.6 243.24 270.12 242.632 268.968 241.416C267.816 240.184 267.24 238.608 267.24 236.688V232.224C267.24 230.304 267.816 228.736 268.968 227.52C270.12 226.288 271.6 225.672 273.408 225.672C275.216 225.672 276.696 226.288 277.848 227.52C279.016 228.736 279.6 230.304 279.6 232.224V236.688C279.6 238.608 279.016 240.184 277.848 241.416ZM273.408 240.648C274.48 240.648 275.336 240.296 275.976 239.592C276.632 238.888 276.96 237.92 276.96 236.688V232.224C276.96 230.992 276.632 230.024 275.976 229.32C275.336 228.616 274.48 228.264 273.408 228.264C272.352 228.264 271.496 228.616 270.84 229.32C270.2 230.024 269.88 230.992 269.88 232.224V236.688C269.88 237.92 270.2 238.888 270.84 239.592C271.496 240.296 272.352 240.648 273.408 240.648ZM291.912 241.416C290.76 242.632 289.28 243.24 287.472 243.24C285.664 243.24 284.184 242.632 283.032 241.416C281.88 240.184 281.304 238.608 281.304 236.688V232.224C281.304 230.304 281.88 228.736 283.032 227.52C284.184 226.288 285.664 225.672 287.472 225.672C289.28 225.672 290.76 226.288 291.912 227.52C293.08 228.736 293.664 230.304 293.664 232.224V236.688C293.664 238.608 293.08 240.184 291.912 241.416ZM287.472 240.648C288.544 240.648 289.4 240.296 290.04 239.592C290.696 238.888 291.024 237.92 291.024 236.688V232.224C291.024 230.992 290.696 230.024 290.04 229.32C289.4 228.616 288.544 228.264 287.472 228.264C286.416 228.264 285.56 228.616 284.904 229.32C284.264 230.024 283.944 230.992 283.944 232.224V236.688C283.944 237.92 284.264 238.888 284.904 239.592C285.56 240.296 286.416 240.648 287.472 240.648Z" fill="#5D54E6"/>
<circle cx="249.5" cy="169.5" r="5.5" fill="#F0F1F7"/>
<path fill-rule="evenodd" clip-rule="evenodd" d="M371.996 171.023L365.996 170.974C365.998 170.649 366 170.325 366 170C366 169.675 365.998 169.351 365.996 169.026L371.996 168.977C371.998 169.318 372 169.659 372 170C372 170.341 371.998 170.682 371.996 171.023ZM371.346 157.237L365.377 157.852C365.311 157.207 365.239 156.564 365.162 155.922L371.119 155.208C371.2 155.883 371.276 156.559 371.346 157.237ZM369.162 143.612L363.301 144.893C363.163 144.262 363.02 143.632 362.872 143.005L368.711 141.626C368.867 142.286 369.017 142.948 369.162 143.612ZM365.46 130.323L359.78 132.257C359.572 131.647 359.36 131.039 359.142 130.433L364.788 128.404C365.017 129.041 365.241 129.681 365.46 130.323ZM360.283 117.539L354.858 120.101C354.582 119.517 354.301 118.936 354.016 118.358L359.399 115.706C359.698 116.314 359.993 116.925 360.283 117.539ZM353.7 105.416L348.596 108.571C348.257 108.022 347.913 107.475 347.564 106.932L352.615 103.693C352.981 104.264 353.343 104.839 353.7 105.416ZM345.801 94.1065L341.082 97.8116C340.683 97.3039 340.28 96.7995 339.873 96.2986L344.531 92.5162C344.959 93.0427 345.382 93.5728 345.801 94.1065ZM336.691 83.7484L332.413 87.956C331.96 87.4958 331.504 87.0393 331.044 86.5866L335.251 82.3092C335.735 82.785 336.215 83.2647 336.691 83.7484ZM326.484 74.4686L322.701 79.1263C322.2 78.7195 321.696 78.3167 321.188 77.9181L324.893 73.1988C325.427 73.6178 325.957 74.0411 326.484 74.4686ZM315.306 66.3846L312.068 71.4353C311.524 71.0869 310.978 70.7429 310.429 70.4033L313.583 65.2997C314.161 65.6567 314.735 66.0184 315.306 66.3846ZM303.294 59.6012L300.642 64.9833C300.064 64.6983 299.483 64.4179 298.899 64.1422L301.461 58.7168C302.075 59.0067 302.686 59.3015 303.294 59.6012ZM290.596 54.2113L288.567 59.8579C287.961 59.6402 287.353 59.4274 286.742 59.2194L288.677 53.5398C289.319 53.7585 289.958 53.9824 290.596 54.2113ZM277.374 50.2888L275.995 56.1282C275.367 55.98 274.738 55.8369 274.107 55.6989L275.388 49.8374C276.052 49.9825 276.714 50.133 277.374 50.2888ZM263.792 47.8803L263.078 53.8377C262.436 53.7608 261.793 53.689 261.148 53.6226L261.763 47.6542C262.441 47.7241 263.117 47.7995 263.792 47.8803ZM250.022 47.0042L249.973 53.004C249.649 53.0013 249.325 53 249 53C248.675 53 248.35 53.0013 248.026 53.004L247.977 47.0042C248.318 47.0014 248.659 47 249 47C249.341 47 249.682 47.0014 250.022 47.0042ZM236.236 47.6542L236.852 53.6226C236.207 53.689 235.564 53.7608 234.922 53.8377L234.208 47.8803C234.882 47.7995 235.559 47.7241 236.236 47.6542ZM222.612 49.8374L223.893 55.6989C223.262 55.8369 222.632 55.98 222.005 56.1282L220.626 50.2888C221.286 50.133 221.948 49.9825 222.612 49.8374ZM209.323 53.5398L211.257 59.2194C210.647 59.4274 210.038 59.6402 209.433 59.8579L207.404 54.2113C208.041 53.9824 208.681 53.7585 209.323 53.5398ZM196.539 58.7168L199.101 64.1422C198.517 64.4179 197.936 64.6983 197.357 64.9833L194.705 59.6012C195.314 59.3015 195.925 59.0067 196.539 58.7168ZM184.416 65.2997L187.571 70.4033C187.022 70.7429 186.475 71.0869 185.932 71.4353L182.693 66.3846C183.264 66.0184 183.839 65.6567 184.416 65.2997ZM173.106 73.1988L176.811 77.9181C176.304 78.3167 175.799 78.7195 175.298 79.1263L171.516 74.4686C172.042 74.0411 172.573 73.6178 173.106 73.1988ZM162.748 82.3092L166.956 86.5866C166.496 87.0393 166.039 87.4958 165.586 87.956L161.309 83.7484C161.785 83.2647 162.265 82.785 162.748 82.3092ZM153.468 92.5162L158.126 96.2986C157.719 96.7995 157.316 97.3039 156.918 97.8116L152.199 94.1065C152.618 93.5728 153.041 93.0427 153.468 92.5162ZM145.384 103.693L150.435 106.932C150.087 107.475 149.743 108.022 149.403 108.571L144.299 105.416C144.656 104.839 145.018 104.264 145.384 103.693ZM138.601 115.706L143.983 118.358C143.698 118.936 143.418 119.517 143.142 120.101L137.717 117.539C138.006 116.925 138.301 116.314 138.601 115.706ZM133.211 128.404L138.858 130.433C138.64 131.039 138.427 131.647 138.219 132.258L132.54 130.323C132.758 129.681 132.982 129.041 133.211 128.404ZM129.289 141.626L135.128 143.005C134.98 143.632 134.837 144.262 134.699 144.893L128.837 143.612C128.982 142.948 129.133 142.286 129.289 141.626ZM126.88 155.208L132.837 155.922C132.761 156.564 132.689 157.207 132.622 157.852L126.654 157.237C126.724 156.559 126.799 155.883 126.88 155.208ZM126.004 168.977C126.001 169.318 126 169.659 126 170C126 170.341 126.001 170.682 126.004 171.023L132.004 170.974C132.001 170.649 132 170.325 132 170C132 169.675 132.001 169.351 132.004 169.026L126.004 168.977ZM126.654 182.763L132.622 182.148C132.689 182.793 132.761 183.436 132.837 184.078L126.88 184.792C126.799 184.117 126.724 183.441 126.654 182.763ZM128.837 196.388L134.699 195.107C134.837 195.738 134.98 196.368 135.128 196.995L129.289 198.374C129.133 197.714 128.982 197.052 128.837 196.388ZM132.54 209.677L138.219 207.742C138.427 208.353 138.64 208.961 138.858 209.567L133.211 211.596C132.982 210.959 132.758 210.319 132.54 209.677ZM137.717 222.461L143.142 219.899C143.418 220.483 143.698 221.064 143.983 221.642L138.601 224.294C138.301 223.686 138.006 223.075 137.717 222.461ZM144.299 234.584L149.403 231.429C149.743 231.978 150.087 232.525 150.435 233.068L145.384 236.307C145.018 235.736 144.656 235.161 144.299 234.584ZM352.615 236.307L347.564 233.068C347.913 232.525 348.257 231.978 348.596 231.429L353.7 234.584C353.343 235.161 352.981 235.736 352.615 236.307ZM359.399 224.294L354.016 221.642C354.301 221.064 354.582 220.483 354.858 219.899L360.283 222.461C359.993 223.075 359.698 223.686 359.399 224.294ZM364.788 211.596L359.142 209.567C359.36 208.961 359.572 208.353 359.78 207.742L365.46 209.677C365.241 210.319 365.017 210.959 364.788 211.596ZM368.711 198.374L362.872 196.995C363.02 196.368 363.163 195.738 363.301 195.107L369.162 196.388C369.017 197.052 368.867 197.714 368.711 198.374ZM371.119 184.792L365.162 184.078C365.239 183.436 365.311 182.793 365.377 182.148L371.346 182.763C371.276 183.441 371.2 184.117 371.119 184.792Z" fill="#E2E6EC"/>
</g>
<defs>
<linearGradient id="paint0_linear_4020_625642" x1="249.5" y1="10.9999" x2="249.5" y2="328" gradientUnits="userSpaceOnUse">
<stop stop-color="#00E5BC"/>
<stop offset="1" stop-color="#5DF1CF"/>
</linearGradient>
<clipPath id="clip0_4020_625642">
<rect width="499" height="250" fill="white"/>
</clipPath>
</defs>
</svg>
