<svg width="64" height="64" viewBox="0 0 64 64" fill="none" xmlns="http://www.w3.org/2000/svg">
<g clip-path="url(#clip0_4020_625695)">
<path d="M51.6096 53.282C38.6341 64.5331 -2.7284 63.1306 4.3858 48.5655C11.5 34.0004 -3.0458 29.4679 1.50024 14.4997C6.04628 -0.468566 41.4042 -4.51359 57.273 12.556C68.1204 25.0659 64.5851 42.0309 51.6096 53.282Z" fill="url(#paint0_linear_4020_625695)"/>
<rect x="8" y="17" width="6" height="13" fill="#6E67E3"/>
<path fill-rule="evenodd" clip-rule="evenodd" d="M3.00019 35.1376L17.6389 19.3508L32.2776 35.1376H32.2778V35.1378V58.0543H5C3.89543 58.0543 3 57.1588 3 56.0543V35.1378V35.1376H3.00019Z" fill="url(#paint1_linear_4020_625695)"/>
<rect x="32.2778" y="35.1376" width="21.7222" height="22.9166" fill="#6E67E3"/>
<rect x="36.0554" y="41.249" width="6.61111" height="10.6944" fill="white"/>
<rect x="43.6108" y="41.249" width="6.61111" height="10.6944" fill="white"/>
<path d="M12.9165 47.4986C12.9165 44.8906 15.0307 42.7764 17.6387 42.7764C20.2467 42.7764 22.3609 44.8906 22.3609 47.4986V58.0541H12.9165V47.4986Z" fill="white"/>
<path d="M32.2778 35.1378L17.6389 19.3508H39.3611L54 35.1378H32.2778Z" fill="#6E67E3"/>
<circle cx="18" cy="33" r="5" fill="white"/>
<path fill-rule="evenodd" clip-rule="evenodd" d="M50 29C56.6274 29 62 23.6274 62 17C62 10.3726 56.6274 5 50 5C43.3726 5 38 10.3726 38 17C38 23.6274 43.3726 29 50 29ZM49.3946 25.1941V27H50.6054V25.2167C51.9507 25.1415 53.0194 24.7276 53.8117 23.9752C54.6039 23.2077 55 22.1467 55 20.7923C55 19.6035 54.6861 18.6253 54.0583 17.8578C53.4305 17.0752 52.5037 16.4432 51.278 15.9616L50.6054 15.6907V11.2212C51.4574 11.477 51.9656 12.0715 52.13 13.0045H54.5964C54.5964 11.8909 54.2152 10.9503 53.4529 10.1828C52.6906 9.4003 51.7414 8.93378 50.6054 8.7833V7H49.3946V8.73815C48.0942 8.82844 47.0404 9.25734 46.2332 10.0248C45.441 10.7773 45.0448 11.7856 45.0448 13.0497C45.0448 15.2167 46.2407 16.7592 48.6323 17.6772L49.3946 17.9707V22.7562C48.2586 22.4853 47.6158 21.7103 47.4664 20.4311H45C45.0299 21.8006 45.4559 22.9067 46.278 23.7494C47.1001 24.5771 48.139 25.0587 49.3946 25.1941ZM50.6054 18.4673C51.8909 19.0391 52.5336 19.8367 52.5336 20.86C52.5336 21.3868 52.3543 21.8307 51.9955 22.1919C51.6368 22.538 51.1734 22.7487 50.6054 22.8239V18.4673ZM49.3946 15.2167C48.139 14.69 47.5112 13.9601 47.5112 13.0271C47.5112 12.5305 47.6831 12.1091 48.0269 11.763C48.3707 11.4169 48.8266 11.2062 49.3946 11.1309V15.2167Z" fill="#00E5BC"/>
</g>
<defs>
<linearGradient id="paint0_linear_4020_625695" x1="14.1366" y1="10.2752" x2="79.4941" y2="56.7125" gradientUnits="userSpaceOnUse">
<stop stop-color="#F1F1F1"/>
<stop offset="1" stop-color="#F1F1F1" stop-opacity="0"/>
</linearGradient>
<linearGradient id="paint1_linear_4020_625695" x1="17.6389" y1="19.3508" x2="16.5707" y2="72.0148" gradientUnits="userSpaceOnUse">
<stop stop-color="#7C76EB"/>
<stop offset="1" stop-color="#D8D6FF"/>
</linearGradient>
<clipPath id="clip0_4020_625695">
<rect width="64" height="64" fill="white"/>
</clipPath>
</defs>
</svg>
